<svg width="393" height="359" viewBox="0 0 393 359" fill="none" xmlns="http://www.w3.org/2000/svg">
<g clip-path="url(#clip0_58_29)">
<mask id="mask0_58_29" style="mask-type:luminance" maskUnits="userSpaceOnUse" x="55" y="33" width="555" height="359">
<path d="M55 33H610V392H55V33Z" fill="white"/>
</mask>
<g mask="url(#mask0_58_29)">
<path d="M129.389 223.946C128.519 224.623 127.53 224.964 126.459 224.964C124.573 224.964 123.446 223.47 123.446 220.969C123.446 218.652 124.501 217.153 126.139 217.153C127.406 217.153 127.851 217.628 128.318 218.62L128.466 218.929L130.304 218.164L130.232 217.869C129.802 216.016 128.38 214.956 126.33 214.956C123.232 214.956 121.15 217.423 121.15 221.1C121.15 224.84 123.184 227.161 126.459 227.161C127.929 227.161 129.359 226.686 130.488 225.816L130.725 225.634L129.735 223.679L129.389 223.946Z" fill="white"/>
<path d="M139.592 219.968H135.282V215.068H132.969V227.03H135.282V222.098H139.592V227.03H141.92V215.068H139.592V219.968Z" fill="white"/>
<path d="M154.321 222.673V215.067H152.006V222.496C152.006 224.168 151.34 224.916 149.845 224.916C148.362 224.916 147.699 224.168 147.699 222.496V215.067H145.388V222.673C145.388 225.512 147.019 227.143 149.862 227.143C152.695 227.143 154.321 225.512 154.321 222.673Z" fill="white"/>
<path d="M160.099 217.184H161.81C162.946 217.184 163.57 217.801 163.57 218.911C163.57 219.954 162.881 220.627 161.81 220.627H160.099V217.184ZM166.143 224.871C166.062 224.88 165.995 224.885 165.919 224.885C165.355 224.905 164.846 224.498 163.683 222.147C165.086 221.612 165.853 220.433 165.853 218.785C165.853 216.526 164.309 215.068 161.923 215.068H157.786V227.031H160.099V222.757H161.412C163.188 226.278 164.035 227.143 165.652 227.143C165.919 227.143 166.134 227.125 166.394 227.077L166.714 227.014L166.525 224.811L166.143 224.871Z" fill="white"/>
<path d="M171.341 217.184H173.053C174.188 217.184 174.813 217.801 174.813 218.911C174.813 219.954 174.124 220.627 173.053 220.627H171.341V217.184ZM171.341 222.757H172.654C174.43 226.278 175.278 227.143 176.893 227.143C177.16 227.143 177.376 227.125 177.637 227.077L177.957 227.014L177.768 224.811L177.386 224.871C177.305 224.88 177.238 224.885 177.16 224.885C176.589 224.905 176.087 224.498 174.926 222.147C176.328 221.612 177.095 220.433 177.095 218.785C177.095 216.526 175.552 215.068 173.166 215.068H169.029V227.031H171.341V222.757Z" fill="white"/>
<path d="M183.173 221.992L184.217 218.867L185.258 221.992H183.173ZM182.482 224.076H185.965L186.944 227.03H189.432L185.21 215.068H183.222L179 227.03H181.504L182.482 224.076Z" fill="white"/>
<path d="M195.039 224.965C193.871 224.965 192.796 224.44 192.178 223.952L191.828 223.671L190.856 225.635L191.089 225.817C192.19 226.671 193.616 227.143 195.101 227.143C197.575 227.143 199.112 225.849 199.112 223.765C199.112 221.423 197.255 220.714 195.762 220.145C194.452 219.643 193.648 219.293 193.648 218.398C193.648 217.585 194.15 217.152 195.101 217.152C196.066 217.152 196.629 217.564 197.103 218.612L197.246 218.934L199.089 218.165L199.022 217.87C198.598 216.042 197.165 214.955 195.182 214.955C192.856 214.955 191.351 216.314 191.351 218.416C191.351 220.82 193.206 221.529 194.694 222.098C195.961 222.582 196.734 222.922 196.734 223.781C196.734 224.074 196.734 224.965 195.039 224.965Z" fill="white"/>
<path d="M210.775 225.817L211.013 225.635L210.022 223.678L209.677 223.947C208.806 224.622 207.82 224.965 206.747 224.965C204.86 224.965 203.731 223.468 203.731 220.97C203.731 218.653 204.789 217.152 206.426 217.152C207.693 217.152 208.136 217.626 208.608 218.621L208.753 218.93L210.591 218.165L210.522 217.871C210.089 216.015 208.665 214.955 206.618 214.955C203.519 214.955 201.437 217.422 201.437 221.099C201.437 224.838 203.471 227.162 206.747 227.162C208.216 227.162 209.647 226.688 210.775 225.817Z" fill="white"/>
<path d="M218.023 217.135C220.647 217.135 221.197 219.246 221.197 221.019C221.197 222.818 220.647 224.964 218.023 224.964C215.383 224.964 214.83 222.818 214.83 221.019C214.83 219.246 215.383 217.135 218.023 217.135ZM218.023 227.145C221.345 227.145 223.491 224.754 223.491 221.049C223.491 217.347 221.345 214.956 218.023 214.956C214.637 214.956 212.534 217.289 212.534 221.049C212.534 224.81 214.637 227.145 218.023 227.145Z" fill="white"/>
<path d="M237.368 227.144C239.043 227.144 240.416 226.718 241.452 225.873L241.586 225.767V220.528H237.089V222.663H239.257V224.599C238.796 224.834 238.186 224.966 237.513 224.966C235.436 224.966 234.245 223.508 234.245 220.968C234.245 218.617 235.355 217.153 237.142 217.153C238.28 217.153 238.916 217.565 239.404 218.617L239.549 218.93L241.408 218.166L241.335 217.866C240.892 216.043 239.367 214.956 237.255 214.956C234.033 214.956 231.946 217.367 231.946 221.099C231.946 224.885 233.973 227.144 237.368 227.144Z" fill="white"/>
<path d="M246.964 217.184H248.676C249.809 217.184 250.435 217.801 250.435 218.911C250.435 219.954 249.747 220.627 248.676 220.627H246.964V217.184ZM253.006 224.871C252.928 224.88 252.861 224.885 252.783 224.885C252.239 224.905 251.709 224.498 250.548 222.147C251.951 221.612 252.716 220.433 252.716 218.785C252.716 216.526 251.173 215.068 248.789 215.068H244.652V227.031H246.964V222.757H248.277C250.053 226.278 250.901 227.143 252.515 227.143C252.783 227.143 252.997 227.125 253.257 227.077L253.58 227.014L253.388 224.811L253.006 224.871Z" fill="white"/>
<path d="M255.895 227.031H258.205V215.068H255.895V227.031Z" fill="white"/>
<path d="M263.981 215.068H261.669V227.031H268.945V224.914H263.981V215.068Z" fill="white"/>
<path d="M273.598 224.915V215.069H271.285V227.032H278.562V224.915H273.598Z" fill="white"/>
<path d="M156.814 239.377C156.19 238.737 155.951 238.232 155.951 237.581C155.951 236.552 156.824 236.397 157.342 236.397C157.849 236.397 158.701 236.547 158.701 237.516C158.701 238.221 157.955 238.776 156.814 239.377ZM157.102 244.323C156.034 244.323 155.421 243.828 155.421 242.965C155.421 242.449 155.617 242.027 156.068 241.59C156.655 242.062 157.346 242.564 158.13 243.13L158.832 243.641C158.291 244.088 157.699 244.323 157.102 244.323ZM162.032 243.225C162.58 242.308 162.988 241.284 163.333 240.413L163.474 240.063L161.288 239.306L161.177 239.658C160.878 240.604 160.574 241.343 160.235 241.947L159.788 241.636C159.291 241.29 158.814 240.963 158.388 240.643C160.002 239.791 160.917 238.626 160.917 237.392C160.917 235.483 159.507 234.249 157.326 234.249C155.179 234.249 153.735 235.614 153.735 237.648C153.735 238.661 154.027 239.485 154.672 240.27C153.62 241.01 153.108 241.931 153.108 243.075C153.108 245.118 154.624 246.437 156.973 246.437C158.418 246.437 159.618 245.963 160.638 244.986C161.12 245.362 162.052 246.119 162.292 246.331L162.598 246.605L163.879 244.735L163.635 244.523C163.133 244.084 162.594 243.648 162.032 243.225Z" fill="white"/>
<path d="M177.001 234.362L172.636 239.129V234.362H170.323V246.325H172.636V242.334L173.309 241.606C175.932 245.429 176.764 246.437 178.719 246.437C179 246.437 179.212 246.421 179.477 246.373L179.797 246.308L179.606 244.102L179.224 244.165C179.132 244.178 179.037 244.183 178.943 244.178C177.959 244.178 177.634 243.854 174.859 239.912L180.028 234.362H177.001Z" fill="white"/>
<path d="M187.099 241.288H185.014L186.055 238.161L187.099 241.288ZM185.06 234.362L180.838 246.326H183.344L184.323 243.372H187.804L188.783 246.326H191.273L187.05 234.362H185.06Z" fill="white"/>
<path d="M195.779 236.478H197.493C198.626 236.478 199.251 237.095 199.251 238.208C199.251 239.248 198.562 239.921 197.493 239.921H195.779V236.478ZM201.823 244.165C201.743 244.176 201.674 244.178 201.6 244.178C201.061 244.176 200.522 243.792 199.361 241.443C200.766 240.909 201.533 239.727 201.533 238.079C201.533 235.82 199.99 234.362 197.604 234.362H193.467V246.325H195.779V242.053H197.092C198.866 245.572 199.716 246.437 201.333 246.437C201.6 246.437 201.814 246.421 202.075 246.373L202.397 246.311L202.206 244.105L201.823 244.165Z" fill="white"/>
<path d="M209.695 241.288H207.611L208.654 238.161L209.695 241.288ZM207.659 234.362L203.435 246.326H205.941L206.922 243.372H210.4L211.382 246.326H213.872L209.647 234.362H207.659Z" fill="white"/>
<path d="M220.176 244.259C217.538 244.259 216.985 242.11 216.985 240.312C216.985 238.544 217.538 236.43 220.176 236.43C222.801 236.43 223.35 238.544 223.35 240.312C223.35 242.11 222.801 244.259 220.176 244.259ZM220.176 234.249C216.792 234.249 214.689 236.584 214.689 240.344C214.689 244.105 216.792 246.437 220.176 246.437C223.499 246.437 225.646 244.047 225.646 240.344C225.646 236.639 223.499 234.249 220.176 234.249Z" fill="white"/>
<path d="M234.057 234.362L229.69 239.129V234.362H227.379V246.325H229.69V242.334L230.365 241.606C232.988 245.429 233.82 246.437 235.775 246.437C236.054 246.437 236.268 246.421 236.533 246.373L236.853 246.308L236.662 244.102L236.282 244.165C236.19 244.178 236.1 244.183 235.999 244.178C235.015 244.178 234.69 243.854 231.915 239.912L237.084 234.362H234.057Z" fill="white"/>
<path d="M241.48 241.363H245.868V239.246H241.48V236.479H246.188V234.362H239.168V246.325H246.608V244.209H241.48V241.363Z" fill="white"/>
<path d="M263.284 155.191C267.391 155.191 269.959 152.54 269.959 148.428C269.959 144.322 267.391 141.667 263.284 141.667C259.172 141.667 256.519 144.322 256.519 148.428C256.519 152.54 259.172 155.191 263.284 155.191Z" fill="#BFD730"/>
<path d="M183.82 192.424C178.596 192.424 174.915 188.742 174.915 180.611C174.915 174.361 176.714 168.968 183.82 168.968C188.786 168.968 192.555 172.823 192.555 180.611C192.555 187.459 189.726 192.424 183.82 192.424ZM286.71 158.768C286.71 151.238 288.08 147.127 291.533 147.127C293.295 147.127 295.675 149.868 295.675 156.373C295.675 166.214 286.71 172.222 286.71 172.222V158.768ZM302.495 186.087C300.1 190.625 294.645 192.336 292.763 192.336C288.589 192.336 286.71 190.195 286.71 188.313V183.003C286.71 183.003 305.665 175.087 305.665 155.201C305.665 145.186 301.196 136.858 291.533 136.858C280.917 136.858 276.69 145.847 276.69 155.604V189.297C275.248 191.275 273.799 192.336 271.846 192.336C269.277 192.336 268.248 190.966 268.248 188.313V159.302H258.232V189.695C255.464 191.988 252.048 193.006 247.671 193.006C247.496 193.006 247.084 193.011 246.609 193.015H234.521C244.2 182.036 252.81 171.326 253.962 169.275C254.266 168.704 254.54 168.179 254.733 167.773C256.348 164.352 255.114 158.961 248.369 158.961H224.328C223.904 156.93 221.891 154.934 218.325 154.934C214.73 154.934 212.675 158.015 212.675 161.093C212.675 163.235 213.702 165.286 215.925 166.659C216.015 167.946 216.015 169.056 216.015 170.258C216.015 176.657 215.022 181.972 212.947 186.176C210.749 190.169 208.974 192.336 206.166 192.336C203.597 192.336 202.572 190.966 202.572 188.313V159.302H192.555V162.551C190.841 160.582 187.674 158.698 181.595 158.698C171.322 158.698 164.471 166.659 164.471 180.784C164.471 183.528 164.757 186.05 165.275 188.35C163.596 190.977 162.004 192.387 159.745 192.387C157.176 192.387 156.149 191.019 156.149 188.364C156.149 184.512 156.918 171.193 156.918 163.578C156.918 156.046 152.77 154.848 149.803 154.848H139.965C139.539 150.913 136.883 149.2 132.946 149.2C127.552 149.2 125.412 152.624 125.412 156.819C125.412 162.638 129.777 165.206 135.257 165.206H143.957C144.95 165.206 145.468 165.775 145.468 170.14V191.189C145.468 198.807 149.642 202.742 156.748 202.742C161.829 202.742 166.049 200.598 169.292 197.11C172.19 200.69 176.274 202.694 181.252 202.694C187.075 202.694 191.184 200.554 193.667 197.556C195.035 200.895 198.205 202.694 203.169 202.694C208.439 202.694 212.783 200.393 216.073 196.672L216.1 196.7C216.209 196.58 216.292 196.442 216.395 196.317C216.672 195.993 216.93 195.645 217.188 195.3C222.72 188.196 224.591 178.511 224.833 168.713L241.528 168.379C241.516 168.48 241.482 168.612 241.466 168.717C241.334 169.061 241.102 169.473 240.793 169.942C234.733 177.18 223.702 191.134 222.621 193.619C221.166 197.04 222.278 202.431 228.357 202.431C228.357 202.431 238.093 203.196 248.088 202.318C249.866 202.217 251.571 202.037 253.153 201.722C253.192 201.715 253.234 201.71 253.273 201.706C253.434 201.683 253.559 201.634 253.683 201.586C256.187 201.043 258.419 200.204 260.386 199.085C262.132 201.448 264.919 202.694 268.847 202.694C273.186 202.694 276.892 201.119 279.91 198.498C282.801 201.257 287.214 202.694 291.459 202.694C298.909 202.694 305.192 199.065 309.292 192.304L302.495 186.087Z" fill="#BFD730"/>
<path d="M114.51 192.388C105.969 192.388 103.164 188.618 103.164 184.552V177.717H119.958C124.597 177.717 127.368 180.697 127.368 184.404C127.368 189.528 122.641 192.388 114.51 192.388ZM103.164 152.268C107.066 152.92 109.328 155.671 109.328 159.982C109.328 164.293 107.066 167.113 103.164 167.783V152.268ZM120.734 167.945H117.604C119.509 165.467 120.458 162.37 120.458 158.699C120.458 148.858 110.389 142.18 98.6604 142.18C86.7332 142.18 78.8486 148.284 75.1585 156.754L84.3123 161.808C84.3123 161.808 85.9524 154.935 91.863 152.821V185.85C91.863 195.181 98.1836 202.743 115.031 202.743C128.925 202.743 138.201 196.028 138.201 186.129C138.201 174.986 131.834 167.945 120.734 167.945Z" fill="#BFD730"/>
<path d="M180.62 123.698C182.445 123.698 183.587 122.519 183.587 120.696C183.587 118.87 182.445 117.693 180.62 117.693C178.796 117.693 177.617 118.87 177.617 120.696C177.617 122.519 178.796 123.698 180.62 123.698Z" fill="white"/>
<path d="M229.198 134.99C229.198 132.367 230.034 129.821 232.888 129.821C233.95 129.821 235.245 130.544 235.245 132.024C235.245 133.47 233.989 134.608 229.198 135.409V134.99ZM215.361 121.761C215.361 118.416 215.396 116.592 216.727 116.592C216.727 116.592 218.98 116.493 218.98 120.695C218.98 125.068 217.854 129.298 215.361 131.265V121.761ZM240.531 138.375C239.352 139.363 237.11 140.503 234.98 140.503C232.773 140.503 231.29 140.049 230.377 139.02C237.716 137.385 240.151 135.181 240.151 131.644C240.151 128.11 237.983 125.257 233.268 125.257C228.399 125.257 224.559 128.718 224.559 135.145C224.559 136.586 224.759 137.811 225.073 138.905C223.794 140.072 222.198 140.581 220.118 140.581C217.188 140.581 215.361 138.716 215.361 136.13V136.056C220.929 132.782 223.49 127.985 223.49 121.411C223.49 116.963 221.512 112.394 217.649 112.394C212.931 112.394 210.913 116.021 210.913 120.354V136.588C210.913 136.895 210.96 137.18 210.983 137.475C209.769 139.669 208.578 140.657 206.85 140.657C205.139 140.657 203.768 139.743 203.768 137.346V129.708H208.601V125.524H203.768V119.744H199.318V125.524H197.074V129.708H199.318V137.284C198.067 139.632 196.851 140.657 195.066 140.657C193.357 140.657 191.986 139.743 191.986 137.346V129.708H194.914V125.524H191.986V119.744H187.538V125.524H185.292V129.708H187.538V137.286C187.511 137.357 186.336 140.657 184.424 140.657C183.281 140.657 182.828 139.591 182.828 138.412V125.524H178.377V139.257C177.696 139.897 176.608 140.657 175.222 140.657C172.31 140.657 170.44 138.373 167.519 137.468V117.92H162.498L162.723 137.599C161.261 138.198 159.851 139.388 159.851 141.541C159.851 145.923 166.142 146.762 167.282 142.126C169.171 143.142 170.944 145.332 175.259 145.332C177.111 145.332 178.725 144.5 179.856 143.704C180.633 144.397 181.678 144.8 183.093 144.8C185.396 144.8 187.303 143.807 188.757 142.198C189.918 143.89 191.832 144.839 194.23 144.839C197.065 144.839 199.076 143.826 200.546 142.205C201.704 143.892 203.618 144.839 206.014 144.839C209.036 144.839 211.132 143.701 212.62 141.887C214.065 143.687 216.412 144.8 219.772 144.8C222.656 144.8 225.165 143.998 227.024 142.405C228.673 144.051 231.062 144.8 233.95 144.8C237.679 144.8 240.418 143.469 242.166 141.986L240.531 138.375Z" fill="white"/>
</g>
</g>
<defs>
<clipPath id="clip0_58_29">
<rect width="555" height="359" fill="white" transform="translate(-81)"/>
</clipPath>
</defs>
</svg>
