<svg width="104" height="41" viewBox="0 0 104 41" fill="none" xmlns="http://www.w3.org/2000/svg">
<path d="M83.0572 19.1259C84.8705 19.1259 86.0044 17.9525 86.0044 16.1318C86.0044 14.314 84.8705 13.1386 83.0572 13.1386C81.242 13.1386 80.0704 14.314 80.0704 16.1318C80.0704 17.9525 81.242 19.1259 83.0572 19.1259Z" fill="#BFD730"/>
<path d="M47.974 35.61C45.6675 35.61 44.0424 33.9799 44.0424 30.3802C44.0424 27.6134 44.8366 25.2258 47.974 25.2258C50.1665 25.2258 51.8303 26.9324 51.8303 30.3802C51.8303 33.4121 50.5815 35.61 47.974 35.61ZM93.3996 20.7096C93.3996 17.3759 94.0047 15.5562 95.5291 15.5562C96.3071 15.5562 97.3576 16.7693 97.3576 19.6493C97.3576 24.0065 93.3996 26.6663 93.3996 26.6663V20.7096ZM100.369 32.8045C99.3112 34.8138 96.903 35.5713 96.0722 35.5713C94.2294 35.5713 93.3996 34.6232 93.3996 33.7903V31.4394C93.3996 31.4394 101.768 27.9345 101.768 19.1304C101.768 14.6968 99.7953 11.0094 95.5291 11.0094C90.8419 11.0094 88.9758 14.9894 88.9758 19.3088V34.2256C88.3392 35.1013 87.6995 35.5713 86.8371 35.5713C85.7032 35.5713 85.2486 34.9647 85.2486 33.7903V20.9461H80.8269V34.402C79.6045 35.4174 78.0964 35.868 76.1641 35.868C76.0868 35.868 75.9048 35.87 75.6953 35.872H70.3583C74.6316 31.0112 78.433 26.2697 78.9415 25.3614C79.0757 25.1085 79.1967 24.8761 79.2821 24.6967C79.995 23.1818 79.4499 20.7952 76.4723 20.7952H65.8583C65.6711 19.896 64.7823 19.0122 63.208 19.0122C61.6206 19.0122 60.7134 20.3762 60.7134 21.7392C60.7134 22.6873 61.167 23.5957 62.1484 24.2033C62.188 24.7731 62.188 25.2645 62.188 25.7967C62.188 28.6298 61.7497 30.9827 60.8334 32.8442C59.8633 34.612 59.0792 35.5713 57.8395 35.5713C56.7056 35.5713 56.2531 34.9647 56.2531 33.7903V20.9461H51.8303V22.3845C51.0737 21.5129 49.6753 20.679 46.9916 20.679C42.4559 20.679 39.4315 24.2033 39.4315 30.4567C39.4315 31.6719 39.5576 32.7882 39.7864 33.8066C39.0451 34.9698 38.3423 35.5937 37.3447 35.5937C36.2108 35.5937 35.7572 34.9882 35.7572 33.8127C35.7572 32.1072 36.0969 26.2106 36.0969 22.8392C36.0969 19.5046 34.2653 18.9744 32.9555 18.9744H28.6121C28.4239 17.2322 27.2514 16.4737 25.5134 16.4737C23.1316 16.4737 22.1869 17.9896 22.1869 19.8471C22.1869 22.4233 24.114 23.56 26.5334 23.56H30.3744C30.8128 23.56 31.0416 23.8118 31.0416 25.7447V35.0636C31.0416 38.436 32.8843 40.1783 36.0216 40.1783C38.265 40.1783 40.1281 39.2291 41.56 37.6846C42.8393 39.2699 44.6424 40.1568 46.8401 40.1568C49.4109 40.1568 51.2252 39.2098 52.3215 37.8824C52.9256 39.3606 54.3249 40.1568 56.5164 40.1568C58.8433 40.1568 60.7612 39.1384 62.2135 37.4909L62.2257 37.5032C62.2735 37.4502 62.3101 37.389 62.3558 37.334C62.4779 37.1902 62.5918 37.0363 62.7057 36.8833C65.1484 33.7383 65.9742 29.4504 66.081 25.1126L73.4519 24.9648C73.4468 25.0097 73.4316 25.0678 73.4244 25.1147C73.3665 25.2666 73.2638 25.449 73.1275 25.657C70.4519 28.8612 65.5816 35.0391 65.1047 36.1391C64.462 37.6541 64.9532 40.0406 67.6369 40.0406C67.6369 40.0406 71.9356 40.3791 76.3482 39.9907C77.1333 39.9458 77.8858 39.8663 78.5845 39.7266C78.6018 39.7236 78.6201 39.7215 78.6374 39.7195C78.7086 39.7093 78.7635 39.6879 78.8184 39.6665C79.9238 39.4259 80.9093 39.0548 81.7778 38.5593C82.5486 39.6053 83.7791 40.1568 85.5131 40.1568C87.429 40.1568 89.0653 39.4595 90.3975 38.2994C91.6738 39.5207 93.6223 40.1568 95.4966 40.1568C98.7854 40.1568 101.56 38.5502 103.37 35.557L100.369 32.8045Z" fill="#BFD730"/>
<path d="M17.3738 35.5941C13.6029 35.5941 12.3642 33.9253 12.3642 32.1249V29.0991H19.7789C21.827 29.0991 23.0504 30.4183 23.0504 32.0596C23.0504 34.3279 20.9636 35.5941 17.3738 35.5941ZM12.3642 17.832C14.0869 18.1205 15.0856 19.3388 15.0856 21.2472C15.0856 23.1556 14.0869 24.4045 12.3642 24.7012V17.832ZM20.1216 24.7725H18.7395C19.5806 23.6756 19.9996 22.3044 19.9996 20.6794C19.9996 16.3222 15.5544 13.3657 10.3761 13.3657C5.11023 13.3657 1.62917 16.0683 0 19.8179L4.0414 22.0556C4.0414 22.0556 4.76548 19.0125 7.375 18.0767V32.6999C7.375 36.8307 10.1655 40.1786 17.6036 40.1786C23.7379 40.1786 27.8332 37.2059 27.8332 32.8232C27.8332 27.89 25.0223 24.7725 20.1216 24.7725Z" fill="#BFD730"/>
<path d="M46.5612 5.18341C47.3667 5.18341 47.8711 4.66145 47.8711 3.85403C47.8711 3.0456 47.3667 2.52465 46.5612 2.52465C45.7558 2.52465 45.2351 3.0456 45.2351 3.85403C45.2351 4.66145 45.7558 5.18341 46.5612 5.18341Z" fill="#464646"/>
<path d="M68.0082 10.1826C68.0082 9.02147 68.3774 7.89394 69.6374 7.89394C70.1062 7.89394 70.6778 8.21405 70.6778 8.86957C70.6778 9.50979 70.1235 10.0134 68.0082 10.3682V10.1826ZM61.8993 4.32582C61.8993 2.84454 61.9146 2.03712 62.5024 2.03712C62.5024 2.03712 63.497 1.99329 63.497 3.85381C63.497 5.78977 62.9997 7.66252 61.8993 8.53314V4.32582ZM73.0117 11.6812C72.491 12.1186 71.5015 12.6232 70.5608 12.6232C69.5866 12.6232 68.9316 12.4224 68.5289 11.9667C71.769 11.2429 72.8439 10.2673 72.8439 8.70136C72.8439 7.13648 71.8869 5.87336 69.8052 5.87336C67.6553 5.87336 65.9601 7.40562 65.9601 10.2509C65.9601 10.8891 66.0485 11.4315 66.1869 11.9157C65.6224 12.4326 64.9177 12.6579 63.9994 12.6579C62.7058 12.6579 61.8993 11.8321 61.8993 10.6873V10.6546C64.3573 9.20497 65.4882 7.08143 65.4882 4.17086C65.4882 2.20126 64.6146 0.178641 62.9092 0.178641C60.8265 0.178641 59.9356 1.7843 59.9356 3.70293V10.8901C59.9356 11.0257 59.9559 11.1521 59.9661 11.2826C59.4302 12.2542 58.9044 12.6915 58.1417 12.6915C57.3861 12.6915 56.781 12.2868 56.781 11.2255V7.84399H58.9146V5.99162H56.781V3.43277H54.8162V5.99162H53.8257V7.84399H54.8162V11.198C54.264 12.2379 53.727 12.6915 52.9389 12.6915C52.1843 12.6915 51.5792 12.2868 51.5792 11.2255V7.84399H52.8718V5.99162H51.5792V3.43277H49.6155V5.99162H48.6239V7.84399H49.6155V11.199C49.6033 11.2306 49.0846 12.6915 48.2405 12.6915C47.7361 12.6915 47.5358 12.2195 47.5358 11.6976V5.99162H45.571V12.0717C45.27 12.3551 44.79 12.6915 44.1778 12.6915C42.8923 12.6915 42.0666 11.6802 40.7771 11.2796V2.62535H38.5601L38.6598 11.3377C38.014 11.6027 37.3916 12.1298 37.3916 13.083C37.3916 15.023 40.1689 15.3941 40.6723 13.342C41.5062 13.7915 42.2893 14.761 44.1941 14.761C45.0117 14.761 45.7246 14.393 46.2239 14.0403C46.5666 14.3471 47.0283 14.5256 47.6527 14.5256C48.6697 14.5256 49.5117 14.0862 50.1534 13.3736C50.666 14.1229 51.5111 14.5429 52.5697 14.5429C53.8216 14.5429 54.7094 14.0943 55.3583 13.3766C55.8698 14.1239 56.7149 14.5429 57.7725 14.5429C59.1068 14.5429 60.0322 14.0393 60.6892 13.2359C61.3268 14.0332 62.3631 14.5256 63.8468 14.5256C65.1201 14.5256 66.2275 14.1708 67.0482 13.4653C67.7764 14.1942 68.831 14.5256 70.1062 14.5256C71.7527 14.5256 72.9618 13.9363 73.7337 13.2798L73.0117 11.6812Z" fill="black"/>
</svg>
