<svg width="164" height="282" viewBox="0 0 164 282" fill="none" xmlns="http://www.w3.org/2000/svg">
<g clip-path="url(#clip0_319_1075)">
<path d="M41.0055 118.75C40.7802 115.932 38.5919 107.442 36.7253 101.351C36.7897 103.522 37.2081 106.697 37.3046 108.285C37.4655 110.585 39.7182 125.263 38.8815 124.745C38.0448 124.226 38.3344 114.636 34.0543 107.507C33.8934 110.099 35.8565 115.543 34.9554 114.182C34.0543 112.821 32.1234 108.933 31.4798 106.211C30.8362 103.489 27.2319 96.0372 26.8779 93.6719C26.8457 93.4451 26.8135 93.1211 26.7813 92.7971C26.4273 89.719 26.0412 83.7896 26.5882 84.4052C27.0066 84.8588 27.1031 87.4833 28.7122 90.4966C29.4524 91.8251 30.5465 93.2183 32.1556 94.482C30.6431 90.6262 27.8111 82.5259 27.8111 82.5259C27.8111 82.5259 30.0638 86.3493 32.0591 88.5849C30.7396 85.28 29.0984 81.8131 28.2295 80.3226C26.8135 77.925 23.0805 73.324 20.9243 71.7363C22.0828 73.486 24.3999 78.9618 24.6895 85.118C24.8183 87.7425 24.9792 90.1726 25.3975 92.6675C25.9446 96.0048 27.0066 99.4069 28.3582 102.809C30.6753 108.771 33.9899 116.256 36.1461 122.282C37.8195 127.013 37.8517 132.165 37.4333 134.854C38.3022 133.72 39.139 132.553 40.0078 131.355C40.6515 128.05 41.2951 122.703 41.0055 118.75Z" fill="#213820"/>
<path d="M28.7444 90.4965C27.2963 87.548 27.0388 84.8911 26.6205 84.4051C26.0734 83.7895 26.4596 89.7513 26.8135 92.797C27.425 93.5746 28.7122 95.1623 29.9351 96.7499C29.5811 95.0003 29.0019 92.2138 28.7444 90.4965Z" fill="#80BA27"/>
<path d="M37.3048 108.285C37.2082 106.697 36.7899 103.522 36.7255 101.351C35.6635 97.9488 34.7625 95.2595 34.2476 94.1255C33.7005 92.9267 32.8959 90.6262 32.0592 88.5849C30.0962 86.3492 27.8113 82.5259 27.8113 82.5259C27.8113 82.5259 30.6754 90.6262 32.1558 94.4819C30.5467 93.2507 29.4204 91.825 28.7124 90.4966C28.9377 92.2462 29.5169 95.0003 29.9031 96.75C28.648 95.1947 27.3929 93.5747 26.7815 92.7971C26.8137 93.1535 26.8459 93.4451 26.878 93.6719C27.232 96.0372 30.8363 103.489 31.48 106.211C32.1236 108.933 34.0545 112.821 34.9556 114.182C35.8566 115.543 33.8936 110.099 34.0545 107.507C38.3346 114.635 38.045 124.226 38.8817 124.745C39.7184 125.263 37.4657 110.585 37.3048 108.285Z" fill="#E4D630"/>
<path d="M47.5063 76.3696C46.8305 75.8512 46.0581 75.3328 45.6398 75.3004C45.0927 75.2356 45.2214 76.1428 45.0283 77.6981C45.5432 78.9293 46.2512 81.5214 46.5087 83.6923C46.5087 83.1415 47.6994 79.3181 48.0855 78.0221C47.9246 77.5361 47.7316 76.9852 47.5063 76.3696Z" fill="#80BA27"/>
<path d="M51.7219 114.344C51.9472 111.298 52.4621 103.295 52.6874 99.9576C52.7839 98.4023 52.269 95.1946 51.5932 91.7925C51.561 92.9265 51.4967 94.2226 51.4001 95.4862C51.1749 98.7263 50.8209 101.966 50.1451 102.193C49.9842 99.8928 49.4371 97.5275 48.89 95.6806C48.2142 93.3477 47.5062 91.7925 47.4418 91.6629C47.4418 91.6953 47.4418 91.7277 47.4418 91.7925C47.7958 96.7823 48.5682 105.595 47.6993 105.433C46.4442 102.42 44.7386 98.4023 43.5479 94.9354C42.8399 92.9265 42.325 91.0797 42.0997 89.5892C41.7457 87.3859 41.5205 83.5302 41.263 80.3549C41.0699 77.7952 40.909 75.5271 40.9734 74.2958C40.9734 74.1986 40.9734 74.1338 40.9734 74.0366C41.7779 75.2679 42.2606 78.2488 42.2928 78.4432C42.8399 74.3606 42.9686 68.8524 43.2583 69.2737C43.4513 69.5653 43.9984 74.393 44.1915 77.7304C44.2559 79.2532 44.2881 80.4197 44.2881 80.5169C44.6742 79.4476 44.8673 78.508 44.9639 77.7304C45.157 76.1751 45.0604 75.2679 45.5753 75.3327C45.9937 75.3975 46.766 75.8835 47.4418 76.4019C46.2511 72.9026 44.449 68.0424 43.7732 65.4503C42.9365 62.2426 44.7064 59.5209 44.4168 57.0908C41.8101 60.0069 40.6516 67.9452 39.8792 74.5875C39.493 77.7952 39.2356 80.6789 39.2034 82.2017C39.1069 86.9323 43.6766 100.314 44.5777 104.137C45.4144 107.604 47.2488 117.908 47.5062 120.532C48.0533 119.755 48.5682 118.977 49.0831 118.199C49.8876 117.001 50.7565 115.705 51.6898 114.344H51.7219Z" fill="#213820"/>
<path d="M44.2238 77.6981C44.0307 74.3608 43.4836 69.533 43.2905 69.2414C43.0009 68.8202 42.8721 74.296 42.3251 78.4109C42.2929 78.1841 41.8102 75.2356 41.0056 74.0044C41.0056 74.0692 41.0056 74.1664 41.0056 74.2636C40.9413 75.4948 41.1022 77.7629 41.2953 80.3226C41.6814 81.0354 42.2929 82.1371 43.0652 83.5627C43.033 82.2667 43.9341 78.5406 44.2238 77.7305V77.6981Z" fill="#80BA27"/>
<path d="M51.4002 95.4862C50.6278 92.6997 48.8257 87.2239 48.4717 86.5435C48.6004 88.3903 49.1153 93.7041 48.89 95.713C49.4371 97.5599 49.9842 99.8927 50.1451 102.226C50.7887 101.966 51.1749 98.7587 51.4002 95.5186V95.4862Z" fill="#80BA27"/>
<path d="M47.4741 91.7924C46.8626 89.6864 46.0903 87.5155 46.0581 87.4507C46.5086 90.4964 46.4443 93.3801 45.4788 92.5377C44.5134 91.6952 43.4514 88.8439 43.4514 88.8439C43.548 90.5612 43.5801 93.6069 43.6123 94.9354C44.8352 98.4023 46.5086 102.42 47.7637 105.433C48.6004 105.595 47.8603 96.7822 47.5063 91.7924H47.4741Z" fill="#80BA27"/>
<path d="M48.4716 86.5111C48.8256 87.1915 50.6278 92.6997 51.4001 95.4538C51.4966 94.1578 51.561 92.8942 51.5932 91.7601C50.4347 86.0251 48.9543 80.3873 48.2141 78.4108C48.182 78.2812 48.1176 78.1516 48.0532 78.022C47.6671 79.3181 46.4764 83.109 46.4764 83.6922C46.2511 81.5213 45.5109 78.9292 44.996 77.698C44.8995 78.4756 44.7064 79.4153 44.3202 80.4845C44.3202 80.3873 44.288 79.2209 44.2237 77.698C43.934 78.508 43.033 82.2342 43.0651 83.5302C42.2928 82.1046 41.6813 81.0353 41.2952 80.2901C41.5526 83.4978 41.7779 87.3211 42.1319 89.5244C42.3571 91.0149 42.9042 92.8618 43.58 94.8706C43.58 93.5746 43.5157 90.4965 43.4191 88.7792C43.4191 88.7792 44.4811 91.6305 45.4465 92.4729C46.412 93.3154 46.4764 90.4317 46.0258 87.386C46.058 87.4832 46.8625 89.654 47.4418 91.7277C47.4418 91.6953 47.4418 91.6629 47.4418 91.5981C47.5062 91.7277 48.182 93.3154 48.89 95.6159C49.1152 93.607 48.5681 88.2932 48.4716 86.4463V86.5111Z" fill="#E4D630"/>
<path d="M67.3942 77.3093C67.6838 75.4948 67.9091 73.324 68.0057 71.0883C67.716 71.8983 67.3942 73.2591 67.0724 74.7172C66.7184 76.3373 66.3644 78.0869 66.1713 79.1238C65.7208 81.489 63.9186 88.0989 63.8543 87.9045C64.0152 84.5996 65.1415 77.3417 64.9163 74.3932C63.9186 77.5685 62.4383 90.1402 61.5694 91.3066C61.6659 84.5996 62.4061 74.1988 62.5992 72.9675C62.6636 72.5787 62.5992 71.8659 62.5027 71.0559C62.3096 69.6302 61.8912 67.8482 61.5694 66.7141C61.4407 68.4638 61.2476 70.2134 60.9579 71.9955C60.1212 77.6981 60.089 82.8823 59.9281 88.0341C59.7994 92.3434 59.4132 100.152 59.3489 103.263C60.3143 101.902 61.1832 100.671 61.9556 99.6013C64.3048 94.9031 66.2679 84.2432 67.3942 77.2769V77.3093Z" fill="#213820"/>
<path d="M64.9164 74.3931C65.1417 77.3416 64.0475 84.5671 63.8544 87.9044C63.9188 88.0988 65.6888 81.489 66.1715 79.1237C66.3646 78.0868 66.7186 76.3372 67.0725 74.7171C66.9438 71.8982 66.4289 67.4592 66.3646 67.1028C66.1715 70.5373 64.5946 73.0322 64.2728 72.773C63.9188 72.5138 63.9831 66.2928 63.9831 65.8716C63.7901 67.8805 62.9855 69.9541 62.4706 71.0558C62.5672 71.8658 62.6315 72.5786 62.5672 72.9674C62.3741 74.1987 61.6339 84.5995 61.5374 91.3065C62.4062 90.1401 63.8866 77.5684 64.8842 74.3931H64.9164Z" fill="#80BA27"/>
<path d="M64.5623 46.7874C63.9186 48.537 64.1439 53.0408 64.1439 55.5357C64.4657 57.4797 64.9484 60.5903 65.2702 62.7935C65.2381 61.8539 65.6886 55.7301 65.9139 52.2632C65.1415 49.8331 64.5944 47.4354 64.5623 46.7874Z" fill="#80BA27"/>
<path d="M64.0795 56.9612C64.1117 56.6696 64.1439 56.1512 64.1439 55.5032C64.1439 53.0407 63.9186 48.5369 64.5623 46.7549C64.5944 47.4029 65.1737 49.8006 65.9139 52.2307C66.4288 53.8183 67.008 55.4384 67.5873 56.54C67.5229 55.9244 67.4586 55.4384 67.3942 55.1144C66.9437 52.4575 65.8173 44.0656 65.8817 41.5383C65.9782 39.011 67.362 32.5955 66.1391 31.7207C66.0748 34.8312 64.1117 40.8902 62.8888 43.8387C62.0843 45.7828 61.6981 47.4029 61.6016 50.0274C62.0199 48.6017 62.4705 47.2085 62.6957 47.1113C63.1463 46.9169 63.0819 53.4619 64.0474 56.9612H64.0795Z" fill="#213820"/>
<path d="M68.0058 71.0882C68.2955 65.4828 67.9093 59.5857 67.5875 56.5724C66.976 55.4708 66.3968 53.8507 65.9141 52.2631C65.6888 55.73 65.2382 61.8538 65.2704 62.7935C64.9486 60.5902 64.4337 57.4797 64.1441 55.5356C64.1441 56.1836 64.1441 56.702 64.0797 56.9936C63.1143 53.4619 63.1786 46.9169 62.7281 47.1437C62.5028 47.2409 62.0523 48.6341 61.6339 50.0598C61.6018 51.3882 61.6339 53.0083 61.7305 55.0172C61.9236 59.1321 61.8914 62.9231 61.5696 66.7464C61.8914 67.8804 62.2776 69.6625 62.5028 71.0882C63.0177 69.9541 63.8223 67.8804 64.0154 65.904C64.0154 66.3252 63.9832 72.5462 64.305 72.8054C64.6268 73.0646 66.2037 70.5373 66.3968 67.1352C66.4611 67.4916 66.976 71.9306 67.1048 74.7495C67.4266 73.2914 67.7484 71.9306 68.038 71.1206L68.0058 71.0882ZM65.3026 62.8259C65.3026 62.8259 65.3026 62.8583 65.3026 62.8907C65.3026 62.8907 65.3026 62.8583 65.3026 62.8259Z" fill="#E4D630"/>
<path d="M95.553 33.0816C96.5828 25.4025 99.8653 2.7865 100.091 0C97.9988 4.08255 96.3253 13.1549 95.553 16.3626C94.7806 19.4407 88.7305 33.3732 86.864 40.3719C88.7949 36.5161 93.3646 27.0226 94.0083 26.893C94.7484 26.731 91.1119 35.6089 89.2454 41.6679C89.4707 41.2467 92.9785 33.924 93.5899 33.4056C94.2335 32.8548 93.0428 38.8166 93.2681 41.7003C93.2681 41.7003 94.5875 36.8077 95.5852 33.114L95.553 33.0816Z" fill="#213820"/>
<path d="M88.0547 59.1646C87.9582 59.3914 85.802 65.3208 84.5792 69.0469C86.4457 65.742 88.1191 62.4695 89.1811 60.0394C92.3992 52.8787 94.5232 40.7931 95.4243 33.5676C95.4243 33.4056 95.4565 33.2436 95.4886 33.0816C94.5232 36.7753 93.1716 41.6679 93.1716 41.6679C92.9463 38.7842 94.137 32.8224 93.4934 33.3732C92.8819 33.924 89.3742 41.2143 89.1489 41.6355C91.0154 35.5765 94.6519 26.6986 93.9118 26.8606C93.3003 27.0226 88.6984 36.4837 86.7675 40.3395C86.7031 40.6635 86.6066 40.9551 86.5422 41.2467C85.4481 46.1393 81.8116 54.3044 79.3336 59.3266C79.0118 62.0483 77.6602 66.0012 76.1155 69.7922C78.4647 67.3297 84.4504 55.8272 86.5744 50.7403C86.51 51.7771 83.9355 59.1322 81.8116 64.0247C82.0047 63.7331 82.1977 63.4415 82.3586 63.2147C82.1656 63.8627 76.8878 74.3607 73.1548 81.8778C74.796 79.6421 86.156 62.7287 87.9904 59.0998L88.0547 59.1646Z" fill="#E4D630"/>
<path d="M86.671 50.8052C84.547 55.8922 78.5613 67.3622 76.2121 69.8571C73.9594 75.3653 71.1918 80.7763 71.3205 81.1975C71.5779 81.9427 78.8509 68.8202 81.876 64.1221C83.9999 59.1971 86.6066 51.8744 86.6388 50.8376L86.671 50.8052Z" fill="#80BA27"/>
<path d="M63.5646 99.1153C64.9484 98.0136 72.1892 88.9413 74.6672 85.2476C76.3728 82.6879 80.9425 75.6244 84.6112 69.0794C85.8019 65.3532 87.9902 59.4238 88.0868 59.197C86.2524 62.7936 74.8924 79.7394 73.2512 81.975C76.9842 74.458 82.262 63.96 82.455 63.312C82.2941 63.5388 82.1011 63.798 81.908 64.122C78.8829 68.7878 71.5778 81.9102 71.3525 81.1974C71.2238 80.8086 73.9914 75.3976 76.2441 69.857C77.7888 66.0985 79.1404 62.1131 79.4622 59.3914C78.4646 61.3679 77.6922 62.9556 77.2739 63.798C75.9222 66.8761 71.0629 76.1428 69.3572 82.1695C67.8769 87.4185 64.4013 95.2595 63.5002 97.56C64.2726 96.5556 64.7553 95.9076 64.8519 95.8104C64.884 96.426 64.3691 97.6572 63.5646 99.1477V99.1153Z" fill="#213820"/>
<path d="M94.2978 72.3193C94.1369 72.5137 93.9438 72.7405 93.7829 72.9674C93.7829 72.9674 95.1667 70.1809 96.1321 68.1072C94.3622 70.2133 90.1464 76.2075 88.5373 78.2487C86.9926 80.2252 82.262 85.6362 79.6231 88.0987C78.529 89.5568 77.2739 91.0472 76.0188 92.3109C76.405 92.5377 78.722 91.0472 80.1058 90.302C85.5445 85.4094 91.4658 77.0823 94.2978 72.3193Z" fill="#80BA27"/>
<path d="M96.1 68.075C96.5828 67.0706 96.9689 66.2281 97.0655 66.0661C97.3551 65.4829 96.7115 64.8673 94.5232 67.103C95.9069 63.4416 102.086 51.1292 102.955 48.1807C101.313 49.5415 92.7854 66.2929 90.9832 68.885C90.5327 69.533 89.889 70.5699 89.1167 71.7687C86.864 75.3653 83.7424 80.3874 83.1953 82.0399C82.7448 83.4007 81.3288 85.7336 79.5588 88.0989C82.1977 85.604 86.9284 80.2254 88.4731 78.249C90.0821 76.2077 94.2979 70.2135 96.0679 68.1074L96.1 68.075Z" fill="#E4D630"/>
<path d="M75.2143 97.5924C78.175 95.0327 82.262 91.7602 82.8091 90.9825C80.653 91.987 71.964 98.2728 71.0307 97.6248C76.0832 94.1254 79.7841 91.1121 80.6208 90.0105C80.4599 90.0753 80.299 90.1725 80.1059 90.2697C78.7221 90.9825 76.405 92.5054 76.0188 92.2786C77.2739 91.0149 78.529 89.5569 79.6232 88.0664C81.3931 85.7011 82.8091 83.3682 83.2596 82.0074C83.8067 80.3549 86.9283 75.3328 89.181 71.7362C89.9212 70.5374 90.597 69.5005 91.0475 68.8525C92.8497 66.2604 101.378 49.509 103.019 48.1482C102.15 51.0967 95.9713 63.4415 94.5875 67.0705C96.7758 64.8348 97.3873 65.4504 97.1298 66.0336C97.0333 66.228 96.6471 67.0381 96.1644 68.0425C95.1989 70.1162 93.8151 72.9027 93.8151 72.9027C94.0082 72.6759 94.1691 72.4814 94.33 72.2546C96.8402 69.1117 97.8056 66.2604 98.3849 67.1677C98.7067 67.6861 98.5458 69.2737 98.3205 70.6346C99.3181 68.2693 100.155 66.1632 100.831 64.5432C103.952 57.3177 107.814 36.8401 105.947 33.114C106.076 38.4602 97.3551 56.3133 94.4588 61.4002C92.8497 64.2516 90.6292 67.8805 88.6018 71.0882C87.0249 73.5831 85.5123 75.8836 84.4504 77.4712C82.0046 81.0678 76.051 91.2417 72.8973 94.2875C70.3228 96.7823 64.9163 99.8929 62.4061 101.254C61.6982 102.453 60.958 103.684 60.25 104.85C60.9258 104.623 61.5694 104.429 62.1809 104.235C67.2977 102.517 70.5158 100.606 75.2787 97.5924H75.2143Z" fill="#213820"/>
<path d="M82.8091 90.9824C82.262 91.7601 78.2072 95.0326 75.2143 97.5923C77.0487 96.4258 79.1405 95.0974 81.6506 93.6069C89.3741 89.006 94.8449 78.7672 98.2883 70.6669C98.5136 69.3384 98.6745 67.7184 98.3527 67.2C97.7735 66.2927 96.808 69.144 94.2979 72.2869C91.4659 77.0499 85.5445 85.377 80.1059 90.2696C80.299 90.1724 80.4921 90.0752 80.6208 90.0104C79.7841 91.0796 76.1154 94.1253 71.0308 97.6247C71.964 98.2727 80.653 91.9869 82.8091 90.9824Z" fill="#E4D630"/>
<path d="M99.9297 86.6084C104.274 79.8041 109.488 66.9733 110.163 61.7891C109.616 62.1131 103.083 75.2356 100.573 79.2857C100.219 79.8689 99.7366 80.5169 99.1574 81.2622C101.056 79.6097 102.89 77.9897 103.116 78.0221C103.631 78.0869 100.477 81.8454 98.8999 84.2431C99.0608 84.0811 101.828 81.2298 102.15 81.0354C102.408 80.8734 100.927 84.1783 99.9297 86.6408V86.6084Z" fill="#213820"/>
<path d="M95.7781 106.956C96.5827 104.105 97.5803 94.4818 98.1274 92.5054C95.8747 95.0975 94.0082 105.174 90.79 110.132C92.5278 109.062 94.2012 107.993 95.7781 106.924V106.956Z" fill="#213820"/>
<path d="M94.9092 114.247C97.4516 111.46 99.3824 109.16 100.219 108.123C102.633 105.207 108.715 98.2728 111 93.9958C110.646 94.2551 103.18 100.93 99.9939 103.749C98.7066 104.883 97.2906 105.952 95.7781 106.956C94.2012 108.026 92.5278 109.095 90.79 110.164C90.6291 110.423 90.436 110.682 90.2429 110.942C90.3395 111.136 90.3716 111.233 90.4682 111.428C93.5254 109.516 96.293 107.993 97.3872 107.572C95.5207 109.16 94.2334 111.104 93.6542 111.59C95.9712 110.423 97.709 108.22 97.9343 108.706C98.0952 109.095 95.8425 112.724 94.9414 114.214L94.9092 114.247Z" fill="#213820"/>
<path d="M77.3062 105.693C82.6483 102.809 90.6292 94.741 93.5256 91.0149C92.3349 91.7925 83.6459 98.3052 80.5565 100.346C77.0809 103.457 73.8628 106.373 73.7984 106.827C73.7019 107.637 74.8926 106.535 77.2418 105.725L77.3062 105.693Z" fill="#80BA27"/>
<path d="M81.522 105.012C80.2991 105.66 76.9522 106.859 74.8604 107.475C70.6447 109.613 64.1119 112.95 63.79 113.501C63.3395 114.214 69.0678 111.687 70.9987 111.816C75.1822 110.034 79.4945 107.151 81.522 105.012Z" fill="#80BA27"/>
<path d="M99.3502 87.5157C99.5433 87.2241 99.7364 86.9325 99.9295 86.6085C100.895 84.146 102.375 80.8411 102.15 81.0031C101.828 81.2299 99.0606 84.0488 98.8997 84.2108C100.477 81.8131 103.63 78.0545 103.115 77.9897C102.89 77.9897 101.056 79.5774 99.1571 81.2299C96.4861 84.5672 91.8842 89.0386 88.4729 92.3111C87.0891 94.482 83.7423 97.4629 80.6529 100.249C83.7101 98.2405 92.3991 91.6954 93.6219 90.9178C90.6934 94.644 82.7447 102.712 77.4026 105.596C77.7887 105.466 78.1749 105.336 78.6254 105.239C78.1427 105.725 76.7267 106.47 74.989 107.345C77.0807 106.73 80.3954 105.531 81.6505 104.883C79.6231 107.021 75.3108 109.905 71.1272 111.687C71.1916 111.687 71.2559 111.687 71.3203 111.687C69.3894 112.886 56.5812 118.2 52.3333 119.917C52.0759 120.306 51.7862 120.695 51.4966 121.116C55.294 120.046 66.654 116.223 76.3728 111.136C86.9282 105.628 95.0701 93.9959 99.479 87.3537L99.3502 87.5157Z" fill="#E4D630"/>
<path d="M70.9987 111.817C69.1 111.719 63.3395 114.214 63.7901 113.501C64.1119 112.983 70.6447 109.613 74.8605 107.475C76.6304 106.568 78.0142 105.822 78.4969 105.369C78.0786 105.466 77.6602 105.595 77.2741 105.725C74.9248 106.535 73.7341 107.637 73.8306 106.827C73.8628 106.373 77.1131 103.457 80.5887 100.346C83.7103 97.56 87.0572 94.5791 88.4088 92.4082C87.3146 93.4774 86.317 94.4171 85.5125 95.1623C81.7473 98.7588 75.1179 104.202 68.8747 107.507C63.6614 110.261 57.8043 113.631 55.2298 115.348C54.554 116.417 53.9748 117.325 53.5886 117.94C53.2346 118.491 52.7519 119.204 52.1726 120.079C56.4205 118.362 69.2287 113.048 71.1596 111.849C71.0952 111.849 71.0309 111.849 70.9665 111.849L70.9987 111.817Z" fill="#213820"/>
<path d="M82.1334 117.033C80.6531 118.102 79.3659 119.107 78.4648 119.884C74.249 123.351 67.1691 125.554 62.4385 127.725C63.0499 127.79 67.137 126.689 70.8378 125.684C73.2836 124.42 79.8808 121.213 82.1334 117.065V117.033Z" fill="#80BA27"/>
<path d="M54.1678 134.692C58.2549 133.882 66.4289 130.966 67.2656 130.674C63.5004 131.095 52.4944 133.169 51.2715 132.424C58.9628 131.03 69.5827 127.239 73.7984 125.004C73.9915 124.907 74.1524 124.809 74.3133 124.712C73.2514 125.004 72.0606 125.328 70.8056 125.684C67.1047 126.689 63.0177 127.823 62.4062 127.725C67.1369 125.555 74.2168 123.351 78.4325 119.884C79.3658 119.139 80.6209 118.135 82.1012 117.033C84.6114 115.186 87.6364 113.145 90.404 111.395C90.3075 111.201 90.2753 111.104 90.1787 110.909C90.3718 110.682 90.5327 110.423 90.7258 110.132C90.0178 110.553 89.342 111.006 88.6019 111.428C84.3861 114.052 76.5339 119.56 72.7365 121.796C68.9712 123.999 59.2847 127.466 55.4229 128.6C52.2048 129.54 46.0903 131.452 43.3227 132.359C42.8078 133.039 42.3573 133.655 41.9067 134.238C43.3871 134.594 46.7339 135.437 50.8531 136.182C53.846 136.733 57.3216 136.733 61.7304 135.534C58.8019 135.437 54.3287 134.789 54.1356 134.659L54.1678 134.692Z" fill="#213820"/>
<path d="M70.7091 132.327C73.6054 130.512 77.3062 128.017 78.5291 126.332C75.6328 128.082 70.5803 130.156 70.4516 129.508C70.3229 128.892 77.3384 125.781 81.1358 122.768C84.901 119.722 89.503 115.834 89.7926 115.64C86.5423 117.584 79.6555 122.639 73.8306 124.971C69.5827 127.207 58.9629 130.998 51.3037 132.391C52.5266 133.137 63.5326 131.063 67.2978 130.642C66.4611 130.966 58.2871 133.849 54.2 134.659C54.3931 134.789 58.8663 135.437 61.7948 135.534C64.4015 134.821 67.3622 133.752 70.7412 132.327H70.7091Z" fill="#80BA27"/>
<path d="M70.7089 132.326C72.1893 131.678 73.734 130.998 75.3752 130.22C80.0094 128.017 84.3538 124.55 88.1834 121.018C90.5326 118.847 92.721 116.612 94.5553 114.635C94.684 114.506 94.8128 114.376 94.9415 114.246C95.8426 112.756 98.0953 109.127 97.9344 108.738C97.7413 108.252 96.0035 110.456 93.6542 111.622C94.2335 111.136 95.5207 109.16 97.3873 107.604C96.2931 108.025 93.5255 109.548 90.4683 111.46C87.7007 113.177 84.6435 115.251 82.1655 117.098C79.9128 121.245 73.3156 124.453 70.8698 125.717C72.1249 125.36 73.3156 125.036 74.3776 124.744C74.2167 124.842 74.0236 124.939 73.8627 125.036C79.6875 122.703 86.5743 117.649 89.8246 115.705C89.535 115.899 84.9331 119.787 81.1679 122.833C77.4027 125.879 70.3549 128.957 70.4837 129.572C70.6124 130.22 75.6649 128.147 78.5612 126.397C77.3383 128.082 73.6053 130.577 70.7411 132.391L70.7089 132.326Z" fill="#E4D630"/>
<path d="M43.0329 150.082C46.4442 150.341 52.623 149.661 56.002 148.916C55.9377 148.916 55.4549 148.851 54.7791 148.819C54.0711 148.754 53.1379 148.721 52.2046 148.657C50.145 148.527 48.0211 148.333 48.0211 148.333C48.0211 148.333 57.0962 146.745 59.9603 144.898C58.8983 145.287 57.2571 145.481 55.3906 145.676C53.5241 145.87 51.4323 146.064 49.3727 146.453C49.9841 146.291 59.7672 143.343 69.1964 139.098C70.8376 138.353 72.511 137.575 74.1201 136.798C82.5516 132.683 86.6708 128.406 89.4706 124.874C90.4039 123.708 91.1762 122.606 91.852 121.699C92.4313 120.921 92.8818 120.144 93.2358 119.398C94.1369 117.584 94.4265 115.964 94.5231 114.895C94.5231 114.83 94.5231 114.733 94.5231 114.668C92.6566 116.677 90.5004 118.88 88.1512 121.051C87.765 123.902 86.9926 126.656 79.0117 132.683C75.7614 135.145 72.4467 136.992 69.0676 138.515C63.8221 140.88 58.0616 142.565 52.9448 143.764C45.5109 145.514 36.0496 145.578 32.7671 145.481C32.3487 145.935 32.0591 146.259 31.866 146.486C31.7695 146.615 31.5764 146.777 31.3833 147.037C33.4107 147.782 39.3965 149.758 42.6146 150.082C42.7433 150.082 42.9042 150.082 43.0329 150.115V150.082Z" fill="#213820"/>
<path d="M84.9974 132.715C86.7031 131.322 88.7305 129.702 88.9879 129.929C89.4706 130.285 87.6363 132.521 85.8985 134.238C85.6732 134.335 87.2501 133.784 88.2156 133.331C91.4981 128.536 92.914 122.185 93.2359 119.366C92.8819 120.111 92.3991 120.889 91.8521 121.666C91.1763 122.574 90.4039 123.675 89.4706 124.842C89.0523 126.429 86.5743 129.929 84.2573 132.683C83.6458 133.396 83.0344 134.076 82.4873 134.659C82.6482 134.659 83.7424 133.752 84.9653 132.748L84.9974 132.715Z" fill="#80BA27"/>
<path d="M54.7791 148.819C58.0616 148.203 67.4908 145.676 68.8102 145.06C66.9115 146.226 64.5945 147.814 62.7923 148.883C71.8674 146.032 79.2048 141.917 85.1261 136.83C86.2847 135.826 87.3145 134.627 88.2156 133.331C87.2501 133.784 85.6732 134.335 85.8985 134.238C87.6363 132.521 89.4706 130.317 88.9879 129.929C88.6983 129.702 86.703 131.322 84.9974 132.715C83.5171 134.238 80.846 136.441 76.0832 139.033C68.0057 143.408 62.4383 144.898 61.9234 145.028C64.8519 144.736 67.6839 143.829 68.7137 143.634C66.5897 144.898 55.7768 148.495 52.2368 148.657C53.1701 148.721 54.1033 148.786 54.8113 148.819H54.7791Z" fill="#E4D630"/>
<path d="M70.516 140.232C73.5732 138.871 80.7175 135.372 84.2896 132.65C86.6066 129.929 89.0524 126.397 89.503 124.809C86.7032 128.341 82.584 132.618 74.1525 136.733C72.5112 137.543 70.87 138.288 69.2287 139.033C59.7996 143.278 50.0165 146.227 49.405 146.389C51.4646 146 53.5564 145.805 55.4229 145.611C58.7376 144.477 67.33 141.626 70.5482 140.2L70.516 140.232Z" fill="#E4D630"/>
<path d="M62.7924 148.883C64.5946 147.814 66.9116 146.227 68.8103 145.06C67.5231 145.643 58.0618 148.203 54.7793 148.819C55.4551 148.883 55.9378 148.916 56.0022 148.916C52.6231 149.661 46.4121 150.341 43.0331 150.082C42.9044 150.082 42.7435 150.082 42.6147 150.05C46.0903 151.054 51.9473 151.897 59.7996 149.758C60.8294 149.499 61.827 149.175 62.7924 148.883Z" fill="#80BA27"/>
<path d="M52.2048 148.624C55.7447 148.462 66.5576 144.866 68.6816 143.602C67.6518 143.797 64.8198 144.704 61.8913 144.995C62.4062 144.866 67.9736 143.375 76.0511 139.001C80.814 136.409 83.485 134.206 84.9654 132.683C83.7425 133.687 82.6483 134.595 82.4874 134.595C83.0345 134.044 83.6459 133.363 84.2574 132.618C80.6852 135.34 73.541 138.839 70.4838 140.2C67.2656 141.626 58.6732 144.477 55.3585 145.611C57.2251 145.417 58.8985 145.222 59.9283 144.833C57.0641 146.713 47.989 148.268 47.989 148.268C47.989 148.268 50.113 148.462 52.1726 148.592L52.2048 148.624Z" fill="#80BA27"/>
<path d="M46.573 159.738C48.2464 159.738 50.3382 159.867 51.7542 160.451C51.6899 160.418 51.6577 160.353 51.5933 160.321C51.0462 159.835 50.3382 159.446 49.5337 159.122C47.5063 158.312 44.6743 157.923 41.1666 157.535C43.8054 157.113 48.4717 157.373 51.4324 157.664C51.8508 157.697 52.2369 157.729 52.5587 157.794C52.2048 157.535 51.7542 157.308 51.1428 157.113C50.9175 157.113 50.6922 157.049 50.467 157.016C50.66 157.016 50.821 157.049 51.014 157.081C48.6004 156.368 44.3847 156.336 39.3322 156.368C41.1666 156.012 46.4121 155.85 50.8531 155.461C52.2691 155.331 53.5885 155.202 54.6505 155.072C50.0164 154.748 45.511 154.489 42.6469 154.327C37.4013 154.003 27.5538 154.035 24.7219 153.97C24.0139 154.618 23.3703 155.234 22.791 155.72C25.8804 156.465 32.9603 157.567 36.2106 158.021C38.5599 158.345 42.8722 158.831 46.5408 159.77L46.573 159.738Z" fill="#213820"/>
<path d="M51.0461 157.049C54.8757 157.405 60.5396 157.859 61.5372 158.507C60.5718 157.178 54.9078 155.947 50.8852 155.428C46.4442 155.817 41.1986 155.979 39.3643 156.336C44.4489 156.336 48.6325 156.336 51.0461 157.049Z" fill="#80BA27"/>
<path d="M51.4646 157.632C48.5039 157.34 43.8054 157.081 41.1987 157.502C44.7065 157.891 47.5385 158.28 49.5659 159.09C52.0117 159.414 57.1285 160.418 59.1237 161.844C61.6339 163.658 66.622 167.579 66.5898 167.287C65.4956 165.279 59.4455 159.576 51.4968 157.599L51.4646 157.632Z" fill="#E4D630"/>
<path d="M51.7542 160.451C50.3382 159.867 48.2464 159.738 46.573 159.738C48.6326 160.256 50.4991 160.904 51.6255 161.811C51.8186 161.973 52.0438 162.135 52.3013 162.297C54.1034 162.881 56.2596 163.496 58.1583 164.404C59.0272 164.825 60.6362 165.829 62.374 167.287C63.2429 167.449 64.4015 167.773 65.4956 168.357C64.144 165.926 55.3585 161.779 51.5933 160.256C51.6576 160.289 51.6898 160.353 51.7542 160.386V160.451Z" fill="#E4D630"/>
<path d="M69.4218 170.204C69.4218 170.204 69.6792 170.236 69.8079 170.301C68.4563 167.417 62.4062 158.604 51.1749 157.081C51.7542 157.275 52.2369 157.502 52.5909 157.761C52.2691 157.729 51.8829 157.664 51.4646 157.632C59.4134 159.608 65.4956 165.279 66.5576 167.32C66.5576 167.611 61.6017 163.658 59.0916 161.876C57.0963 160.451 51.9795 159.446 49.5337 159.122C50.3382 159.446 51.0462 159.835 51.5933 160.321C55.3263 161.844 64.1118 165.991 65.4956 168.421C64.4015 167.806 63.2429 167.514 62.3741 167.352C66.6863 170.884 71.9641 177.299 73.5732 181.9C73.8628 179.665 72.0606 173.282 69.4218 170.236V170.204Z" fill="#80BA27"/>
<path d="M65.6565 161.714C66.5576 161.649 68.8424 163.172 70.2262 164.112C68.6493 161.682 67.0081 159.705 65.8174 158.345C64.0796 156.336 59.6386 155.428 54.6827 155.072C53.6207 155.202 52.3012 155.331 50.8853 155.461C54.9079 155.979 60.604 157.21 61.5373 158.539C60.5396 157.891 54.8757 157.405 51.0462 157.081C51.0783 157.081 51.1427 157.081 51.1749 157.081C62.4062 158.604 68.4563 167.417 69.8079 170.301C70.194 170.43 70.548 170.657 70.902 170.949C70.4193 168.648 67.877 163.237 65.6565 161.682V161.714Z" fill="#E4D630"/>
<path d="M70.2262 164.08C68.8424 163.14 66.5254 161.617 65.6565 161.682C67.877 163.237 70.4193 168.616 70.902 170.949C72.7686 172.634 74.0236 176.781 74.5707 178.984C74.796 177.072 73.1869 171.694 72.7364 168.486C71.964 166.899 71.0951 165.44 70.2584 164.112L70.2262 164.08Z" fill="#80BA27"/>
<path d="M72.7042 168.486C73.1547 171.694 74.7638 177.072 74.5385 178.984C73.9914 176.813 72.7364 172.633 70.8698 170.949C70.5159 170.625 70.1619 170.398 69.7757 170.301C69.647 170.268 69.5182 170.236 69.3895 170.203C71.9962 173.249 73.8305 179.632 73.5409 181.868C71.9318 177.267 66.6541 170.851 62.3418 167.32C60.5718 165.862 58.9949 164.857 58.126 164.436C56.2273 163.496 54.1034 162.913 52.269 162.33C56.0021 164.89 64.4014 169.555 66.9115 173.897C69.5826 178.53 72.3824 184.363 73.1225 188.866C73.8627 193.37 74.6994 197.323 75.4074 200.045C76.7912 194.31 76.566 190.389 76.1798 180.993C75.9867 176.684 74.5707 172.277 72.7042 168.518V168.486Z" fill="#213820"/>
<path d="M40.1046 172.828C40.7482 172.309 51.4002 175.841 55.8413 179.341C53.138 173.346 42.2929 170.851 38.753 169.782C32.5098 169.167 26.0735 168.421 26.1379 168.713C26.2988 169.231 37.6266 170.851 38.9782 173.67C34.151 171.823 23.3381 169.199 21.7612 169.069C20.2165 168.907 27.0711 170.949 30.6433 172.245C31.9305 172.698 34.4085 173.865 37.2083 175.323C37.337 173.865 42.2286 176.003 45.2214 177.429C45.3823 177.396 39.4288 173.346 40.0724 172.828H40.1046Z" fill="#80BA27"/>
<path d="M56.1309 184.816C58.3836 185.302 61.6017 189.028 62.1166 190C61.5696 186.987 57.7078 181.187 57.1607 180.669C60.2501 181.9 64.305 189.514 65.3348 194.861C65.5279 191.912 62.6316 182.289 60.5398 177.494C59.5422 176.327 58.3514 175.258 56.9355 174.318C54.3931 172.633 51.2715 171.532 48.2465 170.722C46.1869 170.56 42.486 170.203 38.753 169.847C42.293 170.916 53.1381 173.411 55.8413 179.405C51.4003 175.906 40.7482 172.374 40.1046 172.893C39.461 173.411 45.4145 177.461 45.2536 177.494C42.2286 176.068 37.337 173.929 37.2405 175.388C42.2929 178.012 48.4396 181.771 49.8234 183.229C51.9795 185.497 61.6983 193.079 64.0154 201.341C64.5946 198.554 60.3467 187.894 56.1309 184.881V184.816Z" fill="#E4D630"/>
<path d="M60.5074 177.461C62.567 182.289 65.4955 191.88 65.3024 194.828C64.3048 189.515 60.25 181.9 57.1284 180.637C57.6755 181.155 61.5694 186.955 62.0843 189.968C61.5694 188.996 58.3513 185.27 56.0986 184.784C60.2822 187.83 64.5301 198.457 63.983 201.244C61.6338 192.981 51.915 185.4 49.791 183.132C48.4072 181.673 42.2606 177.915 37.2081 175.29C34.4084 173.832 31.8982 172.666 30.6431 172.212C27.071 170.916 20.2164 168.907 21.7611 169.037C23.338 169.199 34.1509 171.824 38.9781 173.638C37.6265 170.819 26.2987 169.167 26.1378 168.681C26.0412 168.389 32.4775 169.134 38.7528 169.75C42.4859 170.106 46.2189 170.463 48.2463 170.625C41.6813 168.81 35.0842 168.259 29.4846 167.061C21.8255 165.44 10.8838 165.44 7.44041 165.116C6.05661 165.829 4.64063 166.542 3.25684 167.223C4.8659 167.579 9.75746 168.292 14.3916 168.94C19.5728 169.653 29.3559 172.504 36.9185 176.1C37.0472 176.165 37.1438 176.23 37.2725 176.262C44.8673 179.827 56.3239 190.746 58.8018 193.889C61.312 197.096 64.0795 206.072 66.5897 210.835C66.5897 210.154 67.7482 204.225 66.9115 196.805C66.2357 190.681 65.3024 182.97 60.5396 177.397L60.5074 177.461Z" fill="#213820"/>
<path d="M17.5131 187.149C17.2878 186.825 16.8051 186.307 16.1615 185.691C13.9732 183.618 9.9505 180.54 10.0149 180.118C10.1114 179.6 13.6192 180.896 16.2902 182.419C15.0995 180.28 7.27945 177.267 7.376 176.813C7.44036 176.425 15.8719 179.049 19.8624 180.248C15.3892 178.012 10.3367 176.23 7.34381 175.226C3.28896 173.865 -4.40238 172.893 -7.65269 172.439C-8.65031 172.893 -9.64793 173.379 -10.6777 173.865C-7.65269 174.966 1.45463 177.947 6.05656 179.859C9.46778 181.252 14.5524 185.238 18.382 189.32C18.2855 188.802 18.0602 187.992 17.4809 187.117L17.5131 187.149Z" fill="#213820"/>
<path d="M20.5383 182.03C20.4096 181.544 21.4716 182.03 26.0413 183.974C24.3357 182.678 22.1795 181.414 19.8625 180.28C15.8398 179.081 7.44049 176.457 7.37613 176.846C7.27959 177.332 15.0997 180.345 16.2904 182.451C13.6193 180.961 10.0794 179.632 10.015 180.15C9.95064 180.572 13.9411 183.65 16.1616 185.723C15.5824 184.103 19.251 187.246 21.6968 189.126C21.3107 188.51 17.2558 184.071 17.5454 183.747C17.8351 183.423 24.1426 188.283 27.9078 192.755C26.6206 188.866 20.6992 182.613 20.5705 182.062L20.5383 182.03Z" fill="#80BA27"/>
<path d="M36.0175 209.441C36.0497 208.988 30.772 200.92 30.5789 199.883C31.8018 200.337 39.3966 212.033 39.1391 210.64C38.8817 209.279 32.4132 200.077 31.3834 195.282C32.5741 196.222 37.176 204.808 37.2726 203.966C37.337 203.285 35.3417 197.615 34.6659 194.764C32.5098 190.778 29.8387 187.149 27.1355 184.816C26.8137 184.525 26.4275 184.233 26.0413 183.942C21.4716 181.998 20.4096 181.512 20.5383 181.998C20.667 182.548 26.5884 188.834 27.8756 192.69C24.1104 188.219 17.8029 183.358 17.5132 183.682C17.2236 184.006 21.2785 188.445 21.6646 189.061C19.2189 187.149 15.5502 184.039 16.1295 185.659C16.7731 186.275 17.288 186.793 17.4811 187.117C18.0603 187.992 18.2856 188.802 18.3821 189.32C20.4739 191.556 22.2439 193.856 23.2737 195.574C24.2713 197.226 25.9126 199.494 27.8756 201.989C27.232 199.527 26.7815 196.643 26.7815 196.643C28.648 200.304 35.9531 209.863 36.0175 209.409V209.441Z" fill="#E4D630"/>
<path d="M38.4633 203.706C37.6266 200.985 36.2749 197.777 34.6337 194.796C35.3095 197.647 37.3369 203.317 37.2404 203.998C37.1438 204.84 32.5741 196.222 31.3512 195.314C32.381 200.142 38.8173 209.312 39.1069 210.672C39.3644 212.033 31.7696 200.369 30.5467 199.915C30.7076 200.952 36.0175 209.02 35.9853 209.474C35.9531 209.927 28.6158 200.369 26.7493 196.708C26.7493 196.708 27.1998 199.591 27.8434 202.054C31.6086 206.914 36.3715 213.265 39.2034 215.727C43.4836 219.486 43.9985 221.559 48.3751 223.827C46.1868 221.494 40.4263 210.089 38.4633 203.706Z" fill="#213820"/>
<path d="M22.63 204.03C21.214 202.378 19.444 200.077 17.5775 197.809C19.3797 200.725 22.4369 204.905 22.4691 205.132C22.5013 205.456 18.9935 202.572 17.1913 202.021C19.9589 205.067 29.3237 212.552 29.6133 213.751C29.903 214.949 21.1818 206.914 19.1544 205.488C20.2808 206.882 23.692 210.737 25.8803 212.811C25.7516 213.038 25.301 212.811 24.6252 212.357C22.0829 210.51 16.2581 204.711 14.3916 202.572C12.0423 199.915 3.64301 192.528 1.06851 190.357C0.714514 190.065 0.263969 189.774 -0.21875 189.45C-2.3749 188.121 -5.68957 186.663 -7.71699 185.659C-8.71461 185.173 -9.39043 184.816 -9.42261 184.622C-9.48697 183.974 -1.89217 186.501 0.0387058 187.279C-0.830189 186.339 -9.96969 183.099 -10.1628 182.483C-10.2915 182.03 -2.85762 183.941 1.80868 186.048C3.54647 186.825 5.09118 187.635 6.12098 188.251C5.18772 186.404 -2.85762 182.71 -7.23428 181.058C-12.4798 179.859 -18.9483 179.341 -22.3595 179.308C-24.0973 180.118 -25.7707 180.863 -27.3154 181.511C-24.4835 181.868 -17.7576 182.775 -14.5394 183.941C-13.1235 184.46 -10.9351 185.367 -8.55371 186.501C-3.98397 188.672 1.03632 191.75 3.96482 194.731C8.43803 199.267 14.0054 204.451 17.127 207.789C18.6073 209.344 21.1175 211.256 23.8529 213.232C26.9423 215.468 30.2892 217.801 32.7027 219.291C37.2081 222.11 42.9686 224.605 45.8649 224.249C37.7874 221.106 26.1699 208.178 22.63 204.03Z" fill="#213820"/>
<path d="M1.873 186.08C-2.76111 183.974 -10.2272 182.062 -10.0985 182.516C-9.90537 183.164 -0.765875 186.404 0.103021 187.311C-1.86004 186.566 -9.45483 184.006 -9.35829 184.654C-9.35829 184.849 -8.68248 185.205 -7.65268 185.691C-5.62526 186.663 -2.31057 188.121 -0.154424 189.482C1.61555 190.033 4.57623 191.167 6.31402 191.977C6.12093 191.847 3.19243 189.838 3.22461 189.061C3.22461 188.251 12.5894 196.092 15.2604 199.008C11.2378 192.852 5.02677 188.056 1.90518 186.08H1.873Z" fill="#80BA27"/>
<path d="M25.8803 212.843C23.692 210.737 20.2808 206.882 19.1544 205.521C21.214 206.946 29.9352 214.95 29.6133 213.783C29.3237 212.584 19.9268 205.132 17.1913 202.054C18.9613 202.605 22.5013 205.456 22.4691 205.164C22.4691 204.938 19.3797 200.758 17.5775 197.842C14.7456 194.407 11.7205 190.973 9.56437 189.126C5.99225 186.048 1.13286 183.423 -5.33559 181.641C-5.91485 181.479 -6.5263 181.317 -7.16992 181.188C-2.79326 182.808 5.25208 186.501 6.18534 188.381C5.15553 187.765 3.61083 186.955 1.87304 186.177C4.99463 188.154 11.2056 192.949 15.2283 199.105C12.5251 196.189 3.22465 188.316 3.19247 189.158C3.19247 189.968 6.12097 191.945 6.28188 192.074C4.54408 191.264 1.61558 190.13 -0.186578 189.579C0.328323 189.903 0.746686 190.195 1.10068 190.487C3.64301 192.658 12.0745 200.045 14.4237 202.702C16.2903 204.808 22.1151 210.608 24.6574 212.487C25.301 212.973 25.7516 213.167 25.9125 212.941L25.8803 212.843Z" fill="#E4D630"/>
<path d="M10.7229 223.827C11.3987 221.689 10.8195 217.315 10.5942 215.662C10.3689 214.01 7.50478 208.696 7.24733 206.622C8.69549 208.34 13.4261 216.083 12.5573 223.86C13.9089 222.369 13.0078 216.991 12.686 215.047C12.3963 213.329 8.69548 205.067 8.1484 202.507C5.67044 199.721 1.77651 196.902 -3.75868 194.569C-4.30577 194.926 -4.85285 195.541 -4.33795 196.254C-3.5656 197.323 4.8659 203.447 5.44517 206.234C2.19485 202.021 -3.98396 198.425 -4.30577 198.619C-4.62759 198.846 -2.63234 200.628 -2.50361 201.147C-3.46905 200.466 -5.01376 199.753 -6.26884 199.267C-6.07575 199.462 -5.91484 199.656 -5.75394 199.883C-8.68244 198.619 -10.1306 197.744 -10.034 198.457C-9.9375 199.17 -4.94939 201.341 -3.30815 202.831C-2.56798 203.479 -1.15201 204.873 0.103067 206.363C1.67995 208.242 3.19248 210.284 3.77175 211.191C4.80155 212.843 8.01968 219 8.18059 218.611C8.30931 218.222 4.80155 209.733 4.31883 208.242C5.86353 210.672 7.92314 214.561 8.75985 216.245C9.59657 217.93 10.6907 223.795 10.6907 223.795L10.7229 223.827Z" fill="#E4D630"/>
<path d="M-4.3379 196.254C-4.8528 195.541 -4.3379 194.925 -3.75863 194.569C-4.65971 194.18 -5.56079 193.824 -6.49405 193.467C-9.96964 192.949 -14.9256 191.912 -14.829 192.139C-14.7325 192.431 -7.16986 195.217 -5.97915 195.93C-9.22947 195.476 -29.6002 189.028 -28.4417 190.746C-27.3154 192.398 -10.8707 194.537 -6.20442 199.267C-4.94935 199.753 -3.40464 200.466 -2.4392 201.146C-2.56792 200.628 -4.59535 198.814 -4.24136 198.619C-3.91954 198.392 2.22709 201.989 5.50958 206.233C4.9625 203.447 -3.50118 197.323 -4.27353 196.254H-4.3379Z" fill="#80BA27"/>
<path d="M8.14837 202.507C8.69545 205.067 12.3963 213.329 12.6859 215.047C13.0078 216.991 13.9088 222.369 12.5572 223.86C13.4261 216.083 8.69546 208.34 7.2473 206.622C7.50475 208.696 10.3689 214.01 10.5942 215.662C10.8194 217.315 11.4309 221.689 10.7229 223.827C10.7229 223.827 9.62872 217.93 8.792 216.278C7.95528 214.593 5.89569 210.705 4.35099 208.275C4.80153 209.765 8.34146 218.254 8.21273 218.643C8.08401 219.032 4.86588 212.876 3.80389 211.223C3.22463 210.316 1.71211 208.275 0.135223 206.396C-1.11985 204.905 -2.56801 203.512 -3.276 202.864C-4.91725 201.373 -9.87318 199.202 -10.0019 198.49C-10.0984 197.777 -8.65028 198.652 -5.72178 199.915C-5.88268 199.721 -6.04359 199.494 -6.23668 199.3C-10.903 194.569 -27.3476 192.398 -28.474 190.778C-29.6325 189.061 -9.22954 195.509 -6.01141 195.962C-7.20212 195.217 -14.7969 192.463 -14.8613 192.171C-14.9256 191.945 -9.96971 192.981 -6.52631 193.5C-9.6479 192.301 -12.9948 191.264 -16.2451 190.292C-25.7064 187.473 -34.9424 187.344 -39.0938 186.728C-40.0271 187.149 -40.9925 187.57 -41.9258 187.992C-37.6135 189.547 -20.6217 195.379 -16.5347 196.643C-12.1902 198.004 -3.30819 203.447 -0.411865 206.784C2.48446 210.122 6.70022 218.254 8.08402 221.689C9.46782 225.123 10.5298 228.947 11.27 232.446C12.879 230.372 14.649 227.878 15.0995 223.471C15.5823 219.064 12.2998 207.27 8.1162 202.572L8.14837 202.507Z" fill="#213820"/>
<path d="M-2.56787 221.527C-3.3724 220.263 -3.98385 218.384 -4.37003 217.217C-7.36289 213.848 -11.643 210.608 -14.0244 208.858C-14.9255 208.21 -15.8588 207.594 -16.8242 206.914C-19.27 205.909 -23.4214 204.225 -26.1246 203.544C-24.9339 204.192 -23.9041 204.808 -23.3892 205.391C-23.6466 205.261 -23.9685 205.099 -24.3546 204.937C-20.5251 207.238 -9.29377 214.69 -6.78363 219C-8.87542 217.315 -22.8421 207.076 -22.8421 207.659C-22.8421 208.242 -20.4285 211.385 -20.332 211.612C-23.3248 209.636 -26.6395 207.303 -28.7957 205.812C-29.9864 205.197 -31.5954 204.516 -33.1401 203.836C-29.7289 205.877 -25.0948 209.214 -23.357 211.904C-20.9434 213.751 -16.6633 217.509 -14.7002 218.676C-12.3188 220.101 -10.1627 221.786 -8.10306 222.564C-8.10306 222.24 -11.3856 220.36 -11.0637 219.194C-10.6454 220.036 -6.36526 222.24 -4.27348 224.313C-4.04821 224.216 -6.17218 221.138 -7.65252 219.55C-7.5238 219.615 -7.39507 219.68 -7.26634 219.745C0.360634 223.86 -0.283001 229.044 0.618076 233.321C1.42261 229.854 -1.34498 223.341 -2.53569 221.494L-2.56787 221.527Z" fill="#E4D630"/>
<path d="M-4.33795 217.218C-3.95177 218.384 -3.34034 220.263 -2.5358 221.527C-1.3451 223.374 1.4225 229.886 0.617966 233.353C-0.283112 229.076 0.360523 223.892 -7.26645 219.777C-7.39518 219.712 -7.52391 219.648 -7.65264 219.583C-6.14011 221.203 -4.04832 224.249 -4.27359 224.346C-6.36538 222.272 -10.6455 220.069 -11.0639 219.226C-11.3857 220.393 -8.13536 222.24 -8.10317 222.596C-10.1628 221.851 -12.3189 220.134 -14.7003 218.708C-16.6634 217.542 -20.9435 213.783 -23.3571 211.936C-23.872 211.547 -24.2582 211.256 -24.5156 211.126C-25.0949 210.802 -25.9316 210.219 -26.8971 209.539C-28.313 208.534 -29.9221 207.141 -31.0163 206.428C-32.8828 205.229 -39.9949 201.211 -39.0938 201.438C-38.6111 201.535 -35.9078 202.669 -33.1402 203.836C-31.5634 204.516 -29.9865 205.197 -28.7958 205.812C-28.0878 206.169 -27.5407 206.46 -27.1867 206.752C-27.7338 205.1 -39.7374 200.142 -37.9674 200.175C-36.3584 200.175 -27.766 203.447 -24.3869 204.938C-24.0008 205.1 -23.6468 205.262 -23.4215 205.391C-23.9364 204.808 -24.9662 204.16 -26.1569 203.544C-29.5359 201.73 -34.3953 199.883 -33.5908 199.721C-32.9793 199.591 -28.7636 200.92 -24.934 202.248C-27.3476 201.114 -30.0508 200.013 -33.1402 198.911C-40.6063 196.254 -50.5825 194.116 -54.1225 193.014C-55.1523 193.403 -56.1499 193.759 -57.0188 194.051C-52.5456 196.384 -35.1033 204.516 -31.2094 207.497C-30.3083 208.178 -29.1819 209.085 -27.9912 209.96C-23.6789 213.135 -18.6586 217.023 -15.6014 219.518C-11.7075 222.693 -5.30339 226.096 -2.92198 229.271C-0.540558 232.446 -0.798012 236.723 -0.411839 239.412C2.16267 234.325 1.64777 229.627 0.746693 226.096C0.296154 224.313 -1.44164 220.555 -4.43451 217.218H-4.33795Z" fill="#213820"/>
<path d="M10.7552 105.077C10.7552 105.077 10.4977 102.776 10.6264 102.355C10.7552 101.902 11.5919 101.934 12.4286 102.906C12.4286 101.351 11.077 98.5643 10.2081 97.5599C10.015 97.9487 10.1115 98.7587 10.4655 100.087C8.27719 97.4951 4.19016 92.6997 3.38563 92.4081C2.61328 92.1165 7.98757 98.3375 7.56921 100.573C6.7325 99.0504 4.41543 96.1666 4.1258 95.9398C3.86835 95.713 4.28671 97.6247 5.31652 100.249C5.83142 101.545 7.08648 104.85 8.66336 108.576C8.4381 106.956 7.37612 102.258 7.53702 101.61C7.69793 100.93 9.43572 102.809 10.7552 105.077Z" fill="#80BA27"/>
<path d="M27.6825 137.381C27.232 134.076 26.4918 129.896 25.108 125.004C26.1056 130.933 27.0389 140.978 25.3333 143.051C25.7838 136.766 23.338 124.356 20.2808 120.371C20.313 120.565 20.3773 120.792 20.4417 121.019C21.2784 124.161 23.0806 130.609 23.4346 135.178C21.922 130.642 20.3452 126.689 18.4786 123.643C18.0281 122.93 17.5776 122.25 17.0948 121.602C18.2212 124.647 20.9244 132.975 20.3773 132.618C19.8303 132.262 15.1318 122.282 13.2009 118.524C13.1044 118.362 13.0078 118.167 12.9113 117.94C11.8815 115.834 10.208 112.011 8.72769 108.544C7.15081 104.818 5.89574 101.513 5.38084 100.217C4.31886 97.5601 3.90049 95.6484 4.19012 95.9076C4.44757 96.1344 6.76463 99.0181 7.63353 100.541C8.08406 98.2729 2.6776 92.0843 3.44995 92.3759C4.22231 92.6675 8.34152 97.4305 10.5299 100.055C10.1759 98.7265 10.0793 97.9165 10.2724 97.5277C10.4333 97.2037 10.7551 97.1389 11.27 97.3009C8.11625 93.6395 5.2843 91.1122 3.48214 89.719C0.135284 87.1593 -6.52625 83.0443 -8.87549 82.6555C-8.48931 83.6924 -4.49883 86.7381 -1.85996 89.3626C0.778912 91.9871 2.42016 95.454 3.93268 100.12C5.4452 104.753 8.79206 112.108 11.5918 117.714C11.6884 117.908 11.7849 118.102 11.8815 118.329C14.81 124.194 20.6026 137.381 22.2117 142.565C23.5633 146.875 23.4024 150.082 23.3058 151.476C24.4 150.406 25.4942 149.272 26.5561 148.106C27.2641 146.065 28.4227 142.403 27.7469 137.381H27.6825Z" fill="#213820"/>
<path d="M13.0723 108.576C14.617 110.974 18.0926 121.634 18.4787 123.675C20.3452 126.689 21.9221 130.642 23.4346 135.21C23.0807 130.609 21.2463 124.226 20.4418 121.051C18.5109 116.774 15.0675 110.456 13.0723 108.609V108.576Z" fill="#80BA27"/>
<path d="M25.108 125.004C23.8208 120.37 21.8899 115.121 19.3798 109.743C16.9983 104.688 13.9089 100.411 11.2057 97.3007C10.6908 97.1387 10.3368 97.2035 10.2081 97.5275C11.0448 98.5319 12.4286 101.318 12.4286 102.874C11.5919 101.934 10.7552 101.902 10.6264 102.323C10.4977 102.776 10.7552 105.045 10.7552 105.045C9.43573 102.776 7.69793 100.865 7.53703 101.578C7.37612 102.226 8.4381 106.924 8.66337 108.544C10.1437 112.011 11.8172 115.867 12.847 117.94C12.9435 118.167 13.04 118.361 13.1366 118.523C15.0353 122.282 19.7659 132.229 20.313 132.618C20.8601 132.974 18.1891 124.647 17.0305 121.602C17.5132 122.217 17.996 122.898 18.4143 123.643C18.0281 121.602 14.5847 110.942 13.0079 108.544C15.0031 110.391 18.4465 116.741 20.3774 120.986C20.313 120.759 20.2487 120.532 20.2165 120.338C23.2415 124.323 25.6873 136.733 25.269 143.019C26.9746 140.945 26.0413 130.901 25.0437 124.971L25.108 125.004Z" fill="#E4D630"/>
<path d="M5.7026 136.733C3.96481 133.072 0.843216 127.11 -0.0578613 126.138C1.42248 129.572 5.99223 139.033 6.08877 143.472C6.92549 145.643 7.50476 147.814 7.79439 148.138C8.24493 148.624 7.6013 143.213 5.67042 136.733H5.7026Z" fill="#80BA27"/>
<path d="M1.51914 140.491C1.51914 140.491 5.12345 147.36 5.54181 148.106C5.92798 148.851 5.44526 143.537 3.93274 139.293C3.93274 139.293 3.96492 139.325 3.9971 139.357C2.19495 135.858 -2.27827 128.244 -2.53572 127.466C-2.31045 131.581 4.38327 142.63 3.90055 142.338C3.41783 142.079 -1.98863 134.724 -2.95406 133.136C-3.91951 131.549 -7.62036 125.814 -7.62036 125.814C-7.23419 127.11 -6.71929 128.957 -6.33312 130.317C-4.24133 134.044 -2.3748 137.349 -1.63463 138.677C0.103161 141.723 4.67291 151.346 5.09127 151.832C5.50963 152.318 2.74203 144.704 1.51914 140.427V140.491Z" fill="#80BA27"/>
<path d="M10.9481 143.829C10.562 141.042 9.95052 138.418 9.27471 136.409C6.60366 128.633 3.06371 121.116 -1.47386 115.964C-3.17947 114.02 -5.43216 110.909 -7.49177 107.831C-7.49177 109.03 -2.85766 117.746 -2.82548 119.593C-4.43455 116.353 -8.74684 110.164 -10.0341 108.382C-9.51919 109.678 -9.10083 110.877 -9.10083 111.59C-9.26174 111.136 -10.6134 108.803 -11.8684 106.665C-10.9995 109.516 -7.07341 117.94 -6.17233 120.63C-7.36304 118.524 -10.8386 112.627 -12.2224 110.164C-11.8041 111.655 -11.5466 112.918 -11.8363 113.437C-11.965 112.724 -12.9304 110.132 -13.7993 107.702C-13.6062 110.423 -9.71228 123.287 -9.64792 124.291C-9.64792 124.291 -9.6801 124.291 -9.71229 124.291C-8.6503 126.268 -7.49177 128.374 -6.36542 130.35C-6.7516 128.989 -7.26651 127.142 -7.65268 125.846C-7.65268 125.846 -3.95183 131.549 -2.98639 133.169C-2.02095 134.757 3.38552 142.112 3.86824 142.371C4.35096 142.63 -2.34276 131.614 -2.56803 127.499C-2.31057 128.276 2.16263 135.858 3.96478 139.39C4.70495 140.2 5.4773 141.852 6.08875 143.473C5.96002 139.001 1.42246 129.54 -0.0578852 126.138C0.843192 127.142 3.9326 133.072 5.70258 136.733C5.25204 135.243 4.76932 133.72 4.22224 132.229C5.6704 134.4 9.40343 144.639 10.3045 148.884C10.4011 148.689 10.8838 146.486 10.9481 143.829Z" fill="#E4D630"/>
<path d="M10.9483 143.829C10.8839 146.486 10.4334 148.689 10.3047 148.883C9.37139 144.639 5.67054 134.4 4.22238 132.229C4.76946 133.72 5.28436 135.243 5.70272 136.733C7.66578 143.246 8.27723 148.657 7.82669 148.138C7.53706 147.782 6.9578 145.643 6.12108 143.472C5.47746 141.82 4.73728 140.2 3.99711 139.39C3.99711 139.39 3.96493 139.358 3.93275 139.325C5.44527 143.57 5.92799 148.883 5.54182 148.138C5.15564 147.393 1.51915 140.524 1.51915 140.524C2.74204 144.769 5.47746 152.415 5.09128 151.929C4.67292 151.443 0.10317 141.82 -1.63462 138.774C-2.37479 137.446 -4.24132 134.141 -6.33311 130.415C-7.45945 128.438 -8.61797 126.332 -9.67995 124.356C-11.2247 121.44 -12.5441 118.88 -13.1234 117.325C-14.8933 112.789 -16.084 102.809 -15.73 102.582C-15.5691 102.485 -14.7646 104.98 -13.767 107.734C-12.8981 110.132 -11.9326 112.756 -11.8039 113.469C-11.5465 112.951 -11.8039 111.687 -12.1901 110.196C-13.2199 106.503 -14.9899 101.837 -14.5393 102.258C-14.2175 102.55 -13.0912 104.526 -11.8361 106.73C-10.581 108.868 -9.2616 111.201 -9.06851 111.655C-9.06851 110.942 -9.48687 109.743 -10.0018 108.447C-11.4499 104.915 -13.5417 100.8 -12.8015 101.157C-12.351 101.351 -11.0959 102.744 -9.77651 104.299C-12.0936 100.606 -13.6383 97.6248 -14.5072 96.2964C-16.3093 93.4774 -19.6562 88.4877 -21.2009 86.6084C-21.3618 87.9044 -19.3987 92.959 -18.5942 95.4863C-17.7897 98.0136 -18.2724 104.267 -17.1782 109.322C-16.084 114.376 -11.3856 124.097 -7.36291 131.095C-7.10546 131.549 -6.81582 132.035 -6.52619 132.553C-2.50352 139.455 2.90294 148.592 4.09365 153.355C5.25218 157.956 5.7349 161.488 5.05909 163.432C6.63598 162.654 8.11632 161.909 9.5323 161.196C10.9161 158.507 11.9781 151.087 10.9805 143.861L10.9483 143.829Z" fill="#213820"/>
<path d="M-89.8436 192.01C-85.9497 192.074 -81.5087 192.366 -77.9687 192.69C-71.3715 193.273 -53.4787 189.677 -42.4405 185.4C-41.7003 185.108 -40.9923 184.849 -40.3487 184.59C-34.0734 182.257 -22.7777 177.397 -13.059 173.087C-11.9004 172.569 -10.7419 172.05 -9.64773 171.564C-4.36999 169.167 0.0388412 167.19 2.64553 165.829C4.64078 164.793 6.92566 163.561 9.33926 162.233C16.0973 158.474 23.2416 153.161 26.1701 150.374C27.5539 149.078 29.356 147.199 31.3835 144.963C34.4729 141.561 37.9485 137.284 40.7161 133.655C41.3275 132.845 41.9068 132.035 42.4538 131.322C46.8305 125.328 56.5815 110.877 58.5445 107.637C58.995 106.892 59.6065 105.887 60.2823 104.818C60.9903 103.684 61.7305 102.42 62.4385 101.221C62.8568 100.476 63.2752 99.7634 63.6292 99.0829C64.4015 97.5925 64.9486 96.3612 64.9164 95.7456C64.7877 95.8428 64.305 96.4908 63.5648 97.4953C63.1464 98.0785 62.6315 98.7589 62.0523 99.5689C61.2799 100.638 60.411 101.869 59.4456 103.23C57.1607 106.503 54.3288 110.618 51.8186 114.311C50.8854 115.672 50.0165 116.968 49.2119 118.167C48.697 118.945 48.1499 119.722 47.635 120.5C45.2214 124.064 42.6469 127.79 40.1046 131.322C39.2357 132.521 38.399 133.687 37.5301 134.821C35.1809 137.964 32.8638 140.945 30.6433 143.537C29.356 145.06 27.9722 146.615 26.5885 148.106C25.5265 149.272 24.4323 150.406 23.3381 151.476C19.3155 155.396 15.0675 158.312 11.9459 159.932C11.2058 160.321 10.4012 160.71 9.5967 161.131C8.18073 161.844 6.70039 162.589 5.1235 163.367C1.51919 165.149 -2.82529 167.158 -7.36286 169.296C-9.06847 170.106 -11.1281 171.014 -13.4129 171.986C-14.5393 172.472 -15.6978 172.958 -16.8885 173.476C-23.6466 176.327 -31.177 179.341 -35.3928 181.09C-35.7146 181.22 -36.0042 181.35 -36.2617 181.447C-38.096 182.224 -40.4453 183.196 -42.8267 184.201C-48.201 186.437 -53.5109 188.478 -55.2487 189.061C-55.4418 189.126 -55.6992 189.191 -55.9888 189.288C-57.1152 189.644 -58.6277 190.26 -61.4597 190.454C-64.6456 190.681 -68.1856 190.811 -71.275 190.908C-73.7208 190.973 -75.9091 191.005 -77.5503 191.037C-78.4836 191.037 -79.256 191.037 -79.803 191.07C-81.9592 191.135 -86.1428 190.908 -89.7149 190.811C-91.324 190.778 -92.8365 190.778 -94.0916 190.811C-95.5397 190.843 -96.6661 190.973 -97.181 191.07C-99.0797 191.394 -105.098 192.852 -110.247 195.25C-110.118 195.833 -110.053 196.092 -109.893 196.675C-105.291 194.375 -101.3 193.046 -99.2084 192.658C-96.9235 192.236 -93.5445 191.945 -89.7149 192.01H-89.8436Z" fill="#213820"/>
<path d="M-90.0368 193.856C-89.2645 193.856 -88.3956 193.921 -87.4623 193.953C-83.9867 194.148 -79.417 194.504 -74.6219 194.763C-73.3025 194.828 -71.9509 194.893 -70.5993 194.925C-66.3513 195.055 -62.2321 195.055 -59.5933 194.893C-58.4669 194.828 -57.9198 194.407 -56.9222 194.083C-56.0533 193.791 -55.0879 193.435 -54.0259 193.046C-50.6147 191.75 -46.3024 189.903 -41.9257 187.959C-40.9924 187.538 -40.027 187.117 -39.0938 186.696C-35.5216 185.108 -32.0782 183.585 -29.3428 182.451C-28.667 182.159 -27.9912 181.868 -27.251 181.576C-25.7063 180.896 -24.0651 180.15 -22.2951 179.373C-18.5942 177.688 -14.5394 175.776 -10.6455 173.897C-9.61565 173.411 -8.61802 172.925 -7.6204 172.471C-3.56555 170.527 0.103119 168.81 2.87071 167.482C2.99944 167.417 3.12817 167.352 3.22471 167.32C4.64069 166.639 6.02448 165.926 7.40828 165.214C13.6515 161.941 19.605 158.247 21.3106 156.951C21.6646 156.692 22.2117 156.238 22.8232 155.72C23.4024 155.202 24.0782 154.618 24.754 153.97C27.232 151.637 30.0961 148.43 31.3512 147.036C31.5765 146.777 31.7374 146.615 31.8339 146.486C32.027 146.259 32.3488 145.935 32.735 145.481C34.6015 143.408 38.3989 138.871 41.3918 134.983C41.5527 134.756 41.7458 134.53 41.9067 134.303C42.3572 133.72 42.8399 133.104 43.3227 132.424C45.8972 128.989 49.0831 124.55 51.3036 121.31C51.5933 120.889 51.8829 120.468 52.1404 120.111C52.7196 119.269 53.2023 118.523 53.5563 117.973C53.9425 117.357 54.5218 116.45 55.1976 115.381C57.4825 111.719 60.8937 106.243 62.0844 104.299C61.4729 104.494 60.8293 104.721 60.1535 104.915C59.4777 105.984 58.8663 106.956 58.4157 107.734C56.4527 110.974 46.7017 125.425 42.325 131.419C41.8101 132.132 41.2309 132.91 40.5872 133.752C37.8518 137.381 34.3441 141.658 31.2547 145.06C29.2594 147.263 27.4251 149.143 26.0413 150.471C23.1128 153.258 16.0007 158.571 9.21044 162.33C6.82903 163.658 4.54414 164.89 2.51672 165.926C-0.0899734 167.287 -4.49882 169.296 -9.77655 171.661C-10.8707 172.147 -12.0292 172.666 -13.1878 173.184C-22.9065 177.494 -34.2022 182.354 -40.4775 184.687C-41.1534 184.946 -41.8613 185.205 -42.5693 185.497C-53.5754 189.774 -71.4682 193.338 -78.0975 192.787C-81.6375 192.463 -86.1107 192.171 -89.9724 192.107C-93.802 192.042 -97.2132 192.333 -99.4659 192.755C-101.558 193.143 -105.516 194.504 -110.15 196.772C-109.925 197.712 -109.796 198.198 -109.571 199.138C-104.1 196.254 -97.3742 193.953 -93.6411 193.889C-92.7722 193.889 -91.5815 193.889 -90.1334 193.889L-90.0368 193.856Z" fill="#80BA27"/>
</g>
<g clip-path="url(#clip1_319_1075)">
<path d="M66.2371 213.334C63.9021 209.984 56.467 212.883 56.5899 216.877C56.5899 217.65 57.02 218.101 57.573 218.294C58.1261 218.874 59.1707 219.196 60.0924 219.196C62.3045 219.131 68.4492 216.426 66.2986 213.334H66.2371Z" fill="#C9D400"/>
<path d="M61.3829 233.56C62.0588 232.272 60.9527 231.177 59.8467 230.919C57.8804 230.468 55.7297 231.756 54.1935 233.496C52.6573 234.591 51.1826 236.137 51.7356 237.747C51.7356 237.811 51.7971 237.94 51.8585 238.005C51.9814 238.456 52.3501 238.842 52.7802 238.842C54.255 238.842 55.7297 238.198 56.9587 237.232C57.6346 236.781 58.249 236.394 58.5563 236.137C59.5394 235.493 60.8913 234.72 61.4443 233.56H61.3829ZM58.8635 233.174C58.8635 233.174 58.8635 233.174 58.925 233.174C58.8021 233.302 58.6792 233.367 58.4948 233.496C58.4334 233.496 58.3105 233.367 58.249 233.367C58.4334 233.302 58.6177 233.238 58.8021 233.174H58.8635Z" fill="#C9D400"/>
<path d="M83.6882 230.21C84.3027 227.956 82.5821 226.023 80.4315 226.217C79.1411 226.346 77.7892 227.119 76.7446 228.149C74.9012 229.244 73.2421 230.661 73.5494 232.401C73.918 234.397 76.6832 234.333 78.0965 234.14C80.2471 233.818 83.0737 232.658 83.6882 230.275V230.21Z" fill="#C9D400"/>
<path d="M90.0787 212.174C89.9558 210.435 88.8498 209.598 87.4979 209.469C87.3136 209.276 87.0064 209.147 86.6991 209.211C86.0846 209.34 85.4702 209.533 84.9171 209.855C83.7496 210.306 82.705 211.079 82.152 212.046C81.2917 212.947 80.2471 214.429 81.1688 215.588C82.2749 216.877 84.6099 216.039 85.9618 215.717C87.5594 215.266 90.2631 214.365 90.0787 212.174Z" fill="#C9D400"/>
<path d="M112.568 213.141C110.848 211.53 106.915 212.368 104.212 214.171C103.228 214.493 102.368 215.009 101.999 215.782C101.754 216.233 101.692 216.619 101.692 217.006C101.324 217.907 101.324 218.809 101.877 219.775C102.491 220.806 103.72 221.257 104.949 221.45C107.161 222.03 109.926 221.45 111.647 220.355C114.289 218.809 114.903 215.331 112.568 213.141Z" fill="#C9D400"/>
<path d="M38.8315 232.079C39.0773 231.628 39.2002 231.112 39.2002 230.533C39.2616 227.505 35.8206 227.312 33.8543 228.085C31.7651 228.922 28.6312 231.306 28.9385 234.011C29.2457 237.039 32.5024 237.103 34.6531 236.459C36.3736 235.943 38.8315 234.14 38.7701 232.079H38.8315ZM33.3012 234.526C33.3012 234.526 33.4241 234.526 33.4856 234.526C33.0554 234.655 32.5639 234.72 32.1337 234.655C32.5024 234.655 32.9326 234.591 33.2398 234.526H33.3012Z" fill="#C9D400"/>
<path d="M74.471 251.532C76.6831 248.762 73.2421 245.412 70.5998 245.477C68.1419 245.541 64.025 246.894 63.6563 249.986C63.349 252.434 64.8852 253.593 66.7287 253.851C69.3095 254.43 72.7505 253.722 74.471 251.596V251.532ZM70.9685 250.05C70.9685 250.372 70.477 250.759 70.0468 251.016C70.0468 251.016 70.0468 251.016 69.9854 251.016C70.4155 250.759 70.7227 250.437 70.9685 249.986V250.05ZM71.6445 247.796C72.136 247.989 72.5662 248.375 72.812 248.826C72.3818 248.311 71.6445 247.925 70.9071 247.667C71.1529 247.667 71.3987 247.731 71.6445 247.796Z" fill="#C9D400"/>
<path d="M49.0934 254.173C47.2499 252.885 44.6691 253.4 42.8872 254.431C41.2895 255.397 39.4461 257.458 40.0606 259.584C40.9208 262.482 45.2222 261.581 47.5572 259.777C49.8922 258.489 51.8585 256.105 49.0934 254.173Z" fill="#C9D400"/>
<path d="M144.951 221.064C145.811 219.26 144.951 217.392 143.231 216.683C141.633 215.975 139.605 216.297 138.069 216.941C136.717 217.521 135.55 219.002 135.734 220.613C135.918 222.094 137.455 222.61 138.684 222.674C138.929 222.674 139.175 222.674 139.482 222.674C141.264 223.576 144.029 222.867 144.951 220.999V221.064Z" fill="#C9D400"/>
<path d="M163.57 208.116C163.14 207.086 161.972 206.377 160.62 206.055C160.62 206.055 160.497 205.991 160.497 205.926C158.777 204.96 156.565 205.282 155.151 206.764C153.8 208.116 153.615 210.242 155.028 211.659C157.794 214.365 165.905 213.527 163.57 208.116Z" fill="#C9D400"/>
<path d="M128.36 202.126C127.623 200.193 125.042 199.935 123.383 200C121.724 200.129 119.696 201.159 119.389 203.027C119.143 204.702 120.372 205.926 121.724 206.57C122.891 207.085 124.182 207.15 125.349 206.699C127.5 206.312 129.343 204.638 128.36 202.126Z" fill="#C9D400"/>
<path d="M98.3742 249.599C98.4357 246.83 96.1007 245.412 93.7042 245.541C90.8776 245.735 87.0064 247.667 86.3305 250.759C85.6546 253.851 89.3414 255.332 91.5535 255.332C93.0283 255.332 94.6874 254.559 95.7934 253.335C97.2682 252.756 98.3128 251.467 98.3742 249.599Z" fill="#C9D400"/>
<path d="M82.3978 273.046C81.1074 269.117 77.2977 268.666 74.2253 270.599C71.2758 272.402 68.6336 275.623 69.2481 279.423C69.8011 282.58 73.0578 282.322 75.2699 281.42C76.6217 280.841 77.9736 279.939 79.0796 278.844C81.2917 277.555 83.1966 275.623 82.3978 273.111V273.046ZM72.7506 277.684C72.7506 277.684 72.6277 278.006 72.6277 278.135C72.5048 277.813 72.6277 277.427 72.6277 277.04C72.6277 277.298 72.6277 277.491 72.7506 277.684Z" fill="#C9D400"/>
</g>
<defs>
<clipPath id="clip0_319_1075">
<rect width="230" height="241" fill="white" transform="translate(-119)"/>
</clipPath>
<clipPath id="clip1_319_1075">
<rect width="135" height="82" fill="white" transform="translate(29 200)"/>
</clipPath>
</defs>
</svg>
