<svg width="222" height="305" viewBox="0 0 222 305" fill="none" xmlns="http://www.w3.org/2000/svg">
<g clip-path="url(#clip0_319_1077)">
<path d="M207.176 219.061C207.372 219.401 207.459 219.583 207.632 219.901C209.023 218.914 210.325 217.836 211.493 216.71C217.586 210.794 219.744 208.449 226.319 204.363C230.893 201.5 234.23 199.783 235.819 199.003C234.985 199.1 234.241 199.199 233.588 199.3C233.159 199.36 232.731 199.419 232.326 199.457C229.94 200.786 224.416 203.947 221.895 205.273C218.647 206.991 213.966 211.988 210.953 215.509C209.482 217.236 208.202 218.337 207.222 219.017L207.176 219.061Z" fill="#E16E33"/>
<path d="M203.538 222.39C204.968 221.674 206.356 220.822 207.632 219.901C207.436 219.56 207.35 219.379 207.176 219.061C206.174 219.762 205.494 220.02 205.314 220.061C204.952 220.145 207.304 218.276 208.198 217.37C209.114 216.487 214.586 210.11 217.381 207.373C219.718 205.076 225.812 201.454 228.877 199.912C227.593 200.047 226.376 200.205 225.182 200.296C220.145 202.723 213.913 207.67 211.93 209.096C209.536 210.829 204.095 216.735 202.246 218.208C201.081 219.154 198.549 221.064 196.681 222.38C197.19 222.816 198.488 223.109 199.597 222.747C200.66 222.384 202.925 221.525 203.605 222.414L203.538 222.39Z" fill="#FAB424"/>
<path d="M204.191 210.509C206.491 208.999 207.425 209.51 206.905 209.658C206.407 209.829 202.071 214.405 200.578 216.065C199.315 217.458 194.898 220.347 192.852 221.524C193.161 221.845 194.336 222.698 195.327 222.625C196.125 222.033 197.241 221.311 198.333 220.611C200.7 219.124 206.181 213.445 208.176 211.39C210.171 209.334 215.778 204.196 220.986 201.075C217.426 201.461 205.282 208.707 200.49 212.398C201.053 212.386 201.345 212.369 201.886 212.333C202.709 211.584 203.486 210.923 204.192 210.464L204.191 210.509Z" fill="#FAB424"/>
<path d="M195.984 217.668C194.684 218.612 190.788 222.499 192.035 221.959C192.217 221.872 192.512 221.72 192.876 221.502C194.922 220.325 199.36 217.459 200.601 216.042C202.071 214.405 206.409 209.784 206.928 209.636C207.426 209.465 206.492 208.954 204.214 210.487C203.509 210.946 202.732 211.607 201.908 212.356C200.01 214.053 197.944 216.265 196.007 217.646L195.984 217.668Z" fill="#51291D"/>
<path d="M205.313 220.062C204.952 220.145 207.303 218.276 208.197 217.37C209.114 216.487 214.586 210.111 217.381 207.373C219.718 205.077 225.812 201.454 228.877 199.912C229.981 199.775 231.107 199.66 232.302 199.479C229.916 200.808 224.393 203.969 221.872 205.295C218.624 207.013 213.943 212.01 210.93 215.531C209.459 217.258 208.179 218.359 207.199 219.039C206.196 219.74 205.517 219.998 205.336 220.039L205.313 220.062Z" fill="#E16E33"/>
<path d="M195.327 222.625C196.125 222.033 197.241 221.311 198.333 220.611C200.7 219.124 206.181 213.445 208.176 211.389C210.172 209.334 215.778 204.196 220.986 201.075C217.426 201.461 205.282 208.707 200.491 212.398C200.057 212.728 199.691 213.036 199.372 213.3C199.326 213.344 199.257 213.41 199.211 213.454C195.647 216.448 191.481 220.331 188.683 222.056C186.635 223.324 185.211 223.725 184.717 223.717C184.537 223.713 184.493 223.668 184.585 223.579C184.882 223.292 189.707 220.231 192.402 218.031C194.206 216.557 196.059 214.904 198.642 212.68C199.922 211.579 201.406 210.369 203.209 208.94C207.729 205.379 214.375 202.283 217.731 200.814C218.226 200.778 218.698 200.764 219.194 200.728C219.824 200.694 220.409 200.66 221.017 200.603C222.435 200.516 223.786 200.406 225.205 200.274C220.168 202.701 213.936 207.648 211.953 209.074C209.559 210.807 204.118 216.713 202.269 218.186C201.104 219.132 198.572 221.042 196.704 222.358C195.61 223.147 194.722 223.694 194.407 223.733C193.934 223.792 194.437 223.306 195.418 222.582L195.327 222.625Z" fill="#E16E33"/>
<path d="M198.597 212.679C199.877 211.578 201.361 210.368 203.164 208.939C207.684 205.378 214.33 202.282 217.686 200.813C216.246 200.877 214.738 200.963 213.073 201.023C210.127 202.229 204.279 204.687 199.949 206.611C200.621 206.713 202.078 206.941 203.043 207.026C204.39 207.14 194.842 211.488 192.836 212.936C192.517 213.155 192.129 213.44 191.673 213.792C193.325 213.214 197.157 212.698 198.597 212.679Z" fill="#FAB424"/>
<path d="M191.673 213.792C192.129 213.44 192.562 213.155 192.836 212.936C194.865 211.466 204.39 207.14 203.043 207.026C202.033 206.94 200.598 206.735 199.949 206.611C197.84 207.54 196.116 208.318 195.164 208.751C191.534 210.439 188.686 213.626 185.428 215.883C184.413 217.259 182.555 220.328 183.647 219.673C184.716 219.04 189.097 215.656 191.673 213.792Z" fill="#51291D"/>
<path d="M190.619 207.702C192.272 207.125 195.054 206.253 196.86 205.836C200.179 203.962 204.011 202.254 206.347 201.194C204.008 201.197 201.738 201.179 199.514 201.072C196.907 202.217 190.941 204.965 188.284 206.379C189.57 206.155 190.872 206.268 192.453 205.847C194.623 205.256 193.385 206.538 191.847 207.005C191.598 207.068 191.189 207.33 190.619 207.702Z" fill="#FAB424"/>
<path d="M185.733 204.557C186.296 204.544 187.015 204.557 187.667 204.547C190.081 202.926 192.671 201.534 194.304 200.754C193.159 200.666 192.014 200.578 190.869 200.49C188.426 201.3 184.307 202.71 181.879 203.858C183.342 203.817 185.157 204.142 185.668 204.443C185.712 204.489 185.756 204.535 185.778 204.558L185.733 204.557Z" fill="#FAB424"/>
<path d="M165.481 182.992C165.291 182.382 165.1 181.772 164.954 181.162C163.554 175.584 164.829 168.839 165.758 166.09C166.642 163.341 167.089 157.571 166.942 155.859C166.81 154.531 166.415 155.175 166.218 156.071C166.146 156.317 166.119 156.564 166.092 156.811C165.958 157.955 165.506 162.803 164.457 165.932C163.386 169.038 162.55 170.417 162.116 174.321C161.682 178.225 162.855 182.788 164.003 186.271C164.449 187.605 165.011 188.83 165.552 189.896C166.248 191.167 166.947 192.214 167.565 192.855C168.819 193.102 170.096 193.327 171.329 193.552C169.365 191.606 166.926 187.425 165.525 183.038L165.481 182.992Z" fill="#E16E33"/>
<path d="M165.889 174.569C165.312 176.492 167.081 182.774 168.566 183.947C168.168 182.389 167.949 180.923 168.083 179.779C168.64 175.315 171.174 172.123 171.39 169.002C171.607 165.88 172.297 162.7 171.9 161.097C171.88 160.984 171.859 160.916 171.86 160.871C171.129 159.105 170.011 157.578 169.747 157.304C169.35 156.892 169.543 162.089 169.282 164.018C168.997 165.969 166.535 172.489 165.933 174.569L165.889 174.569Z" fill="#51291D"/>
<path d="M172.764 193.757C171.891 192.348 170.07 188.808 168.944 185.348C167.944 184.723 166.39 183.661 165.459 182.969C166.883 187.334 169.32 191.56 171.262 193.483C171.755 193.582 172.249 193.636 172.741 193.734L172.764 193.757Z" fill="#FAB424"/>
<path d="M172.234 186.149C171.13 183.903 170.406 181.777 170.344 180.292C170.196 176.242 172.785 171.365 173.107 167.436C173.402 163.754 171.675 159.991 171.792 160.893C171.791 160.938 171.813 161.005 171.833 161.118C172.253 162.699 171.54 165.902 171.323 169.023C171.106 172.144 168.55 175.313 168.015 179.8C167.858 180.967 168.078 182.432 168.498 183.968C168.624 184.42 168.75 184.917 168.898 185.392C170.002 188.829 171.823 192.369 172.718 193.802C174.713 194.13 176.685 194.435 178.637 194.672C176.178 192.717 173.769 189.346 172.188 186.193L172.234 186.149Z" fill="#E16E33"/>
<path d="M178.682 194.628C180.679 194.866 182.608 195.081 184.516 195.227C182.565 193.798 180.876 191.587 179.71 189.048C179.166 189.308 178.516 189.184 177.942 188.634C176.621 188.363 174.03 187.462 172.233 186.149C173.815 189.302 176.224 192.673 178.682 194.628Z" fill="#FAB424"/>
<path d="M165.481 182.992C166.367 183.683 167.966 184.746 168.966 185.371C168.817 184.896 168.669 184.421 168.566 183.947C167.082 182.774 165.312 176.492 165.889 174.569C166.512 172.511 168.952 165.968 169.237 164.017C169.521 162.066 169.305 156.891 169.702 157.303C169.988 157.6 171.084 159.104 171.815 160.87C171.674 159.991 173.424 163.732 173.129 167.414C172.808 171.298 170.219 176.22 170.367 180.27C170.428 181.755 171.13 183.903 172.256 186.127C174.03 187.462 176.643 188.341 177.965 188.612C177.678 188.315 177.371 187.904 177.157 187.361C176.446 185.707 173.705 178.508 174.01 176.67C174.315 174.832 175.577 169.954 175.608 167.144C175.633 164.649 174.947 159.308 175.737 159.165C175.693 159.119 175.695 159.029 175.672 159.006C175.628 158.96 175.675 158.871 175.721 158.827C174.654 158.178 171.927 156.174 171.041 155.438C170.223 154.727 168.625 153.619 168.238 152.713C167.279 152.268 166.675 152.145 166.486 152.591C166.299 152.993 165.944 153.908 165.517 155.114C165.802 155.502 165.933 155.684 166.218 156.071C166.438 155.153 166.832 154.508 166.941 155.859C167.112 157.549 166.687 163.342 165.758 166.09C164.873 168.84 163.554 175.583 164.954 181.162C165.1 181.771 165.29 182.382 165.481 182.992Z" fill="#FAB424"/>
<path d="M177.942 188.634C178.493 189.206 179.143 189.33 179.71 189.048C178.783 186.986 178.219 184.705 178.24 182.434C178.273 177.152 178.856 168.956 178.08 165.997C177.368 163.241 176.057 160.047 175.737 159.165C174.947 159.308 175.633 164.649 175.608 167.144C175.577 169.954 174.315 174.832 174.01 176.67C173.705 178.509 176.446 185.707 177.157 187.361C177.371 187.905 177.678 188.315 177.965 188.612L177.942 188.634Z" fill="#51291D"/>
<path d="M179.71 189.048C180.876 191.587 182.565 193.798 184.516 195.227C184.853 195.256 185.235 195.285 185.572 195.314C186.851 195.404 188.131 195.494 189.456 195.586C187.73 194.116 184.934 191.03 182.579 188.358C179.872 185.274 181.271 172.012 179.49 165.168C178.672 162.073 177.804 160.393 177.056 159.571C176.374 158.771 175.835 158.717 175.675 158.871C175.629 158.916 175.605 158.983 175.627 159.05C175.649 159.073 175.67 159.141 175.691 159.209C176.011 160.091 177.322 163.285 178.034 166.041C178.81 169 178.25 177.174 178.194 182.479C178.173 184.749 178.737 187.03 179.664 189.092L179.71 189.048Z" fill="#E16E33"/>
<path d="M182.009 173.419C181.878 169.662 179.532 161.774 180.865 161.415C180.757 161.211 180.826 161.1 181.028 161.126C180.227 160.707 177.928 159.834 177.102 159.527C177.827 160.371 178.718 162.029 179.536 165.124C181.317 171.968 179.918 185.23 182.625 188.314C184.98 190.986 187.776 194.072 189.502 195.542C190.827 195.633 192.174 195.702 193.522 195.771C192.187 195.028 190.15 193.372 188.493 190.69C188.28 191.248 187.82 191.779 187.588 190.988C187.248 189.903 185.117 186.133 184.42 183.759C183.723 181.386 182.201 177.469 182.076 173.398L182.009 173.419Z" fill="#FAB424"/>
<path d="M184.352 183.781C185.049 186.154 187.181 189.924 187.52 191.009C187.774 191.823 188.212 191.269 188.425 190.711C187.662 189.461 186.993 187.987 186.531 186.27C184.831 179.877 185.282 173.882 183.856 169.653C182.408 165.4 181.742 162.6 180.931 161.529C180.887 161.483 180.865 161.46 180.842 161.437C179.554 161.796 181.877 169.707 181.986 173.441C182.111 177.513 183.632 181.429 184.329 183.803L184.352 183.781Z" fill="#51291D"/>
<path d="M188.402 190.733C190.081 193.438 192.096 195.071 193.431 195.814C194.509 195.879 195.587 195.943 196.688 195.985C193.94 193.912 189.902 187.477 188.693 183.701C187.632 180.354 187.15 174.95 186.071 170.209C185.781 168.945 185.466 167.748 185.06 166.639C184.141 164.127 183.001 162.622 182.139 161.82C181.63 161.384 181.23 161.152 180.983 161.125C180.781 161.099 180.712 161.21 180.82 161.414C180.842 161.437 180.886 161.483 180.908 161.506C181.698 162.554 182.386 165.377 183.834 169.63C185.282 173.882 184.809 179.854 186.508 186.247C186.97 187.964 187.639 189.438 188.403 190.688L188.402 190.733Z" fill="#E16E33"/>
<path d="M193.125 177.62C192.746 176.265 192.498 175.136 192.376 174.459C192.056 172.34 190.142 166.595 189.045 165.182C188.124 163.951 186.411 162.998 186.664 162.711C185.437 162.217 183.261 161.93 182.14 161.775C183.024 162.556 184.165 164.06 185.061 166.594C185.467 167.703 185.804 168.923 186.072 170.164C186.758 170.739 188.063 171.909 188.788 172.799C188.41 170.206 187.884 167.094 187.761 166.508C187.619 165.673 188.799 167.448 189.318 168.581C189.75 169.488 190.824 173.307 191.451 175.792C191.958 176.318 192.684 177.163 193.102 177.642L193.125 177.62Z" fill="#FAB424"/>
<path d="M197.135 187.877C195.441 184.744 193.968 180.603 193.126 177.62C192.685 177.163 191.959 176.318 191.474 175.769C191.621 176.334 191.724 176.808 191.83 177.192C192.286 179.224 193.467 183.292 193.925 184.042C194.383 184.792 195.646 186.973 195.646 186.973C196.34 188.29 196.978 190.19 195.828 189.225C194.722 188.261 191.369 183.681 190.921 182.392C190.474 181.102 189.298 177.911 189.14 175.593C189.085 174.895 188.947 173.881 188.789 172.754C188.064 171.864 186.76 170.694 186.074 170.119C187.13 174.882 187.611 180.287 188.695 183.611C189.905 187.387 193.942 193.822 196.69 195.895C199.184 196.007 201.7 196.097 204.194 196.165C202.485 194.987 199.243 191.714 197.159 187.81L197.135 187.877Z" fill="#FAB424"/>
<path d="M191.451 175.791C190.824 173.307 189.727 169.51 189.318 168.581C188.822 167.471 187.596 165.695 187.761 166.507C187.885 167.094 188.41 170.206 188.788 172.798C188.946 173.925 189.084 174.94 189.139 175.638C189.275 177.933 190.473 181.147 190.92 182.437C191.368 183.726 194.721 188.306 195.827 189.27C196.954 190.257 196.317 188.312 195.645 187.018C195.645 187.018 194.382 184.837 193.924 184.087C193.467 183.292 192.285 179.269 191.829 177.237C191.746 176.876 191.62 176.379 191.473 175.814L191.451 175.791Z" fill="#51291D"/>
<path d="M193.125 177.62C193.968 180.603 195.441 184.744 197.135 187.877C199.242 191.759 202.462 195.054 204.17 196.232C205.249 196.251 206.283 196.269 207.317 196.288C206.318 194.427 201.998 188.706 199.344 185.173C197.766 183.077 195.81 178.298 194.227 174.088C192.921 170.624 191.923 167.571 191.534 166.71C190.931 165.305 189.32 163.725 188.052 163.005C187.585 162.75 187.183 162.607 186.89 162.625C186.733 162.644 186.665 162.666 186.619 162.71C186.366 162.998 188.079 163.95 189 165.181C190.097 166.594 192.012 172.339 192.331 174.458C192.431 175.112 192.679 176.241 193.08 177.619L193.125 177.62Z" fill="#E16E33"/>
<path d="M195.103 165.875C194.838 165.6 194.799 165.285 195.07 165.2C193.691 164.455 190.525 163.05 188.097 163.006C189.365 163.726 190.976 165.306 191.579 166.711C191.946 167.549 192.966 170.625 194.272 174.088C195.361 174.76 197.474 175.944 198.884 177.454C198.428 175.422 197.911 173.052 197.681 172.171C197.346 170.861 194.689 166.362 195.103 165.875Z" fill="#FAB424"/>
<path d="M207.339 196.311C209.812 196.355 212.24 196.354 214.556 196.328C212.801 195.195 209.562 192.933 207.865 191.127C207.667 190.921 207.424 190.669 207.249 190.396C206.043 189.97 203.794 188.828 203.381 188.079C202.882 187.148 199.922 182.014 199.547 180.433C199.401 179.824 199.152 178.74 198.884 177.499C197.496 175.967 195.36 174.805 194.271 174.133C195.855 178.344 197.832 183.145 199.389 185.219C202.042 188.752 206.362 194.472 207.361 196.334L207.339 196.311Z" fill="#FAB424"/>
<path d="M198.861 177.476C199.153 178.695 199.401 179.824 199.525 180.41C199.9 181.991 202.86 187.125 203.359 188.056C203.75 188.782 206.044 189.925 207.227 190.373C205.362 187.934 203.421 183.628 202.782 180.581C202.059 177.218 200.939 172.252 199.621 170.61C198.304 168.967 196.257 166.615 195.324 166.058C195.258 165.99 195.169 165.943 195.102 165.875C194.643 166.361 197.346 170.861 197.681 172.171C197.888 173.074 198.428 175.422 198.884 177.454L198.861 177.476Z" fill="#51291D"/>
<path d="M199.621 170.61C200.939 172.252 202.082 177.196 202.782 180.581C203.421 183.628 205.34 187.912 207.227 190.373C207.447 190.647 207.644 190.898 207.843 191.104C209.539 192.911 212.801 195.195 214.534 196.305C215.59 196.302 216.603 196.252 217.615 196.248C216.579 195.128 213.576 193.433 210.67 191.38C209.96 190.872 209.276 190.208 208.639 189.41C206.244 186.466 204.466 181.87 203.717 178.664C202.824 174.804 200.546 169.277 197.94 166.802C197.808 166.665 197.675 166.528 197.542 166.436C196.191 165.355 195.409 165.093 195.093 165.178C194.799 165.24 194.861 165.578 195.125 165.853C195.191 165.921 195.257 165.99 195.346 166.036C196.258 166.57 198.349 168.923 199.644 170.588L199.621 170.61Z" fill="#E16E33"/>
<path d="M213.579 188.576C212.077 187.156 208.678 182.665 208.333 180.703C207.988 178.741 206.911 175.057 205.938 173.039C205.094 171.292 203.817 169.876 203.845 169.629C202.265 168.724 199.53 167.123 197.939 166.847C200.568 169.3 202.823 174.849 203.717 178.709C204.465 181.915 206.222 186.488 208.639 189.455C210.183 189.819 213.136 191.783 213.28 191.291C213.425 190.799 209.981 187.455 211.248 188.22C212.226 188.822 217.19 191.407 219.216 192.455C219.018 192.249 218.841 192.066 218.71 191.883C218.271 191.336 217.81 190.721 217.329 189.993C216.542 190.046 214.772 189.722 213.601 188.599L213.579 188.576Z" fill="#FAB424"/>
<path d="M221.552 196.116C222.204 196.105 222.857 196.05 223.487 196.016C222.333 195.231 220.517 193.804 219.239 192.432C217.236 191.362 212.293 188.801 211.27 188.198C210.003 187.433 213.447 190.777 213.303 191.269C213.159 191.761 210.206 189.797 208.661 189.432C209.298 190.231 209.982 190.895 210.692 191.402C213.621 193.433 216.624 195.128 217.637 196.271C219.009 196.228 220.292 196.183 221.552 196.116Z" fill="#FAB424"/>
<path d="M214.452 181.69C215.62 184.139 216.924 186.5 218.308 188.166C221.121 191.589 223.77 194.155 225.919 195.835C226.46 195.799 227.023 195.742 227.541 195.684C225.982 194.892 223.799 192.627 221.963 189.896C220.935 188.371 220.404 186.72 219.985 185.139C218.856 184.197 216.036 182.325 214.43 181.667L214.452 181.69Z" fill="#FAB424"/>
<path d="M203.845 169.629C203.818 169.876 205.073 171.27 205.938 173.039C206.912 175.057 208.011 178.719 208.333 180.703C208.678 182.666 212.077 187.156 213.579 188.576C214.75 189.699 216.543 190.001 217.308 189.97C216.017 188.081 214.56 185.469 213.104 181.666C211.112 176.436 209.67 174.252 208.499 171.983C208.282 171.574 208.021 171.12 207.714 170.71C206.397 170.214 204.337 169.728 203.935 169.585C203.868 169.562 203.823 169.561 203.823 169.606L203.845 169.629Z" fill="#51291D"/>
<path d="M214.452 181.69C212.938 178.56 211.629 175.276 210.458 173.007C209.482 171.124 208.515 169.937 207.652 169.18C206.68 168.308 205.854 168.001 205.43 167.836C204.805 167.6 206.487 168.979 207.735 170.733C208.02 171.12 208.304 171.552 208.521 172.006C209.692 174.275 211.112 176.436 213.125 181.688C214.56 185.469 216.039 188.103 217.329 189.993C217.81 190.721 218.27 191.336 218.71 191.883C218.886 192.066 219.04 192.271 219.216 192.455C220.472 193.804 222.288 195.23 223.465 196.038C224.342 195.986 225.13 195.933 225.941 195.858C223.792 194.178 221.143 191.612 218.33 188.189C216.945 186.523 215.641 184.162 214.474 181.713L214.452 181.69Z" fill="#E16E33"/>
<path d="M207.653 169.18C209.042 169.43 212.096 170.811 213.872 172.012C213.897 171.855 213.989 171.767 214.212 171.86C214.376 171.526 214.446 171.37 214.632 171.059C211.498 169.136 208.046 167.433 204.714 166.452C195.011 163.58 186.949 160.715 179.245 157.946C173.997 156.076 170.289 153.649 168.238 152.713C168.626 153.619 170.222 154.772 171.042 155.438C171.926 156.219 174.654 158.179 175.721 158.827C175.881 158.673 176.42 158.727 177.102 159.526C177.928 159.834 180.205 160.684 181.028 161.126C181.275 161.153 181.676 161.34 182.184 161.821C183.306 161.976 185.481 162.262 186.708 162.756C186.754 162.712 186.8 162.668 186.98 162.671C187.272 162.654 187.674 162.796 188.141 163.052C190.591 163.118 193.758 164.479 195.115 165.245C195.431 165.161 196.213 165.422 197.564 166.503C197.696 166.641 197.829 166.733 197.961 166.87C199.553 167.146 202.288 168.746 203.867 169.652C203.867 169.652 203.912 169.607 203.979 169.631C204.381 169.773 206.441 170.26 207.758 170.755C206.51 169.002 204.827 167.623 205.452 167.859C205.854 168.001 206.657 168.33 207.675 169.203L207.653 169.18Z" fill="#E16E33"/>
<path d="M220.007 185.162C219.565 183.558 219.257 182.001 218.653 180.686C217.421 178.078 214.881 173.334 214.173 172.692C213.975 172.486 213.845 172.214 213.849 172.034C212.073 170.833 209.019 169.452 207.63 169.202C208.492 169.959 209.504 171.147 210.435 173.029C211.584 175.276 212.915 178.582 214.429 181.712C216.035 182.37 218.856 184.197 219.984 185.184L220.007 185.162Z" fill="#FAB424"/>
<path d="M214.173 172.692C214.881 173.334 217.421 178.078 218.653 180.686C219.258 182.001 219.588 183.536 220.007 185.162C220.426 186.743 220.98 188.372 221.985 189.919C223.799 192.627 225.981 194.937 227.563 195.707C227.923 195.668 228.284 195.63 228.644 195.591C228.54 193.971 227.053 192.977 226.342 192.515C224.432 191.267 223.236 189.154 222.4 187.003C221.929 185.781 221.571 184.493 221.301 183.341C220.8 181.309 219.755 179.492 218.488 177.535C217.767 176.421 216.957 175.305 216.149 174.054C215.187 172.597 214.569 172.002 214.234 171.883C214.011 171.789 213.919 171.878 213.894 172.035C213.89 172.214 213.997 172.509 214.218 172.692L214.173 172.692Z" fill="#E16E33"/>
<path d="M225.686 179.733C223.327 177.285 219.321 173.953 214.587 171.058C214.423 171.392 214.353 171.548 214.167 171.86C214.524 172.001 215.142 172.597 216.082 174.03C216.89 175.281 217.7 176.397 218.421 177.512C219.093 177.659 220.143 178.015 221.013 178.368C221.036 178.346 221.126 178.347 221.194 178.326C222.074 178.139 223.634 178.887 225.152 180.6C225.339 180.244 225.455 180.044 225.642 179.687L225.686 179.733Z" fill="#E16E33"/>
<path d="M226.935 190.884C227.467 191.298 228.609 191.566 229.258 191.69C228.959 190.876 228.684 189.949 228.321 188.931C227.068 185.108 223.939 180.578 223.079 179.686C222.285 178.862 220.356 178.603 221.013 178.367C220.143 178.015 219.093 177.659 218.421 177.512C219.688 179.468 220.733 181.285 221.234 183.318C221.504 184.469 221.885 185.735 222.333 186.98C223.328 187.874 226.225 190.377 226.912 190.906L226.935 190.884Z" fill="#FAB424"/>
<path d="M230.425 195.376C230.627 195.357 230.853 195.316 231.079 195.275C230.459 194.77 229.898 193.501 229.258 191.69C228.609 191.566 227.467 191.299 226.935 190.884C226.27 190.378 223.373 187.875 222.356 186.958C223.169 189.131 224.388 191.221 226.298 192.469C227.031 192.954 228.518 193.948 228.6 195.546C229.231 195.467 229.817 195.388 230.381 195.33L230.425 195.376Z" fill="#FAB424"/>
<path d="M225.174 180.623C223.61 178.909 222.051 178.161 221.215 178.349C221.148 178.37 221.08 178.391 221.035 178.39C220.378 178.626 222.307 178.885 223.101 179.709C223.938 180.578 227.089 185.131 228.343 188.953C228.661 189.971 228.981 190.898 229.28 191.713C229.92 193.523 230.458 194.769 231.1 195.298C231.889 195.2 232.814 195.059 233.806 194.897C233.05 194.479 231.739 193.623 231.019 192.509C229.948 190.893 228.416 185.133 226.492 182.265C226.076 181.651 225.638 181.058 225.197 180.601L225.174 180.623Z" fill="#E16E33"/>
<path d="M226.469 182.287C228.393 185.155 229.903 190.892 230.996 192.531C231.739 193.623 233.027 194.501 233.783 194.919C235.091 194.718 236.534 194.519 238.112 194.277C234.711 192.26 229.907 184.755 227.272 181.47C226.876 180.968 226.348 180.374 225.686 179.733C225.499 180.089 225.383 180.289 225.196 180.646C225.637 181.103 226.054 181.673 226.491 182.31L226.469 182.287Z" fill="#E16E33"/>
<path d="M177.842 221.075C177.55 221.092 179.304 219.887 181.083 218.57C181.927 217.933 182.771 217.296 183.366 216.723C185.243 214.958 188.29 211.977 192.445 208.679C193.655 207.734 195.202 206.773 196.861 205.836C200.179 203.962 204.011 202.254 206.347 201.194C207.539 201.193 208.753 201.17 209.968 201.147C211.07 201.099 212.105 201.073 213.095 201.046C210.149 202.252 204.302 204.71 199.971 206.633C197.862 207.562 196.139 208.341 195.186 208.773C191.557 210.462 188.708 213.648 185.45 215.906C185.45 215.906 185.427 215.928 185.404 215.95C184.015 216.892 182.533 217.967 181.234 218.865C179.479 220.115 178.067 221.079 177.819 221.097L177.842 221.075Z" fill="#E16E33"/>
<path d="M173.772 221.115C173.185 221.239 173.619 219.718 173.811 219.047C175.654 217.888 177.591 216.552 179.052 215.364C179.327 215.099 179.646 214.88 179.898 214.637C182.83 211.812 184.784 208.34 187.694 206.683C187.875 206.596 188.058 206.465 188.262 206.356C189.548 206.132 190.85 206.245 192.432 205.824C194.601 205.233 193.363 206.515 191.825 206.982C191.576 207.045 191.167 207.307 190.598 207.679C187.795 209.63 182.095 214.991 180.866 215.779C180.615 215.931 180.228 216.217 179.794 216.546C177.742 218.083 174.314 220.989 173.75 221.092L173.772 221.115Z" fill="#51291D"/>
<path d="M186.375 225.163C185.95 225.088 185.502 224.99 185.053 224.937C184.896 224.911 184.739 224.886 184.605 224.839C179.564 223.916 174.616 222.861 169.468 221.6C170.513 221.034 172.128 220.096 173.811 219.047C173.574 219.717 173.185 221.239 173.772 221.115C174.314 220.989 177.742 218.083 179.816 216.569C180.25 216.24 180.615 215.976 180.888 215.801C182.117 215.014 187.817 209.653 190.62 207.702C192.272 207.125 195.054 206.253 196.86 205.836C195.201 206.773 193.654 207.734 192.445 208.679C188.268 211.954 185.22 214.98 183.366 216.723C182.77 217.297 181.903 217.955 181.082 218.57C179.304 219.887 177.55 221.092 177.842 221.075C178.09 221.057 179.48 220.07 181.257 218.843C182.556 217.945 184.038 216.87 185.427 215.928C185.427 215.928 185.45 215.906 185.473 215.884C184.457 217.259 182.6 220.329 183.692 219.674C184.761 219.041 189.142 215.657 191.718 213.792C193.37 213.215 197.202 212.699 198.641 212.68C196.014 214.904 194.184 216.534 192.402 218.031C189.707 220.231 184.882 223.292 184.584 223.579C184.516 223.645 184.56 223.691 184.717 223.717C185.211 223.725 186.635 223.324 188.683 222.056C191.458 220.353 195.668 216.516 199.211 213.455C199.257 213.41 199.303 213.366 199.372 213.3C199.691 213.036 200.057 212.728 200.49 212.398C201.053 212.386 201.345 212.369 201.886 212.333C199.987 214.031 197.922 216.242 195.984 217.623C194.685 218.567 190.811 222.477 192.036 221.914C192.217 221.828 192.512 221.676 192.876 221.457C193.185 221.777 194.36 222.63 195.351 222.558C194.393 223.261 193.866 223.768 194.34 223.709C194.655 223.67 195.565 223.102 196.637 222.334C197.145 222.77 198.444 223.063 199.553 222.701C200.616 222.338 202.881 221.479 203.561 222.368C198.498 224.953 192.537 226.285 186.398 225.141L186.375 225.163Z" fill="#E16E33"/>
<path d="M169.491 221.622C168.931 221.5 168.349 221.355 167.812 221.21C169.922 220.236 176.201 216.347 177.846 214.982C178.052 214.784 178.258 214.585 178.464 214.387C179.844 212.792 180.792 210.201 183.993 207.381C185.068 206.434 186.346 205.467 187.689 204.57C190.103 202.949 192.693 201.557 194.326 200.777C196.055 200.92 197.784 201.018 199.537 201.05C196.93 202.195 190.965 204.943 188.307 206.357C188.103 206.466 187.898 206.574 187.739 206.684C184.852 208.318 182.898 211.791 179.943 214.638C179.691 214.881 179.417 215.146 179.098 215.365C177.658 216.575 175.7 217.889 173.856 219.048C172.173 220.097 170.581 221.057 169.514 221.6L169.491 221.622Z" fill="#E16E33"/>
<path d="M167.458 217.359C165.627 217.888 164.92 217.246 164.702 216.882C165.723 216.384 166.884 215.663 168.025 214.739C169.487 213.551 172.166 211.013 174.952 208.725C177.397 206.678 179.928 204.812 181.472 204.031C181.585 203.965 181.721 203.923 181.835 203.857C183.297 203.816 185.112 204.141 185.623 204.442C185.667 204.488 185.711 204.534 185.733 204.557C185.636 204.96 183.015 205.632 181.188 207.128C179.269 208.713 178.682 210.029 176.784 211.681C176.647 211.813 176.51 211.946 176.35 212.055C174.112 213.859 169.945 216.639 167.458 217.359Z" fill="#51291D"/>
<path d="M164.702 216.883C163.272 217.599 162.074 217.915 161.692 217.885C161.041 217.851 164.304 216.516 165.987 215.512C167.692 214.531 171.211 210.389 174.185 207.655C174.208 207.633 174.231 207.611 174.254 207.589C175.466 206.509 177.268 205.17 179.181 203.855C181.528 202.256 184.029 200.772 185.664 199.947C187.391 200.135 189.119 200.323 190.847 200.467C188.404 201.277 184.284 202.732 181.857 203.835C181.744 203.901 181.608 203.943 181.494 204.009C179.951 204.79 177.419 206.656 174.975 208.703C172.21 211.014 169.51 213.529 168.048 214.717C166.906 215.641 165.746 216.362 164.725 216.86L164.702 216.883Z" fill="#E16E33"/>
<path d="M167.767 221.209C164.209 220.314 160.496 219.303 156.517 218.107C155.533 217.82 154.504 217.532 153.452 217.31C154.675 216.838 156.495 215.701 158.227 214.473C156.706 216.425 155.52 217.348 156.219 217.203C157.009 217.059 160.967 215.849 162.309 215.041C163.65 214.233 165.575 212.334 167.293 210.679C169.011 209.023 170.151 206.998 171.849 206.376C172.234 206.226 172.711 205.987 173.142 205.748C173.938 205.29 174.69 204.741 175.012 204.387C175.983 204.157 177.923 203.832 179.158 203.877C177.246 205.147 175.466 206.509 174.231 207.611C174.208 207.633 174.185 207.655 174.162 207.677C171.188 210.367 167.647 214.53 165.964 215.534C164.259 216.515 161.041 217.851 161.669 217.907C162.051 217.937 163.204 217.62 164.679 216.905C164.897 217.268 165.559 217.91 167.435 217.381C169.922 216.661 174.089 213.881 176.327 212.077C176.464 211.945 176.602 211.813 176.761 211.703C178.636 210.073 179.246 208.735 181.165 207.151C182.992 205.654 185.613 204.982 185.71 204.579C186.273 204.567 186.992 204.58 187.644 204.569C186.3 205.466 185.024 206.388 183.948 207.38C180.769 210.224 179.798 212.792 178.419 214.386C178.213 214.584 178.006 214.828 177.801 214.982C176.156 216.346 169.877 220.235 167.767 221.209Z" fill="#E16E33"/>
<path d="M175.079 204.411C175.354 204.146 175.289 203.987 174.792 204.113C174.34 204.24 173.483 204.405 172.534 204.612C170.999 204.945 169.194 205.272 168.269 205.458C168.588 205.239 168.929 205.042 169.293 204.824C169.997 204.454 170.882 203.998 171.903 203.544C175.213 202.075 179.809 200.381 182.636 199.555C183.667 199.708 184.677 199.794 185.686 199.925C184.052 200.75 181.55 202.234 179.204 203.833C177.968 203.788 176.029 204.113 175.058 204.343L175.079 204.411Z" fill="#FAB424"/>
<path d="M171.075 202.181C170.123 202.568 169.238 202.98 168.533 203.394C167.791 203.403 167.409 203.419 166.689 203.451C168.147 202.443 169.631 201.233 170.094 200.522C170.163 200.456 170.187 200.389 170.211 200.322C172.336 199.685 174.484 199.072 175.907 198.715C177.252 198.919 178.665 199.102 180.145 199.308C178.292 199.814 174.224 200.911 171.052 202.203L171.075 202.181Z" fill="#FAB424"/>
<path d="M156.264 217.203C155.565 217.348 156.728 216.447 158.272 214.474C159.822 213.378 161.328 212.191 162.266 211.376C164.165 209.634 165.354 207.384 168.291 205.481C169.216 205.295 171.044 204.946 172.556 204.635C173.505 204.428 174.34 204.24 174.814 204.136C175.334 203.988 175.377 204.124 175.101 204.434C174.757 204.765 174.027 205.336 173.231 205.794C172.777 206.056 172.323 206.273 171.938 206.423C170.24 207.045 169.077 209.092 167.382 210.725C165.664 212.381 163.717 214.257 162.398 215.088C161.056 215.895 157.098 217.106 156.308 217.249L156.264 217.203Z" fill="#51291D"/>
<path d="M153.475 217.288C153.072 217.191 152.646 217.116 152.243 217.019C153.926 216.015 157.869 213.23 160.341 210.936C163.133 208.334 164.566 206.291 167.669 203.873C167.921 203.676 168.194 203.501 168.512 203.326C169.217 202.912 170.101 202.501 171.053 202.113C174.225 200.821 178.248 199.724 180.146 199.218C180.55 199.271 180.954 199.323 181.357 199.375C181.806 199.428 182.21 199.48 182.658 199.533C179.832 200.359 175.259 202.031 171.925 203.523C170.905 203.976 169.998 204.41 169.316 204.802C168.952 205.021 168.611 205.217 168.292 205.436C165.377 207.362 164.188 209.612 162.267 211.331C161.351 212.169 159.845 213.356 158.273 214.429C156.541 215.657 154.721 216.794 153.498 217.266L153.475 217.288Z" fill="#E16E33"/>
<path d="M168.511 203.371C167.769 203.38 167.386 203.396 166.666 203.428C166.461 203.582 166.257 203.691 166.051 203.844C164.094 205.113 161.028 207.891 159.31 209.546C157.753 211.047 151 214.996 148.545 216.435C149.801 216.593 151.033 216.817 152.266 217.042C153.948 216.038 157.891 213.253 160.363 210.959C163.155 208.356 164.588 206.314 167.692 203.896C167.943 203.698 168.216 203.523 168.534 203.349L168.511 203.371Z" fill="#E16E33"/>
<path d="M151.221 208.12C149.608 209.013 136.954 214.676 136.168 214.64C136.23 214.933 136.25 215.091 136.334 215.407C137.861 215.479 139.455 215.575 141.005 215.671C143.705 214.393 150.5 210.58 152.273 209.533C154.251 208.377 154.984 205.332 158.809 202.793C159.88 202.07 161.242 201.375 162.715 200.749C161.928 200.758 160.961 200.763 160.175 200.726C159.651 201.099 159.06 201.448 158.402 201.729C155.843 202.739 152.879 207.228 151.266 208.121L151.221 208.12Z" fill="#E16E33"/>
<path d="M143.003 215.819C145.608 214.809 150.882 211.756 152.885 210.488C155.229 208.979 161.038 203.822 163.602 202.586C164.782 202.023 167.384 201.148 170.008 200.341C170.053 200.296 170.143 200.298 170.211 200.277C170.165 200.321 170.164 200.411 170.095 200.477C169.632 201.188 168.147 202.398 166.689 203.406C166.484 203.56 166.28 203.669 166.074 203.822C164.095 205.068 161.051 207.869 159.333 209.524C157.776 211.025 151.023 214.974 148.568 216.414C146.774 216.157 144.911 215.966 143.048 215.82L143.003 215.819Z" fill="#51291D"/>
<path d="M143.003 215.819C142.33 215.762 141.678 215.728 141.005 215.671C143.705 214.393 150.5 210.58 152.273 209.533C154.251 208.376 154.984 205.332 158.809 202.792C159.88 202.07 161.264 201.398 162.715 200.749C164.801 199.842 167.086 199.096 168.963 198.523C169.822 198.269 170.59 198.058 171.2 197.911C172.679 198.162 174.226 198.393 175.885 198.647C174.462 199.004 172.315 199.617 170.189 200.254C170.143 200.298 170.053 200.296 169.985 200.317C167.362 201.125 164.783 201.978 163.58 202.563C161.038 203.822 155.207 208.956 152.863 210.465C150.882 211.756 145.586 214.786 142.981 215.796L143.003 215.819Z" fill="#E16E33"/>
<path d="M168.94 198.545C167.086 199.096 164.801 199.842 162.692 200.771C161.905 200.78 160.938 200.785 160.152 200.748C161.178 199.98 161.87 199.093 162.128 198.535C164.004 198.007 165.834 197.523 167.054 197.23C167.458 197.282 167.883 197.357 168.286 197.454C169.205 197.628 170.146 197.78 171.177 197.933C170.568 198.08 169.754 198.29 168.94 198.545Z" fill="#FAB424"/>
<path d="M145.113 193.531C148.822 193.575 145.431 195.74 143.552 196.449C143.37 196.535 143.167 196.599 142.917 196.707C143.817 196.678 144.919 196.675 145.994 196.875C150.043 195.621 153.83 195.104 155.836 194.803C153.869 194.228 151.567 193.49 149.244 192.684C148.117 192.843 146.694 193.155 145.136 193.554L145.113 193.531Z" fill="#FAB424"/>
<path d="M154.473 199.073C157.553 197.914 161.641 196.93 163.447 196.558C162.528 196.384 161.655 196.211 160.804 196.016C158.574 196.268 155.349 196.773 151.578 197.627C151.771 198.102 151.563 198.436 151.038 198.809C151.986 198.646 153.042 198.687 154.473 199.073Z" fill="#FAB424"/>
<path d="M162.128 198.535C164.004 198.007 165.834 197.523 167.054 197.23C165.777 197.005 164.612 196.759 163.47 196.536C161.664 196.908 157.554 197.869 154.496 199.051C153.749 199.329 153.091 199.61 152.524 199.892C149.073 201.674 147.833 203.001 145.435 205.003C145.274 205.158 145.114 205.312 144.909 205.421C142.396 207.534 138.102 211.055 135.93 211.78C133.6 212.525 128.597 214.347 130.039 214.148C131.144 214.01 134.396 213.259 137.798 211.701C138.932 211.182 140.113 210.574 141.228 209.852C145.667 206.986 151.448 202.076 154.393 200.915C156.001 200.292 159.19 199.337 162.106 198.513L162.128 198.535Z" fill="#E16E33"/>
<path d="M160.152 200.748C161.179 199.98 161.87 199.093 162.128 198.536C159.167 199.359 156.002 200.292 154.415 200.938C151.47 202.099 145.666 207.031 141.25 209.875C140.135 210.597 138.999 211.206 137.82 211.724C135.94 213.624 135.54 214.584 136.191 214.618C136.954 214.676 149.631 208.991 151.244 208.098C152.857 207.205 155.82 202.717 158.38 201.706C159.06 201.448 159.651 201.099 160.153 200.703L160.152 200.748Z" fill="#51291D"/>
<path d="M139.594 205.91C141.733 205.746 142.792 205.653 144.909 205.466C145.069 205.312 145.251 205.18 145.434 205.048C147.811 203.023 149.072 201.719 152.523 199.937C153.091 199.655 153.771 199.352 154.495 199.096C153.064 198.71 152.008 198.669 151.06 198.832C150.445 199.248 149.447 199.724 148.24 200.535C146.373 201.76 141.96 204.469 139.616 205.933L139.594 205.91Z" fill="#FAB424"/>
<path d="M137.797 211.746C134.395 213.304 131.143 214.055 130.039 214.193C128.573 214.414 133.577 212.592 135.929 211.825C138.102 211.1 142.395 207.579 144.909 205.466C142.792 205.653 141.733 205.746 139.594 205.91C139.025 206.282 138.547 206.566 138.274 206.741C136.886 207.638 130.623 211.865 127.957 212.537C126.669 212.851 124.91 213.134 123.491 213.266C124.812 213.582 127.698 214.33 129.932 215.09C131.976 215.194 134.11 215.3 136.288 215.406C136.227 215.113 136.185 214.932 136.123 214.639C135.495 214.583 135.872 213.645 137.752 211.745L137.797 211.746Z" fill="#E16E33"/>
<path d="M139.594 205.91C141.961 204.424 146.351 201.737 148.218 200.512C149.402 199.724 150.424 199.225 151.039 198.809C151.563 198.436 151.771 198.102 151.578 197.627C148.823 198.252 145.727 199.073 142.582 200.118C134.482 202.806 132.696 205.719 128.962 208.17C126.14 211.11 121.5 212.758 121.087 213.2C120.858 213.421 122.005 213.419 123.513 213.289C124.932 213.157 126.691 212.873 127.979 212.559C130.645 211.888 136.885 207.683 138.297 206.764C138.57 206.589 139.025 206.282 139.616 205.933L139.594 205.91Z" fill="#51291D"/>
<path d="M140.422 199.068C133.565 202.587 128.56 206.837 126.058 208.366C124.102 209.545 119.825 210.974 118.328 211.667C117.897 211.862 117.715 211.993 117.849 212.041C118.565 212.233 124.026 211.162 128.301 208.631C128.551 208.478 128.779 208.347 129.007 208.171C132.741 205.72 134.505 202.784 142.627 200.119C145.772 199.074 148.868 198.253 151.623 197.628C155.394 196.774 158.619 196.269 160.849 196.017C160.357 195.918 159.909 195.82 159.439 195.699C158.498 195.503 157.268 195.188 155.882 194.759C153.898 195.038 150.088 195.577 146.04 196.831C144.163 197.404 142.238 198.156 140.422 199.068Z" fill="#E16E33"/>
<path d="M142.94 196.685C140.652 197.566 136.006 199.528 133.528 200.945C130.8 202.515 125.666 207.684 123.453 208.184C121.556 208.6 118.745 209.853 116.219 210.258C115.565 210.358 114.957 210.415 114.417 210.405C115.421 210.85 117.186 211.399 118.351 211.645C119.87 210.975 124.147 209.545 126.08 208.344C128.583 206.815 133.586 202.61 140.444 199.046C142.238 198.111 144.186 197.382 146.063 196.808C144.964 196.631 143.885 196.612 142.986 196.641L142.94 196.685Z" fill="#FAB424"/>
<path d="M142.94 196.685C143.189 196.577 143.393 196.513 143.574 196.427C145.431 195.741 148.845 193.553 145.136 193.509C138.448 195.233 128.849 198.748 126.011 200.204C125.102 200.682 124.169 201.272 123.258 201.885C119.566 206.855 113.578 209.626 112.585 209.833C111.862 210 112.844 210.377 114.44 210.383C114.98 210.393 115.61 210.359 116.242 210.236C118.745 209.853 121.579 208.578 123.476 208.162C125.689 207.662 130.801 202.47 133.551 200.923C136.029 199.506 140.72 197.545 142.963 196.663L142.94 196.685Z" fill="#51291D"/>
<path d="M123.235 201.907C120.365 203.879 117.552 206.37 115.872 207.194C113.626 208.3 108.127 208.966 107.257 208.613C106.878 208.449 107.307 208.344 108.391 208.094C108.217 207.776 108.13 207.64 107.956 207.322C106.781 207.615 105.79 207.732 105.475 207.727C104.689 207.69 108.722 206.054 110.561 203.928C111.319 203.065 112.241 201.913 113.253 200.717C112.811 200.304 112.59 200.12 112.125 199.73C108.262 204.247 105.15 205.922 100.678 206.966C103.866 209.586 111.628 212.828 120.886 214.276C123.487 214.682 126.608 214.896 129.955 215.068C127.721 214.308 124.835 213.56 123.514 213.244C122.005 213.374 120.881 213.399 121.088 213.155C121.501 212.713 126.141 211.065 128.962 208.125C128.735 208.256 128.507 208.432 128.257 208.585C124.005 211.094 118.52 212.187 117.805 211.995C117.648 211.97 117.853 211.816 118.284 211.621C117.164 211.376 115.399 210.828 114.35 210.382C112.754 210.375 111.772 209.998 112.495 209.831C113.466 209.601 119.453 206.876 123.168 201.884L123.235 201.907Z" fill="#E16E33"/>
<path d="M122.428 200.611C118.806 203.087 119.453 204.538 114.562 206.338C111.868 207.347 109.678 207.825 108.391 208.094C107.33 208.322 106.856 208.426 107.257 208.613C108.127 208.966 113.626 208.3 115.873 207.194C117.575 206.348 120.365 203.879 123.235 201.907C124.169 201.272 125.102 200.682 125.988 200.226C128.826 198.77 138.425 195.255 145.113 193.532C146.695 193.11 148.095 192.821 149.222 192.661C148.239 192.329 147.234 191.973 146.274 191.619C141.318 192.114 136.394 193.285 133.286 194.781C129.973 196.385 126.028 198.113 122.406 200.589L122.428 200.611Z" fill="#E16E33"/>
<path d="M136.27 189.214C126.468 190.319 118.644 191.505 113.873 197.648C113.274 198.401 112.721 199.111 112.147 199.753C112.589 200.165 112.81 200.349 113.275 200.74C114.77 198.99 116.422 197.221 117.791 196.167C120.118 194.41 126.461 191.915 129.097 191.58C132.276 191.165 125.537 194.394 123.627 195.484C121.718 196.574 115.206 203.247 112.989 205.119C111.687 206.197 109.605 206.924 107.956 207.322C108.13 207.639 108.194 207.798 108.391 208.094C109.701 207.802 111.891 207.325 114.562 206.338C119.431 204.515 118.806 203.087 122.428 200.611C126.05 198.136 129.973 196.385 133.308 194.804C136.417 193.308 141.34 192.137 146.296 191.642C141.986 190.103 138.125 188.617 137.119 188.307C136.873 188.235 136.404 188.069 135.757 187.81C135.769 188.328 135.787 188.575 135.8 189.093C135.979 189.141 136.113 189.188 136.292 189.236L136.27 189.214Z" fill="#FAB424"/>
<path d="M110.561 203.928C108.7 206.031 104.666 207.712 105.475 207.727C105.79 207.732 106.782 207.615 107.956 207.322C109.605 206.924 111.687 206.197 112.989 205.119C115.228 203.27 121.695 196.596 123.627 195.484C125.537 194.394 132.276 191.165 129.098 191.58C126.461 191.915 120.118 194.41 117.791 196.167C116.422 197.221 114.747 199.012 113.275 200.74C112.263 201.935 111.319 203.11 110.583 203.951L110.561 203.928Z" fill="#51291D"/>
<path d="M85.9034 187.051C87.3902 186.898 90.8846 186.399 94.6055 185.813C93.3978 185.477 92.1926 185.006 91.6363 184.703C91.4803 184.633 91.1665 184.583 90.6958 184.507C88.1836 184.192 81.5079 184.095 79.3537 183.876C77.1766 183.68 67.8734 183.423 62.8423 183.153C71.0158 188.426 78.7435 192.319 80.3821 192.461C82.6483 192.703 93.6599 190.608 100.44 189.942C105.328 189.468 116.58 187.714 126.222 187.909C125.036 187.641 123.713 187.414 122.837 187.376C121.04 187.299 112.56 186.293 103.585 186.559C100.998 186.625 98.8587 186.789 97.0115 186.981C92.3933 187.46 89.6817 188.176 86.7335 188.325C82.5929 188.521 76.7375 187.854 73.8038 187.239C70.8702 186.624 71.2639 186.024 72.7192 186.343C74.1525 186.638 82.6821 187.376 85.9263 187.029L85.9034 187.051Z" fill="#E16E33"/>
<path d="M105.503 183.783C109.615 182.733 119.96 184.987 120.635 184.954C121.333 184.899 121.748 185.513 121.223 184.739C120.676 183.988 118.925 183.821 114.558 182.911C110.191 182.001 104.698 182.397 98.8524 182.382C94.8508 182.356 90.7781 182.53 87.0471 182.463C88.2734 183.002 89.7177 183.905 90.6505 184.506C91.0992 184.559 91.435 184.632 91.5911 184.703C92.1474 185.005 93.3526 185.476 94.5603 185.813C98.8002 185.124 103.312 184.351 105.503 183.783Z" fill="#51291D"/>
<path d="M92.122 180.441C95.9726 180.127 106.3 179.751 112.731 179.686C109.655 178.282 94.9579 176.737 91.0718 176.555C87.2306 176.373 77.8043 176.677 73.6883 176.76C72.8113 176.767 71.5977 176.745 70.2279 176.653C73.9638 177.642 81.6366 179.69 85.2351 180.812C87.7091 180.766 89.9601 180.627 92.122 180.441Z" fill="#51291D"/>
<path d="M64.6822 175.07C64.6822 175.07 73.3475 175.765 78.148 175.154C83.2191 174.503 87.1723 174.709 94.9116 174.443C93.5699 174.059 90.6363 173.444 87.2531 172.821C83.2957 172.84 76.9354 173.895 74.5699 174.145C71.9109 174.457 64.6813 175.115 64.6813 175.115L64.6822 175.07Z" fill="#51291D"/>
<path d="M53.2126 171.694C52.5892 171.368 56.3185 171.525 58.678 171.589C53.7869 171.052 47.7077 169.144 45.7878 167.244C45.0041 167.073 44.2654 166.902 43.6158 166.778C46.8933 170.591 50.2243 173.956 53.3035 176.372C56.2716 178.718 59.5773 181.048 62.8423 183.153C67.8734 183.423 77.1766 183.68 79.3538 183.876C81.508 184.095 88.1616 184.169 90.6958 184.507C89.7629 183.905 88.3187 183.003 87.0924 182.464C85.3842 182.433 83.7448 182.336 82.219 182.174C77.4186 181.593 73.9803 181.509 72.4393 180.964C70.9204 180.442 73.9313 180.541 78.9861 180.744C81.2099 180.852 83.3006 180.867 85.2352 180.811C81.6367 179.69 73.9639 177.642 70.228 176.653C65.1537 176.292 57.7326 175.192 56.7302 174.702C55.4377 174.094 60.7097 174.706 64.1217 174.992C64.3015 174.995 64.4584 175.021 64.6382 175.024C66.616 175.059 71.8678 174.367 74.5268 174.054C76.9152 173.783 83.2526 172.75 87.21 172.731C83.424 172.011 79.0537 171.28 75.9097 171.089C69.9371 170.667 66.385 171.84 63.3409 172.303C60.274 172.787 54.0149 172.068 53.1464 171.625L53.2126 171.694Z" fill="#51291D"/>
<path d="M98.178 170.544C94.1938 168.427 89.7414 166.099 85.0262 163.406C81.5311 162.759 71.3224 160.463 65.2516 159.297C67.2378 160.075 71.5385 162.108 70.8862 162.118C70.4588 162.133 69.8845 162.775 69.5375 163.286C74.6695 164.165 81.2923 165.857 84.7153 166.751C88.4291 167.717 95.0248 169.656 98.2001 170.567L98.178 170.544Z" fill="#FAB424"/>
<path d="M60.4087 171.598C61.5571 171.506 62.5723 171.322 66.6436 170.046C69.3348 169.218 73.2676 169.311 78.297 169.671C75.8138 169.019 70.6904 167.691 68.2367 167.849C64.9052 168.059 61.6991 168.766 56.2838 168.602C52.7114 168.47 48.833 167.883 45.7874 167.244C47.7302 169.123 53.9849 171.258 58.6776 171.59C59.4409 171.648 60.1161 171.615 60.4087 171.598Z" fill="#FAB424"/>
<path d="M45.7874 167.244C48.8109 167.86 52.6885 168.492 56.2837 168.601C61.6991 168.766 64.9051 168.059 68.2367 167.849C70.7124 167.713 75.8366 168.997 78.297 169.671C80.9016 169.852 83.7521 170.106 86.9173 170.365C85.2415 169.818 83.2553 169.04 81.0231 168.191C77.3932 167.541 71.7032 166.45 70.2055 165.996C67.9699 165.326 59.4893 165.556 55.7126 165.533C52.655 165.524 52.5737 165.072 52.2217 164.661C48.8038 164.69 46.4239 164.513 46.0236 164.281C45.7344 164.118 46.5232 164.02 47.9413 163.933C45.006 163.408 41.4728 162.4 39.5951 161.827C40.8891 163.536 42.2298 165.157 43.5713 166.732C44.2201 166.901 44.9588 167.072 45.7433 167.198L45.7874 167.244Z" fill="#51291D"/>
<path d="M72.6025 165.274C66.9219 163.689 61.6507 164.224 56.2039 164.531C54.7858 164.618 53.4584 164.661 52.2668 164.662C52.6196 165.028 52.678 165.502 55.7576 165.534C59.5344 165.557 68.0149 165.327 70.2505 165.997C71.7483 166.451 77.4383 167.542 81.0682 168.192C78.5239 167.202 75.6658 166.161 72.6246 165.297L72.6025 165.274Z" fill="#FAB424"/>
<path d="M126.222 187.909C125.035 187.641 123.713 187.415 122.837 187.376C121.04 187.299 112.56 186.293 103.584 186.559C100.998 186.625 98.8585 186.789 97.0112 186.981C92.3931 187.46 89.6815 188.176 86.7333 188.325C82.5927 188.521 76.7372 187.854 73.8036 187.239C70.87 186.624 71.2636 186.024 72.719 186.343C74.1523 186.638 82.6819 187.376 85.9261 187.029C87.4129 186.876 90.9073 186.377 94.6282 185.791C98.8681 185.103 103.379 184.33 105.571 183.762C109.683 182.711 120.027 184.965 120.703 184.932C121.401 184.878 121.816 185.492 121.291 184.718C120.743 183.966 118.993 183.8 114.626 182.89C110.259 181.98 104.766 182.376 98.9202 182.361C94.9187 182.334 90.846 182.509 87.115 182.442C85.4069 182.411 83.7674 182.314 82.2417 182.152C77.4413 181.571 74.003 181.487 72.462 180.942C70.943 180.42 73.9539 180.519 79.0088 180.722C81.2326 180.83 83.3232 180.845 85.2578 180.79C87.7319 180.744 89.9828 180.604 92.1448 180.418C95.9954 180.105 106.322 179.728 112.754 179.664C109.678 178.26 94.9806 176.715 91.0945 176.533C87.2533 176.351 77.8271 176.654 73.711 176.738C72.8341 176.745 71.6204 176.723 70.2507 176.631C65.1763 176.27 57.7553 175.17 56.7529 174.68C55.4604 174.072 60.7323 174.684 64.1443 174.97C64.2563 174.995 64.4581 175.021 64.6608 175.002C68.1178 175.289 73.3262 175.697 78.1267 175.086C83.1978 174.435 87.151 174.641 94.8902 174.375C93.5486 173.991 90.6149 173.376 87.2318 172.754C83.4458 172.034 79.0755 171.303 75.9315 171.112C69.9589 170.69 66.4068 171.863 63.3627 172.326C60.2958 172.81 54.0367 172.091 53.1682 171.648C52.5449 171.322 56.2741 171.479 58.6336 171.544C59.4428 171.558 60.0721 171.57 60.3647 171.552C61.4902 171.483 62.5283 171.276 66.5996 170C69.2908 169.172 73.2236 169.265 78.253 169.625C80.8576 169.806 83.7082 170.06 86.8734 170.319C85.1976 169.772 83.2113 168.994 80.9792 168.145C78.4349 167.155 75.5768 166.115 72.5356 165.251C66.855 163.665 61.5837 164.2 56.1369 164.507C54.7188 164.594 53.3915 164.638 52.1999 164.639C48.7819 164.667 46.402 164.49 46.0017 164.258C45.7125 164.095 46.5013 163.997 47.9194 163.91C49.2247 163.843 51.0923 163.764 53.1177 163.666C56.8987 163.464 59.9954 162.598 64.2208 162.673C64.6254 162.681 65.0749 162.689 65.5235 162.742C66.6464 162.807 68.0145 162.989 69.5156 163.263C74.6247 164.164 81.2704 165.834 84.6934 166.728C88.4072 167.694 95.0029 169.633 98.1782 170.544C100.738 171.917 103.141 173.219 105.21 174.358C114.8 179.633 125.355 183.847 135.757 187.765C135.77 188.283 135.788 188.53 135.801 189.048C133.049 188.301 129.75 187.995 126.222 187.909Z" fill="#E16E33"/>
<path d="M47.9637 163.956C49.269 163.889 51.1366 163.81 53.162 163.712C56.943 163.51 60.0176 162.62 64.2651 162.719C62.8767 162.424 61.3747 162.195 60.139 162.15C56.9491 162.003 49.1965 160.605 45.5013 159.842C42.5897 159.25 38.7639 158.26 36.5928 157.749C37.5781 159.138 38.6084 160.528 39.6616 161.896C41.5393 162.469 45.0725 163.477 48.0078 164.001L47.9637 163.956Z" fill="#FAB424"/>
<path d="M65.5687 162.743C66.6916 162.808 68.0596 162.99 69.5608 163.264C69.9298 162.776 70.4591 162.133 70.9095 162.096C71.5846 162.064 67.2611 160.053 65.2749 159.275C64.3784 159.124 63.5719 158.975 62.8773 158.85C57.071 157.959 52.3799 158.729 49.9127 158.415C47.4676 158.124 38.8576 155.699 38.1936 155.147C38.1495 155.101 38.1495 155.101 38.1275 155.078C36.6959 154.693 35.1523 154.283 34.0566 153.971C34.8426 155.199 35.6957 156.451 36.5716 157.681C38.7428 158.192 42.5915 159.16 45.4801 159.774C49.1304 160.537 56.928 161.936 60.1178 162.083C61.3535 162.127 62.8547 162.402 64.2439 162.651C64.6484 162.659 65.098 162.667 65.5466 162.72L65.5687 162.743Z" fill="#51291D"/>
<path d="M66.3716 157.159C61.1583 155.829 52.3429 154.749 50.1412 154.664C47.7817 154.6 36.0048 152.005 32.2655 151.196C32.8328 152.106 33.4221 153.038 34.0335 153.993C35.1521 154.283 36.6728 154.715 38.1044 155.1C38.3334 154.88 44.7696 156.929 48.693 157.516C52.8403 158.153 52.5487 156.933 59.7452 156.837C62.3311 156.816 64.465 156.922 66.3716 157.159Z" fill="#FAB424"/>
<path d="M50.1632 154.687C52.3658 154.727 61.1804 155.852 66.3937 157.182C69.7582 157.602 72.5085 158.393 76.1792 159.268C76.1792 159.268 73.6663 157.807 70.9076 156.273C67.8042 156.308 56.3446 153.584 52.0761 152.226C47.0028 150.629 39.6283 150.631 37.1442 150.025C35.152 149.562 33.1895 148.717 32.1676 148.069C31.4933 148.057 30.9089 148.047 30.4374 148.016C31.025 149.038 31.6567 150.106 32.3334 151.175C36.0727 151.984 47.8495 154.578 50.209 154.643L50.1632 154.687Z" fill="#51291D"/>
<path d="M52.054 152.203C56.3225 153.561 67.7821 156.285 70.8855 156.25C69.7058 155.622 68.5261 154.994 67.4567 154.48C64.3824 152.986 59.9885 151.131 56.1212 149.96C55.4732 149.746 54.8244 149.577 54.2197 149.454C49.9894 148.456 44.6004 148.09 40.1247 148.167C37.4259 148.209 34.3014 148.175 32.1217 148.114C33.1665 148.739 35.129 149.584 37.0983 150.069C39.6053 150.653 46.9349 150.65 52.0303 152.27L52.054 152.203Z" fill="#FAB424"/>
<path d="M47.0873 147.37C48.7056 147.399 51.104 147.779 53.3448 148.179C50.8048 146.965 47.4158 145.465 45.7612 144.986C43.2788 144.289 37.263 143.777 33.294 142.042C30.0162 140.611 27.4465 139.778 26.0149 139.393C26.1013 139.574 26.1878 139.756 26.2523 139.914C26.7915 141.116 27.5054 142.59 28.3516 144.201C34.6104 147.304 43.716 147.31 47.1331 147.326L47.0873 147.37Z" fill="#FAB424"/>
<path d="M30.0792 138.477C32.3326 139.394 47.9376 144.036 53.91 145.649C53.2654 145.255 52.6209 144.861 51.9535 144.49C48.6392 142.609 45.6455 141.611 42.2294 140.358C41.7383 140.17 41.2473 139.981 40.7333 139.814C36.693 138.281 34.4996 138.938 32.5888 138.927C32.0265 138.939 31.0859 138.742 30.0334 138.521L30.0792 138.477Z" fill="#FAB424"/>
<path d="M58.9897 149.27C59.3943 149.277 56.9103 147.479 53.9328 145.627C47.9376 144.035 32.3325 139.394 30.102 138.455C28.2888 138.04 26.1423 137.417 24.9804 137.036C25.3475 137.83 25.6697 138.622 25.9927 139.37C27.4472 139.733 30.0169 140.566 33.2719 142.019C37.2409 143.754 43.2337 144.288 45.739 144.963C47.3937 145.442 50.7826 146.942 53.3226 148.156C56.168 148.679 58.7208 149.22 58.9906 149.225L58.9897 149.27Z" fill="#51291D"/>
<path d="M62.8772 158.85C57.071 157.959 52.3798 158.729 49.9126 158.415C47.4675 158.124 38.8576 155.699 38.1935 155.147C38.1495 155.101 38.1495 155.101 38.1274 155.079C38.3564 154.858 44.7926 156.907 48.716 157.494C52.8633 158.131 52.5718 156.911 59.7682 156.816C62.3542 156.794 64.4881 156.9 66.3947 157.137C69.7592 157.557 72.5095 158.348 76.1802 159.223C76.1802 159.223 73.6453 157.739 70.9086 156.228C69.7739 155.601 68.5493 154.972 67.4798 154.458C64.4056 152.964 60.0116 151.109 56.1443 149.938C55.4964 149.724 54.8476 149.555 54.2429 149.432C50.0125 148.434 44.6235 148.068 40.1478 148.145C37.4491 148.187 34.3025 148.13 32.1448 148.092C31.4706 148.079 30.8862 148.069 30.4146 148.038C29.6312 146.675 28.9359 145.403 28.3067 144.201C34.5655 147.303 43.6711 147.309 47.0883 147.325C48.7065 147.354 51.105 147.735 53.3457 148.134C56.1911 148.658 58.7439 149.198 59.0137 149.203C59.4182 149.21 56.9343 147.412 53.9568 145.56C53.3122 145.166 52.6677 144.772 52.0003 144.401C48.686 142.52 45.6923 141.522 42.2762 140.269C41.7851 140.081 41.2941 139.892 40.7801 139.725C36.7398 138.192 34.5464 138.849 32.6356 138.837C32.0733 138.85 31.1327 138.653 30.0802 138.432C28.267 138.017 26.1204 137.394 24.9585 137.014C24.4846 135.926 24.0115 134.793 23.5384 133.661C25.4304 134.661 28.1637 136.352 30.3349 136.863C32.4161 137.372 36.4388 137.467 39.241 137.899C39.9136 138.001 40.5632 138.125 41.0322 138.291C43.289 139.028 50.8565 141.885 53.6009 142.99C59.7009 147.349 66.5184 151.811 71.9384 155.28C73.1825 156.067 74.3375 156.807 75.3815 157.478C78.6465 159.582 81.9149 161.507 85.0731 163.317C81.578 162.67 71.3694 160.374 65.2986 159.208C64.4021 159.057 63.5955 158.908 62.9009 158.783L62.8772 158.85Z" fill="#E16E33"/>
<path d="M30.289 136.907C32.3702 137.416 36.3929 137.511 39.1951 137.943C37.0969 137.141 34.8147 136.561 33.01 135.696C30.6031 134.574 24.9015 131.729 21.924 129.877C22.4615 131.168 22.977 132.436 23.4925 133.705C25.3845 134.705 28.1178 136.396 30.289 136.907Z" fill="#51291D"/>
<path d="M27.9133 131.783C30.7585 133.498 37.5704 135.891 38.2481 135.723C38.9258 135.555 33.3318 132.959 29.0865 130.388C25.6857 128.326 21.3904 124.831 19.1161 122.655C19.6095 123.9 20.08 125.167 20.5734 126.413C22.6774 128.092 26.0679 130.693 27.9353 131.806L27.9133 131.783Z" fill="#E16E33"/>
<path d="M23.0255 119.24C20.7511 117.063 16.5917 112.335 14.7016 110.053C14.7329 110.773 14.9202 111.563 15.2627 112.468C15.584 113.306 15.8604 114.143 16.1817 114.98C18.2525 117.221 22.9717 122.072 25.9432 124.238C29.8247 127.028 33.508 128.421 31.9128 127.178C30.2956 125.913 25.7409 121.874 23.0255 119.24Z" fill="#E16E33"/>
<path d="M27.9134 131.783C26.046 130.67 22.6555 128.069 20.5516 126.39C21.0238 127.568 21.474 128.722 21.9462 129.9C24.9008 131.774 30.6254 134.597 33.0322 135.719C34.8369 136.584 37.0971 137.141 39.2173 137.966C39.8899 138.068 40.5395 138.192 41.0085 138.358C43.2882 139.073 50.8328 141.952 53.5772 143.057C49.6737 140.245 46.0831 137.527 43.3159 135.252C40.9033 133.253 39.1131 131.624 38.2999 130.643C37.8606 130.095 37.7538 129.801 37.9794 129.76C36.213 128.065 34.1829 126.05 32.6386 124.493C32.2578 124.419 31.0595 123.588 29.9325 122.556C28.2314 120.975 18.655 110.258 16.397 106.036C15.2773 106.983 14.6453 108.298 14.7688 110.076C16.659 112.358 20.8184 117.087 23.0928 119.264C25.831 121.876 30.3629 125.936 31.9801 127.202C33.5973 128.468 29.892 127.052 26.0105 124.262C22.994 122.095 18.2969 117.267 16.249 115.004C17.168 117.516 18.1311 120.074 19.1162 122.655C21.4126 124.854 25.7308 128.327 29.0866 130.388C33.3541 132.982 38.9259 135.555 38.2482 135.723C37.5706 135.891 30.7816 133.476 27.9134 131.783Z" fill="#FAB424"/>
<path d="M25.7048 115.511C22.8115 111.592 19.8157 107.154 18.3988 104.813C17.6058 105.136 16.9018 105.506 16.3529 105.99C18.61 110.258 28.1873 120.929 29.8884 122.511C31.0155 123.543 32.1917 124.35 32.5946 124.448C32.8405 124.52 32.7778 124.271 32.1163 123.585C31.3446 122.784 28.576 119.407 25.7048 115.511Z" fill="#E16E33"/>
<path d="M28.7971 108.956C28.7971 108.956 28.8658 108.89 29.0439 108.983C29.1212 108.468 29.1713 108.199 29.2494 107.638C29.0043 107.521 28.7821 107.382 28.559 107.288C25.6188 105.842 23.8988 105.249 23.0704 103.885C21.3597 103.989 19.7355 104.275 18.3767 104.79C19.7936 107.131 22.7673 111.546 25.6826 115.488C28.2023 116.59 38.2047 120.276 43.2913 123.538C37.1103 116.345 29.0523 109.725 28.7751 108.933L28.7971 108.956Z" fill="#FAB424"/>
<path d="M32.1162 123.585C32.7776 124.271 32.8404 124.519 32.5944 124.448C34.1616 125.982 36.1688 128.019 37.9352 129.714C38.9971 129.441 47.8602 135.108 54.1222 139.223C53.2837 137.207 51.2901 134.45 46.4084 127.506C45.4892 126.185 44.4352 124.862 43.3133 123.561C38.2267 120.299 28.2014 116.635 25.7046 115.511C28.5988 119.385 31.3445 122.784 32.1162 123.585Z" fill="#FAB424"/>
<path d="M54.7453 134.827C54.1127 133.804 53.3902 132.779 52.6228 131.754C49.3759 127.514 44.6975 122.888 41.28 119.342C38.2594 116.208 30.6 109.91 29.0658 109.006C28.8657 108.89 28.7537 108.866 28.819 108.979C29.1191 109.749 37.1992 116.391 43.3352 123.583C44.4571 124.885 45.4891 126.185 46.4304 127.528C51.312 134.473 53.3056 137.229 54.1441 139.245C55.5214 140.124 56.7866 140.979 57.7628 141.671C57.5688 140.049 56.425 137.533 54.7453 134.827Z" fill="#E16E33"/>
<path d="M42.11 115.895C42.8104 116.897 43.5099 117.944 44.1654 118.945C46.939 123.244 54.9341 130.806 58.2066 133.698C55.4305 129.534 48.8123 119.32 47.1021 115.85C43.4083 111.467 38.4708 108.635 37.5981 108.417C36.8145 108.246 39.3982 111.889 42.11 115.895Z" fill="#51291D"/>
<path d="M54.7452 134.827C56.9145 136.62 60.7425 139.858 63.4358 142.47C61.8494 139.586 60.0187 136.54 58.8401 134.676C58.6654 134.403 58.4466 134.084 58.2067 133.698C54.9562 130.829 46.9619 123.221 44.1654 118.944C43.5099 117.943 42.8104 116.897 42.11 115.895C38.1174 113.035 32.1861 109.264 29.2712 107.661C29.1711 108.198 29.1439 108.445 29.0658 109.006C30.6008 109.865 38.2594 116.208 41.28 119.342C44.6974 122.888 49.3539 127.491 52.6228 131.754C53.4123 132.802 54.1347 133.827 54.7452 134.827Z" fill="#FAB424"/>
<path d="M62.6665 145.109C63.6214 145.733 64.6645 146.449 65.7975 147.166C65.2159 145.829 64.3256 144.172 63.3912 142.469C60.7199 139.88 56.8699 136.619 54.7006 134.826C56.4033 137.51 57.5021 140.025 57.7181 141.67C58.1396 141.97 58.539 142.247 58.8715 142.5C59.9137 143.261 61.1781 144.16 62.6436 145.131L62.6665 145.109Z" fill="#FAB424"/>
<path d="M58.1837 133.72C58.4466 134.084 58.6424 134.425 58.8171 134.698C60.0187 136.54 61.8264 139.608 63.4129 142.492C64.3472 144.195 65.2375 145.852 65.8192 147.189C66.8411 147.837 67.9071 148.53 69.018 149.225C69.0377 148.191 68.7106 146.476 66.5569 142.683C64.577 139.208 60.0971 133.597 56.7434 129.062C54.7261 126.373 53.1056 124.096 52.5189 123.029C50.9325 120.145 45.8117 112.769 46.6679 115.032C46.7315 115.236 46.8612 115.508 47.0342 115.871C48.7664 119.364 55.3846 129.578 58.1388 133.719L58.1837 133.72Z" fill="#E16E33"/>
<path d="M81.2195 156.705C80.8194 155.282 80.0479 153.289 79.1432 151.205C77.571 149.94 74.1916 146.754 72.6026 144.005C72.1024 143.12 71.4698 142.097 70.7491 140.982C67.1899 137.793 60.1326 131.754 56.7667 129.04C60.1434 133.552 64.6003 139.186 66.5802 142.661C68.7348 146.409 69.061 148.169 69.0414 149.203C72.6405 151.47 76.7969 153.996 81.2424 156.683L81.2195 156.705Z" fill="#FAB424"/>
<path d="M61.649 124.114C61.4752 123.796 63.1457 125.805 63.1457 125.805C63.1457 125.805 57.3483 117.36 56.6877 116.629C55.7413 115.555 53.4914 114.458 52.8374 114.559C52.1835 114.659 59.2921 123.915 63.0536 129.468C65.8306 133.587 68.6297 137.729 70.7267 140.959C71.4474 142.074 72.08 143.097 72.5802 143.983C74.1472 146.709 77.5265 149.895 79.1208 151.182C77.9797 148.531 76.64 145.674 75.4428 143.607C72.8744 139.154 62.3875 125.477 61.6261 124.136L61.649 124.114Z" fill="#51291D"/>
<path d="M61.649 124.114C62.3875 125.476 72.8973 139.132 75.4656 143.585C76.6629 145.652 78.0025 148.509 79.1437 151.16C80.0255 153.267 80.797 155.259 81.22 156.661C82.3089 157.332 83.4207 157.982 84.5317 158.676C84.4149 156.538 83.58 153.151 79.0333 146.324C76.6506 142.752 72.7864 137.871 69.3393 133.515C66.8581 130.39 64.6186 127.562 63.1906 125.806C62.1145 124.46 61.4981 123.774 61.6939 124.115L61.649 124.114Z" fill="#E16E33"/>
<path d="M89.1764 161.525C90.5986 162.404 92.0217 163.239 93.4668 164.097C92.3986 161.155 90.8725 157.463 89.2954 154.085C87.8733 153.205 83.2761 149.031 81.5786 146.078C80.9036 144.919 79.6368 142.963 78.2377 140.869C78.0817 140.799 77.8807 140.728 77.7034 140.59C76.4161 139.712 71.9964 134.485 69.3393 133.515C72.7863 137.871 76.6735 142.73 79.0333 146.324C83.5571 153.173 84.4149 156.538 84.5316 158.676C86.0658 159.58 87.5991 160.53 89.1773 161.48L89.1764 161.525Z" fill="#FAB424"/>
<path d="M81.5761 141.491C83.9818 145.042 86.3009 148.411 87.3015 150.182C87.9535 151.363 88.6479 152.679 89.2737 154.062C90.8515 157.395 92.3768 161.132 93.445 164.074C94.913 164.91 96.4031 165.769 97.8711 166.604C96.434 162.959 92.2081 154.632 88.1448 148.399C86.376 145.647 83.9432 142.343 81.6197 139.199C78.9461 135.553 76.4022 132.18 74.8869 130.287C74.0304 129.215 73.5241 128.644 73.5199 128.869" fill="#E16E33"/>
<path d="M90.8873 146.065C90.0401 145.69 84.0242 140.456 81.6648 139.199C83.9883 142.344 86.3761 145.646 88.1899 148.399C92.2532 154.633 96.4791 162.959 97.9161 166.605C100.786 168.208 103.702 169.766 106.731 171.26C106.34 169.342 105.549 167.192 104.105 163.951C103.5 162.636 102.616 160.664 101.557 158.419C100.383 157.476 96.9546 153.323 95.3342 151.046C93.517 148.472 91.7591 146.328 90.9543 146.088C90.9543 146.088 90.9543 146.088 90.9322 146.065L90.8873 146.065Z" fill="#FAB424"/>
<path d="M95.2888 151.045C96.9093 153.322 100.338 157.475 101.511 158.418C99.3731 153.816 96.7405 148.013 94.8522 144.449C92.6392 140.228 87.7006 133.912 85.7113 130.931C83.1451 128.726 78.2935 124.93 77.387 124.127C77.3429 124.081 77.3208 124.058 77.2759 124.057C76.8043 124.026 82.6831 132.922 83.9932 134.969C85.2168 136.835 88.4761 142.784 90.8869 146.065C90.8869 146.065 90.8869 146.065 90.909 146.087C91.6918 146.304 93.4496 148.449 95.2888 151.045Z" fill="#51291D"/>
<path d="M109.6 144.489C112.335 149.664 115.113 154.885 117.314 160.927C118.037 160.761 118.996 159.968 118.875 159.247C118.754 158.525 117.226 153.776 116.018 149.865C114.219 147.54 112.619 145.375 111.771 143.854C109.487 139.833 105.054 132.941 103.29 132.303C102.977 132.207 102.106 131.899 100.855 131.472C101.732 132.612 103.067 134.547 103.723 135.503C104.479 135.966 107.103 139.835 109.578 144.511L109.6 144.489Z" fill="#E16E33"/>
<path d="M95.7675 143.612C93.3916 139.679 84.7906 128.509 84.8413 129.386C84.8379 129.566 85.1644 130.134 85.6893 130.908C83.1231 128.704 78.2715 124.907 77.3649 124.104C77.3209 124.058 77.2988 124.035 77.2539 124.034C76.7823 124.003 82.6611 132.9 83.9712 134.946C85.1948 136.812 88.4541 142.761 90.8649 146.042C90.0176 145.667 84.0017 140.433 81.6424 139.176C78.9688 135.531 76.4249 132.158 74.9095 130.265C73.117 127.58 70.518 123.554 68.9111 121.749C67.3041 119.944 66.3043 119.319 65.591 118.991C65.1449 118.803 64.8091 118.73 64.4749 118.567C63.5836 118.146 70.9902 130.644 72.3529 132.287C73.2102 133.315 75.8541 137.341 78.2148 140.891C78.0588 140.821 77.8578 140.75 77.6805 140.612C76.3932 139.734 71.9735 134.506 69.3164 133.537C66.8352 130.412 64.5957 127.584 63.1677 125.828C60.606 122.207 57.3703 117.383 56.7097 116.651C55.7633 115.578 53.5134 114.481 52.8594 114.581C52.2055 114.682 59.3141 123.937 63.0756 129.491C65.8526 133.61 68.6517 137.752 70.7487 140.982C67.1895 137.793 60.1322 131.754 56.7663 129.04C54.749 126.351 53.1286 124.074 52.5418 123.007C50.9554 120.123 45.8346 112.747 46.6909 115.01C46.7545 115.214 46.8842 115.486 47.0571 115.849C43.3633 111.466 38.4259 108.634 37.5532 108.416C36.7695 108.245 39.3312 111.866 42.065 115.894C38.0724 113.035 32.1419 109.219 29.2263 107.66C28.9812 107.543 28.759 107.404 28.5359 107.31C25.6177 105.887 23.8757 105.271 23.0473 103.907C25.7037 103.73 28.7366 103.852 31.0435 104.32C42.4879 106.661 54.4372 113.193 65.8583 117.939C69.807 119.562 72.9967 120.9 74.6911 121.65C75.4044 121.978 76.2966 122.353 77.3227 122.776C81.0034 124.304 86.2709 126.332 91.094 128.082C92.6278 131.37 96.7315 140.211 98.3398 144.31C99.497 147.298 101.237 152.77 102.511 156.705C99.9128 151.442 97.4879 146.543 95.7225 143.611L95.7675 143.612Z" fill="#E16E33"/>
<path d="M85.7116 130.931C87.6788 133.889 92.6174 140.205 94.8525 144.45C96.7399 148.058 99.3504 153.838 101.512 158.418C102.571 160.663 103.477 162.658 104.059 163.95C105.504 167.191 106.295 169.341 106.686 171.259C107.465 171.655 108.223 172.028 109.002 172.425C108.806 170.892 107.991 167.663 105.328 162.286C105.025 161.651 104.699 161.039 104.375 160.381C103.768 159.156 103.14 157.908 102.556 156.706C99.9352 151.465 97.5331 146.544 95.7677 143.612C93.3918 139.68 84.7909 128.509 84.8416 129.386C84.8602 129.589 85.1875 130.112 85.6895 130.908L85.7116 130.931Z" fill="#E16E33"/>
<path d="M111.007 165.109C111.609 165.367 112.837 165.861 114.084 166.468C113.457 163.983 112.764 161.43 111.973 159.235C109.709 152.99 104.974 143.035 103.543 140.266C102.307 137.883 100.198 132.944 99.203 130.858C97.282 130.194 94.8692 129.386 92.3012 128.463C93.5291 130.104 96.2977 133.481 97.7621 135.688C98.1209 135.74 98.8298 136.292 99.3275 137.313C100.325 139.264 103.775 145.824 107.959 156.353C109.224 159.591 110.247 162.532 111.03 165.087L111.007 165.109Z" fill="#E16E33"/>
<path d="M113.28 174.48C114.238 174.924 115.196 175.368 116.2 175.814C115.854 173.896 115.046 170.262 114.106 166.491C112.836 165.906 111.653 165.412 111.029 165.131C112.427 169.653 113.106 172.97 113.302 174.503L113.28 174.48Z" fill="#FAB424"/>
<path d="M121.551 178.158C124.272 179.331 127.06 180.482 129.984 181.636C129.333 180.366 128.433 178.056 127.492 175.521C125.316 174.089 120.981 170.279 119.852 169.382C120.789 173.288 121.486 176.853 121.596 178.159L121.551 178.158Z" fill="#FAB424"/>
<path d="M127.492 175.521C125.803 170.927 124.245 165.368 123.774 162.954C123.651 162.323 123.578 161.422 123.509 160.342C121.947 157.346 118.785 153.377 116.042 149.798C117.25 153.709 118.778 158.458 118.899 159.18C119.02 159.901 118.061 160.693 117.338 160.86C117.489 161.245 117.638 161.675 117.765 162.082C118.553 164.367 119.247 166.92 119.83 169.359C121.004 170.256 125.316 174.088 127.47 175.498L127.492 175.521Z" fill="#E16E33"/>
<path d="M123.508 160.387C123.555 161.444 123.65 162.368 123.773 162.999C124.245 165.369 125.825 170.95 127.491 175.567C128.409 178.124 129.332 180.411 129.983 181.682C130.742 181.965 131.523 182.271 132.304 182.578C135.964 183.992 139.738 185.341 143.604 186.602C142.51 185.009 140.983 182.553 139.171 179.71C137.972 178.925 135.442 175.979 133.41 172.862C131.202 170.754 129.012 167.702 127.603 164.957C126.346 162.461 124.663 158.744 123.485 156.834C123.461 158.138 123.46 159.329 123.508 160.387Z" fill="#E16E33"/>
<path d="M133.388 172.839C132.951 172.157 132.515 171.475 132.146 170.771C129.712 166.366 127.587 158.661 127.584 155.311C127.573 152.321 128.384 149.862 129.082 148.616C129.089 147.109 129.154 146.031 129.204 145.762C129.206 145.673 129.229 145.651 129.274 145.651C129.373 145.158 129.445 144.912 129.544 144.42C127.251 143.232 125.245 142.342 125.007 143.012C124.723 143.771 123.663 151.014 123.53 156.835C124.708 158.744 126.391 162.462 127.647 164.957C129.034 167.725 131.247 170.755 133.455 172.863L133.388 172.839Z" fill="#E16E33"/>
<path d="M137.774 177.482C134.326 172.024 130.596 162.425 129.743 157.643C129.215 154.666 129.058 151.066 129.083 148.615C128.384 149.862 127.573 152.321 127.584 155.311C127.587 158.661 129.712 166.366 132.146 170.771C132.538 171.453 132.952 172.157 133.388 172.839C135.42 175.956 137.95 178.901 139.149 179.687C138.69 178.982 138.232 178.232 137.751 177.504L137.774 177.482Z" fill="#51291D"/>
<path d="M134.105 146.952C132.748 146.186 131.058 145.211 129.477 144.396C129.378 144.889 129.306 145.135 129.207 145.628C129.409 145.609 129.88 148.068 130.054 149.532C130.225 151.177 130.87 157.483 132.333 162.119C133.751 166.753 138.055 174.519 140.09 177.456C140.418 177.934 140.857 178.527 141.339 179.165C141.582 178.225 141.341 176.737 140.279 174.627C139.882 174.215 139.553 173.782 139.244 173.462C137.793 171.772 135.567 165.841 135.304 164.33C134.753 161.375 133.512 155.687 133.326 153.66C133.177 152.039 134.246 151.361 134.96 150.497C134.961 150.452 134.961 150.407 134.985 150.34C135.117 149.331 135.348 149.02 135.616 149.07C135.761 148.578 135.832 148.377 135.976 147.885C135.263 147.557 134.617 147.254 134.083 146.929L134.105 146.952Z" fill="#E16E33"/>
<path d="M140.324 174.627C141.777 176.272 143.671 178.33 144.612 178.526C143.545 176.686 142.613 174.893 141.789 173.26C141.009 171.717 140.361 170.311 139.821 169.155C137.425 163.918 134.793 153.349 135.006 150.453C134.292 151.317 133.2 152.017 133.372 153.616C133.58 155.666 134.799 161.331 135.35 164.286C135.636 165.775 137.839 171.727 139.291 173.417C139.599 173.737 139.928 174.171 140.325 174.582L140.324 174.627Z" fill="#51291D"/>
<path d="M146.236 174.711C147.344 176.732 147.541 175.836 147.541 175.836C147.541 175.836 146.462 172.242 146.192 171.09C146.129 170.842 146.047 170.436 145.944 169.917C145.619 168.112 145.117 164.933 144.43 162.066C143.556 158.363 144.083 155.472 143.909 154.008C143.734 152.543 143.567 151.866 142.209 154.719C140.851 157.572 141.811 162.648 142.505 165.156C142.82 166.309 143.395 168.005 144.038 169.68C144.787 171.65 145.65 173.599 146.258 174.689L146.236 174.711Z" fill="#51291D"/>
<path d="M143.289 172.432C145.068 175.792 149.434 181.513 152.097 185.698C152.097 185.698 151.784 183.264 149.459 179.018C148.525 177.27 147.919 174.854 147.543 172.171C147.017 171.443 146.361 170.487 145.922 169.894C146.025 170.413 146.107 170.819 146.17 171.068C146.44 172.219 147.519 175.813 147.519 175.813C147.519 175.813 147.345 176.687 146.214 174.688C145.605 173.598 144.742 171.649 143.993 169.68C143.796 170.575 143.504 171.739 143.267 172.41L143.289 172.432Z" fill="#FAB424"/>
<path d="M149.806 173.741C148.871 169.745 148.015 165.098 147.856 162.824C147.766 161.631 147.79 160.372 147.835 159.182C147.95 156.688 148.261 154.49 148.339 153.975C148.418 153.324 147.42 153.801 147.079 157.572C147.019 158.335 146.957 159.233 146.959 160.29C146.978 164.022 147.008 168.362 147.543 172.171C147.017 171.442 146.361 170.486 145.922 169.894C145.597 168.09 145.095 164.91 144.408 162.043C143.534 158.34 144.061 155.449 143.887 153.985C143.712 152.52 143.545 151.843 142.187 154.696C140.829 157.55 141.789 162.625 142.483 165.133C142.798 166.286 143.373 167.982 144.016 169.657C143.819 170.553 143.527 171.717 143.289 172.387C143.225 172.229 143.116 172.069 143.073 171.934C141.494 168.645 137.845 158.395 137.393 156.139C136.941 153.883 136.858 152.33 136.681 151.045C136.56 150.278 136.065 149.123 135.639 149.048C135.784 148.556 135.855 148.355 135.999 147.863C138.05 148.799 140.886 149.816 143.902 150.792C146.629 151.651 149.515 152.399 152.224 153.01C153.812 158.187 152.786 163.632 152.906 169.165C152.953 171.414 153.203 173.644 153.791 175.858C153.896 176.197 153.98 176.514 154.086 176.853C152.696 175.501 150.696 174.251 149.83 173.674L149.806 173.741Z" fill="#E16E33"/>
<path d="M162.325 191.727C160.119 189.484 156.117 183.589 154.064 176.875C152.673 175.523 150.673 174.273 149.807 173.696C150.412 176.202 150.953 178.505 151.333 179.771C152.2 182.687 156.612 188.319 158.811 190.877C159.975 191.167 161.161 191.436 162.303 191.704L162.325 191.727Z" fill="#FAB424"/>
<path d="M152.971 189.401C149.721 186.487 146.853 182.456 144.589 178.548C143.522 176.708 142.589 174.915 141.766 173.282C140.986 171.739 140.338 170.333 139.798 169.177C137.402 163.941 134.77 153.372 134.983 150.475C134.984 150.43 134.984 150.385 135.008 150.318C135.14 149.309 135.371 148.998 135.639 149.048C136.087 149.146 136.56 150.279 136.681 151.045C136.881 152.308 136.941 153.883 137.393 156.139C137.845 158.395 141.45 168.645 143.073 171.934C143.138 172.092 143.225 172.229 143.289 172.387C145.069 175.747 149.435 181.468 152.098 185.653C152.098 185.653 151.784 183.219 149.46 178.973C148.526 177.225 147.92 174.809 147.544 172.126C147.009 168.317 146.979 163.978 146.96 160.245C146.958 159.188 146.975 158.289 147.079 157.527C147.444 153.734 148.419 153.279 148.339 153.93C148.262 154.445 147.974 156.621 147.836 159.137C147.791 160.327 147.789 161.609 147.856 162.779C148.016 165.053 148.827 169.699 149.807 173.696C150.412 176.202 150.952 178.505 151.333 179.771C152.199 182.687 156.611 188.319 158.811 190.877C156.864 190.415 154.895 189.885 152.927 189.355L152.971 189.401Z" fill="#E16E33"/>
<path d="M147.963 187.917C149.64 188.419 151.295 188.898 152.972 189.356C149.723 186.442 146.854 182.411 144.59 178.503C143.649 178.307 141.755 176.249 140.302 174.604C141.364 176.714 141.583 178.18 141.363 179.143C143.578 182.038 147.008 186.146 147.963 187.917Z" fill="#FAB424"/>
<path d="M139.171 179.665C140.984 182.508 142.511 184.964 143.605 186.557C145.057 187.01 146.487 187.486 147.963 187.917C147.007 186.146 143.578 182.038 141.362 179.143C140.88 178.504 140.441 177.912 140.113 177.434C138.055 174.519 133.774 166.731 132.356 162.096C130.938 157.462 130.27 151.177 130.077 149.51C129.903 148.046 129.432 145.587 129.23 145.606C129.23 145.606 129.184 145.65 129.16 145.717C129.11 145.986 129.044 147.064 129.038 148.57C129.014 151.02 129.193 154.643 129.699 157.597C130.552 162.379 134.281 171.978 137.73 177.436C138.188 178.186 138.669 178.914 139.127 179.62L139.171 179.665Z" fill="#51291D"/>
<path d="M165.37 192.366C164.832 192.266 164.273 192.144 163.758 192.022C162.375 190.266 161.431 187.866 160.768 184.931C161.049 185.499 161.664 186.274 162.435 187.12C163.361 188.081 164.466 189.09 165.508 189.85C166.203 191.122 166.903 192.168 167.52 192.809C166.803 192.661 166.087 192.514 165.37 192.366Z" fill="#FAB424"/>
<path d="M162.435 187.12C161.663 186.319 161.026 185.521 160.768 184.931C160.663 184.502 160.56 184.028 160.502 183.555C160.48 183.532 160.48 183.487 160.481 183.442C159.663 179.156 158.888 170.284 161.223 165.694C162.881 162.464 164.451 157.951 165.517 155.115C165.802 155.502 165.933 155.684 166.218 156.071C166.146 156.317 166.119 156.564 166.091 156.811C165.957 157.955 165.505 162.803 164.457 165.932C163.386 169.038 162.55 170.417 162.116 174.321C161.682 178.226 162.854 182.788 164.002 186.271C164.449 187.605 165.01 188.83 165.552 189.896C164.51 189.135 163.36 188.126 162.479 187.165L162.435 187.12Z" fill="#FAB424"/>
<path d="M206.325 201.172C207.516 201.17 208.731 201.147 209.946 201.124C211.048 201.076 212.105 201.073 213.073 201.023C214.738 200.963 216.246 200.877 217.686 200.813C218.272 200.734 218.765 200.788 219.149 200.727C219.779 200.693 220.364 200.659 220.972 200.602C222.39 200.515 223.741 200.405 225.16 200.273C226.377 200.16 227.593 200.047 228.855 199.889C229.959 199.752 231.086 199.637 232.281 199.456C232.709 199.396 233.114 199.359 233.543 199.299C234.219 199.221 234.962 199.122 235.774 199.002C247.471 197.525 259.434 196.233 270.902 193.786C275.846 192.728 283.644 190.552 289.478 188.813C293.254 187.689 296.241 186.709 297.15 186.185C301.672 183.636 303.504 181.915 300.625 181.954C297.747 181.992 284.25 185.909 276.055 187.673C263.593 190.373 250.741 192.3 238.046 194.209C236.468 194.45 235.025 194.649 233.717 194.851C232.703 194.99 231.778 195.131 231.012 195.252C230.786 195.293 230.56 195.333 230.358 195.352C229.817 195.433 229.208 195.489 228.577 195.568C228.217 195.606 227.856 195.645 227.496 195.683C226.978 195.741 226.437 195.777 225.874 195.834C225.086 195.887 224.276 195.963 223.398 196.014C222.768 196.048 222.137 196.082 221.462 196.115C220.202 196.182 218.92 196.226 217.547 196.269C216.557 196.296 215.523 196.323 214.466 196.326C212.15 196.352 209.721 196.354 207.249 196.309C206.215 196.291 205.136 196.272 204.103 196.253C201.63 196.209 199.114 196.119 196.598 195.984C195.52 195.919 194.419 195.877 193.341 195.813C191.994 195.744 190.669 195.652 189.321 195.583C187.997 195.492 186.694 195.424 185.437 195.311C185.1 195.283 184.763 195.254 184.382 195.225C182.496 195.056 180.544 194.864 178.548 194.626C176.596 194.388 174.623 194.083 172.629 193.755C172.158 193.679 171.642 193.602 171.149 193.504C169.894 193.301 168.64 193.054 167.386 192.807C166.669 192.659 165.952 192.511 165.236 192.363C164.698 192.264 164.138 192.141 163.623 192.02C163.131 191.921 162.683 191.823 162.213 191.702C161.048 191.457 159.885 191.166 158.721 190.875C156.774 190.413 154.806 189.883 152.837 189.353C151.16 188.896 149.483 188.394 147.828 187.914C146.353 187.483 144.923 187.008 143.47 186.555C139.604 185.294 135.83 183.945 132.17 182.53C131.389 182.224 130.608 181.918 129.849 181.634C126.925 180.48 124.16 179.306 121.416 178.155C120.68 177.85 119.967 177.522 119.276 177.218C118.183 176.726 117.113 176.257 116.043 175.788C115.062 175.321 114.081 174.899 113.123 174.454C112.544 174.174 111.964 173.894 111.407 173.637C110.561 173.217 109.713 172.842 108.89 172.4C108.111 172.004 107.331 171.608 106.574 171.234C103.567 169.719 100.652 168.161 97.7591 166.58C96.2681 165.766 94.8001 164.93 93.333 164.05C91.9099 163.215 90.4649 162.357 89.0427 161.477C87.4644 160.527 85.9311 159.578 84.397 158.674C83.2631 158.001 82.1742 157.33 81.0853 156.658C76.6398 153.97 72.4834 151.445 68.8843 149.177C67.7733 148.483 66.6853 147.767 65.6854 147.142C64.5524 146.424 63.5313 145.732 62.5544 145.084C61.0669 144.091 59.8245 143.214 58.7823 142.454C58.4498 142.201 58.0504 141.924 57.6289 141.624C56.6079 140.931 55.3646 140.099 54.0103 139.198C47.7474 135.129 38.8623 129.439 37.8233 129.69C37.6197 129.754 37.7045 130.025 38.1438 130.573C38.957 131.554 40.7471 133.182 43.1598 135.182C44.3889 135.968 44.3889 135.968 43.1598 135.182C45.9269 137.457 49.5396 140.197 53.4211 142.987C59.5211 147.346 66.3386 151.807 71.7585 155.277C73.0026 156.064 74.1577 156.804 75.2017 157.474C78.4667 159.579 81.7351 161.504 84.8933 163.314C89.5865 165.984 94.0609 168.335 98.0451 170.452C100.605 171.824 103.008 173.126 105.077 174.265C114.667 179.541 125.243 183.822 135.624 187.673C136.294 187.91 136.763 188.076 136.986 188.17C137.992 188.48 141.853 190.011 146.164 191.504C147.124 191.859 148.129 192.214 149.112 192.546C151.435 193.353 153.736 194.091 155.704 194.666C157.068 195.072 158.298 195.387 159.261 195.606C159.709 195.704 160.201 195.803 160.671 195.924C161.522 196.119 162.395 196.292 163.314 196.466C164.456 196.689 165.644 196.912 166.898 197.16C167.279 197.234 167.728 197.287 168.13 197.384C169.049 197.558 170.012 197.733 171.022 197.863C172.501 198.114 174.048 198.345 175.707 198.599C177.052 198.803 178.465 198.986 179.945 199.192C180.348 199.244 180.752 199.297 181.156 199.349C181.604 199.402 182.008 199.454 182.457 199.507C183.466 199.638 184.498 199.746 185.507 199.877C187.235 200.065 188.963 200.253 190.691 200.397C191.836 200.485 192.981 200.573 194.126 200.661C195.833 200.781 197.584 200.902 199.337 200.934C201.584 201.019 203.831 201.059 206.17 201.056L206.325 201.172ZM220.483 197.941L220.667 197.719C220.667 197.719 220.576 197.807 220.53 197.852C220.507 197.874 220.461 197.918 220.461 197.918L220.483 197.941Z" fill="#E16E33"/>
<path d="M81.5559 146.1C80.8809 144.941 79.6141 142.985 78.215 140.891C75.8543 137.341 73.2104 133.315 72.3531 132.287C70.9904 130.644 63.5838 118.146 64.4751 118.567C64.8092 118.73 65.1451 118.803 65.5912 118.991C66.3273 119.297 68.7333 120.464 70.3403 122.269C71.9472 124.074 77.7272 135.801 81.5981 141.514C84.0037 145.064 86.3229 148.433 87.3234 150.205C87.9755 151.386 88.6699 152.702 89.2956 154.085C87.8734 153.205 83.2763 149.031 81.5788 146.077L81.5559 146.1Z" fill="#51291D"/>
<path d="M109.002 172.425C108.806 170.892 107.991 167.663 105.327 162.286C105.025 161.651 104.699 161.039 104.374 160.381C103.768 159.156 103.14 157.908 102.556 156.706C101.259 152.793 99.542 147.299 98.3847 144.311C96.7764 140.212 92.6956 131.348 91.1389 128.083C91.5189 128.202 91.8759 128.343 92.2559 128.463C100.324 135.734 105.777 146.939 108.848 156.864C109.483 158.944 110.97 163.512 111.671 165.66C112.412 168.079 112.816 169.278 113.625 171.676C115.012 175.59 114.327 174.971 111.564 173.662C110.694 173.264 109.87 172.867 109.047 172.425L109.002 172.425Z" fill="#51291D"/>
<path d="M116.178 175.791C115.832 173.874 115.024 170.239 114.084 166.468C113.457 163.983 112.763 161.431 111.973 159.236C109.709 152.99 104.974 143.035 103.543 140.266C102.307 137.883 100.197 132.944 99.2029 130.858C99.8059 131.071 100.387 131.261 100.901 131.428C101.778 132.568 110.131 142.61 112.436 147.89C116.402 156.909 123.841 167.7 122.953 177.733C121.765 177.555 120.599 177.399 119.41 177.22C118.318 176.728 117.248 176.26 116.178 175.791Z" fill="#51291D"/>
</g>
<g clip-path="url(#clip1_319_1077)">
<path d="M88.182 233.395C84.0142 240.943 72.4596 246.84 64.4877 245.423C54.947 243.74 50.468 230.839 51.2978 221.882C52.4054 210.45 64.6319 205.061 75.0636 210.131C83.514 214.249 93.6434 223.422 88.182 233.395Z" fill="#9E1460"/>
<path d="M81.3286 210.883C83.3772 208.173 84.8953 206.889 87.8661 204.71C85.9028 203.355 84.8476 202.578 82.8077 200.791C80.5189 203.787 79.2997 205.621 77.9523 209.258C74.3607 204.397 67.6448 202.742 62.1249 205.691L59.6103 207.035L60.042 207.829C61.8682 211.189 65.0285 213.364 68.5303 214.055C65.9899 216.516 64.5148 220.063 64.8589 223.9L65.2272 228L68.604 227.733C73.5202 227.314 77.5185 224.114 79.1101 219.834C80.5812 222.832 83.2508 225.269 86.7014 226.303L89.443 227.124L89.6961 226.28C91.6369 219.803 87.9321 212.913 81.3618 210.945L81.3286 210.883Z" fill="#C9D400"/>
<path d="M73.2668 230.051C74.422 229.118 75.6127 229.271 76.5553 230.422C77.4979 231.574 77.6241 233.044 76.4548 234.024C75.2997 234.956 73.5609 234.742 72.6183 233.59C71.6757 232.438 72.0976 231.03 73.2668 230.051Z" fill="#E54888"/>
<path d="M67.4581 226.571C68.0218 225.206 69.0977 224.71 70.5208 225.29C71.8966 225.855 72.7638 227.087 72.2001 228.453C71.6364 229.818 70.0367 230.515 68.6609 229.949C67.285 229.383 66.9417 227.951 67.5054 226.585L67.4581 226.571Z" fill="#E54888"/>
<path d="M64.4406 214.466C65.6762 213.609 66.8388 213.855 67.706 215.087C68.5732 216.318 68.5908 217.807 67.3552 218.664C66.1195 219.521 64.4089 219.213 63.5417 217.981C62.6745 216.75 63.1909 215.37 64.4738 214.527L64.4406 214.466Z" fill="#E54888"/>
<path d="M52.8292 228.632C53.3929 227.266 54.4688 226.77 55.8919 227.35C57.2677 227.916 58.1349 229.148 57.5712 230.513C57.0075 231.879 55.4078 232.575 54.032 232.01C52.6561 231.444 52.3127 230.011 52.8765 228.646L52.8292 228.632Z" fill="#E54888"/>
<path d="M83.5498 219.63C84.4366 219.077 85.3155 219.238 85.889 220.075C86.4484 220.959 86.0726 221.869 85.1858 222.422C84.299 222.974 83.4431 222.564 83.0064 221.615C82.7076 221.065 82.7244 220.15 83.5971 219.644L83.5498 219.63Z" fill="#E54888"/>
<path d="M61.8227 220.279C62.7095 219.727 63.5885 219.888 64.1619 220.725C64.7213 221.608 64.3455 222.519 63.4587 223.071C62.572 223.624 61.7161 223.214 61.2793 222.265C60.9805 221.715 60.9973 220.799 61.87 220.294L61.8227 220.279Z" fill="#E54888"/>
<path d="M56.9971 233.461C57.8838 232.908 58.7628 233.069 59.3362 233.906C59.8956 234.79 59.5198 235.7 58.6331 236.253C57.7463 236.805 56.8904 236.395 56.4537 235.446C56.1548 234.896 56.1716 233.981 57.0443 233.475L56.9971 233.461Z" fill="#E54888"/>
<path d="M77.993 227.171C77.6649 226.203 78.0598 225.401 79.0321 225.079C80.0044 224.756 80.8041 225.354 81.1322 226.322C81.4604 227.29 80.8291 228.021 79.8376 228.235C79.2333 228.361 78.3684 228.153 78.0403 227.185L77.993 227.171Z" fill="#E54888"/>
<path d="M70.8735 218.44C71.7603 217.887 72.6393 218.048 73.2127 218.885C73.7721 219.769 73.3963 220.679 72.5095 221.231C71.6228 221.784 70.7669 221.374 70.3301 220.425C70.0313 219.875 70.0481 218.959 70.9208 218.454L70.8735 218.44Z" fill="#E54888"/>
<path d="M67.797 232.145C68.2951 233.062 68.0892 233.921 67.1692 234.412C66.2493 234.904 65.3602 234.433 64.848 233.563C64.35 232.647 64.8535 231.826 65.7926 231.442C66.3778 231.209 67.2849 231.276 67.7498 232.131L67.797 232.145Z" fill="#E54888"/>
<path d="M70.3924 216.608C69.994 215.875 70.1909 215.218 70.9269 214.824C71.6628 214.431 72.3297 214.784 72.7281 215.518C73.1266 216.251 72.7265 216.898 71.9714 217.183C71.5089 217.351 70.7909 217.341 70.4397 216.622L70.3924 216.608Z" fill="#E54888"/>
<path d="M61.038 228.227C60.6395 227.494 60.8364 226.837 61.5724 226.444C62.3084 226.051 62.9752 226.404 63.3736 227.137C63.7721 227.87 63.3721 228.518 62.6169 228.803C62.1544 228.971 61.4364 228.961 61.0852 228.242L61.038 228.227Z" fill="#E54888"/>
<path d="M56.5091 220.477C56.1107 219.744 56.3076 219.087 57.0436 218.694C57.7795 218.301 58.4464 218.654 58.8448 219.387C59.2433 220.12 58.8432 220.767 58.0881 221.053C57.6256 221.221 56.9076 221.21 56.5564 220.491L56.5091 220.477Z" fill="#E54888"/>
<path d="M67.139 237.779C66.7406 237.046 66.9375 236.388 67.6734 235.995C68.4094 235.602 69.0763 235.955 69.4747 236.688C69.8732 237.422 69.4731 238.069 68.718 238.354C68.2555 238.522 67.5375 238.512 67.1863 237.793L67.139 237.779Z" fill="#E54888"/>
<path d="M58.3769 215.104C59.0656 214.697 59.7887 214.862 60.2012 215.548C60.6138 216.235 60.2469 216.943 59.5582 217.35C58.8695 217.758 58.1554 217.39 57.8656 216.639C57.6945 216.178 57.7023 215.464 58.3769 215.104Z" fill="#E54888"/>
<path d="M47.5074 225.247C48.1961 224.84 48.9192 225.005 49.3176 225.738C49.7302 226.425 49.3633 227.133 48.6746 227.54C47.9859 227.948 47.2718 227.58 46.982 226.829C46.8109 226.368 46.8187 225.654 47.4933 225.294L47.5074 225.247Z" fill="#E54888"/>
</g>
<defs>
<clipPath id="clip0_319_1077">
<rect width="253.581" height="175.451" fill="white" transform="translate(126.333) rotate(46.0584)"/>
</clipPath>
<clipPath id="clip1_319_1077">
<rect width="41.943" height="48.1111" fill="white" transform="translate(56.8105 193) rotate(16.6818)"/>
</clipPath>
</defs>
</svg>
