<svg width="192" height="303" viewBox="0 0 192 303" fill="none" xmlns="http://www.w3.org/2000/svg">
<g clip-path="url(#clip0_320_1078)">
<path d="M189.372 54.0099C191.791 55.5017 197.684 53.2202 196.145 48.6572C195.485 46.6829 193.418 47.5603 192.362 48.2623C192.186 48.394 191.966 48.5256 191.791 48.6572C190.603 49.2276 189.635 50.2806 188.932 51.6846C188.58 52.3866 188.756 53.6151 189.372 54.0099Z" fill="#9E1460"/>
<path d="M182.027 88.0568C183.214 89.8995 185.677 88.0129 186.821 86.9599C187.568 86.214 188.272 85.2927 188.624 84.1519C189.064 82.6602 188.492 81.2123 187.392 80.6419C185.281 79.5012 182.73 82.0898 181.939 84.5029C181.851 84.7223 181.851 84.9417 181.895 85.161C181.455 85.9947 181.367 87.0038 182.071 88.1007L182.027 88.0568Z" fill="#9E1460"/>
<path d="M144.819 38.5221C146.182 39.8822 148.205 39.3996 149.613 38.4343C150.888 37.6007 152.12 35.2753 151.372 33.3887C150.229 30.493 146.446 32.7745 144.995 34.1346C144.511 34.6172 144.203 35.3192 144.379 36.0651C144.335 36.2406 144.291 36.4161 144.247 36.5916C144.115 37.4252 144.335 37.9956 144.819 38.5221Z" fill="#9E1460"/>
<path d="M183.038 34.8804C183.346 38.0394 186.469 36.5038 187.744 35.5824C189.02 34.661 191.306 32.1163 189.855 30.0981C189.019 28.9573 187.612 29.1328 186.601 29.6593C185.941 30.0103 185.325 30.5807 184.797 31.1949C183.698 31.8969 182.862 33.1693 183.038 34.8804Z" fill="#9E1460"/>
<path d="M186.908 136.977C186.908 137.372 187.04 137.767 187.216 138.206C188.404 141.014 191.35 138.6 192.406 136.933C193.066 135.924 193.593 134.827 193.725 133.511C193.857 132.107 193.154 130.878 192.098 130.571C189.635 129.869 187.04 133.116 186.732 136.143C186.732 136.407 186.732 136.67 186.864 136.933L186.908 136.977Z" fill="#9E1460"/>
<path d="M170.899 144.567C172.263 146.498 174.814 145.094 176.045 143.646C176.837 142.725 177.496 141.584 177.584 140.136C177.716 138.557 176.485 137.196 175.385 137.153C173.45 137.021 171.251 139.127 170.548 141.408C170.504 141.584 170.46 141.716 170.46 141.891C170.196 142.725 170.24 143.646 170.899 144.524V144.567Z" fill="#9E1460"/>
<path d="M184.094 165.54C184.622 168.348 187.656 167.689 188.976 166.373C189.68 165.627 190.251 164.574 190.559 163.477C190.955 161.898 190.163 160.406 189.064 159.88C187.7 159.222 185.765 160.275 185.106 161.986C184.314 162.863 183.83 164.179 184.094 165.583V165.54Z" fill="#9E1460"/>
<path d="M165.798 162.03C165.886 162.6 166.106 162.951 166.414 163.127C167.733 164.969 170.108 163.521 171.164 161.854C171.779 160.933 172.131 159.792 171.999 158.564C171.823 157.247 170.9 156.458 169.932 156.414C168.833 156.37 167.821 157.204 166.985 158.125C166.106 159.09 165.578 160.538 165.798 162.03Z" fill="#9E1460"/>
<path d="M151.724 148.472C153.22 149.745 155.331 148.341 156.342 146.717C157.618 144.699 157.794 141.54 155.638 140.443C154.671 139.917 153.571 140.663 152.824 141.409C152.12 142.11 151.592 143.207 151.152 144.173C151.152 144.173 151.152 144.26 151.152 144.304C151.108 144.392 151.064 144.48 151.02 144.567C150.449 145.884 150.801 147.639 151.768 148.472H151.724Z" fill="#9E1460"/>
<path d="M168.481 125.219C170.152 126.491 172.703 124.824 173.538 122.762C173.978 121.665 174.154 120.524 173.758 119.339C173.45 118.374 172.527 117.979 171.823 117.935C170.284 117.848 168.656 119.208 167.909 120.875C167.821 121.094 167.733 121.358 167.733 121.577C167.205 122.806 167.513 124.473 168.481 125.219Z" fill="#9E1460"/>
<path d="M151.24 122.718C152.252 125.482 154.935 123.595 156.034 122.016C156.738 121.051 157.266 119.954 157.398 118.637C157.53 117.19 156.43 115.829 155.374 115.786C153.967 115.742 152.736 117.277 152.032 118.901C151.24 119.954 150.713 121.27 151.24 122.718Z" fill="#9E1460"/>
<path d="M134.967 136.1C136.023 136.538 137.298 135.792 138.134 135.003C138.97 134.213 139.585 133.335 139.849 132.019C140.157 130.659 139.937 129.123 139.014 128.29C138.002 127.368 136.595 127.895 135.627 128.597C134.835 129.167 134.308 130.089 133.868 131.054C133.56 131.493 133.34 132.019 133.252 132.59C132.988 134.169 133.78 135.661 134.923 136.1H134.967Z" fill="#9E1460"/>
<path d="M138.969 114.82C140.333 116.268 142.268 114.908 143.191 113.329C144.071 111.793 144.203 108.766 142.532 108.108C141.124 107.537 139.937 108.81 139.277 110.433C139.057 110.696 138.881 111.003 138.705 111.354C138.222 112.363 138.178 114.075 138.969 114.864V114.82Z" fill="#9E1460"/>
<path d="M121.026 117.277C121.685 119.646 123.532 119.646 125.072 118.857C126.259 118.242 127.095 116.4 127.579 114.952C128.15 113.109 127.623 111.091 126.171 110.389C124.852 109.731 123.357 111.047 122.477 112.1C122.037 112.626 121.685 113.197 121.421 113.855C120.894 114.82 120.63 115.961 121.026 117.277Z" fill="#9E1460"/>
<path d="M138.398 91.2596C139.981 93.234 142.488 91.2596 143.236 89.0658C144.027 86.7405 143.236 83.3183 140.905 83.8009C139.541 84.0641 138.618 85.512 138.134 87.1792C137.562 88.4955 137.43 89.9872 138.442 91.2596H138.398Z" fill="#9E1460"/>
<path d="M149.437 101.131C149.393 101.57 149.437 101.965 149.613 102.272C149.965 103.281 150.8 103.895 151.724 103.895C152.647 103.895 153.659 103.369 154.451 102.711C155.77 101.57 157.353 98.1039 155.726 96.3928C154.626 95.2521 153.395 95.9102 152.296 96.7C151.46 97.3142 150.756 98.1039 150.228 99.0692C149.745 99.6834 149.437 100.385 149.437 101.175V101.131Z" fill="#9E1460"/>
<path d="M171.779 104.378C172.615 105.738 174.242 105.387 175.297 104.773C177.057 103.72 178.728 100.122 177.145 97.9286C176.089 96.3929 174.11 97.2704 173.054 98.2796C172.351 98.9377 171.691 99.9468 171.427 101.044C171.031 102.141 171.119 103.325 171.779 104.378Z" fill="#9E1460"/>
<path d="M186.777 116.268C188.184 117.584 190.559 115.61 191.615 114.469C193.154 112.846 193.066 109.731 191.175 108.722C190.163 108.151 188.844 109.029 188.052 109.862C187.612 110.301 187.305 110.828 186.997 111.398C186.909 111.574 186.821 111.793 186.733 112.012C186.557 112.232 186.381 112.451 186.249 112.714C185.589 113.943 185.897 115.435 186.777 116.268Z" fill="#9E1460"/>
<path d="M157.925 77.8339C159.86 79.4134 161.84 76.2105 162.543 74.1923C163.335 71.7353 161.972 68.357 159.685 69.4538C158.453 70.0681 157.09 72.0863 157.002 74.0168C156.606 75.3769 156.782 76.8687 157.969 77.79L157.925 77.8339Z" fill="#9E1460"/>
<path d="M134.395 65.9438C134.395 66.1632 134.483 66.3825 134.615 66.558C134.703 66.7774 134.835 66.9968 134.923 67.2161C136.33 69.4099 138.793 68.0498 139.541 65.7683C139.937 64.5837 140.201 63.3113 140.069 62.0389C139.893 60.5911 138.925 59.7136 137.826 59.7574C136.418 59.7574 135.671 60.9421 135.187 62.3899C134.835 62.7848 134.571 63.3113 134.395 63.9255C134.219 64.5837 134.263 65.2857 134.395 65.9438Z" fill="#9E1460"/>
<path d="M115.924 93.3656C117.595 95.0767 119.75 92.6198 120.673 90.9086C121.201 89.8995 121.641 88.7588 121.773 87.5303C121.861 86.3018 121.333 84.7223 120.278 84.459C118.342 83.9764 117.199 85.9069 116.319 87.8374C116.011 88.2323 115.704 88.6271 115.44 89.1098C114.736 90.4699 114.912 92.3565 115.924 93.3656Z" fill="#9E1460"/>
<path d="M152.384 54.5802C152.472 54.8873 152.604 55.1944 152.736 55.4577C153.351 56.4668 154.451 56.2913 155.242 55.8525C156.122 55.326 156.826 54.3608 157.266 53.2639C157.793 52.0354 158.057 50.1927 157.09 49.1836C154.847 46.9021 152.34 50.6753 152.032 53.4394C151.988 53.8782 152.12 54.273 152.34 54.5802H152.384Z" fill="#9E1460"/>
<path d="M170.768 50.3682C171.867 52.6935 174.11 51.4651 175.298 50.0172C176.661 48.3499 177.321 45.4981 175.429 44.0063C173.67 42.6023 171.647 45.0155 170.812 46.8582C170.636 47.2531 170.592 47.6041 170.636 47.9551C170.416 48.7448 170.372 49.6662 170.724 50.4121L170.768 50.3682Z" fill="#9E1460"/>
<path d="M133.164 25.4473C134.264 27.7726 136.507 26.5442 137.694 25.0963C139.057 23.429 139.717 20.5772 137.826 19.0854C136.067 17.6814 134.044 20.0946 133.208 21.9373C133.032 22.3322 132.988 22.6832 133.032 23.0342C132.812 23.8239 132.768 24.7453 133.12 25.4912L133.164 25.4473Z" fill="#9E1460"/>
<path d="M177.321 69.8047C178.772 71.6913 180.971 70.1557 182.246 68.7078C183.434 67.3477 184.269 64.5836 183.17 62.8725C182.466 61.7756 181.015 61.9511 180.135 62.4776C179.212 63.048 178.508 64.0132 177.804 64.9346C177.584 65.154 177.408 65.4172 177.277 65.7244C176.617 66.8651 176.529 68.7078 177.365 69.8047H177.321Z" fill="#9E1460"/>
<path d="M117.771 70.9016C118.606 73.9728 121.333 72.3933 122.565 70.77C123.708 69.2343 124.192 65.4611 122.169 64.6714C120.322 63.9255 118.386 66.2509 117.903 68.6201C117.639 69.366 117.551 70.1996 117.771 70.9455V70.9016Z" fill="#9E1460"/>
<path d="M160.916 30.2298C162.543 32.7746 165.226 30.7125 166.589 28.9575C167.953 27.2464 169.668 23.2538 166.985 21.9814C165.226 21.1478 163.423 22.5956 162.191 24.4822C160.564 25.4475 159.684 28.2555 160.96 30.2298H160.916Z" fill="#9E1460"/>
<path d="M174.33 4.51905C174.814 6.3618 176.265 7.59029 177.629 8.11679C178.992 8.64329 180.795 8.11679 181.499 6.40567C181.895 5.39655 181.807 4.29968 181.411 3.42219C181.147 2.10594 180.004 1.1407 179.124 0.658073C177.937 -4.89131e-05 176.837 -0.219423 175.606 0.394824C174.374 1.00907 173.934 3.07119 174.33 4.56293V4.51905Z" fill="#9E1460"/>
<path d="M153.263 12.8992C153.747 14.7419 155.154 15.9704 156.562 16.4969C157.925 17.0234 159.728 16.4969 160.432 14.7858C160.828 13.7767 160.74 12.6798 160.344 11.8023C160.08 10.4861 158.937 9.52082 158.057 9.0382C156.87 8.38008 155.77 8.1607 154.539 8.77495C153.307 9.3892 152.867 11.4513 153.263 12.9431V12.8992Z" fill="#9E1460"/>
<path d="M189.635 16.2777C190.207 17.8133 191.79 17.5939 192.758 17.1113C193.242 16.848 193.681 16.4093 194.033 15.8389C194.121 15.7512 194.209 15.6634 194.297 15.5757C195.045 14.8298 195.573 13.4697 195.265 12.2851C194.781 10.5739 193.286 10.0913 192.098 10.8372C190.647 11.7147 188.843 14.0401 189.635 16.2777Z" fill="#9E1460"/>
</g>
<g clip-path="url(#clip1_320_1078)">
<path d="M176.206 220.81C181.037 218.28 185.173 213.987 187.242 209.606C187.359 209.318 187.508 208.992 187.658 208.667C188.735 205.897 189.442 201.515 188.811 199.224C188.714 198.883 188.624 198.61 188.501 198.375C187.308 196.057 184.28 194.821 182.01 193.911C181.358 193.611 180.712 193.381 180.167 193.108C179.115 192.594 178.57 192.321 177.518 191.808C175.264 190.652 172.283 189.133 169.169 187.694C163.374 184.992 157.205 183.33 149.824 181.342C141.055 179.005 134.342 178.432 127.45 180.491C120.317 182.603 114.343 184.801 109.229 187.283C105.327 189.185 95.9155 193.878 95.7407 205.132C95.7305 205.901 95.7844 206.595 95.8382 207.289C96.5957 214.806 102.327 217.583 107.492 219.809C107.818 219.959 107.962 220.018 108.288 220.168C109.191 220.553 110.056 220.906 110.889 221.297C118.383 224.743 124.584 227.274 129.621 229.196C134.946 231.236 140.974 230.185 146.794 229.15C146.863 229.145 146.932 229.14 147.002 229.134C148.86 228.784 150.446 228.524 151.93 228.307C161.643 227.046 169.405 224.503 176.179 220.917L176.206 220.81Z" fill="#51291D"/>
<path d="M195.01 242.248C198.821 239.62 202.798 236.875 206.822 234.301C208.552 233.193 210.19 231.812 211.765 230.505C212.848 229.62 213.83 228.778 214.855 228.037C216.077 227.141 217.305 226.315 218.533 225.489C220.556 224.114 222.712 222.659 224.783 221.001C225.605 220.345 226.528 219.646 227.484 218.911C233.061 214.753 241.019 208.878 241.447 200.887C241.484 200.465 241.484 200.011 241.553 199.552C241.542 199.413 241.574 199.376 241.564 199.237C241.712 197.097 241.791 194.961 241.149 193.439C240.09 191.041 237.675 188.711 235.02 187.342C233.023 186.341 230.78 185.778 228.606 185.21C227.11 184.835 225.722 184.486 224.323 183.999C220.477 182.58 216.936 181.034 213.768 179.354C205.943 175.235 197.237 172.824 188.927 170.103C184.772 168.743 180.387 167.12 176.21 165.482C162.558 160.06 147.855 155.486 133.062 153.815C118.307 152.177 104.379 158.05 92.2563 164.694C85.525 168.382 79.8567 172.721 74.9947 177.104C74.5357 177.488 74.1141 177.904 73.6231 178.325C70.1594 181.381 66.2101 184.927 64.3551 190.268C63.8966 191.56 63.6198 192.942 63.4498 194.351C62.9666 198.926 63.2148 203.026 64.0981 206.764C67.0374 219.457 76.6222 227.806 85.2176 233.751C91.7456 238.248 99.4849 241.256 105.477 243.35C107.341 243.976 109.195 244.464 111.011 244.92C113.077 245.461 115.214 245.997 117.19 246.72C118.915 247.357 120.651 248.133 122.387 248.909C124.267 249.744 126.147 250.578 128.123 251.301C134.698 253.7 141.657 255.65 148.717 257.104C152.797 257.947 156.946 257.877 160.887 257.822C161.304 257.79 161.549 257.807 161.934 257.812C165.389 257.795 169.223 257.713 173.056 255.817C180.625 252.136 187.81 247.088 194.898 242.152L195.01 242.248ZM109.13 216.613C103.35 214.119 98.3563 211.845 98.4216 205.033C98.5133 197.661 104.219 193.807 109.728 191.016C114.634 188.549 120.565 186.249 127.693 184.068C133.864 182.169 139.995 182.437 148.406 184.661C155.21 186.414 161.336 187.974 166.88 190.59C169.599 191.885 172.361 193.281 174.946 194.656C175.998 195.17 176.511 195.48 177.563 195.993C178.183 196.33 178.867 196.593 179.625 196.919C181.612 197.781 183.882 198.691 184.593 200.207C184.673 200.341 184.722 200.512 184.77 200.683C185.219 202.429 184.613 206.315 183.685 208.759C183.6 209.01 183.477 209.228 183.392 209.479C181.686 213.134 178.286 216.569 174.325 218.614C167.813 221.971 160.408 224.173 151.485 225.269C149.825 225.464 148.17 225.73 146.344 226.043C140.897 226.944 135.243 227.862 130.564 226.053C125.095 223.954 119.172 221.402 111.822 218.015C110.989 217.624 110.086 217.239 109.146 216.821L109.13 216.613Z" fill="#E16E33"/>
<path d="M177.824 255.629C184.807 253.389 191.483 246.739 198.123 242.326C201.812 239.917 205.147 236.557 208.808 233.801C211.482 231.818 214.29 230.209 217.012 228.396C222.596 224.762 228.461 219.814 233.948 214.929C240.053 209.475 244.56 201.418 243.312 194.776C242.187 188.822 236.381 185.981 231.221 183.371C225.917 180.701 219.599 179.365 213.697 177.09C199.479 171.571 185.293 165.561 170.808 160.656C163.101 158.064 154.61 156.16 146.519 154.47C142.439 153.627 138.433 152.395 134.428 151.617C130.422 150.838 126.567 151.55 122.68 151.845C119.487 152.087 116.47 151.897 113.416 153.036C110.768 154.005 107.992 154.669 105.307 155.606C101.601 156.899 97.8055 157.92 93.999 159.256C91.0413 160.283 88.5542 162.427 85.7465 164.036C79.7305 167.494 74.6178 172.245 69.1958 177.509C63.224 183.337 59.0525 190.321 59.1708 200.4C59.2731 210.725 65.3837 222.444 72.1316 228.425C77.5651 233.214 84.2 237.737 90.3478 240.483C97.3289 243.618 104.225 247.005 111.195 249.548C117.844 252.011 124.904 252.557 130.987 254.47C142.118 257.989 156.815 261.586 168.764 259.458C171.899 258.906 174.722 256.598 177.754 255.635L177.824 255.629ZM155.647 254.624C148.571 253.415 141.57 252.271 134.231 249.93C126.284 247.391 118.309 243.144 110.17 241.283C97.6942 238.424 82.0703 230.534 73.9368 220.19C69.8272 214.916 65.493 208.997 65.1251 201.101C64.9682 197.727 64.8799 192.986 65.8872 189.768C67.0596 185.979 70.2403 182.875 72.6846 180.63C81.8639 172.045 94.4069 162.716 106.579 158.511C109.879 157.388 113.28 156.677 116.467 155.457C120.396 153.903 124.305 154.339 128.497 154.37C134.958 154.404 141.623 155.714 148.021 156.729C162.194 158.97 176.434 165.675 190.086 170.643C203.38 175.499 216.306 181.919 229.749 185.996C234.684 187.506 241.19 190.364 240.814 196.78C240.608 200.426 240.674 203.528 237.846 207.129C235.082 210.654 232.12 212.52 228.966 215.063C222.566 220.331 216.001 224.808 209.639 229.654C205.849 232.559 201.755 234.231 197.96 237.067C195.35 238.976 192.692 241.167 190.258 243.097C181.702 249.82 167.225 256.713 155.684 254.656L155.647 254.624Z" fill="#C9D400"/>
<path d="M138.752 193.876C136.547 194.252 135.206 193.167 135.034 190.946C134.861 188.725 135.896 186.762 138.107 186.454C140.285 186.184 142.251 187.676 142.455 189.86C142.66 192.043 140.995 193.531 138.789 193.908L138.752 193.876Z" fill="white"/>
<path d="M143.131 202.619C141.289 204.086 139.532 203.94 138.282 202.219C136.994 200.467 136.998 198.267 138.807 196.839C140.654 195.442 143.153 195.706 144.436 197.389C145.718 199.072 144.972 201.153 143.131 202.619Z" fill="white"/>
<path d="M136.927 221.207C134.652 221.589 133.311 220.504 133.272 218.203C133.196 215.87 134.434 213.821 136.676 213.477C138.956 213.164 140.858 214.73 140.929 216.994C141 219.257 139.169 220.862 136.895 221.244L136.927 221.207Z" fill="white"/>
<path d="M110.511 213.716C108.295 213.954 107.077 212.65 107.091 210.135C107.106 207.621 108.408 205.497 110.629 205.329C112.85 205.161 114.597 206.983 114.615 209.46C114.595 211.905 112.796 213.472 110.543 213.678L110.511 213.716Z" fill="white"/>
<path d="M163.49 208.999C161.617 210.502 159.871 210.495 158.492 208.924C157.113 207.353 157.053 205.229 158.895 203.762C160.736 202.296 163.326 202.379 164.667 203.918C166.041 205.42 165.326 207.463 163.453 208.967L163.49 208.999Z" fill="white"/>
<path d="M122.404 189.705C120.589 191.064 118.929 190.806 117.763 188.835C116.598 186.864 116.698 184.553 118.513 183.193C120.327 181.834 122.709 182.386 123.869 184.288C125.029 186.19 124.219 188.346 122.404 189.705Z" fill="white"/>
<path d="M117.541 199.916C116.046 199.995 115.095 198.985 115.179 197.373C115.258 195.692 116.48 194.797 117.943 194.756C119.443 194.747 120.101 196.023 119.878 197.645C119.745 198.633 119.003 199.875 117.509 199.954L117.541 199.916Z" fill="white"/>
<path d="M145.124 214.824C143.571 215.047 142.529 214.218 142.55 212.681C142.57 211.144 143.781 210.11 145.34 209.957C146.862 209.771 147.647 210.898 147.488 212.446C147.387 213.396 146.678 214.602 145.124 214.824Z" fill="white"/>
<path d="M162.016 200.348C160.495 200.533 159.427 199.811 159.383 198.349C159.34 196.886 160.562 195.991 162.121 195.838C163.679 195.685 164.459 196.742 164.289 198.151C164.183 199.032 163.538 200.163 161.947 200.353L162.016 200.348Z" fill="white"/>
<path d="M130.603 194.144C130.198 195.675 129.04 196.496 127.583 196.153C126.125 195.81 125.697 194.341 126.102 192.81C126.539 191.241 127.9 190.789 129.267 191.314C130.095 191.635 130.971 192.58 130.566 194.112L130.603 194.144Z" fill="white"/>
<path d="M178.955 202.694C178.609 204.081 177.488 204.934 175.946 204.842C174.403 204.749 173.82 203.537 174.166 202.15C174.512 200.762 175.895 200.134 177.384 200.44C178.271 200.617 179.301 201.306 178.918 202.662L178.955 202.694Z" fill="white"/>
<path d="M132.072 211.276C130.513 211.429 129.541 210.596 129.556 208.989C129.571 207.382 130.82 206.38 132.347 206.265C133.873 206.149 134.627 207.313 134.404 208.935C134.271 209.923 133.599 211.16 132.04 211.313L132.072 211.276Z" fill="white"/>
<path d="M119.186 218.432C117.627 218.585 116.65 217.682 116.729 216.001C116.776 214.357 118.019 213.286 119.546 213.17C121.073 213.054 121.799 214.325 121.576 215.948C121.443 216.935 120.745 218.279 119.186 218.432Z" fill="white"/>
<path d="M147.19 195.085C147.286 193.612 148.257 192.631 149.794 192.654C151.294 192.645 152.085 193.841 151.99 195.314C151.895 196.787 150.593 197.549 149.114 197.382C148.163 197.28 147.1 196.627 147.228 195.117L147.19 195.085Z" fill="white"/>
<path d="M131.144 214.175C131.033 215.439 130.227 216.303 129.042 216.323C127.825 216.381 127.221 215.345 127.364 214.042C127.475 212.778 128.505 212.106 129.701 212.225C130.406 212.311 131.287 212.872 131.176 214.137L131.144 214.175Z" fill="white"/>
<path d="M152.572 204.625C152.488 205.784 151.714 206.61 150.497 206.667C149.279 206.725 148.649 205.795 148.766 204.6C148.85 203.442 149.88 202.77 151.076 202.889C151.813 202.938 152.689 203.43 152.572 204.625Z" fill="white"/>
<path d="M125.781 203.097C125.67 204.362 124.865 205.226 123.674 205.176C122.483 205.127 121.949 204.086 122.06 202.821C122.204 201.519 123.207 200.954 124.371 201.11C125.113 201.228 125.893 201.832 125.781 203.097Z" fill="white"/>
<path d="M152.164 217.816C152.085 219.044 151.311 219.87 150.062 219.965C148.813 220.06 148.182 219.131 148.299 217.935C148.378 216.708 149.408 216.036 150.636 216.118C151.373 216.166 152.281 216.621 152.164 217.816Z" fill="white"/>
<path d="M168.274 191.461C168.184 192.55 167.474 193.302 166.22 193.327C165.003 193.385 164.377 192.525 164.43 191.404C164.483 190.283 165.524 189.75 166.682 189.837C167.419 189.886 168.295 190.378 168.237 191.429L168.274 191.461Z" fill="white"/>
<path d="M152.504 188.434C152.419 189.592 151.672 190.312 150.449 190.3C149.227 190.288 148.666 189.353 148.75 188.195C148.835 187.037 149.839 186.472 151.04 186.66C151.745 186.746 152.589 187.276 152.504 188.434Z" fill="white"/>
<path d="M145.328 224.199C144.116 224.326 143.299 223.69 143.341 222.43C143.42 221.203 144.439 220.392 145.651 220.266C146.863 220.139 147.461 221.106 147.275 222.306C147.158 223.048 146.572 224.035 145.29 224.167L145.328 224.199Z" fill="white"/>
<path d="M167.761 216.354C166.517 216.518 165.705 215.951 165.753 214.761C165.768 213.608 166.793 212.867 168.036 212.703C169.28 212.539 169.868 213.367 169.682 214.568C169.597 215.272 169.005 216.19 167.761 216.354Z" fill="white"/>
<path d="M101.532 200.572C100.374 200.486 99.679 199.631 99.8864 198.254C100.024 196.883 101.054 196.211 102.213 196.298C103.371 196.385 103.81 197.538 103.528 198.851C103.347 199.667 102.691 200.659 101.569 200.604L101.532 200.572Z" fill="white"/>
<g clip-path="url(#clip2_320_1078)">
<path d="M184.497 202.694C184.691 202.354 184.788 201.965 184.788 201.527C184.837 199.242 182.116 199.096 180.561 199.68C178.908 200.312 176.43 202.111 176.673 204.153C176.916 206.438 179.491 206.486 181.192 206C182.553 205.611 184.497 204.25 184.448 202.694H184.497ZM180.123 204.542C180.123 204.542 180.22 204.542 180.269 204.542C179.929 204.639 179.54 204.688 179.2 204.639C179.491 204.639 179.832 204.59 180.075 204.542H180.123Z" fill="#C9D400"/>
<path d="M192.612 219.371C191.155 218.398 189.114 218.787 187.704 219.565C186.441 220.295 184.983 221.85 185.469 223.455C186.149 225.643 189.551 224.962 191.398 223.601C193.244 222.628 194.799 220.829 192.612 219.371Z" fill="#C9D400"/>
</g>
</g>
<g clip-path="url(#clip3_320_1078)">
<path d="M102.081 171.439C103.501 166.289 106.995 154.202 109.263 150.084C109.121 150.544 108.979 151.005 108.866 151.439C109.036 151.113 109.263 150.788 109.489 150.409C109.518 150.409 109.546 150.436 109.574 150.463C108.95 152.089 107.359 157.754 105.995 162.632C103.524 171.44 101.024 180.357 98.6653 189.246C98.7797 188.162 98.9223 187.159 99.0647 186.319C98.838 186.644 98.6111 187.132 98.4123 187.755C98.7267 184.882 100.717 176.371 102.081 171.412L102.081 171.439Z" fill="#E16E33"/>
<path d="M121.539 180.434C121.029 181.301 120.547 182.086 120.122 182.655C120.235 182.384 120.377 182.005 120.491 181.544C121.031 179.647 121.713 176.53 122.282 174.199C124.975 169.322 127.979 165.313 127.841 162.168C128.35 163.036 128.716 164.148 128.97 165.396C128.768 169.001 126.488 183.096 124.786 186.971C124.843 186.673 124.872 186.32 124.929 185.914C125.043 184.992 125.158 183.772 125.301 182.471C125.529 180.194 125.815 177.646 126.072 175.857C125.504 177.429 124.511 180.302 123.603 182.551C123.234 183.445 122.893 184.231 122.581 184.8C122.837 184.258 123.093 183.174 123.349 181.846C123.861 179.271 124.459 175.72 125 173.118C124.12 175.584 122.73 178.32 121.511 180.434L121.539 180.434Z" fill="#FAB424"/>
<path d="M122.282 174.172C122.169 174.389 122.055 174.578 121.942 174.795C118.567 181.081 116.185 185.958 113.516 194.712C112.692 197.395 111.868 200.43 111.072 204.035C108.683 214.66 109.467 222.414 110.338 227.81C110.093 219.053 110.216 210.08 112.602 201.57C111.888 207.561 111.079 223.202 112.151 225.616C112.1 220.682 112.643 216.237 113.383 212.632C112.282 209.784 116.144 197.155 117.083 193.089C115.665 195.311 114.021 198.372 113.398 198.968C113.455 198.047 113.655 196.827 114.223 194.957C114.421 194.333 114.62 193.629 114.904 192.87C115.841 190.241 119.159 183.684 120.463 181.517C121.003 179.62 121.685 176.503 122.254 174.172L122.282 174.172Z" fill="#51291D"/>
<path d="M110.876 150.628C110.156 161.769 106.294 173.829 101.869 184.072C102.749 180.982 106.927 165.046 107.325 163.257C108.007 160.249 109.143 156.373 110.876 150.628Z" fill="#E16E33"/>
<path d="M121.539 180.434C122.758 178.32 124.148 175.584 125.028 173.118C124.516 175.72 123.917 179.271 123.377 181.845C122.157 184.311 118.895 191.356 118.329 192.169C119.295 188.049 121.281 183.226 121.539 180.434Z" fill="#51291D"/>
<path d="M110.876 150.628C109.143 156.4 108.007 160.276 107.325 163.257C106.927 165.046 102.749 180.982 101.869 184.072C106.294 173.802 110.156 161.769 110.876 150.628ZM106.024 162.659C107.387 157.781 108.978 152.09 109.603 150.491C109.574 150.491 109.546 150.464 109.518 150.436C110.822 148.486 113.317 143.365 113.317 143.365C113.317 143.365 112.512 155.265 114.234 158.493C113.549 163.779 112.665 169.986 111.161 174.594C107.782 185.082 102.988 195.568 100.995 206.573C100.938 207.115 100.88 207.684 100.852 208.28C100.573 204.268 100.468 196.866 101.408 190.795C99.5354 195.754 98.5332 206.461 98.7843 209.688C97.685 205.81 97.9225 195.725 98.6654 189.246C101.024 180.357 103.524 171.44 105.995 162.632L106.024 162.659Z" fill="#51291D"/>
<path d="M100.253 161.162C102.889 156.936 106.973 148.21 109.158 143.441C110.716 141.437 112.388 139.351 113.324 137.509C112.926 139.135 112.471 140.707 111.989 142.198C109.383 144.472 103.51 158.292 102.173 164.851C100.921 170.895 96.8305 185.232 95.8085 188.186C95.8959 185.909 96.0397 183.821 96.1547 182.195C96.0412 182.466 95.9277 182.791 95.8142 183.089C96.2727 177.857 98.0079 169.591 99.0025 165.796C97.7839 167.476 95.5719 171.865 94.5491 175.524C94.7793 172.135 98.9535 158.964 99.5209 157.664C100.542 155.388 101.591 153.301 103.376 151.27C103.29 152.436 101.446 156.663 100.253 161.135L100.253 161.162Z" fill="#E16E33"/>
<path d="M123.631 182.524C124.539 180.274 125.532 177.429 126.1 175.83C125.815 177.619 125.558 180.167 125.329 182.444C124.42 185.046 122.207 190.682 121.725 191.82C122.066 189.787 123.09 185.451 123.659 182.496L123.631 182.524Z" fill="#51291D"/>
<path d="M112.478 237.356C112.083 236.189 111.745 235.023 111.52 233.884C111.182 232.23 110.731 230.251 110.309 227.81C110.064 219.053 110.188 210.08 112.574 201.57C111.86 207.561 111.05 223.202 112.123 225.616C112.072 220.682 112.614 216.237 113.354 212.632C114.037 209.298 114.917 206.669 115.598 204.962C115.484 205.694 115.313 206.588 115.142 207.564C114.06 213.934 112.746 224.912 113.731 230.173C114.017 227.543 115.1 219.872 116.721 212.825C117.745 208.38 118.994 204.207 120.016 201.47C119.845 202.554 119.561 203.909 119.248 205.427C118.28 210.306 117.113 216.594 116.829 217.651C118.39 213.451 121.455 205.619 122.762 200.117C122.332 205.241 120.116 213.426 118.527 217.301C117.08 220.823 114.325 230.499 115.31 235.488C115.251 237.332 115.306 238.85 115.502 240.206C115.839 242.619 117.053 245.846 116.854 246.063C116.854 246.09 116.798 246.063 116.741 246.063C116.571 245.927 116.261 245.52 115.893 244.896C114.933 243.323 113.521 240.393 112.45 237.329L112.478 237.356Z" fill="#FAB424"/>
<path d="M115.171 207.564C116.533 204.258 119.172 197.321 120.394 192.849C120.163 196.292 116.867 208.759 116.749 212.853C115.101 219.872 114.017 227.57 113.759 230.2C112.775 224.939 114.088 213.961 115.171 207.591L115.171 207.564Z" fill="#51291D"/>
<path d="M124.2 205.134C121.957 212.207 116.567 224.103 115.911 229.145C115.597 231.639 115.397 233.726 115.338 235.515C114.353 230.499 117.109 220.85 118.556 217.328C120.145 213.453 122.361 205.268 122.791 200.144C121.483 205.646 118.418 213.505 116.858 217.678C117.142 216.621 118.309 210.306 119.276 205.454C120.327 202.148 123.62 192.744 124.901 185.887C124.844 186.293 124.787 186.673 124.758 186.944C126.46 183.069 128.739 168.974 128.942 165.368C129.758 169.111 129.639 174.343 129.124 179.52C128.266 188.005 126.756 197.031 124.172 205.134L124.2 205.134Z" fill="#51291D"/>
<path d="M120.122 182.655C120.547 182.086 121.029 181.301 121.539 180.434C121.31 183.226 119.295 188.049 118.329 192.169C118.924 191.356 122.186 184.311 123.377 181.846C123.121 183.174 122.837 184.258 122.61 184.8C122.922 184.231 123.29 183.445 123.631 182.551C123.062 185.505 122.067 189.842 121.696 191.875C122.179 190.736 124.392 185.1 125.301 182.498C125.158 183.799 125.071 185.046 124.929 185.941C123.903 192.609 120.355 202.202 119.304 205.508C119.617 203.991 119.874 202.635 120.073 201.551C119.051 204.261 117.801 208.462 116.778 212.907C116.896 208.813 120.192 196.373 120.422 192.903C119.2 197.375 116.561 204.313 115.199 207.618C115.37 206.643 115.512 205.748 115.655 205.016C114.974 206.724 114.094 209.352 113.411 212.686C112.31 209.838 116.173 197.209 117.111 193.144C115.694 195.365 114.049 198.427 113.426 199.023C113.483 198.101 113.683 196.881 114.251 195.011C114.45 194.388 114.648 193.683 114.932 192.924C115.869 190.296 119.187 183.739 120.491 181.571C120.377 182.032 120.235 182.411 120.122 182.682L120.122 182.655Z" fill="#E16E33"/>
<path d="M102.145 164.851C103.482 158.292 109.383 144.472 111.96 142.197C110.995 145.151 109.945 147.834 109.235 150.111C106.967 154.229 103.473 166.316 102.052 171.466C100.689 176.425 98.6985 184.936 98.3841 187.809C97.0213 191.929 96.6142 201.796 96.6118 204.019C95.6818 200.575 95.5478 193.798 95.752 188.213C96.774 185.259 100.865 170.922 102.116 164.878L102.145 164.851Z" fill="#51291D"/>
<path d="M90.7827 229.361C92.027 230.095 95.3915 232.647 99.0105 235.416C99.0104 235.47 99.0103 235.524 98.9537 235.578C96.8042 234.6 92.8734 232.346 89.2534 230.525C85.6333 228.732 72.7393 220.178 70.561 219.633C79.6145 221.107 88.8341 225.78 95.5623 231.698C93.696 230.53 92.0557 229.688 90.7544 229.334L90.7827 229.361Z" fill="#E16E33"/>
<path d="M67.2751 222.937C77.2052 224.981 86.877 230.17 95.1053 235.71C96.236 236.823 97.6496 237.99 99.0915 239.103C88.2875 234.157 77.5404 228.859 67.2752 222.91L67.2751 222.937Z" fill="#E16E33"/>
<path d="M65.2161 191.216C73.3872 197.379 80.1698 205.194 87.7179 211.709C90.7711 214.342 96.4811 219.798 99.788 223.326C101.993 225.659 103.264 227.233 102.557 226.826C102.388 226.717 102.19 226.609 101.963 226.473C99.4183 225.006 93.4233 221.367 87.0322 217.673C84.5437 216.233 81.9418 214.875 79.2551 213.543C80.4718 213.653 85.3658 214.878 88.8721 217.132C85.1406 213.821 75.0764 205.134 73.0116 204.346C73.0682 204.346 73.1248 204.319 73.2097 204.292C73.606 204.238 74.1152 204.374 74.7091 204.646C77.0283 205.706 80.7317 208.855 85.1433 211.327C82.5709 209.019 76.1828 202.614 74.7978 201.149C73.6956 199.955 68.4103 194.256 65.2444 191.216L65.2161 191.216Z" fill="#FAB424"/>
<path d="M83.9849 235.345C78.4142 231.896 72.0508 228.771 70.016 226.437C80.4526 231.004 90.6051 236.491 100.503 242.087C99.6543 241.842 98.834 241.597 98.155 241.461C99.2298 241.896 101.464 243.145 103.811 244.476C92.4092 242.81 81.5208 237.349 72.7848 230.29C76.235 232.192 82.6546 235.615 84.0131 235.399L83.9849 235.345Z" fill="#E16E33"/>
<path d="M95.077 235.71C94.766 235.411 94.4834 235.086 94.2007 234.814C97.5938 237.149 109.329 244.401 111.536 244.783C109.132 243.208 103.874 239.19 98.9822 235.443C95.3633 232.674 91.9987 230.122 90.7545 229.388C92.0558 229.742 93.696 230.611 95.5624 231.752C97.3156 232.839 99.2666 234.169 101.359 235.581C98.7299 233.328 93.4157 228.253 88.751 224.262C96.103 229.042 105.604 235.396 109.561 239.304C109.815 239.576 110.07 239.82 110.324 240.064C112.585 242.398 114.168 244.515 115.27 246.142C116.654 248.204 117.247 249.561 117.247 249.561C116.935 249.506 116.256 249.397 115.351 249.233C114.078 249.015 112.296 248.688 110.372 248.252C108.703 247.274 106.215 245.807 103.783 244.422C101.464 243.091 99.2298 241.868 98.1267 241.406C98.834 241.57 99.6544 241.788 100.475 242.032C103.049 242.821 105.764 243.746 106.302 243.964C104.775 243.095 101.862 241.221 99.0348 239.076C97.5929 237.963 96.1793 236.795 95.0487 235.683L95.077 235.71Z" fill="#FAB424"/>
<path d="M64.4358 205.854C69.2998 208.652 74.3906 211.098 79.255 213.543C80.4716 213.653 85.3656 214.878 88.872 217.132C85.1404 213.821 75.0763 205.134 73.0115 204.346C73.0681 204.346 73.1247 204.319 73.2096 204.292C69.7877 202.444 63.6789 199.428 60.5387 198.72C62.4336 199.617 68.4573 202.877 74.111 208.034C68.708 206.429 57.2833 199.828 55.7563 198.878C48.1779 194.152 40.628 189.264 32.993 184.538C35.3131 184.73 48.7474 190.926 55.1387 194.377C48.1274 188.648 39.9255 184.79 31.6668 181.094C33.562 181.773 38.5126 182.999 41.9636 184.087C45.4147 185.175 55.2571 189.659 60.7154 192.431C52.8841 186.105 43.7773 181.649 34.1882 178.385C34.641 178.386 35.2352 178.441 35.9424 178.577C40.9782 179.559 51.6128 184.206 55.3736 186.705C59.6999 189.556 66.2583 195.419 69.6503 198.703C69.1979 198.377 64.0226 195.661 62.6075 195.849C65.6618 197.506 71.6274 202.121 74.7089 204.646C77.0281 205.706 80.7316 208.855 85.1432 211.327C82.5707 209.019 76.1826 202.614 74.7977 201.149C73.6954 199.955 68.4102 194.256 65.2443 191.216C65.1594 191.161 65.1029 191.107 65.0181 191.053C56.5354 185.188 46.9203 179.89 36.4527 177.791C36.2546 177.764 36.0283 177.71 35.8303 177.655C27.7391 176.074 20.7228 174.819 14.0192 172.263C28.577 185.97 47.1007 195.886 64.4358 205.854Z" fill="#51291D"/>
<path d="M54.7474 215.685C57.1781 218.236 60.9127 218.782 64.9864 219.79C62.2401 221.115 57.0075 218.995 53.6136 217.364C60.4268 223.147 67.3816 228.874 70.9441 231.481C79.0306 237.373 89.3259 241.776 99.1694 245.23C100.867 245.828 106.1 247.325 110.4 248.252C108.732 247.274 106.243 245.807 103.811 244.422C92.4092 242.756 81.5208 237.294 72.7848 230.236C76.235 232.138 82.6546 235.561 84.0131 235.345C78.4424 231.896 72.079 228.771 70.0442 226.437C80.4808 231.004 90.6334 236.491 100.531 242.087C103.105 242.876 105.821 243.801 106.358 244.018C104.831 243.149 101.919 241.302 99.0913 239.13C88.2873 234.184 77.5402 228.886 67.275 222.937C77.205 224.981 86.8768 230.17 95.1052 235.71C94.7942 235.411 94.5116 235.086 94.229 234.814C97.622 237.149 109.357 244.401 111.564 244.783C109.161 243.208 103.902 239.19 99.0105 235.443C99.0104 235.497 99.0104 235.551 98.9537 235.606C96.8042 234.627 92.8734 232.373 89.2534 230.552C85.6333 228.759 72.7393 220.205 70.561 219.66C79.6145 221.134 88.8342 225.808 95.5623 231.725C97.3156 232.811 99.2666 234.142 101.359 235.554C98.7299 233.301 93.4156 228.225 88.7793 224.235C85.5841 222.144 82.8693 220.514 81.5684 219.89C78.4856 218.395 71.7245 216.734 65.6416 215.778C62.4994 216.886 56.7274 216.338 54.7474 215.685Z" fill="#51291D"/>
<path d="M108.764 140.513C107.884 143.088 105.616 147.64 105.445 148.643C106.154 147.342 107.599 145.473 109.157 143.469C106.973 148.238 102.861 156.963 100.253 161.189C101.446 156.717 103.318 152.49 103.376 151.324C101.591 153.356 100.57 155.415 99.5206 157.718C98.925 158.992 94.779 172.19 94.5489 175.578C95.5434 171.92 97.7837 167.53 99.0023 165.851C98.0077 169.645 96.2725 177.912 95.8139 183.144C94.3375 187.669 94.1593 195.233 94.1591 195.477C93.6819 192.006 92.8669 186.882 92.2768 183.14C92.2836 176.958 93.055 170.317 95.3257 164.03C98.2776 155.873 103.324 147.447 108.764 140.567L108.764 140.513Z" fill="#51291D"/>
<path d="M108.765 140.513C112.222 135.935 115.509 132.171 116.955 129.488C117.145 136.32 115.977 143.53 115.52 147.434C115.292 149.331 114.862 153.587 114.234 158.52C112.512 155.265 113.317 143.392 113.317 143.392C113.317 143.392 110.822 148.513 109.518 150.463C109.263 150.816 109.064 151.168 108.894 151.493C109.008 151.059 109.121 150.599 109.292 150.138C110.002 147.861 111.052 145.179 112.017 142.225C112.5 140.734 112.982 139.189 113.352 137.536C112.416 139.378 110.744 141.491 109.186 143.469C107.627 145.473 106.182 147.369 105.473 148.643C105.644 147.64 107.913 143.088 108.793 140.513L108.765 140.513Z" fill="#FAB424"/>
<path d="M81.1206 163.933C81.6033 162.415 82.0577 160.925 82.3988 159.57C82.2848 160.329 82.1706 161.169 82.0565 162.009C81.5142 166.238 81.1977 171.036 81.6206 172.365C82.5301 168.815 84.6855 164.425 87.2914 162.096C87.1779 162.367 87.0361 162.638 86.9227 162.882C83.7744 169.494 81.6436 177.191 81.6666 182.016C81.6631 185.134 81.999 188.523 82.1666 190.448C82.2504 191.451 82.3063 192.075 82.278 192.048C81.7697 191.153 80.6689 188.603 79.4847 184.725C79.1464 183.586 78.7799 182.339 78.4419 180.983C77.9911 179.193 77.3152 176.21 76.6117 172.712C76.6999 169.703 77.1582 164.634 78.4366 160.081C78.3473 164.147 77.9444 170.219 79.1017 172.823C79.3028 170.058 80.2401 166.941 81.1488 163.987L81.1206 163.933Z" fill="#FAB424"/>
<path d="M100.922 221.348C100.611 220.805 99.5948 218.635 98.3814 215.57C96.6036 211.095 94.3469 204.722 93.5324 199.136C92.8584 194.554 92.2137 189.022 92.2485 183.112C92.8669 186.854 93.6818 192.006 94.1308 195.45C94.131 195.206 94.3092 187.642 95.7856 183.116C95.8992 182.791 96.0127 182.493 96.1262 182.222C96.0112 183.821 95.8674 185.909 95.78 188.213C95.5757 193.798 95.7097 200.575 96.6397 204.019C96.6422 201.796 97.0492 191.929 98.4121 187.809C98.6108 187.186 98.8377 186.698 99.0645 186.373C98.9221 187.213 98.8078 188.216 98.6651 189.301C97.9505 195.779 97.6847 205.864 98.784 209.742C98.5329 206.516 99.5351 195.835 101.408 190.849C100.468 196.921 100.573 204.322 100.851 208.335C100.649 212.509 101.293 218.122 101.347 220.481C101.346 221.511 101.261 221.917 100.922 221.375L100.922 221.348Z" fill="#FAB424"/>
<path d="M102.585 226.826C103.321 227.233 102.021 225.66 99.8162 223.326C99.3082 222.105 98.1506 219.799 96.0599 216.815C91.144 209.761 86.4832 202.327 82.1054 194.84C82.6709 195.302 83.0384 195.6 83.1798 195.682C83.406 195.818 82.7282 194.597 81.5701 192.725C81.8534 192.427 81.9951 192.265 82.2784 191.967C82.3067 191.994 82.279 191.397 82.167 190.367C86.9962 199.048 92.9013 207.187 98.3534 215.516C99.5668 218.581 100.583 220.778 100.894 221.294C101.233 221.836 101.318 221.43 101.319 220.399C103.409 224.007 110.416 234.209 112.45 237.301C113.493 240.393 114.933 243.323 115.893 244.869C115.638 245.357 115.525 245.601 115.27 246.088C114.168 244.433 112.586 242.317 110.324 240.01C108.432 236.917 103.602 228.969 101.935 226.446C102.161 226.581 102.359 226.69 102.529 226.799L102.585 226.826Z" fill="#51291D"/>
<path d="M115.298 246.142C115.553 245.655 115.667 245.411 115.922 244.923C116.289 245.52 116.571 245.927 116.769 246.09C116.826 246.117 116.854 246.144 116.883 246.09C119.791 251.38 124.395 259.057 123.856 260.222C123.317 261.387 116.735 251.322 115.379 249.233C116.285 249.397 116.964 249.506 117.275 249.561C117.275 249.561 116.682 248.204 115.298 246.142Z" fill="#51291D"/>
<path d="M33.837 111.992C31.2676 106.838 29.3204 102.037 29.2087 100.681C30.3089 103.746 38.9548 115.603 40.8762 118.126C41.0184 117.449 39.4669 113.082 38.0264 110.668C40.4573 113.029 43.0287 116.394 45.4017 119.921C49.8371 126.513 55.4001 136.93 55.4001 136.93C55.4001 136.93 48.5618 128.247 45.1969 125.993C52.6571 135.3 58.9557 145.826 64.6319 156.215C55.6448 145.985 48.0741 134.265 40.2762 123.304C38.129 120.292 35.8133 116.033 33.8087 112.019L33.837 111.992Z" fill="#E16E33"/>
<path d="M30.323 142.487C22.8286 138.602 16.7475 136.101 14.5128 135.394C16.6055 136.562 19.8846 139.575 21.3834 140.471C18.7532 139.14 13.6627 136.423 9.75967 134.656C5.66082 130.829 2.07078 127.491 0.177155 125.428C6.14457 128.39 11.1499 131.296 16.5802 133.796C19.2383 135.453 22.8863 137.545 25.7989 139.337C28.0329 140.722 29.8426 141.917 30.6058 142.623C30.521 142.596 30.4361 142.541 30.3513 142.487L30.323 142.487Z" fill="#FAB424"/>
<path d="M55.1379 118.305C55.0816 118.033 54.2088 114.101 53.7864 112.258C53.7863 112.285 53.8429 112.339 53.8428 112.366C55.679 115.188 58.531 120.64 61.1281 126.255C62.3964 130.865 64.1147 137.942 64.0272 140.328C63.5485 138.186 60.9514 132.517 58.2398 128.095C57.5642 124.922 55.1085 119.308 52.5957 114.208C53.7259 115.755 54.6298 117.193 55.1096 118.305L55.1379 118.305Z" fill="#51291D"/>
<path d="M21.558 135.917C32.8719 140.429 44.4944 147.247 53.5404 155.444C55.2931 157.019 56.9889 158.864 58.6279 160.845C55.4617 158.13 48.6762 152.809 45.1413 150.799C40.1932 147.351 31.6251 141.973 25.7421 139.391C22.8295 137.599 19.2098 135.507 16.5234 133.851C18.1638 134.612 19.8609 135.291 21.558 135.971L21.558 135.917Z" fill="#51291D"/>
<path d="M44.5912 111.136C44.5065 110.919 44.3656 110.35 44.1402 109.536C49.5928 117.404 53.4603 125.785 57.2142 134.492C53.4859 128.198 48.8822 120.304 46.6786 117.075C43.0342 111.731 36.3101 102.099 34.4463 98.654C37.0469 101.097 42.8676 108.803 44.5912 111.109L44.5912 111.136Z" fill="#E16E33"/>
<path d="M46.65 117.075C48.8536 120.304 53.4573 128.198 57.1855 134.492C57.4394 135.224 57.6933 135.956 57.9188 136.689C57.5793 136.715 57.4377 136.742 57.0981 136.769C53.7373 130.909 49.7546 124.371 46.5058 119.488C44.9521 117.155 43.596 115.174 42.6071 113.845C34.8368 103.453 26.8971 92.7897 20.4295 81.5589C19.8384 78.7387 19.5299 76.19 19.6172 74.0213C23.5145 81.0201 27.0456 86.4731 32.4455 90.8439C40.2485 97.1692 47.8527 104.172 53.7579 112.258C54.1803 114.102 55.0531 118.033 55.1094 118.305C54.6296 117.193 53.754 115.755 52.5955 114.208C50.4482 111.278 47.3958 107.967 45.0211 105.931C47.2815 108.943 49.0892 111.954 49.6816 113.609C49.8509 114.07 49.9354 114.422 49.9068 114.639C48.1834 112.17 44.0868 106.337 41.7968 104.464C42.9833 106.254 43.6885 108.234 44.0832 109.59C44.337 110.377 44.4778 110.973 44.5342 111.19C42.7824 108.857 36.9899 101.178 34.3893 98.7352C36.2248 102.153 42.9489 111.812 46.6216 117.157L46.65 117.075Z" fill="#FAB424"/>
<path d="M21.2712 139.332C32.1881 144.603 42.3107 151.609 51.9237 158.831C45.9322 152.128 38.1278 146.996 30.2945 142.487C30.3794 142.514 30.4642 142.568 30.549 142.623C29.7858 141.944 27.9761 140.722 25.7422 139.337C31.6251 141.919 40.1932 147.296 45.1414 150.745C44.802 150.555 44.4909 150.392 44.2364 150.256C46.979 152.238 50.3148 155.224 53.4806 158.372C54.6672 160.054 56.1643 162.496 57.1246 164.042C55.4284 162.576 53.8452 161.327 52.8554 160.811C50.3957 158.857 47.2289 156.549 45.6165 156.086C49.1791 158.693 55.9908 165.803 58.0256 168.164C56.5272 166.915 55.1136 165.802 54.0956 165.15C54.1805 165.205 55.198 166.236 56.583 167.674C53.5576 165.475 47.5916 161.293 41.8786 158.576C49.5979 163.79 56.6651 170.168 62.5431 177.224C54.8524 171.739 47.1335 166.064 39.641 160.471C34.8627 156.887 26.5526 148.582 23.9811 145.353C31.814 150.242 39.4759 156.188 48.1026 159.776C38.7999 153.367 30.2056 146.119 21.2147 139.305L21.2712 139.332Z" fill="#E16E33"/>
<path d="M58.0259 168.191C55.9912 165.83 49.2077 158.72 45.6169 156.113C47.2293 156.576 50.396 158.884 52.8557 160.838C52.7991 160.838 52.7426 160.784 52.686 160.757C54.4673 162.087 62.7479 171.531 64.6411 173.973C63.9625 173.43 60.9096 170.607 57.9976 168.218L58.0259 168.191Z" fill="#51291D"/>
<path d="M32.0541 112.098C33.974 116.004 35.7813 119.422 37.2219 121.728C44.8205 133.746 53.9189 145.739 62.5654 156.972C63.7522 158.519 67.5938 164.623 70.4749 169.371C69.7434 165.574 66.784 154.89 64.7229 150.685C63.7348 148.651 60.7414 143.09 57.1264 136.769C53.7655 130.91 49.7828 124.372 46.5341 119.488C44.9803 117.155 43.6242 115.174 42.6353 113.845C34.8651 103.453 26.9254 92.7898 20.4578 81.5589C22.9079 92.1618 27.2544 102.333 32.0541 112.098ZM38.0264 110.668C40.4573 113.029 43.0286 116.394 45.4017 119.921C49.8371 126.513 53.6491 133.783 55.4001 136.93C54.6657 135.736 48.5618 128.247 45.1969 125.993C52.6571 135.3 58.9557 145.826 64.6319 156.216C55.6448 145.985 48.0741 134.265 40.2762 123.304C38.129 120.292 35.8133 116.033 33.8086 112.019C31.2393 106.865 29.2921 102.064 29.1804 100.709C30.2806 103.773 38.9264 115.63 40.8478 118.153C40.9901 117.476 39.4385 113.109 37.9981 110.695L38.0264 110.668Z" fill="#51291D"/>
<path d="M56.9967 126.114C55.1333 122.317 51.7155 116.81 49.7382 113.581C49.1458 111.927 47.3381 108.916 45.0777 105.904C47.4524 107.94 50.5048 111.251 52.6522 114.181C55.1367 119.281 57.6206 124.895 58.2962 128.068C57.8726 127.363 57.4488 126.711 57.025 126.114L56.9967 126.114Z" fill="#E16E33"/>
<path d="M41.8254 104.437C44.1154 106.31 48.212 112.17 49.9354 114.612C49.9639 114.395 49.8794 114.043 49.7102 113.582C51.7157 116.81 55.1053 122.317 56.9687 126.115C55.8669 124.487 54.793 123.211 53.9448 122.614C56.9122 126.033 60.2683 136.176 62.7225 143.119C61.6484 142.006 59.5865 138.588 57.1575 134.519C53.4319 125.812 49.5644 117.431 44.0835 109.563C43.6605 108.207 42.9553 106.227 41.7971 104.437L41.8254 104.437Z" fill="#51291D"/>
<path d="M85.9479 123.273C86.6874 119.803 88.3624 114.844 89.1864 111.782C91.9353 108.152 94.4856 104.901 94.9126 102.57C95.7273 107.912 96.5715 112.223 97.4159 116.318C98.2319 120.44 99.6621 132.207 97.9018 137.573C97.3906 139.172 96.3978 141.421 95.263 143.995C96.8867 134.237 96.9828 124.125 93.7957 114.633C93.1678 119.512 93.784 125.233 93.782 127.05C92.4826 124.988 91.783 117.938 91.8413 116.393C90.5088 118.669 89.6536 124.361 89.567 125.879C88.8328 124.523 89.2356 118.478 89.4068 117.231C88.1595 119.29 86.797 123.111 85.9738 125.415C85.8035 125.875 85.6616 126.282 85.548 126.607C85.4922 125.956 85.6633 124.764 85.9762 123.273L85.9479 123.273Z" fill="#FAB424"/>
<path d="M74.2884 175.502C74.4581 175.664 74.2615 174.309 73.8112 172.058C75.1941 175.367 77.6493 181.415 79.485 184.644C80.6692 188.522 81.7699 191.098 82.2783 191.966C81.995 192.264 81.8534 192.427 81.5701 192.725C80.8639 191.585 79.9599 190.229 78.9711 188.764C77.5884 185.319 74.2292 177.941 72.3958 172.544C73.3844 174.172 74.0623 175.284 74.2602 175.447L74.2884 175.502Z" fill="#51291D"/>
<path d="M60.6872 192.431C52.8559 186.105 43.7491 181.649 34.16 178.385C34.6128 178.386 35.2069 178.441 35.9142 178.577C40.95 179.559 51.5846 184.206 55.3453 186.705C59.6716 189.556 66.2301 195.419 69.6221 198.703C69.1697 198.377 63.9944 195.66 62.5793 195.849C65.6335 197.506 71.5991 202.121 74.6807 204.646C74.0868 204.374 73.5776 204.238 73.1814 204.292C69.7595 202.444 63.6506 199.428 60.5104 198.72C62.4054 199.617 68.429 202.877 74.0827 208.034C68.6798 206.428 57.255 199.828 55.7281 198.877C48.1497 194.152 40.5997 189.264 32.9647 184.538C35.2849 184.73 48.7192 190.926 55.1105 194.376C48.0991 188.648 39.8973 184.79 31.6386 181.094C33.5337 181.773 38.4844 182.999 41.9637 184.087C45.4148 185.175 55.2572 189.659 60.7155 192.431L60.6872 192.431Z" fill="#E16E33"/>
<path d="M85.9457 125.442C85.2917 128.342 83.7556 135.606 84.0325 141.109C85.5389 135.12 86.7618 129.509 88.8868 127.099C88.8795 133.659 88.6785 136.316 89.1568 138.811C90.1514 134.989 90.639 129.134 92.3115 126.37C92.3396 126.587 92.3959 126.804 92.424 127.048C92.8727 130.709 92.1289 137.973 90.7649 143.204C89.9124 146.484 86.9317 155.047 85.5411 158.679C86.1109 155.263 88.2987 147.187 88.2476 142.144C86.9131 146.291 83.3067 157.754 82.0852 162.009C82.1993 161.169 82.3135 160.329 82.4275 159.57C82.0864 160.952 81.632 162.415 81.1493 163.933C81.239 159.541 82.3272 147.912 83.0669 144.253C81.536 146.854 79.7753 152.599 79.036 155.771C78.7833 154.008 78.9875 148.505 80.9499 139.479C81.9454 134.899 82.6306 129.423 85.9481 123.3C85.6352 124.791 85.4641 125.983 85.5199 126.634C85.6335 126.309 85.7754 125.902 85.9457 125.442Z" fill="#E16E33"/>
<path d="M83.067 144.253C81.5361 146.854 79.7753 152.6 79.0361 155.771C78.7833 154.008 78.9592 148.505 80.95 139.479C81.9454 134.899 82.6306 129.423 85.9481 123.3C86.6877 119.831 88.3627 114.871 89.1867 111.809C86.2395 115.709 83.0371 120.044 81.1657 123.512C77.1677 130.827 74.8086 140.286 74.0073 148.418C73.4638 153.704 75.0364 164.604 76.6404 172.685C76.7287 169.676 77.187 164.607 78.4654 160.053C78.376 164.12 77.9732 170.192 79.1305 172.796C79.3316 170.031 80.2688 166.914 81.1776 163.96C81.2673 159.569 82.3555 147.939 83.0952 144.28L83.067 144.253Z" fill="#51291D"/>
<path d="M89.3787 117.231C88.1314 119.29 86.7689 123.111 85.9458 125.415C85.2917 128.315 83.7557 135.579 84.0325 141.082C85.5389 135.093 86.7619 129.482 88.8868 127.072C88.8796 133.632 88.6786 136.289 89.1569 138.784C90.1515 134.962 90.639 129.107 92.3116 126.344C92.3396 126.56 92.396 126.777 92.424 127.021C92.8445 130.655 92.129 137.947 90.7649 143.177C89.9124 146.457 86.9318 155.02 85.5412 158.652C86.1109 155.236 88.2987 147.16 88.2477 142.117C86.9131 146.264 83.3067 157.727 82.0853 161.982C81.5429 166.211 81.2264 171.009 81.6494 172.338C82.5588 168.788 84.7142 164.398 87.3201 162.07C89.5042 157.328 92.7384 149.795 95.2915 144.023C96.9152 134.265 97.0113 124.153 93.8242 114.661C93.1963 119.54 93.8125 125.261 93.8105 127.077C92.5111 125.015 91.8115 117.966 91.8698 116.421C90.5373 118.696 89.6821 124.389 89.5955 125.907C88.8613 124.55 89.2641 118.505 89.4353 117.258L89.3787 117.231Z" fill="#51291D"/>
<path d="M57.1529 164.042C56.1925 162.496 54.6955 160.081 53.5089 158.372C58.8229 163.665 63.5422 169.363 64.9261 171.723C64.1349 170.719 60.4605 166.947 57.1246 164.042L57.1529 164.042Z" fill="#51291D"/>
<path d="M58.2681 128.095C60.9797 132.544 63.5768 138.186 64.0555 140.328C64.143 137.943 62.4247 130.865 61.1565 126.255C64.0358 132.547 66.6319 139.084 67.4769 142.663C69.7865 152.399 71.8979 162.269 73.8395 172.085C74.2898 174.336 74.4864 175.692 74.3168 175.529C74.1189 175.339 73.441 174.227 72.4524 172.626C71.8875 171.676 71.2096 170.591 70.5034 169.398C69.7719 165.601 66.8125 154.917 64.7515 150.712C63.7633 148.678 60.7983 143.117 57.1549 136.796C57.4945 136.769 57.636 136.743 57.9756 136.716C57.7501 135.984 57.4962 135.251 57.2423 134.519C59.6714 138.615 61.7616 142.034 62.8074 143.119C60.3532 136.149 56.9687 126.033 54.0296 122.614C54.8779 123.211 55.9235 124.487 57.0535 126.115C57.4773 126.712 57.901 127.39 58.3247 128.068L58.2681 128.095Z" fill="#FAB424"/>
<path d="M9.73139 134.656C17.3355 141.74 24.7979 149.014 32.3454 156.098C33.9566 157.618 36.3598 159.519 39.1023 161.582C47.3299 167.772 55.699 174.017 64.0967 179.909C66.7263 181.756 73.0025 186.968 77.4974 190.877C75.0958 187.594 67.3808 178.422 64.2997 175.491C62.01 173.319 58.8161 169.981 56.5832 167.701C53.5578 165.475 47.5917 161.32 41.8787 158.603C49.5981 163.817 56.6653 170.196 62.5433 177.251C54.8525 171.766 47.1337 166.091 39.6412 160.498C34.8629 156.915 26.5527 148.61 23.9813 145.381C31.8142 150.269 39.4761 156.215 48.1028 159.803C38.8001 153.395 30.2058 146.147 21.2148 139.332C32.1317 144.603 42.2543 151.609 51.8673 158.831C45.8758 152.128 38.0714 146.996 30.2381 142.487C22.7437 138.602 16.6626 136.101 14.4279 135.393C16.5206 136.561 19.7997 139.574 21.2985 140.471C18.6683 139.139 13.5778 136.423 9.6748 134.656L9.73139 134.656Z" fill="#51291D"/>
<path d="M53.4809 158.372C50.3151 155.224 46.9793 152.238 44.2367 150.256C44.5195 150.392 44.8023 150.555 45.1416 150.745C48.6765 152.782 55.462 158.076 58.6283 160.791C64.4215 167.71 69.336 176.038 72.6988 180.163C74.5639 182.469 76.9937 185.807 78.9995 188.791C79.9883 190.256 80.864 191.613 81.5985 192.752C82.7566 194.597 83.4344 195.817 83.2081 195.709C83.0668 195.627 82.6992 195.329 82.1338 194.867C81.116 194.026 79.4764 192.56 77.5258 190.877C75.1242 187.594 67.4092 178.422 64.328 175.491C62.0384 173.319 58.8445 169.981 56.6115 167.701C55.2266 166.263 54.209 165.259 54.1242 165.177C55.1139 165.829 56.5557 166.969 58.0541 168.191C60.9661 170.607 64.0191 173.403 64.6976 173.946C62.8044 171.531 54.5238 162.06 52.7425 160.73C52.7991 160.73 52.8557 160.784 52.9122 160.811C53.9021 161.328 55.4853 162.549 57.1815 164.042C60.4891 166.947 64.1635 170.719 64.983 171.723C63.5708 169.363 58.8515 163.664 53.5658 158.372L53.4809 158.372Z" fill="#FAB424"/>
<path d="M53.6136 217.364C57.0075 218.968 62.2684 221.088 64.9863 219.79C60.9127 218.782 57.178 218.236 54.7473 215.685C56.7274 216.338 62.4994 216.913 65.6416 215.778C63.2085 215.396 60.8884 215.122 59.0209 215.039C52.4846 214.76 45.8704 208.084 40.1021 204.201C42.7297 207.891 48.1008 212.695 53.6136 217.364Z" fill="#FAB424"/>
</g>
<defs>
<clipPath id="clip0_320_1078">
<rect width="186.127" height="167.514" fill="white" transform="translate(115)"/>
</clipPath>
<clipPath id="clip1_320_1078">
<rect width="149.917" height="139.238" fill="white" transform="translate(135.838 99.5684) rotate(40.6141)"/>
</clipPath>
<clipPath id="clip2_320_1078">
<rect width="106.765" height="61.8928" fill="white" transform="translate(176.722 178.482)"/>
</clipPath>
<clipPath id="clip3_320_1078">
<rect width="186.194" height="129.459" fill="white" transform="translate(0 260.194) rotate(-89.9367)"/>
</clipPath>
</defs>
</svg>
