<svg width="400" height="850" viewBox="0 0 400 850" fill="none" xmlns="http://www.w3.org/2000/svg">
<g clip-path="url(#clip0_426_1108)">
<rect width="400" height="850" fill="#0F5729"/>
<mask id="mask0_426_1108" style="mask-type:luminance" maskUnits="userSpaceOnUse" x="0" y="0" width="400" height="478">
<path d="M400 0H0V477.21H400V0Z" fill="white"/>
</mask>
<g mask="url(#mask0_426_1108)">
<path d="M250.314 489.059H233.451L61.7794 317.37L70.2135 308.937L250.314 489.059Z" fill="#213820"/>
<path d="M214.06 489.059H197.191L43.6521 335.498L52.0862 327.064L214.06 489.059Z" fill="#213820"/>
<path d="M177.794 489.059H160.937L25.5249 353.63L33.9536 345.202L177.794 489.059Z" fill="#213820"/>
<path d="M15.8261 363.34L141.529 489.059H124.682L16.4666 380.827L-18.1544 415.442V397.32L15.8261 363.34Z" fill="#213820"/>
<path d="M17.1775 400.958L105.274 489.059H88.4167L17.8234 418.456L-18.1544 454.444V436.295L17.1775 400.958Z" fill="#213820"/>
<path d="M52.1568 489.059L19.1857 456.09L1.0584 474.217L-8.00525 465.148L18.5507 438.587L69.0195 489.059H52.1568Z" fill="#213820"/>
<path d="M12.9225 -0.619263L21.9916 8.45529L-4.56437 35.011L-18.1544 21.4236V4.56154L-5.2048 17.5135L12.9225 -0.619263Z" fill="#213820"/>
<path d="M32.4175 18.8713L41.4811 27.9513L-3.20754 72.6398L-18.1544 57.6948V40.8273L-3.83711 55.1424L32.4175 18.8713Z" fill="#213820"/>
<path d="M51.9125 38.3782L60.987 47.4364L-1.83985 110.263L-18.1544 93.9496V77.0984L-2.4857 92.7712L51.9125 38.3782Z" fill="#213820"/>
<path d="M247.66 35.0112L197.191 -15.4609H214.059L247.025 17.5083L265.152 -0.619078L274.221 8.45004L247.66 35.0112Z" fill="#213820"/>
<path d="M249.033 72.6399L160.937 -15.4609H177.794L248.387 55.1424L284.653 18.8714L293.722 27.9459L249.033 72.6399Z" fill="#213820"/>
<path d="M250.395 110.263L124.682 -15.4609H141.534L249.75 92.7711L304.142 38.3727L313.211 47.4418L250.395 110.263Z" fill="#213820"/>
<path d="M232.257 128.396L88.4167 -15.4609H105.274L240.691 119.968L232.257 128.396Z" fill="#213820"/>
<path d="M214.13 146.534L52.1566 -15.4609H69.0193L222.564 138.1L214.13 146.534Z" fill="#213820"/>
<path d="M196.003 164.662L15.8966 -15.4609H32.7648L204.437 156.228L196.003 164.662Z" fill="#213820"/>
<path d="M322.438 308.931L486.305 472.816V489.059H485.676L314.009 317.376L322.438 308.931Z" fill="#213820"/>
<path d="M466.29 489.059H449.427L295.882 335.498L304.316 327.064L466.29 489.059Z" fill="#213820"/>
<path d="M430.03 489.059H413.167L277.755 353.63L286.189 345.202L430.03 489.059Z" fill="#213820"/>
<path d="M376.912 489.059L268.691 380.827L214.304 435.225L205.235 426.156L268.051 363.335L393.764 489.059H376.912Z" fill="#213820"/>
<path d="M340.647 489.059L270.053 418.461L233.799 454.727L224.724 445.652L269.413 400.958L357.509 489.059H340.647Z" fill="#213820"/>
<path d="M304.387 489.059L271.421 456.09L253.288 474.217L244.225 465.148L270.786 438.587L321.249 489.059H304.387Z" fill="#213820"/>
<path d="M376.912 -15.4609H393.759L486.305 77.0875V93.9387L376.912 -15.4609Z" fill="#213820"/>
<path d="M340.652 -15.4609H357.509L486.305 113.364V126.571L484.487 128.391L340.652 -15.4609Z" fill="#213820"/>
<path d="M466.36 146.534L304.387 -15.4609H321.249L474.794 138.1L466.36 146.534Z" fill="#213820"/>
<path d="M448.233 164.662L268.132 -15.4609H284.995L456.667 156.228L448.233 164.662Z" fill="#213820"/>
<path d="M486.306 144.726V161.593L398.269 249.64L389.84 241.211L486.306 144.726Z" fill="#213820"/>
<path d="M486.306 180.986V197.853L396.901 287.268L370.334 260.713L379.404 251.638L397.531 269.771L486.306 180.986Z" fill="#213820"/>
<path d="M486.306 217.257V234.119L395.533 324.897L350.85 280.209L359.919 271.139L396.174 307.4L486.306 217.257Z" fill="#213820"/>
<path d="M486.306 253.523V270.379L394.166 362.526L331.35 299.704L340.424 290.635L394.812 345.028L486.306 253.523Z" fill="#213820"/>
<path d="M322.112 56.6465L137.613 241.193L146.043 249.631L330.542 65.0845L322.112 56.6465Z" fill="#213820"/>
<path d="M144.666 287.274L348.679 83.2404L340.25 74.8066L145.306 269.771L127.173 251.638L118.104 260.713L144.666 287.274Z" fill="#213820"/>
<path d="M143.303 324.902L366.807 101.368L358.378 92.9393L143.944 307.4L107.684 271.134L98.6147 280.203L143.303 324.902Z" fill="#213820"/>
<path d="M430.257 182.968L439.326 173.899L376.51 111.072L142.576 345.028L88.1887 290.63L79.1196 299.699L141.941 362.526L375.87 128.57L430.257 182.968Z" fill="#213820"/>
<path d="M410.768 202.464L419.837 193.395L375.143 148.701L151.64 372.23L160.068 380.659L374.508 166.198L410.768 202.464Z" fill="#213820"/>
<path d="M391.273 221.96L400.342 212.891L373.78 186.324L169.767 390.358L178.201 398.791L373.14 203.827L391.273 221.96Z" fill="#213820"/>
<path d="M372.4 223.91L187.901 408.457L196.331 416.895L380.83 232.348L372.4 223.91Z" fill="#213820"/>
<path d="M69.8878 56.6738L78.3273 65.113L-18.1544 161.593V144.726L69.8878 56.6738Z" fill="#213820"/>
<path d="M88.0151 74.8066L96.4438 83.235L-18.1544 197.843V180.986L88.0151 74.8066Z" fill="#213820"/>
<path d="M106.142 92.9341L114.571 101.379L-18.1544 234.119V217.246L106.142 92.9341Z" fill="#213820"/>
<path d="M124.275 111.067L187.091 173.899L178.022 182.974L123.635 128.57L-18.1544 270.379V253.512L124.275 111.067Z" fill="#213820"/>
<path d="M122.907 148.696L167.607 193.389L158.538 202.459L122.278 166.198L-18.1544 306.645V289.783L122.907 148.696Z" fill="#213820"/>
<path d="M121.551 186.324L148.112 212.885L139.037 221.954L120.91 203.827L-18.1544 342.905V326.043L121.551 186.324Z" fill="#213820"/>
<path d="M120.177 223.953L128.612 232.381L-18.1544 379.165V362.298L120.177 223.953Z" fill="#213820"/>
</g>
<path d="M259.151 966.059H242.3L70.7393 794.37L79.1678 785.937L259.151 966.059Z" fill="#213820"/>
<path d="M222.92 966.059H206.063L52.6238 812.498L61.0524 804.064L222.92 966.059Z" fill="#213820"/>
<path d="M186.679 966.059H169.832L34.5083 830.63L42.9315 822.202L186.679 966.059Z" fill="#213820"/>
<path d="M24.8159 840.34L150.437 966.059H133.601L25.4559 857.827L-9.14258 892.442V874.32L24.8159 840.34Z" fill="#213820"/>
<path d="M21.9141 476.381L30.9773 485.455L4.43863 512.011L-9.14258 498.424V481.562L3.79863 494.514L21.9141 476.381Z" fill="#213820"/>
<path d="M41.3965 495.871L50.4542 504.951L5.79459 549.64L-9.14258 534.695V517.827L5.16543 532.142L41.3965 495.871Z" fill="#213820"/>
<path d="M60.8788 515.378L69.9474 524.436L7.16138 587.263L-9.14258 570.95V554.098L6.51595 569.771L60.8788 515.378Z" fill="#213820"/>
<path d="M256.499 512.011L206.063 461.539H222.92L255.865 494.508L273.98 476.381L283.043 485.45L256.499 512.011Z" fill="#213820"/>
<path d="M257.871 549.64L169.832 461.539H186.679L257.226 532.142L293.468 495.871L302.531 504.946L257.871 549.64Z" fill="#213820"/>
<path d="M259.233 587.263L133.601 461.539H150.442L258.587 569.771L312.945 515.373L322.008 524.442L259.233 587.263Z" fill="#213820"/>
<path d="M241.107 605.396L97.3594 461.539H114.206L249.535 596.968L241.107 605.396Z" fill="#213820"/>
<path d="M222.991 623.534L61.1228 461.539H77.9746L231.419 615.1L222.991 623.534Z" fill="#213820"/>
<path d="M204.875 641.662L24.8864 461.539H41.7435L213.304 633.228L204.875 641.662Z" fill="#213820"/>
<path d="M331.228 785.931L494.989 949.816V966.059H494.36L322.805 794.376L331.228 785.931Z" fill="#213820"/>
<path d="M474.986 966.059H458.135L304.69 812.498L313.118 804.064L474.986 966.059Z" fill="#213820"/>
<path d="M438.75 966.059H421.898L286.574 830.63L295.003 822.202L438.75 966.059Z" fill="#213820"/>
<path d="M385.667 966.059L277.516 857.827L223.164 912.225L214.101 903.156L276.876 840.335L402.508 966.059H385.667Z" fill="#213820"/>
<path d="M385.667 461.539H402.502L494.989 554.088V570.939L385.667 461.539Z" fill="#213820"/>
<path d="M349.431 461.539H366.277L494.989 590.364V603.571L493.172 605.391L349.431 461.539Z" fill="#213820"/>
<path d="M475.057 623.534L313.189 461.539H330.041L483.486 615.1L475.057 623.534Z" fill="#213820"/>
<path d="M456.941 641.662L276.958 461.539H293.81L465.37 633.228L456.941 641.662Z" fill="#213820"/>
<path d="M494.989 621.726V638.593L407.01 726.64L398.587 718.211L494.989 621.726Z" fill="#213820"/>
<path d="M494.99 657.986V674.853L405.643 764.268L379.094 737.713L388.157 728.638L406.272 746.771L494.99 657.986Z" fill="#213820"/>
<path d="M494.989 694.257V711.119L404.276 801.897L359.622 757.208L368.685 748.139L404.916 784.4L494.989 694.257Z" fill="#213820"/>
<path d="M494.99 730.523V747.379L402.91 839.526L340.135 776.705L349.203 767.636L403.555 822.028L494.99 730.523Z" fill="#213820"/>
<path d="M330.903 533.647L146.524 718.193L154.948 726.631L339.327 542.085L330.903 533.647Z" fill="#213820"/>
<path d="M153.572 764.274L357.452 560.24L349.029 551.807L154.212 746.771L136.091 728.638L127.027 737.713L153.572 764.274Z" fill="#213820"/>
<path d="M152.21 801.902L375.568 578.368L367.145 569.939L152.85 784.4L116.614 748.134L107.551 757.203L152.21 801.902Z" fill="#213820"/>
<path d="M438.978 659.968L448.041 650.899L385.266 588.072L151.483 822.028L97.1314 767.63L88.0682 776.699L150.849 839.526L384.626 605.57L438.978 659.968Z" fill="#213820"/>
<path d="M419.501 679.464L428.564 670.395L383.899 625.701L160.541 849.23L168.964 857.659L383.264 643.198L419.501 679.464Z" fill="#213820"/>
<path d="M400.018 698.96L409.082 689.891L382.538 663.324L178.657 867.358L187.085 875.791L381.898 680.827L400.018 698.96Z" fill="#213820"/>
<path d="M381.158 700.91L196.779 885.457L205.203 893.895L389.583 709.348L381.158 700.91Z" fill="#213820"/>
<path d="M78.8424 533.674L87.2764 542.113L-9.14258 638.593V621.726L78.8424 533.674Z" fill="#213820"/>
<path d="M96.9579 551.807L105.381 560.235L-9.14258 674.843V657.986L96.9579 551.807Z" fill="#213820"/>
<path d="M115.073 569.934L123.497 578.379L-9.14258 711.119V694.246L115.073 569.934Z" fill="#213820"/>
<path d="M133.194 588.067L195.97 650.899L186.906 659.974L132.554 605.57L-9.14258 747.379V730.512L133.194 588.067Z" fill="#213820"/>
<path d="M131.828 625.696L176.498 670.389L167.435 679.459L131.198 643.198L-9.14258 783.645V766.783L131.828 625.696Z" fill="#213820"/>
<path d="M130.472 663.324L157.016 689.885L147.947 698.954L129.832 680.827L-9.14258 819.905V803.043L130.472 663.324Z" fill="#213820"/>
<path d="M129.099 700.953L137.528 709.381L-9.14258 856.165V839.298L129.099 700.953Z" fill="#213820"/>
</g>
<defs>
<clipPath id="clip0_426_1108">
<rect width="400" height="850" fill="white"/>
</clipPath>
</defs>
</svg>
