<svg width="156" height="146" viewBox="0 0 156 146" fill="none" xmlns="http://www.w3.org/2000/svg">
<g clip-path="url(#clip0_164_3037)">
<path d="M113.061 69.6308C115.246 64.5505 115.757 58.5272 114.585 53.7561C114.493 53.4543 114.403 53.1026 114.312 52.751C113.39 49.8824 111.145 45.9807 109.184 44.5811C108.889 44.3736 108.644 44.2174 108.397 44.111C105.976 43.0484 102.802 44.0111 100.433 44.746C99.7289 44.9267 99.073 45.1586 98.4697 45.2921C97.3131 45.5605 96.7098 45.694 95.5531 45.9624C93.0401 46.4939 89.7227 47.2033 86.3514 48.061C80.0621 49.6389 74.1444 52.2745 67.0633 55.4277C58.6665 59.1943 53.0164 63.0344 48.9069 69.0611C44.6423 75.2832 41.3453 80.8327 38.9066 86.056C37.0506 90.0476 32.6426 99.7583 39.699 108.728C40.1824 109.34 40.6685 109.852 41.1545 110.364C46.5564 115.797 52.843 114.319 58.3319 112.769C58.6841 112.679 58.8353 112.633 59.1875 112.543C60.1444 112.269 61.0513 111.994 61.9569 111.769C70.0587 109.69 76.5584 107.719 81.7516 106.012C87.2471 104.213 91.3205 99.5329 95.2401 94.9978C95.2913 94.9493 95.3426 94.9008 95.3939 94.8523C96.6325 93.3887 97.7146 92.1703 98.7441 91.0504C105.584 83.8495 110.068 76.8848 113.108 69.7319L113.061 69.6308Z" fill="#51291D"/>
<path d="M141.567 74.485C142.887 69.9802 144.262 65.2773 145.785 60.6781C146.437 58.6999 146.844 56.5654 147.249 54.5307C147.536 53.1414 147.77 51.8504 148.103 50.6121C148.493 49.1257 148.931 47.6906 149.369 46.2555C150.083 43.8797 150.85 41.3558 151.42 38.7268C151.648 37.6851 151.928 36.5451 152.21 35.3553C153.942 28.5166 156.451 18.8049 151.679 12.2411C151.439 11.8854 151.149 11.5284 150.909 11.1229C150.812 11.0205 150.814 10.9706 150.716 10.8682C149.465 9.08852 148.162 7.35731 146.683 6.56936C144.317 5.3585 140.926 5.06818 137.961 5.68729C135.749 6.17689 133.624 7.16772 131.549 8.11004C130.132 8.7706 128.817 9.38397 127.404 9.89496C123.47 11.2365 119.693 12.2829 116.126 12.9857C107.333 14.746 98.9392 18.4129 90.6583 21.5839C86.5178 23.1694 82.0291 24.6957 77.6942 26.0764C63.4816 30.5355 48.9833 36.334 36.2713 44.4753C23.6094 52.618 16.4005 66.1453 11.1055 79.1252C8.16391 86.3307 6.47619 93.3701 5.45105 99.9284C5.33515 100.524 5.2692 101.121 5.15197 101.766C4.37863 106.386 3.53667 111.702 5.49136 117.092C5.95606 118.402 6.62186 119.667 7.38888 120.885C9.93295 124.795 12.7494 127.864 15.8342 130.241C26.262 138.353 39.1439 138.798 49.7106 137.983C57.7238 137.35 65.739 134.77 71.7945 132.587C73.6623 131.889 75.4329 131.088 77.1536 130.286C79.1266 129.391 81.1509 128.447 83.1685 127.753C84.9338 127.152 86.7963 126.653 88.6587 126.154C90.6724 125.609 92.686 125.064 94.7036 124.37C101.412 122.055 108.137 119.141 114.624 115.773C118.375 113.828 121.596 111.12 124.663 108.558C124.97 108.267 125.174 108.122 125.48 107.881C128.189 105.659 131.155 103.144 132.959 99.2006C136.565 91.464 138.993 82.8977 141.417 74.481L141.567 74.485ZM57.5775 109.207C51.4341 110.938 46.0491 112.341 41.7459 106.937C37.1051 101.075 39.1331 94.394 41.685 88.6748C43.9699 83.5971 47.1684 77.9951 51.3844 71.7217C55.0283 66.2813 60.0252 62.5734 68.0685 58.947C74.5449 55.9771 80.3641 53.2891 86.401 51.8042C89.3688 51.0854 92.4352 50.4191 95.3491 49.8485C96.5057 49.5801 97.1077 49.4965 98.2643 49.2281C98.9675 49.0972 99.6733 48.8666 100.479 48.6388C102.594 48.0468 104.962 47.3119 106.492 48.0513C106.64 48.1052 106.787 48.2089 106.935 48.3126C108.405 49.3997 110.412 52.8461 111.244 55.363C111.337 55.6149 111.38 55.8655 111.473 56.1175C112.467 60.0856 111.986 64.9621 110.176 69.1046C107.195 75.9099 102.774 82.3773 96.4515 88.9434C95.2695 90.1591 94.1362 91.4259 92.8989 92.8397C89.1884 97.0311 85.3241 101.368 80.4845 102.935C74.8378 104.779 68.5432 106.557 60.5926 108.589C59.687 108.814 58.7302 109.088 57.7233 109.36L57.5775 109.207Z" fill="#E16E33"/>
<path d="M136.593 96.0046C140.658 89.7771 141.662 80.2746 144.067 72.5559C145.43 68.3017 145.908 63.5248 147.028 59.0147C147.865 55.7442 149.047 52.6825 150.031 49.5158C152.102 43.0853 153.557 35.4408 154.753 28.0888C156.072 19.892 154.469 10.669 149.241 6.2383C144.549 2.27104 138.163 3.74652 132.432 4.99009C126.55 6.27952 120.723 9.26672 114.623 11.2488C99.9031 15.9936 84.8941 20.3316 70.3565 25.7299C62.6329 28.6165 54.7315 32.546 47.2822 36.3878C43.5319 38.333 39.5912 39.9239 35.9408 41.8717C32.2904 43.8196 29.7106 46.8438 26.8392 49.5609C24.4806 51.7928 21.9841 53.572 20.3086 56.4209C18.8436 58.8762 17.0829 61.174 15.5679 63.6281C13.4782 67.0147 11.1428 70.245 9.0005 73.73C7.32902 76.4293 6.74153 79.7065 5.5601 82.7681C3.03542 89.3362 2.0482 96.3445 1.14485 103.954C0.170204 112.359 1.351 120.523 7.8874 128.382C14.5683 136.444 26.8699 141.762 36.005 142.156C43.3435 142.452 51.4579 141.772 58.0521 140.002C65.5519 138.008 73.1449 136.265 80.2572 133.811C87.0659 131.499 92.9724 127.416 98.9833 125.033C109.994 120.688 123.864 114.124 131.909 104.81C134.023 102.372 134.77 98.7497 136.541 96.0531L136.593 96.0046ZM118.493 109.39C112.15 112.962 105.908 116.537 98.6347 119.386C90.756 122.468 81.7633 124.223 74.1669 127.961C62.5191 133.686 45.1763 137.462 32.1614 134.52C25.5553 132.996 18.3594 131.107 13.0221 125.127C10.7417 122.571 7.64157 118.896 6.37726 115.719C4.87793 111.987 5.39756 107.51 5.8865 104.181C7.62381 91.5545 11.5333 76.1926 18.4271 65.1016C20.3063 62.1085 22.5285 59.374 24.2579 56.3769C26.3569 52.6413 29.7131 50.486 33.0326 47.8308C38.14 43.7267 44.2236 40.4969 49.909 37.2065C62.4984 29.9101 77.9934 26.084 91.9157 21.2679C105.484 16.5921 119.763 13.3821 132.951 7.99751C137.802 6.03188 144.749 4.1224 148.556 9.41305C150.725 12.4147 152.759 14.8141 152.835 19.4561C152.913 23.9984 151.774 27.3605 150.917 31.3788C149.247 39.6162 146.941 47.3376 145.031 55.2193C143.905 59.9289 141.751 63.8626 140.577 68.521C139.742 71.6917 139.051 75.1158 138.369 78.1908C135.932 88.9521 128.942 103.633 118.543 109.391L118.493 109.39Z" fill="#C9D400"/>
<path d="M66.3599 72.372C64.8649 74.0782 63.1156 74.0813 61.5603 72.4431C60.0049 70.8049 59.5642 68.5979 61.1078 66.9429C62.65 65.3377 65.151 65.255 66.7077 66.8433C68.2645 68.4317 67.9048 70.6672 66.4098 72.3734L66.3599 72.372Z" fill="white"/>
<path d="M75.3961 76.4555C74.8839 78.7867 73.4076 79.7949 71.3235 79.2402C69.1894 78.6842 67.7865 76.9503 68.2974 74.6689C68.8581 72.3889 70.9943 70.9992 73.0798 71.5041C75.1653 72.0089 75.9083 74.1243 75.3961 76.4555Z" fill="white"/>
<path d="M82.3948 95.053C80.8485 96.8077 79.0993 96.8108 77.5979 95.0244C76.0465 93.2366 75.711 90.8329 77.2559 89.128C78.8508 87.4245 81.3491 87.4415 82.8519 89.178C84.3547 90.9146 83.9397 93.3481 82.3935 95.1029L82.3948 95.053Z" fill="white"/>
<path d="M56.8128 106.043C55.2206 107.647 53.4281 107.399 51.8321 105.411C50.2361 103.422 49.9033 100.919 51.5441 99.366C53.1849 97.8134 55.7252 98.1309 57.3225 100.07C58.8699 102.007 58.4562 104.391 56.8141 105.993L56.8128 106.043Z" fill="white"/>
<path d="M95.5005 68.4622C94.987 70.8433 93.6079 71.9539 91.5184 71.5986C89.4289 71.2433 88.0234 69.6091 88.5356 67.2779C89.0478 64.9467 91.1393 63.3563 93.1789 63.7102C95.2198 64.0143 95.9641 66.0798 95.4506 68.4609L95.5005 68.4622Z" fill="white"/>
<path d="M50.8255 79.5396C50.266 81.7698 48.7937 82.6284 46.6164 81.8218C44.439 81.0151 43.0401 79.1317 43.5996 76.9015C44.159 74.6713 46.3871 73.5835 48.5159 74.3389C50.6446 75.0944 51.3849 77.3095 50.8255 79.5396Z" fill="white"/>
<path d="M53.5247 90.687C52.3982 91.7043 51.0041 91.5174 50.0402 90.1946C49.0277 88.8207 49.4173 87.3347 50.5424 86.3672C51.7175 85.401 53.0509 85.9854 53.9123 87.4051C54.4388 88.2672 54.6498 89.7194 53.5233 90.7368L53.5247 90.687Z" fill="white"/>
<path d="M84.7678 84.788C83.6873 85.9562 82.3378 85.97 81.3712 84.7469C80.4047 83.5239 80.697 81.9355 81.8262 80.8184C82.9054 79.7001 84.2442 80.0851 85.1082 81.4051C85.6361 82.2174 85.8484 83.6197 84.7678 84.788Z" fill="white"/>
<path d="M88.8101 62.5946C87.7308 63.713 86.4286 63.8278 85.4594 62.7044C84.4901 61.5811 84.8797 60.0951 86.0088 58.978C87.138 57.861 88.4282 58.1948 89.195 59.4125C89.6743 60.1735 89.8893 61.4762 88.7588 62.6431L88.8101 62.5946Z" fill="white"/>
<path d="M60.1169 77.7925C60.7772 79.2567 60.3903 80.6431 59.0235 81.3048C57.6567 81.9666 56.3812 81.0845 55.7209 79.6202C55.0619 78.1061 55.8442 76.88 57.2556 76.419C58.1124 76.1426 59.4066 76.3269 60.0669 77.7911L60.1169 77.7925Z" fill="white"/>
<path d="M103.644 53.6125C104.258 54.9259 103.921 56.3135 102.647 57.2272C101.374 58.1409 100.14 57.5592 99.5258 56.2458C98.9114 54.9324 99.5979 53.5541 100.966 52.8425C101.777 52.4153 103.029 52.2991 103.594 53.6112L103.644 53.6125Z" fill="white"/>
<path d="M72.2251 90.3394C71.096 91.4565 69.7978 91.4217 68.7826 90.1475C67.7674 88.8733 68.1097 87.2862 69.2375 86.219C70.3653 85.1518 71.7028 85.5867 72.5642 87.0064C73.0907 87.8685 73.3529 89.2722 72.2238 90.3893L72.2251 90.3394Z" fill="white"/>
<path d="M66.6563 104.21C65.5271 105.327 64.1804 105.241 63.1678 103.867C62.154 102.543 62.4477 100.905 63.5755 99.8376C64.7033 98.7704 66.088 99.3063 66.9494 100.726C67.476 101.588 67.7854 103.093 66.6563 104.21Z" fill="white"/>
<path d="M73.7752 67.9297C72.9085 66.7093 73.0457 65.3163 74.2707 64.3515C75.4458 63.3853 76.8332 63.8215 77.6999 65.0419C78.5666 66.2622 78.0286 67.6944 76.7577 68.5084C75.9441 69.0353 74.6905 69.2013 73.8252 67.931L73.7752 67.9297Z" fill="white"/>
<path d="M73.3477 93.2142C74.0686 94.281 73.9867 95.476 73.0666 96.2494C72.1452 97.0728 71.0075 96.6433 70.2879 95.5266C69.5669 94.4598 69.9485 93.2728 70.9657 92.6017C71.5756 92.219 72.6281 92.0975 73.3491 93.1643L73.3477 93.2142Z" fill="white"/>
<path d="M84.1107 71.9988C84.7844 72.9646 84.7037 74.1097 83.7823 74.933C82.8609 75.7564 81.7704 75.4279 81.0981 74.4122C80.4244 73.4465 80.806 72.2595 81.8233 71.5884C82.4344 71.1558 83.4384 70.9832 84.1107 71.9988Z" fill="white"/>
<path d="M62.0447 87.9225C62.7657 88.9893 62.6837 90.1843 61.715 90.9066C60.7463 91.6289 59.6599 91.1509 58.939 90.084C58.2194 88.9674 58.6482 87.8815 59.6641 87.2602C60.3239 86.8788 61.3238 86.8557 62.0447 87.9225Z" fill="white"/>
<path d="M92.2218 82.6434C92.9441 83.6603 92.8634 84.8055 91.9407 85.6786C91.0179 86.5518 89.9275 86.2233 89.2551 85.2077C88.5329 84.1907 88.9144 83.0038 89.933 82.2828C90.5442 81.8502 91.5495 81.6277 92.2218 82.6434Z" fill="white"/>
<path d="M88.055 51.5988C88.6801 52.5134 88.6022 53.5589 87.6308 54.3808C86.7094 55.2042 85.6675 54.9269 84.9925 54.0109C84.3175 53.095 84.7962 52.0104 85.7636 51.338C86.3748 50.9054 87.3787 50.7327 88.0051 51.5975L88.055 51.5988Z" fill="white"/>
<path d="M73.7058 59.2972C74.3795 60.263 74.2516 61.3071 73.2816 62.0792C72.3116 62.8514 71.2724 62.4744 70.5987 61.5086C69.9251 60.5428 70.3539 59.4569 71.4197 58.8369C72.0296 58.4542 73.0322 58.3314 73.7058 59.2972Z" fill="white"/>
<path d="M90.9208 92.0375C90.048 92.912 88.9981 92.9338 88.2259 91.9155C87.5036 90.8985 87.788 89.6092 88.6608 88.7347C89.5336 87.8602 90.6227 88.2385 91.2438 89.3027C91.6259 89.9614 91.7949 91.1132 90.8709 92.0362L90.9208 92.0375Z" fill="white"/>
<path d="M103.564 71.5212C102.69 72.4456 101.689 72.5185 100.965 71.5514C100.24 70.6341 100.573 69.396 101.447 68.4716C102.322 67.5473 103.313 67.8233 103.935 68.8874C104.318 69.4962 104.438 70.5969 103.564 71.5212Z" fill="white"/>
<path d="M41.3429 101.437C40.3755 102.11 39.2824 101.881 38.5655 100.664C37.7973 99.4965 38.1788 98.3096 39.1462 97.6371C40.1135 96.9647 41.196 97.5922 41.813 98.8059C42.1925 99.5643 42.3102 100.765 41.3928 101.438L41.3429 101.437Z" fill="white"/>
<g clip-path="url(#clip1_164_3037)">
<path d="M116.022 25.078C112.952 24.2684 109.722 29.7495 111.726 32.0602C112.099 32.5195 112.584 32.5699 113.022 32.4051C113.646 32.47 114.451 32.1332 115.025 31.6672C116.371 30.5106 118.891 25.7966 116.06 25.0469L116.022 25.078Z" fill="#C9D400"/>
<path d="M122.759 39.5495C122.559 38.4423 121.342 38.3509 120.529 38.757C119.087 39.4832 118.37 41.3359 118.253 43.1459C117.825 44.5731 117.653 46.2372 118.774 46.9144C118.805 46.9527 118.906 46.9982 118.975 47.0054C119.269 47.2112 119.685 47.2544 119.953 47.0369C120.871 46.2914 121.478 45.1631 121.777 43.9677C121.98 43.358 122.176 42.8178 122.243 42.5093C122.544 41.6296 123.013 40.4869 122.798 39.5184L122.759 39.5495ZM121.005 40.5935C121.005 40.5935 121.005 40.5935 121.043 40.5625C121.029 40.7011 120.983 40.8015 120.931 40.9713C120.892 41.0023 120.754 40.9879 120.715 41.019C120.799 40.8875 120.883 40.7561 120.966 40.6246L121.005 40.5935Z" fill="#C9D400"/>
<path d="M135.029 26.2824C134.324 24.6322 132.32 24.3539 131.074 25.556C130.333 26.285 129.865 27.4277 129.712 28.5681C129.093 30.1507 128.743 31.8315 129.774 32.7095C130.967 33.7095 132.657 32.2733 133.444 31.4439C134.627 30.1653 135.827 28.0474 135.06 26.3207L135.029 26.2824Z" fill="#C9D400"/>
<path d="M130.304 12.3356C129.389 11.3644 128.296 11.4261 127.392 12.033C127.184 12.0113 126.931 12.0901 126.771 12.2837C126.45 12.6709 126.161 13.0964 125.972 13.5674C125.463 14.4255 125.186 15.4129 125.308 16.2666C125.207 17.2373 125.272 18.6456 126.405 18.8685C127.715 19.0748 128.765 17.3967 129.451 16.5219C130.228 15.4463 131.476 13.5436 130.304 12.3356Z" fill="#C9D400"/>
<path d="M144.771 1.53946C142.923 1.45252 140.879 3.93826 140.066 6.37676C139.61 7.06517 139.323 7.80627 139.466 8.45192C139.531 8.84408 139.679 9.10478 139.865 9.33441C140.071 10.0566 140.506 10.5924 141.317 10.8869C142.197 11.1886 143.179 10.8351 144.037 10.3286C145.694 9.55472 147.136 7.81231 147.679 6.29185C148.578 4.03751 147.282 1.66019 144.771 1.53946Z" fill="#C9D400"/>
<path d="M108.006 50.0704C107.941 49.6782 107.769 49.3099 107.489 48.9655C106.067 47.1356 103.831 48.7605 102.98 50.2139C102.084 51.7676 101.283 54.768 102.78 56.2201C104.432 57.8635 106.49 56.2553 107.518 54.7853C108.341 53.6093 109 51.2951 107.968 50.1014L108.006 50.0704ZM105.744 54.3206C105.744 54.3206 105.821 54.2585 105.859 54.2274C105.653 54.5214 105.378 54.8082 105.08 54.9874C105.309 54.801 105.546 54.5453 105.706 54.3517L105.744 54.3206Z" fill="#C9D400"/>
<path d="M139.579 43.6101C139.62 40.846 135.861 40.5956 134.247 41.9697C132.748 43.2506 130.838 46.1357 132.101 48.1592C133.09 49.7688 134.606 49.681 135.878 48.9022C137.764 47.9418 139.565 45.7812 139.61 43.6484L139.579 43.6101ZM136.684 44.5006C136.839 44.692 136.72 45.1701 136.576 45.5407C136.576 45.5407 136.576 45.5407 136.538 45.5717C136.681 45.2012 136.717 44.8545 136.653 44.4623L136.684 44.5006ZM136.017 42.8194C136.416 42.6857 136.87 42.6978 137.241 42.8415C136.724 42.7528 136.079 42.8959 135.495 43.1156C135.648 42.9914 135.833 42.9054 136.017 42.8194Z" fill="#C9D400"/>
<path d="M125.055 58.0095C123.286 58.176 121.928 59.787 121.316 61.3002C120.787 62.682 120.634 64.8387 122.043 65.791C123.977 67.0783 126.219 64.3679 126.803 62.1158C127.635 60.1698 127.709 57.7597 125.055 58.0095Z" fill="#C9D400"/>
<path d="M153.527 30.3773C152.228 28.7006 150.091 29.0391 148.661 30.3272C146.995 31.8711 145.517 34.9764 146.589 37.1551C147.66 39.3339 150.67 38.3502 152.047 37.2318C152.965 36.4862 153.625 35.1882 153.723 33.9018C154.361 32.8118 154.39 31.5183 153.527 30.3773Z" fill="#C9D400"/>
<path d="M154.894 52.3853C152.195 50.7031 149.606 52.3613 148.626 55.0627C147.66 57.6255 147.569 60.8749 149.785 62.8222C151.653 64.4179 153.556 62.6183 154.498 60.9642C155.06 59.9363 155.466 58.717 155.626 57.5072C156.382 55.6234 156.635 53.5123 154.926 52.4235L154.894 52.3853ZM151.127 60.0181C151.127 60.0181 151.206 60.2716 151.268 60.3482C151.036 60.2189 150.926 59.9272 150.739 59.6975C150.864 59.8506 150.957 59.9655 151.127 60.0181Z" fill="#C9D400"/>
</g>
</g>
<defs>
<clipPath id="clip0_164_3037">
<rect width="152.023" height="141.194" fill="white" transform="translate(3.77808) rotate(1.53334)"/>
</clipPath>
<clipPath id="clip1_164_3037">
<rect width="108.265" height="62.7621" fill="white" transform="translate(86.407 35.9817) rotate(-39.0808)"/>
</clipPath>
</defs>
</svg>
