<svg width="255" height="288" viewBox="0 0 255 288" fill="none" xmlns="http://www.w3.org/2000/svg">
<g clip-path="url(#clip0_164_3080)">
<path d="M246.622 127.695C248.18 125.587 253.202 119.957 259.515 113.953C259.587 113.974 259.649 114.031 259.712 114.089C256.843 117.864 251.374 124.625 247.491 130.941C243.645 137.267 230.063 159.079 229.163 162.993C231.893 146.811 240.179 130.353 252.338 119.273C249.674 122.477 247.703 125.331 246.622 127.695Z" fill="#80BA27"/>
<path d="M232.549 170.317C236.087 152.44 245.25 135.134 257.248 121.486C259.391 119.667 261.91 117.366 264.461 114.956C251.172 131.694 241.414 150.915 232.56 170.281L232.549 170.317Z" fill="#80BA27"/>
<path d="M94.7755 75.8316C100.816 77.2712 111.615 81.3135 113.687 81.6395C110.669 80.3691 105.89 77.8389 100.545 75.2231C112.109 78.9363 131.53 86.7829 140.438 92.0483C131.722 89.2411 122.568 85.6371 120.237 85.3931C125.247 88.6205 129.648 90.6867 134.351 92.8009C136.995 94.0022 161.619 103.872 167.375 105.071C161.023 102.399 152.753 97.5156 149.329 95.0641C156.451 97.5266 171.21 102.444 179.924 104.581C187.554 108.412 199.332 110.848 199.705 110.917C194.256 110.831 186.109 110.946 180.144 111.143C170.182 109.51 159.082 106.64 147.369 101.269C129.772 93.2433 112.34 84.2416 94.7755 75.8316Z" fill="#2FACB9"/>
<path d="M158.56 90.5379C148.907 87.0252 124.071 79.3783 114.182 75.3243C115.235 75.6302 116.237 75.8424 117.202 76.0441C116.461 75.7499 115.631 75.3514 114.693 74.9213C114.714 74.8487 114.724 74.8123 114.735 74.776C118.465 75.8989 130.858 79.0651 140.85 82.0857C157.64 87.1985 173.929 93.8989 190.139 100.734C188.323 100.207 186.652 99.7213 185.236 99.3098C185.794 99.8266 186.618 100.381 187.644 100.915C182.865 99.606 167.85 93.945 158.55 90.5742L158.56 90.5379Z" fill="#80BA27"/>
<path d="M94.7754 75.8316C82.4409 70.1616 70.7518 65.388 63.196 63.469C78.2508 62.4855 95.3311 64.0201 104.17 64.7757C108.434 65.1477 118 65.8389 128.805 67.2837C122.798 70.068 97.156 68.4492 97.156 68.4492C97.156 68.4492 109.887 72.6195 114.729 74.9318C115.631 75.3514 116.461 75.7498 117.239 76.0546C116.284 75.8166 115.282 75.6044 114.218 75.3348C109.091 74.0032 102.808 72.1781 95.7439 70.599C92.1938 69.8042 88.4305 69.0656 84.5313 68.5238C89.3982 69.9375 95.2726 72.6283 100.617 75.2441C105.962 77.8599 110.741 80.3901 113.759 81.6606C111.698 81.2983 100.889 77.2922 94.8481 75.8527L94.7754 75.8316Z" fill="#125C90"/>
<path d="M174.546 56.1117C176.479 57.1852 178.075 58.2 179.307 59.1094C178.711 58.8574 177.897 58.5421 176.916 58.2573C172.807 56.9457 165.92 55.2998 160.497 54.0396C149.153 48.6182 138.267 43.2506 130.582 43.5391C132.534 42.6489 135.093 41.9743 138.114 41.4732C155.319 42.8473 173.518 45.1401 189.796 50.9313C189.168 50.7883 188.348 50.6288 187.408 50.474C185.347 50.1118 182.554 49.6943 179.605 49.271C174.382 48.5416 168.426 47.757 164.127 47.0992C167.884 48.2689 174.503 50.428 179.513 52.4345C181.484 53.2431 183.189 54.0143 184.366 54.7104C183.23 54.1443 180.859 53.495 177.864 52.8221C172.103 51.5032 163.907 50.0283 157.745 48.8688C163.644 50.661 169.944 53.5147 174.582 56.1222L174.546 56.1117Z" fill="#125C90"/>
<path d="M160.507 54.0034C160.995 54.2237 161.471 54.4803 161.959 54.7007C176.434 61.5438 186.588 66.8562 202.428 74.0169C207.302 76.2202 212.648 78.5607 218.684 81.1016C236.429 88.6188 248.612 89.7943 257.843 89.8763C249.501 88.3591 226.398 83.6966 214.949 77.4174C225.586 80.3889 251.165 86.8338 256.085 85.6241C248.112 84.0566 241.063 81.6152 235.302 79.0755C229.498 80.3437 208.319 69.4657 200.48 66.7559C204.436 69.9527 209.64 73.8667 210.506 75.2212C208.84 74.8554 206.599 74.1651 203.177 72.6591C202.021 72.1657 200.74 71.5574 199.325 70.8706C194.457 68.5115 181.522 60.9738 176.89 58.2104C172.781 56.8989 165.894 55.253 160.471 53.9928L160.507 54.0034Z" fill="#2FACB9"/>
<path d="M152.304 126.451C149.779 125.245 147.254 124.039 144.957 123.135C146.228 123.505 147.572 123.895 148.952 124.296C155.817 126.29 163.201 128.119 165.125 127.733C159.495 125.152 151.952 120.205 147.132 115.103C147.635 115.406 148.112 115.663 148.552 115.909C160.497 122.923 172.466 129.038 179.567 130.352C184.161 131.214 189.037 131.646 191.764 131.886C193.218 132.033 194.059 132.12 194.038 132.192C192.783 132.852 189.146 134.119 183.764 135.155C182.184 135.445 180.4 135.754 178.519 135.995C175.993 136.285 171.83 136.651 166.872 136.905C162.476 135.904 154.823 133.642 147.295 130.273C153.612 131.439 162.802 133.832 166.424 132.482C162.262 131.352 157.281 128.842 152.377 126.472L152.304 126.451Z" fill="#125C90"/>
<path d="M194.056 163.587C199.774 152.172 214.82 136.574 222.131 127.946C226.57 122.698 236.345 113.721 243.335 108.505C247.963 105.044 251.214 103.074 250.138 104.337C249.887 104.658 249.589 105.005 249.245 105.377C245.418 109.74 236.572 120.128 229.941 131.16C227.366 135.414 225.055 139.981 222.926 144.6C223.268 142.337 225.624 133.411 229.832 127.465C224.169 133.54 211.687 149.803 210.595 153.425C210.591 153.305 210.55 153.175 210.545 153.056C210.491 152.292 210.672 151.399 211.05 150.367C212.486 146.373 216.861 140.397 220.993 132.814C217.421 136.975 208.452 146.973 206.5 149.084C204.939 150.797 197.651 158.802 194.092 163.598L194.056 163.587Z" fill="#125C90"/>
<path d="M114.22 72.6178C136.791 74.0933 161.828 82.2711 181.359 93.5366C175.94 91.1751 145.194 80.8267 141.577 79.855C135.459 78.2748 127.355 75.8028 114.266 72.592L114.22 72.6178Z" fill="#80BA27"/>
<path d="M174.546 56.1116C169.944 53.5147 163.608 50.6504 157.709 48.8582C163.917 49.9919 172.078 51.4563 177.828 52.8115C183.256 55.412 197.458 62.9241 198.933 64.219C190.82 61.508 180.73 56.9232 174.51 56.1011L174.546 56.1116Z" fill="#2FACB9"/>
<path d="M251.327 142.413C244.984 151.913 240.057 163.045 237.02 166.18C244.419 146.944 255.472 128.414 269.446 113.253C268.416 114.766 267.479 116.227 266.752 117.512C268.137 115.591 271.53 111.771 275.506 107.846C264.351 125.913 254.06 144.664 241.973 162.145C244.96 156.199 251.118 145.03 251.364 142.423L251.327 142.413Z" fill="#80BA27"/>
<path d="M241.134 105.778C240.181 106.21 236.388 107.472 231.343 108.842C223.941 110.867 213.894 113.187 205.286 113.128C198.21 113.082 189.66 112.686 180.155 111.107C186.146 110.956 194.303 110.805 199.716 110.88C199.316 110.764 187.565 108.375 179.934 104.544C179.385 104.266 178.872 103.999 178.405 103.706C181.109 104.295 184.551 105.058 188.303 105.833C197.376 107.68 207.879 109.352 213.379 108.587C209.968 107.99 194.518 104.369 187.676 100.806C186.65 100.272 185.826 99.7175 185.267 99.2008C186.72 99.6227 188.38 100.144 190.17 100.625C200.916 103.628 216.466 107.042 222.762 106.113C217.787 105.614 201.241 100.611 192.976 95.8472C203.206 99.1338 215.001 101.102 221.383 101.775C227.849 103.377 236.56 103.898 240.069 104.563C241.6 104.85 242.139 105.164 241.129 105.659L241.134 105.778Z" fill="#125C90"/>
<path d="M114.22 72.6178C127.308 75.8286 135.423 78.2643 141.53 79.8807C145.158 80.8161 175.894 91.2008 181.312 93.5624C161.792 82.2605 136.792 74.0933 114.173 72.6436L114.22 72.6178ZM140.85 82.0857C130.858 79.0651 118.429 75.8884 114.735 74.776C114.714 74.8487 114.703 74.885 114.693 74.9213C109.851 72.609 97.1198 68.4387 97.1198 68.4387C97.1198 68.4387 122.798 70.0681 128.769 67.2733C140.296 68.8095 153.3 71.09 162.818 74.5241C182.191 81.451 199.701 93.035 218.7 101.114C219.525 101.393 220.397 101.646 221.352 101.884C214.97 101.212 203.164 99.2792 192.944 95.9563C201.21 100.72 217.719 105.712 222.73 106.223C216.435 107.151 200.874 103.773 190.139 100.734C173.918 93.9352 157.64 87.1985 140.85 82.0857Z" fill="#2FACB9"/>
<path d="M250.127 104.373C251.203 103.111 247.953 105.081 243.324 108.541C241.301 109.135 237.31 110.536 232.106 113.672C225.032 117.958 204.172 130.252 198.033 133.353C198.691 132.441 199.146 131.825 199.256 131.581C199.456 131.167 197.696 132.073 195.101 133.683C194.647 133.078 194.466 132.75 194.012 132.146C194.033 132.073 193.192 131.986 191.738 131.839C198.801 128.81 222.511 113.484 231.317 108.795C236.362 107.425 240.145 106.2 241.108 105.731C242.107 105.273 241.568 104.959 240.047 104.636C246.554 101.76 267.623 91.7322 274.638 89.0042C280.492 88.1051 286.712 86.4854 290.401 85.3119C290.762 85.9681 290.942 86.2961 291.277 86.9055C287.323 88.3168 282.081 90.4966 276.196 93.9465C269.649 96.4167 253.952 103.003 249.209 105.367C249.564 104.958 249.861 104.611 250.102 104.327L250.127 104.373Z" fill="#125C90"/>
<path d="M140.427 92.0845C131.567 86.7934 112.098 78.9725 100.534 75.2593C95.2259 72.654 89.3409 69.9995 84.4482 68.539C88.3475 69.0808 92.1108 69.8194 95.6608 70.6142C111.872 78.3948 129.333 84.4509 146.445 89.2639C157.944 92.5248 183.483 103.172 188.256 105.859C184.54 105.094 181.063 104.32 178.359 103.732C178.825 104.025 179.338 104.292 179.887 104.57C171.174 102.433 156.452 97.5265 149.293 95.0534C152.706 97.5412 160.986 102.388 167.339 105.06C161.546 103.851 136.959 93.9915 134.315 92.7903C129.623 90.6397 125.174 88.5993 120.201 85.3825C122.532 85.6265 131.686 89.2304 140.402 92.0376L140.427 92.0845Z" fill="#80BA27"/>
<path d="M179.477 52.4238C174.514 50.3916 167.884 48.2689 164.091 47.0886C168.39 47.7464 174.345 48.531 179.568 49.2604C185.43 51.3173 197.257 56.5643 199.528 57.6964C195.309 56.6285 186.084 53.949 179.466 52.4602L179.477 52.4238Z" fill="#2FACB9"/>
<path d="M257.211 121.476C256.596 121.967 256.028 122.432 255.517 122.835C260.571 117.096 281.095 97.4176 284.349 93.4004C279.199 97.3002 268.018 105.829 259.515 113.953C253.202 119.957 248.18 125.587 246.622 127.695C247.714 125.294 249.685 122.44 252.338 119.273C254.818 116.291 257.908 112.974 261.493 109.447C256.404 113.68 246.028 122.284 239.142 129.855C248.02 116.916 260.927 103.532 274.242 95.1121C274.909 94.715 275.54 94.3073 276.196 93.9465C282.071 90.533 287.323 88.3169 291.277 86.9055C296.236 85.1557 299.194 84.5971 299.194 84.5971C298.605 85.1349 297.394 86.3193 295.818 87.9489C293.621 90.2251 290.714 93.3191 287.748 96.7506C284.359 99.4684 279.556 103.666 275.455 107.752C271.479 111.678 268.122 115.508 266.7 117.418C267.428 116.133 268.4 114.683 269.394 113.16C272.542 108.56 276.543 103.736 277.357 102.83C274.608 105.379 269.365 110.276 264.399 114.899C261.848 117.309 259.365 119.62 257.186 121.429L257.211 121.476Z" fill="#125C90"/>
<path d="M274.664 89.0511C272.475 89.4 270.318 89.6399 268.38 89.6678C265.522 89.7436 262.046 89.9155 257.88 89.8868C249.538 88.3697 226.434 83.7072 214.985 77.428C225.623 80.3995 251.202 86.8444 256.122 85.6347C248.149 84.0672 241.099 81.6257 235.338 79.086C229.992 76.7456 225.696 74.3162 222.909 72.5221C224.232 72.985 225.772 73.5113 227.484 74.1266C238.517 78.0401 255.645 84.1571 265.064 84.136C261.189 82.6956 249.848 77.9443 238.317 72.6259C231.064 69.2588 223.744 65.7148 218.888 63.044C220.958 63.6453 223.531 64.5501 226.275 65.544C235.15 68.752 245.537 72.99 247.164 73.8959C241.152 69.5108 228.631 61.2268 217.874 57.3145C228.416 59.3919 242.673 66.1717 248.156 70.4818C253.157 74.4156 266.274 82.9516 275.345 82.9082C278.142 83.7205 280.577 84.152 282.867 84.2659C287.007 84.523 293.573 83.4763 293.591 83.9544C293.581 83.9907 293.56 84.0633 293.383 84.1301C292.904 84.4241 291.853 84.7884 290.422 85.2393C286.733 86.4128 280.513 88.0325 274.659 88.9316L274.664 89.0511Z" fill="#125C90"/>
<path d="M227.437 74.1524C222.258 70.5606 210.09 63.6393 201.189 60.3845C208.369 61.5641 230.91 71.144 238.271 72.6517C249.765 77.9595 261.106 82.7108 265.017 84.1618C255.588 84.2192 238.46 78.1023 227.437 74.1524Z" fill="#2FACB9"/>
<path d="M229.408 55.9778C242.312 62.1283 258.213 76.6717 265.738 79.6452C269.483 81.1266 272.553 82.2154 275.288 82.9703C266.217 83.0137 253.1 74.4778 248.099 70.5439C242.616 66.2339 228.359 59.4541 217.816 57.3766C228.585 61.2526 241.095 69.5729 247.107 73.958C245.48 73.0521 235.092 68.8141 226.217 65.6062C220.489 62.6822 202.745 53.9441 187.408 50.4741C188.348 50.6289 189.168 50.7884 189.796 50.9314C173.518 45.1402 155.319 42.8474 138.114 41.4733C147.165 40.0063 160.484 40.2516 173.133 41.7201C192.19 43.9076 212.284 47.814 229.397 56.0142L229.408 55.9778Z" fill="#2FACB9"/>
<path d="M179.318 59.073C178.122 58.1742 176.49 57.1488 174.557 56.0753C180.777 56.8974 190.867 61.4822 198.98 64.1932C197.505 62.8983 183.303 55.3863 177.875 52.7857C180.87 53.4586 183.231 54.1443 184.376 54.674C183.164 53.9673 181.458 53.1962 179.524 52.398C186.141 53.8869 195.366 56.5664 199.585 57.6343C197.315 56.5022 185.524 51.2658 179.626 49.1983C182.611 49.6321 185.426 49.9769 187.429 50.4013C202.435 53.3815 220.521 62.5731 226.239 65.5334C223.495 64.5395 220.922 63.6346 218.852 63.0333C223.708 65.7041 231.028 69.2481 238.281 72.6152C230.91 71.1439 208.343 61.5171 201.2 60.3481C210.1 63.6029 222.268 70.5242 227.448 74.1159C225.736 73.5006 224.195 72.9743 222.873 72.5114C225.66 74.3055 229.956 76.7349 235.302 79.0754C229.499 80.3436 208.319 69.4656 200.481 66.7558C204.436 69.9526 209.64 73.8666 210.507 75.2211C208.841 74.8553 206.599 74.165 203.177 72.659C202.021 72.1656 200.74 71.5573 199.325 70.8705C194.457 68.5114 181.523 60.9737 176.89 58.2103C177.871 58.4952 178.685 58.8105 179.281 59.0624L179.318 59.073Z" fill="#80BA27"/>
<path d="M101.346 190.025C95.8088 192.276 90.4881 193.645 88.6815 193.357C92.186 192.681 103.2 183.238 105.542 181.004C104.531 180.552 99.3673 181.652 96.8879 183.137C98.6727 180.111 101.74 177.142 105.321 174.441C111.947 169.394 123.797 163.305 123.797 163.305C123.797 163.305 115.266 171.934 113.988 176.604C116.007 173.449 139.827 156.934 146.975 153.339C143.709 158.888 117.672 179.919 113.043 183.655C110.097 186.068 105.624 188.314 101.336 190.061L101.346 190.025Z" fill="#80BA27"/>
<path d="M142.506 207.1C140.541 218.069 139.723 226.85 139.651 230.216C140.293 227.331 142.695 223.263 143.26 221.182C142.594 224.967 141.113 232.098 140.336 237.623C137.317 242.456 134.712 246.544 132.994 248.526C134.431 240.594 136.071 233.863 137.087 226.163C138.131 222.568 139.25 217.497 140.359 213.408C141.183 210.299 142.004 207.742 142.565 206.762C142.533 206.871 142.501 206.98 142.506 207.1Z" fill="#125C90"/>
<path d="M96.4808 158.64C96.1222 158.654 90.7642 159.067 88.2591 159.285C88.2697 159.248 88.3165 159.223 88.3634 159.197C91.2823 157.012 97.5147 153.86 104.431 151.064C110.654 150.115 120.322 149.102 123.965 149.846C121.019 150.092 114.019 152.904 109.106 156.124C104.782 156.365 97.9758 158.917 92.0679 161.494C93.5702 160.118 95.1333 159.076 96.4913 158.604L96.4808 158.64Z" fill="#2FACB9"/>
<path d="M137.795 218.846C138.924 203.027 142.546 186.08 150.243 172.326C151.631 169.854 153.548 167.457 155.651 165.232C153.07 169.917 148.584 179.8 147.309 185.14C144.732 192.386 141.348 204.715 140.406 213.382C139.297 217.471 138.142 222.531 137.134 226.138C137.451 223.827 137.654 221.365 137.831 218.857L137.795 218.846Z" fill="#2FACB9"/>
<path d="M93.2172 173.131C92.9677 173.176 92.2037 173.23 91.216 173.377C95.991 169.683 106.859 162.639 119.247 159.581C112.189 163.951 103.662 169.036 100.445 171.568C95.1279 175.773 85.9365 183.146 82.365 184.866C84.0257 181.725 91.0576 175.142 93.2278 173.095L93.2172 173.131Z" fill="#80BA27"/>
<path d="M100.471 171.614C103.698 169.047 112.225 163.961 119.273 159.628C120.209 159.388 121.088 159.21 122.05 159.017C122.286 159.558 122.394 159.865 122.631 160.407C115.985 164.305 108.993 168.852 104.026 172.529C101.665 174.285 99.7148 175.845 98.4785 176.983C92.3336 182.681 76.8437 196.417 68.2093 199.974C64.7494 199.954 61.3587 199.56 58.2656 198.819C65.2104 195.519 70.3474 192.206 72.6259 185.582C74.8576 178.983 82.2069 163.986 88.3317 159.306C90.8368 159.088 96.1843 158.712 96.5534 158.661C95.1953 159.133 93.6322 160.176 92.13 161.551C89.2872 164.152 86.5638 167.969 85.2828 171.023C88.0635 168.365 91.2776 166.384 93.2695 165.899C93.826 165.746 94.3041 165.727 94.6673 165.833C92.2218 167.879 86.5281 172.567 85.4451 175.481C87.2016 174.18 89.5989 173.655 91.2779 173.434C92.2656 173.288 93.0296 173.234 93.2791 173.188C91.109 175.236 84.077 181.819 82.4164 184.96C85.9878 183.24 95.1792 175.867 100.497 171.661L100.471 171.614Z" fill="#125C90"/>
<path d="M141.953 220.802C142.941 212.11 150.852 186.366 155.281 176.27C149.66 182.199 144.582 198.054 142.48 207.053C142.512 206.944 142.544 206.835 142.539 206.716C141.979 207.695 141.193 210.263 140.333 213.361C141.275 204.694 144.706 192.34 147.236 185.119C147.089 185.627 147.035 186.084 146.955 186.494C148.463 182.522 151.045 177.836 154.104 173.408C155.913 171.925 158.607 170.108 160.357 168.962C158.934 171.424 157.853 173.788 157.508 175.381C155.783 179.016 153.919 183.673 153.865 186.296C155.972 181.079 163.011 171.623 165.522 168.808C164.328 171.021 163.3 173.204 162.738 174.734C162.78 174.589 163.825 173.159 165.268 171.176C163.247 175.827 159.769 184.821 158.166 193.728C161.09 184.338 171.505 168.143 176.205 163.758C171.954 173.512 162.665 194.917 161.159 198.339C158.136 205.22 150.956 215.974 148.029 218.865C148.927 215.503 158.115 189.972 157.734 183.284C152.404 198.514 144.512 214.024 141.869 220.818L141.953 220.802Z" fill="#80BA27"/>
<path d="M165.642 168.803C163.13 171.618 156.055 181.064 153.985 186.291C154.027 183.704 155.866 179 157.628 175.376C157.607 175.449 157.586 175.522 157.554 175.631C158.683 172.965 168.754 161.476 171.525 158.854C170.954 159.87 167.962 164.475 165.642 168.803Z" fill="#2FACB9"/>
<path d="M102.545 192.815C106.729 191.155 110.254 189.461 112.624 187.944C122.132 181.923 146.001 159.948 148.871 157.119C150.587 155.412 157.762 150.643 163.685 146.928C158.51 147.119 144.131 149.165 138.921 151.511C136.427 152.638 129.731 156.167 122.569 160.349C115.959 164.258 108.931 168.794 103.964 172.471C101.603 174.227 99.6528 175.788 98.4166 176.925C92.2717 182.624 76.7818 196.36 68.1474 199.917C79.7996 200.072 92.8652 196.581 102.519 192.768L102.545 192.815ZM96.8985 183.101C98.6833 180.075 101.751 177.106 105.332 174.405C111.957 169.358 120.246 165.228 123.808 163.269C122.49 164.147 115.276 171.898 113.999 176.568C116.018 173.413 139.837 156.897 146.986 153.302C143.72 158.852 117.683 179.883 113.053 183.619C110.107 186.032 105.635 188.277 101.346 190.025C95.8089 192.276 90.4882 193.645 88.6816 193.357C92.1861 192.681 103.2 183.238 105.542 181.004C104.531 180.552 99.3674 181.652 96.888 183.137L96.8985 183.101Z" fill="#2FACB9"/>
<path d="M106.964 157.668C102.518 159.685 96.615 163.602 93.2439 165.853C91.2414 166.374 88.0273 168.355 85.2572 170.976C86.5019 167.912 89.2253 164.095 92.1044 161.504C98.0122 158.927 104.819 156.375 109.142 156.134C108.371 156.619 107.673 157.125 107.047 157.653L106.964 157.668Z" fill="#80BA27"/>
<path d="M85.3727 175.46C86.4662 172.509 92.1599 167.822 94.5948 165.812C94.2316 165.706 93.7899 165.735 93.197 165.878C96.6045 163.638 102.482 159.674 106.917 157.693C105.223 159.052 104.006 160.393 103.658 161.591C106.802 157.818 119.797 154.976 128.748 152.77C127.692 154.236 123.759 156.796 119.19 159.643C106.802 162.701 95.9335 169.745 91.1586 173.439C89.469 173.696 87.0717 174.221 85.3152 175.522L85.3727 175.46Z" fill="#2FACB9"/>
<path d="M81.0407 111.187C74.148 109.697 63.4686 106.871 56.8091 105.528C47.1539 101.345 37.8021 97.8801 32.682 97.3382C42.1797 95.9615 49.6925 94.6384 56.9089 93.3868C64.1254 92.1351 86.0322 90.0698 97.6605 93.2898C101.121 94.2557 106.075 96.0489 111.609 98.2863C92.9656 94.1316 76.1263 95.6996 57.4777 98.7507C67.5469 99.7455 77.7791 99.0941 81.2073 99.2234C78.4818 101.149 65.9063 101.868 62.8728 101.736C68.5317 103.812 79.8603 105.488 82.732 105.771C80.8573 106.802 69.3493 105.743 66.8725 105.457C71.9654 107.449 80.0906 109.848 84.9622 111.381C85.9428 111.666 86.804 111.955 87.4472 112.182C86.3716 112.224 84.0822 111.834 81.1239 111.172L81.0407 111.187Z" fill="#125C90"/>
<path d="M171.474 141.944C171.667 141.685 169.787 141.65 166.643 141.761C171.035 140.201 179.275 137.593 183.692 135.134C189.11 134.109 192.747 132.841 193.965 132.171C194.42 132.776 194.6 133.104 195.055 133.709C193.466 134.704 191.575 135.927 189.594 137.321C184.855 138.859 174.904 142.743 167.717 144.436C169.785 143.147 171.234 142.228 171.438 141.933L171.474 141.944Z" fill="#125C90"/>
<path d="M196.007 172.464C185.949 189.195 183.864 212.102 183.34 215.534C183.26 214.723 183.208 213.684 183.255 212.437C183.443 203.788 187.032 186.28 189.573 180.244C192.476 173.368 199.248 163.205 203.375 157.944C202.972 158.654 199.796 167.42 200.127 170.076C201.973 164.941 207.667 155.371 211.076 150.414C210.698 151.446 210.517 152.339 210.571 153.103C208.083 158.957 204.479 169.332 203.753 174.95C204.728 171.728 208.414 161.613 215.353 152.64C212.941 162.298 205.226 181.403 204.212 183.945C201.124 191.594 193.599 210.991 190.395 220.261C190.257 216.125 195.367 194.057 198.951 183.48C189.99 198.876 188.313 217.53 186.842 221.238C187.282 218.097 187.813 209.626 188.519 203.805C189.235 197.948 193.157 181.6 196.09 172.449L196.007 172.464Z" fill="#80BA27"/>
<path d="M146.445 89.2638C129.343 84.4146 111.872 78.3948 95.6607 70.6142C102.724 72.1933 109.008 74.0183 114.135 75.3499C124.035 79.3676 148.86 87.0509 158.513 90.5635C167.813 93.9343 182.829 99.5953 187.608 100.905C194.45 104.467 209.874 108.042 213.311 108.685C207.785 109.404 197.319 107.742 188.235 105.931C183.426 103.235 157.922 92.5974 146.424 89.3365L146.445 89.2638Z" fill="#2FACB9"/>
<path d="M212.253 170.093C215.655 161.905 219.044 153.083 222.915 144.637C223.258 142.373 225.614 133.448 229.822 127.502C224.159 133.576 211.676 149.84 210.585 153.461C210.58 153.342 210.539 153.212 210.535 153.092C208.047 158.947 204.442 169.321 203.716 174.939C204.692 171.717 208.378 161.603 215.316 152.63C212.905 162.288 205.19 181.393 204.176 183.934C201.088 191.584 193.563 210.981 190.359 220.251C190.221 216.115 195.331 194.047 198.915 183.47C189.954 198.865 188.277 217.519 186.806 221.227C187.246 218.086 187.776 209.615 188.483 203.794C189.199 197.937 193.12 181.59 196.054 172.438C185.996 189.169 183.911 212.076 183.387 215.508C183.307 214.697 183.255 213.658 183.302 212.411C183.49 203.762 187.079 186.254 189.62 180.218C192.523 173.342 199.295 163.179 203.422 157.919C203.019 158.629 199.843 167.394 200.174 170.051C202.02 164.916 207.714 155.345 211.123 150.388C212.606 146.368 216.933 140.418 221.066 132.835C217.494 136.997 208.525 146.995 206.573 149.106C205.012 150.818 197.724 158.824 194.165 163.619C194.134 163.728 194.055 163.862 193.987 163.961C186.889 178.637 182.693 194.709 182.403 211.166C182.381 211.514 182.384 211.908 182.362 212.256C182.078 226.116 181.911 238.08 180.218 248.655C195.076 224.89 201.646 195.763 212.325 170.114L212.253 170.093Z" fill="#2FACB9"/>
<path d="M84.9153 111.407C90.6657 112.762 104.517 116.194 113.726 116.624C102.577 113.11 91.6419 110.485 85.4337 106.91C97.3799 107.544 102.219 108.241 106.33 107.781C98.8483 105.608 87.809 104.292 81.1508 101.452C81.5199 101.402 81.889 101.351 82.3307 101.322C88.7643 100.867 102.887 102.685 113.083 105.685C119.511 107.553 135.749 114.159 142.28 117.435C136.48 115.711 121.66 110.461 112.81 109.742C120.929 112.572 141.812 121.08 148.963 124.259C147.582 123.859 146.239 123.468 144.967 123.099C147.301 124.013 149.79 125.209 152.315 126.415C145.442 125.127 126.166 120.71 119.639 118.775C124.893 121.837 135.089 126.059 140.363 128.103C137.719 128.122 129.222 126.324 112.92 121.431C104.624 118.943 94.9804 116.89 81.0875 111.161C84.0459 111.824 86.3353 112.213 87.4109 112.171C86.7208 111.971 85.9065 111.655 84.9259 111.37L84.9153 111.407Z" fill="#80BA27"/>
<path d="M119.628 118.811C124.883 121.873 135.078 126.095 140.353 128.139C137.708 128.159 129.212 126.36 112.91 121.468C104.614 118.979 94.9698 116.926 81.0769 111.198C74.1842 109.708 63.5049 106.881 56.8453 105.538C67.2058 110.004 77.8485 115.262 85.4393 118.687C100.025 125.287 115.674 130.935 131.179 135.045C139.731 137.332 155.389 137.39 166.81 136.848C162.414 135.846 154.761 133.584 147.233 130.216C153.55 131.381 162.74 133.775 166.362 132.425C162.2 131.295 157.219 128.784 152.314 126.415C145.442 125.127 126.166 120.71 119.639 118.775L119.628 118.811Z" fill="#2FACB9"/>
<path d="M66.8256 105.483C71.9186 107.474 80.0437 109.873 84.9153 111.407C90.6657 112.762 104.517 116.194 113.726 116.624C102.577 113.11 91.6419 110.485 85.4337 106.91C97.3799 107.544 102.219 108.241 106.33 107.781C98.8483 105.607 87.809 104.291 81.1508 101.452C81.5199 101.401 81.889 101.351 82.3307 101.322C88.7069 100.929 102.887 102.685 113.083 105.685C119.511 107.553 135.749 114.159 142.28 117.435C136.48 115.711 121.66 110.461 112.81 109.742C120.929 112.572 141.812 121.08 148.963 124.259C155.827 126.253 163.212 128.083 165.136 127.697C159.505 125.116 151.963 120.168 147.143 115.066C138.525 110.161 123.915 103.239 111.609 98.2861C92.9656 94.1314 76.1263 95.6994 57.4777 98.7505C67.5468 99.7453 77.779 99.0939 81.2073 99.2232C78.4818 101.149 65.9063 101.868 62.8728 101.735C68.5317 103.812 79.8603 105.488 82.732 105.771C80.8572 106.802 69.3493 105.743 66.8724 105.457L66.8256 105.483Z" fill="#2FACB9"/>
<path d="M160.441 168.947C158.69 170.093 155.996 171.909 154.187 173.393C159.295 165.975 165.657 159.395 168.496 157.62C167.343 158.743 163.241 164.05 160.477 168.957L160.441 168.947Z" fill="#2FACB9"/>
<path d="M109.106 156.124C114.019 152.903 121.029 150.056 123.966 149.845C120.332 149.066 110.654 150.114 104.432 151.064C112.15 147.949 120.687 145.27 125.645 144.741C132.808 143.946 156.438 142.184 166.633 141.798C169.776 141.687 171.657 141.721 171.463 141.98C171.259 142.275 169.811 143.194 167.743 144.483C166.54 145.237 165.149 146.093 163.664 147.001C158.489 147.191 144.11 149.237 138.899 151.584C136.406 152.711 129.72 156.204 122.548 160.422C122.311 159.881 122.203 159.574 121.967 159.032C121.052 159.2 120.126 159.403 119.19 159.643C123.759 156.796 127.692 154.236 128.748 152.771C119.787 155.012 106.766 157.807 103.658 161.591C103.996 160.429 105.223 159.052 106.917 157.694C107.543 157.166 108.277 156.671 109.012 156.175L109.106 156.124Z" fill="#125C90"/>
<path d="M140.347 237.586C146.374 227.955 154.397 215.516 158.186 209.252C159.489 207.07 161.057 203.705 162.758 199.749C168.546 186.464 177.036 167.269 179.554 161.856C181.494 157.615 187.506 147.9 192.624 140.722C188.234 144.173 176.86 155.402 173.676 159.991C171.271 163.389 167.729 167.992 165.387 171.171C163.367 175.823 159.888 184.816 158.285 193.724C161.21 184.333 171.624 168.139 176.324 163.754C172.074 173.507 162.784 194.912 161.278 198.335C158.256 205.215 151.076 215.969 148.149 218.86C149.046 215.498 158.234 189.967 157.853 183.279C152.524 198.509 144.632 214.019 141.989 220.813C142.978 212.12 150.888 186.377 155.317 176.281C149.696 182.21 144.619 198.064 142.517 207.064C140.552 218.032 139.734 226.814 139.662 230.18C140.303 227.294 142.706 223.227 143.271 221.146C142.605 224.93 141.124 232.062 140.347 237.586Z" fill="#2FACB9"/>
<path d="M154.176 173.429C151.118 177.857 148.525 182.579 147.028 186.515C147.107 186.105 147.198 185.659 147.309 185.14C148.584 179.8 153.07 169.917 155.651 165.232C162.98 157.357 173.268 151.09 178.417 146.244C181.291 143.535 185.623 140.146 189.677 137.306C191.658 135.912 193.549 134.689 195.138 133.693C197.732 132.084 199.492 131.177 199.293 131.592C199.183 131.836 198.728 132.452 198.069 133.363C196.841 135.015 194.85 137.666 192.66 140.732C188.271 144.184 176.896 155.413 173.712 160.002C171.307 163.399 167.765 168.002 165.423 171.182C163.981 173.165 162.936 174.594 162.893 174.74C163.456 173.21 164.473 171.063 165.678 168.814C168.009 164.45 170.99 159.881 171.561 158.865C168.754 161.476 158.719 172.976 157.59 175.641C157.611 175.569 157.632 175.496 157.664 175.387C157.998 173.83 159.079 171.466 160.513 168.968C163.304 164.107 167.416 158.764 168.532 157.631C165.74 159.38 159.331 165.986 154.223 173.403L154.176 173.429Z" fill="#125C90"/>
<path d="M223.375 191.598C226.269 187.87 227.089 180.98 228.644 173.594C229.892 179.194 227.093 188.424 225.192 194.292C231.791 183.369 239.25 171.791 242.922 165.926C252.753 150.113 261.237 132.294 272.335 116.731C274.467 113.727 281.117 104.395 287.737 96.7867C284.349 99.5046 279.545 103.702 275.444 107.788C264.289 125.855 253.998 144.606 241.91 162.087C244.898 156.141 251.056 144.973 251.301 142.366C244.958 151.866 240.031 162.999 236.994 166.134C244.393 146.897 255.446 128.367 269.42 113.206C272.568 108.607 276.558 103.819 277.383 102.877C274.634 105.426 269.391 110.323 264.425 114.946C251.135 131.684 241.378 150.905 232.523 170.27C236.062 152.393 245.224 135.087 257.222 121.439C256.607 121.93 256.039 122.395 255.528 122.798C260.582 117.059 281.106 97.3811 284.36 93.3639C279.21 97.2637 268.029 105.792 259.525 113.916C259.598 113.938 259.66 113.995 259.722 114.052C256.853 117.827 251.384 124.588 247.502 130.904C243.656 137.231 230.074 159.043 229.173 162.956C231.904 146.775 240.19 130.316 252.348 119.236C254.829 116.255 257.919 112.938 261.504 109.411C256.414 113.643 246.038 122.248 239.153 129.818C235.284 135.272 232.557 139.915 231.462 142.196C228.882 147.551 225.701 159.86 224.067 171.044C225.105 177.371 224.17 188.048 223.375 191.598Z" fill="#2FACB9"/>
<path d="M225.218 194.339C227.082 188.461 229.881 179.231 228.669 173.641C227.079 181.016 226.295 187.917 223.401 191.645C224.195 188.095 225.167 177.428 224.093 171.09C223.455 175.592 223.011 179.834 222.86 183.335C222.261 195.567 214.985 205.703 211.136 215.022C214.949 211.521 219.937 203.163 225.254 194.349L225.218 194.339Z" fill="#125C90"/>
<g clip-path="url(#clip1_164_3080)">
<path d="M246.182 223.395C242.014 230.943 230.46 236.84 222.488 235.423C212.947 233.74 208.468 220.839 209.298 211.882C210.405 200.45 222.632 195.061 233.064 200.131C241.514 204.249 251.643 213.422 246.182 223.395Z" fill="#9E1460"/>
<path d="M239.329 200.883C241.377 198.173 242.895 196.889 245.866 194.71C243.903 193.355 242.848 192.578 240.808 190.791C238.519 193.787 237.3 195.621 235.953 199.258C232.361 194.397 225.645 192.742 220.125 195.691L217.611 197.035L218.042 197.829C219.868 201.189 223.029 203.364 226.531 204.055C223.99 206.516 222.515 210.063 222.859 213.9L223.227 218L226.604 217.733C231.52 217.314 235.519 214.114 237.11 209.834C238.581 212.832 241.251 215.269 244.702 216.303L247.443 217.124L247.696 216.28C249.637 209.803 245.932 202.913 239.362 200.945L239.329 200.883Z" fill="#C9D400"/>
<path d="M231.267 220.051C232.422 219.118 233.613 219.271 234.556 220.422C235.498 221.574 235.624 223.044 234.455 224.024C233.3 224.956 231.561 224.742 230.619 223.59C229.676 222.438 230.098 221.03 231.267 220.051Z" fill="#E54888"/>
<path d="M225.459 216.571C226.022 215.206 227.098 214.71 228.521 215.29C229.897 215.855 230.764 217.087 230.201 218.453C229.637 219.818 228.037 220.515 226.661 219.949C225.286 219.383 224.942 217.951 225.506 216.585L225.459 216.571Z" fill="#E54888"/>
<path d="M222.441 204.466C223.676 203.609 224.839 203.855 225.706 205.087C226.573 206.318 226.591 207.807 225.355 208.664C224.12 209.521 222.409 209.213 221.542 207.981C220.675 206.75 221.191 205.37 222.474 204.527L222.441 204.466Z" fill="#E54888"/>
<path d="M210.83 218.632C211.393 217.266 212.469 216.77 213.892 217.35C215.268 217.916 216.135 219.148 215.572 220.513C215.008 221.879 213.408 222.575 212.032 222.01C210.657 221.444 210.313 220.011 210.877 218.646L210.83 218.632Z" fill="#E54888"/>
<path d="M241.55 209.63C242.437 209.077 243.316 209.238 243.889 210.075C244.449 210.959 244.073 211.869 243.186 212.422C242.299 212.974 241.443 212.564 241.007 211.615C240.708 211.065 240.725 210.15 241.597 209.644L241.55 209.63Z" fill="#E54888"/>
<path d="M219.823 210.279C220.71 209.727 221.589 209.888 222.162 210.725C222.722 211.608 222.346 212.519 221.459 213.071C220.572 213.624 219.716 213.214 219.28 212.265C218.981 211.715 218.998 210.799 219.87 210.294L219.823 210.279Z" fill="#E54888"/>
<path d="M214.997 223.461C215.884 222.908 216.763 223.069 217.336 223.906C217.896 224.79 217.52 225.7 216.633 226.253C215.747 226.805 214.891 226.395 214.454 225.446C214.155 224.896 214.172 223.981 215.045 223.475L214.997 223.461Z" fill="#E54888"/>
<path d="M235.993 217.171C235.665 216.203 236.06 215.401 237.033 215.079C238.005 214.756 238.805 215.354 239.133 216.322C239.461 217.29 238.83 218.021 237.838 218.235C237.234 218.361 236.369 218.153 236.041 217.185L235.993 217.171Z" fill="#E54888"/>
<path d="M228.874 208.44C229.761 207.887 230.64 208.048 231.213 208.885C231.773 209.769 231.397 210.679 230.51 211.231C229.623 211.784 228.767 211.374 228.331 210.425C228.032 209.875 228.049 208.959 228.921 208.454L228.874 208.44Z" fill="#E54888"/>
<path d="M225.797 222.145C226.295 223.062 226.089 223.921 225.169 224.412C224.249 224.904 223.36 224.433 222.848 223.563C222.35 222.647 222.854 221.826 223.793 221.442C224.378 221.209 225.285 221.276 225.75 222.131L225.797 222.145Z" fill="#E54888"/>
<path d="M228.393 206.608C227.994 205.875 228.191 205.218 228.927 204.824C229.663 204.431 230.33 204.784 230.728 205.518C231.127 206.251 230.727 206.898 229.972 207.183C229.509 207.351 228.791 207.341 228.44 206.622L228.393 206.608Z" fill="#E54888"/>
<path d="M219.038 218.227C218.64 217.494 218.837 216.837 219.573 216.444C220.309 216.051 220.975 216.404 221.374 217.137C221.772 217.87 221.372 218.518 220.617 218.803C220.155 218.971 219.437 218.961 219.085 218.242L219.038 218.227Z" fill="#E54888"/>
<path d="M214.51 210.477C214.111 209.744 214.308 209.087 215.044 208.694C215.78 208.301 216.447 208.654 216.845 209.387C217.244 210.12 216.844 210.767 216.089 211.053C215.626 211.221 214.908 211.21 214.557 210.491L214.51 210.477Z" fill="#E54888"/>
<path d="M225.139 227.779C224.741 227.046 224.938 226.388 225.674 225.995C226.41 225.602 227.076 225.955 227.475 226.688C227.873 227.422 227.473 228.069 226.718 228.354C226.256 228.522 225.538 228.512 225.187 227.793L225.139 227.779Z" fill="#E54888"/>
<path d="M216.377 205.104C217.066 204.697 217.789 204.862 218.201 205.548C218.614 206.235 218.247 206.943 217.558 207.35C216.87 207.758 216.156 207.39 215.866 206.639C215.695 206.178 215.703 205.464 216.377 205.104Z" fill="#E54888"/>
<path d="M205.508 215.247C206.197 214.84 206.92 215.005 207.318 215.738C207.731 216.425 207.364 217.133 206.675 217.54C205.986 217.948 205.272 217.58 204.982 216.829C204.811 216.368 204.819 215.654 205.494 215.294L205.508 215.247Z" fill="#E54888"/>
</g>
</g>
<defs>
<clipPath id="clip0_164_3080">
<rect width="277.041" height="218.531" fill="white" transform="translate(266.046 287.132) rotate(-163.804)"/>
</clipPath>
<clipPath id="clip1_164_3080">
<rect width="41.943" height="48.1111" fill="white" transform="translate(214.811 183) rotate(16.6818)"/>
</clipPath>
</defs>
</svg>
