<svg width="144" height="271" viewBox="0 0 144 271" fill="none" xmlns="http://www.w3.org/2000/svg">
<g clip-path="url(#clip0_164_2912)">
<path d="M61.224 141.416C60.9576 138.06 58.3696 127.95 56.1623 120.696C56.2384 123.281 56.7331 127.063 56.8473 128.953C57.0376 131.693 59.7017 149.172 58.7122 148.555C57.7227 147.937 58.0652 136.516 53.0035 128.027C52.8132 131.114 55.1347 137.597 54.0691 135.976C53.0035 134.355 50.72 129.725 49.9588 126.484C49.1977 123.243 44.9352 114.368 44.5166 111.551C44.4785 111.281 44.4404 110.895 44.4024 110.509C43.9837 106.844 43.527 99.7826 44.174 100.516C44.6688 101.056 44.783 104.181 46.6859 107.77C47.5612 109.352 48.8552 111.011 50.7581 112.516C48.9693 107.924 45.6202 98.2777 45.6202 98.2777C45.6202 98.2777 48.2843 102.831 50.6439 105.493C49.0835 101.558 47.1425 97.4289 46.115 95.6539C44.4404 92.7986 40.0257 87.3194 37.4758 85.4287C38.8459 87.5123 41.5861 94.0333 41.9286 101.365C42.0808 104.49 42.2711 107.384 42.7659 110.355C43.4129 114.329 44.6688 118.381 46.2672 122.432C49.0074 129.532 52.9273 138.445 55.4772 145.622C57.4562 151.256 57.4943 157.391 56.9996 160.594C58.0271 159.243 59.0166 157.854 60.0442 156.426C60.8053 152.491 61.5665 146.124 61.224 141.416Z" fill="#213820"/>
<path d="M46.7239 107.77C45.0113 104.258 44.7068 101.094 44.2121 100.516C43.5651 99.7824 44.0218 106.882 44.4404 110.509C45.1635 111.435 46.6858 113.326 48.132 115.217C47.7134 113.133 47.0283 109.815 46.7239 107.77Z" fill="#80BA27"/>
<path d="M56.8473 128.953C56.7331 127.062 56.2384 123.281 56.1622 120.696C54.9063 116.644 53.8407 113.442 53.2318 112.091C52.5848 110.664 51.6333 107.924 50.6438 105.493C48.3223 102.831 45.6202 98.2776 45.6202 98.2776C45.6202 98.2776 49.0074 107.924 50.758 112.516C48.8551 111.049 47.5231 109.352 46.6858 107.77C46.9522 109.853 47.6373 113.133 48.094 115.217C46.6097 113.365 45.1254 111.435 44.4023 110.509C44.4404 110.934 44.4785 111.281 44.5165 111.551C44.9352 114.368 49.1976 123.242 49.9588 126.484C50.72 129.725 53.0034 134.355 54.0691 135.976C55.1347 137.596 52.8132 131.114 53.0034 128.027C58.0651 136.516 57.7226 147.937 58.7121 148.555C59.7016 149.172 57.0376 131.693 56.8473 128.953Z" fill="#E4D630"/>
<path d="M68.9117 90.9464C68.1124 90.329 67.199 89.7116 66.7043 89.6731C66.0573 89.5959 66.2095 90.6763 65.9812 92.5284C66.5901 93.9947 67.4274 97.0815 67.7319 99.6667C67.7319 99.0108 69.14 94.4577 69.5967 92.9143C69.4064 92.3355 69.1781 91.6795 68.9117 90.9464Z" fill="#80BA27"/>
<path d="M73.8974 136.169C74.1638 132.542 74.7727 123.011 75.0391 119.037C75.1533 117.184 74.5444 113.365 73.7451 109.313C73.7071 110.664 73.631 112.207 73.5168 113.712C73.2504 117.57 72.8318 121.429 72.0325 121.699C71.8423 118.959 71.1953 116.143 70.5483 113.943C69.7491 111.165 68.9118 109.313 68.8357 109.159C68.8357 109.197 68.8357 109.236 68.8357 109.313C69.2543 115.255 70.1677 125.751 69.1401 125.558C67.6559 121.969 65.6388 117.184 64.2307 113.056C63.3934 110.664 62.7845 108.464 62.5181 106.689C62.0994 104.065 61.833 99.4737 61.5286 95.6923C61.3002 92.644 61.1099 89.943 61.186 88.4768C61.186 88.361 61.186 88.2838 61.186 88.1681C62.1375 89.6343 62.7083 93.1842 62.7464 93.4157C63.3934 88.5539 63.5456 81.9944 63.8881 82.496C64.1165 82.8433 64.7635 88.5925 64.9918 92.5668C65.0679 94.3804 65.106 95.7695 65.106 95.8852C65.5627 94.6119 65.791 93.4929 65.9052 92.5668C66.1336 90.7147 66.0194 89.6343 66.6283 89.7115C67.1231 89.7887 68.0365 90.3675 68.8357 90.9848C67.4275 86.8176 65.2963 81.0297 64.4971 77.9429C63.5076 74.1229 65.6007 70.8817 65.2582 67.9878C62.1755 71.4605 60.8055 80.914 59.8921 88.824C59.4354 92.644 59.1309 96.0781 59.0928 97.8917C58.9787 103.525 64.3829 119.461 65.4485 124.014C66.438 128.143 68.6073 140.413 68.9118 143.538C69.5588 142.612 70.1677 141.686 70.7766 140.76C71.7281 139.333 72.7556 137.789 73.8593 136.169H73.8974Z" fill="#213820"/>
<path d="M65.0299 92.5283C64.8015 88.554 64.1545 82.8047 63.9262 82.4575C63.5837 81.9558 63.4314 88.4768 62.7845 93.3772C62.7464 93.1071 62.1755 89.5958 61.2241 88.1295C61.2241 88.2067 61.2241 88.3225 61.2241 88.4382C61.148 89.9045 61.3383 92.6055 61.5666 95.6537C62.0233 96.5026 62.7464 97.8145 63.6598 99.5123C63.6217 97.9689 64.6873 93.5315 65.0299 92.5669V92.5283Z" fill="#80BA27"/>
<path d="M73.5167 113.712C72.6033 110.394 70.4721 103.873 70.0535 103.062C70.2057 105.262 70.8146 111.59 70.5482 113.982C71.1952 116.181 71.8422 118.96 72.0325 121.738C72.7936 121.429 73.2503 117.609 73.5167 113.75V113.712Z" fill="#80BA27"/>
<path d="M68.8737 109.313C68.1506 106.805 67.2372 104.22 67.1992 104.143C67.732 107.77 67.6558 111.204 66.5141 110.201C65.3724 109.197 64.1165 105.802 64.1165 105.802C64.2306 107.847 64.2687 111.474 64.3067 113.056C65.7529 117.185 67.732 121.969 69.2162 125.558C70.2057 125.751 69.3304 115.255 68.9118 109.313H68.8737Z" fill="#80BA27"/>
<path d="M70.0533 103.024C70.472 103.834 72.6032 110.393 73.5166 113.673C73.6308 112.13 73.7069 110.625 73.7449 109.274C72.3748 102.445 70.6242 95.7309 69.7489 93.3772C69.7108 93.2229 69.6347 93.0685 69.5586 92.9142C69.1019 94.4576 67.6937 98.9721 67.6937 99.6667C67.4273 97.0814 66.552 93.9946 65.9431 92.5283C65.8289 93.4544 65.6005 94.5734 65.1438 95.8467C65.1438 95.7309 65.1058 94.3418 65.0297 92.5283C64.6872 93.493 63.6215 97.9303 63.6596 99.4737C62.7462 97.776 62.0231 96.5026 61.5664 95.6152C61.8709 99.4352 62.1373 103.988 62.5559 106.612C62.8223 108.387 63.4693 110.586 64.2685 112.979C64.2685 111.435 64.1924 107.77 64.0782 105.725C64.0782 105.725 65.3341 109.12 66.4759 110.123C67.6176 111.127 67.6937 107.692 67.1609 104.065C67.199 104.181 68.1504 106.766 68.8355 109.236C68.8355 109.197 68.8355 109.159 68.8355 109.082C68.9116 109.236 69.7108 111.127 70.5481 113.866C70.8145 111.474 70.1675 105.146 70.0533 102.946V103.024Z" fill="#E4D630"/>
<path d="M92.4315 92.0653C92.774 89.9045 93.0404 87.3192 93.1546 84.6568C92.8121 85.6215 92.4315 87.2421 92.0509 88.9784C91.6323 90.9077 91.2136 92.9913 90.9853 94.2261C90.4525 97.0428 88.3212 104.914 88.2451 104.683C88.4354 100.747 89.7674 92.1038 89.501 88.5925C88.3212 92.3739 86.5706 107.345 85.543 108.734C85.6572 100.747 86.5325 88.361 86.7609 86.8948C86.837 86.4318 86.7609 85.5829 86.6467 84.6182C86.4183 82.9205 85.9236 80.7983 85.543 79.4478C85.3908 81.5314 85.1624 83.615 84.8199 85.7372C83.8304 92.5283 83.7923 98.702 83.602 104.837C83.4498 109.969 82.9931 119.268 82.917 122.972C84.0587 121.352 85.0863 119.886 85.9997 118.612C88.7779 113.017 91.0994 100.323 92.4315 92.0267V92.0653Z" fill="#213820"/>
<path d="M89.501 88.5926C89.7674 92.1039 88.4734 100.708 88.2451 104.683C88.3212 104.914 90.4144 97.0429 90.9852 94.2261C91.2136 92.9914 91.6322 90.9077 92.0509 88.9785C91.8986 85.6215 91.2897 80.3353 91.2136 79.9108C90.9852 84.0009 89.1204 86.972 88.7398 86.6633C88.3212 86.3546 88.3973 78.9462 88.3973 78.4446C88.1689 80.8369 87.2175 83.3064 86.6086 84.6183C86.7227 85.5829 86.7989 86.4318 86.7227 86.8948C86.4944 88.3611 85.6191 100.747 85.5049 108.734C86.5324 107.345 88.2831 92.374 89.4629 88.5926H89.501Z" fill="#80BA27"/>
<path d="M89.0824 55.7178C88.3212 57.8014 88.5876 63.1648 88.5876 66.1359C88.9682 68.451 89.5391 72.1553 89.9197 74.7791C89.8816 73.6601 90.4144 66.3674 90.6808 62.2387C89.7674 59.3448 89.1205 56.4895 89.0824 55.7178Z" fill="#80BA27"/>
<path d="M88.5115 67.8336C88.5496 67.4863 88.5876 66.869 88.5876 66.0972C88.5876 63.1647 88.3212 57.8013 89.0824 55.6791C89.1204 56.4508 89.8055 59.3062 90.6808 62.2001C91.2897 64.0908 91.9748 66.0201 92.6598 67.332C92.5837 66.5989 92.5076 66.0201 92.4315 65.6342C91.8987 62.4702 90.5666 52.4765 90.6428 49.4668C90.7569 46.4572 92.3934 38.8172 90.9472 37.7754C90.8711 41.4796 88.5496 48.6951 87.1034 52.2064C86.1519 54.5216 85.6952 56.4508 85.5811 59.5763C86.0758 57.8785 86.6086 56.2193 86.875 56.1036C87.4078 55.8721 87.3317 63.6664 88.4735 67.8336H88.5115Z" fill="#213820"/>
<path d="M93.1546 84.6569C93.4971 77.9816 93.0404 70.959 92.6598 67.3705C91.9367 66.0586 91.2517 64.1293 90.6808 62.2386C90.4144 66.3673 89.8816 73.66 89.9196 74.779C89.539 72.1551 88.9301 68.4509 88.5876 66.1358C88.5876 66.9075 88.5876 67.5249 88.5115 67.8721C87.3697 63.6663 87.4459 55.872 86.9131 56.1421C86.6467 56.2579 86.1138 57.917 85.6191 59.6148C85.581 61.1968 85.6191 63.1261 85.7333 65.5184C85.9616 70.4188 85.9235 74.9333 85.543 79.4864C85.9235 80.8369 86.3802 82.9591 86.6467 84.6569C87.2556 83.3064 88.207 80.8369 88.4354 78.4832C88.4354 78.9848 88.3973 86.3932 88.7779 86.7019C89.1585 87.0106 91.0233 84.0009 91.2517 79.9494C91.3278 80.3739 91.9367 85.6601 92.0889 89.0171C92.4695 87.2807 92.8501 85.6601 93.1926 84.6955L93.1546 84.6569ZM89.9577 74.8175C89.9577 74.8175 89.9577 74.8561 89.9577 74.8947C89.9577 74.8947 89.9577 74.8561 89.9577 74.8175Z" fill="#E4D630"/>
<path d="M125.732 39.3959C126.95 30.2511 130.832 3.31837 131.098 0C128.625 4.86179 126.646 15.6658 125.732 19.4858C124.819 23.1514 117.664 39.7432 115.457 48.0777C117.74 43.486 123.144 32.1804 123.905 32.0261C124.781 31.8332 120.48 42.4056 118.273 49.6211C118.539 49.1195 122.688 40.3992 123.411 39.7818C124.172 39.1258 122.764 46.2256 123.03 49.6597C123.03 49.6597 124.59 43.8333 125.77 39.4345L125.732 39.3959Z" fill="#213820"/>
<path d="M116.865 70.4574C116.751 70.7275 114.201 77.7886 112.754 82.226C114.962 78.2902 116.941 74.3931 118.197 71.4992C122.003 62.9717 124.514 48.5793 125.58 39.9747C125.58 39.7818 125.618 39.5888 125.656 39.3959C124.514 43.7947 122.916 49.6211 122.916 49.6211C122.65 46.187 124.058 39.0872 123.297 39.7432C122.573 40.3991 118.425 49.0809 118.159 49.5825C120.366 42.367 124.667 31.7945 123.791 31.9875C123.068 32.1804 117.626 43.4474 115.342 48.0391C115.266 48.4249 115.152 48.7722 115.076 49.1195C113.782 54.9459 109.481 64.6695 106.551 70.6503C106.17 73.8915 104.572 78.5989 102.745 83.1134C105.523 80.1809 112.602 66.483 115.114 60.4251C115.038 61.6598 111.993 70.4188 109.481 76.2452C109.71 75.8979 109.938 75.5507 110.128 75.2806C109.9 76.0523 103.659 88.554 99.2439 97.5059C101.185 94.8435 114.619 74.7018 116.789 70.3802L116.865 70.4574Z" fill="#E4D630"/>
<path d="M115.228 60.5022C112.716 66.5601 105.637 80.2195 102.859 83.1906C100.195 89.7501 96.9222 96.1939 97.0745 96.6955C97.3789 97.583 105.98 81.9558 109.557 76.3609C112.069 70.4959 115.152 61.7755 115.19 60.5408L115.228 60.5022Z" fill="#80BA27"/>
<path d="M87.9025 118.034C89.539 116.722 98.1021 105.918 101.033 101.519C103.05 98.4707 108.454 90.059 112.792 82.2647C114.201 77.8274 116.788 70.7662 116.903 70.4961C114.733 74.7791 101.299 94.9594 99.358 97.6218C103.773 88.6699 110.014 76.1682 110.243 75.3965C110.052 75.6666 109.824 75.9753 109.596 76.3611C106.018 81.9174 97.379 97.5446 97.1126 96.6957C96.9603 96.2327 100.233 89.7889 102.897 83.1908C104.724 78.7148 106.323 73.9688 106.703 70.7276C105.523 73.0813 104.61 74.972 104.115 75.9753C102.517 79.6409 96.77 90.6764 94.753 97.8533C93.0023 104.104 88.892 113.442 87.8264 116.181C88.7398 114.985 89.3107 114.214 89.4249 114.098C89.4629 114.831 88.854 116.297 87.9025 118.072V118.034Z" fill="#213820"/>
<path d="M124.248 86.1231C124.058 86.3546 123.829 86.6247 123.639 86.8948C123.639 86.8948 125.276 83.5764 126.417 81.1069C124.324 83.615 119.339 90.7533 117.436 93.1842C115.609 95.538 110.014 101.982 106.894 104.914C105.6 106.651 104.115 108.426 102.631 109.93C103.088 110.201 105.828 108.426 107.464 107.538C113.896 101.712 120.899 91.7952 124.248 86.1231Z" fill="#80BA27"/>
<path d="M126.379 81.0685C126.95 79.8724 127.407 78.8692 127.521 78.6762C127.863 77.9817 127.102 77.2486 124.514 79.911C126.151 75.5508 133.458 60.8882 134.485 57.377C132.545 58.9976 122.459 78.9463 120.328 82.0332C119.795 82.8049 119.034 84.0396 118.121 85.4673C115.457 89.7503 111.765 95.7311 111.118 97.6989C110.585 99.3195 108.911 102.098 106.817 104.914C109.938 101.943 115.533 95.5382 117.359 93.1844C119.262 90.7535 124.248 83.6152 126.341 81.1071L126.379 81.0685Z" fill="#E4D630"/>
<path d="M101.68 116.22C105.181 113.172 110.014 109.275 110.661 108.349C108.111 109.545 97.8357 117.03 96.7321 116.259C102.707 112.091 107.084 108.503 108.073 107.191C107.883 107.268 107.693 107.384 107.464 107.5C105.828 108.349 103.088 110.162 102.631 109.892C104.115 108.387 105.6 106.651 106.894 104.876C108.987 102.059 110.661 99.2809 111.194 97.6603C111.841 95.6924 115.533 89.7117 118.197 85.4287C119.072 84.001 119.871 82.7662 120.404 81.9945C122.535 78.9077 132.621 58.9589 134.562 57.3383C133.534 60.8496 126.227 75.5507 124.59 79.8723C127.178 77.2099 127.902 77.943 127.597 78.6376C127.483 78.8691 127.026 79.8337 126.455 81.0299C125.314 83.4994 123.677 86.8177 123.677 86.8177C123.905 86.5476 124.096 86.3161 124.286 86.046C127.255 82.3032 128.396 78.9077 129.081 79.9881C129.462 80.6054 129.272 82.4961 129.005 84.1167C130.185 81.3 131.174 78.7919 131.974 76.8626C135.665 68.258 140.232 43.8719 138.025 39.4346C138.177 45.8012 127.863 67.0619 124.438 73.1198C122.535 76.5154 119.909 80.837 117.512 84.6569C115.647 87.628 113.858 90.3676 112.602 92.2583C109.71 96.5413 102.669 108.657 98.9394 112.284C95.8948 115.255 89.5011 118.96 86.5325 120.58C85.6953 122.008 84.8199 123.474 83.9827 124.863C84.7819 124.593 85.543 124.362 86.2661 124.13C92.3173 122.085 96.1231 119.808 101.756 116.22H101.68Z" fill="#213820"/>
<path d="M110.661 108.348C110.014 109.274 105.219 113.172 101.679 116.22C103.849 114.831 106.323 113.249 109.291 111.474C118.425 105.995 124.895 93.8016 128.967 84.1552C129.233 82.5732 129.424 80.6439 129.043 80.0265C128.358 78.9461 127.216 82.3417 124.248 86.0845C120.899 91.7566 113.896 101.673 107.464 107.5C107.693 107.384 107.921 107.268 108.073 107.191C107.084 108.464 102.745 112.091 96.7319 116.258C97.8356 117.03 108.111 109.545 110.661 108.348Z" fill="#E4D630"/>
<path d="M130.908 103.139C136.046 95.0364 142.211 79.7565 143.01 73.5828C142.363 73.9686 134.638 89.5958 131.669 94.419C131.251 95.1135 130.68 95.8853 129.995 96.7727C132.24 94.8049 134.409 92.8756 134.676 92.9142C135.285 92.9913 131.555 97.4673 129.69 100.323C129.88 100.13 133.153 96.7341 133.534 96.5026C133.839 96.3097 132.088 100.245 130.908 103.178V103.139Z" fill="#213820"/>
<path d="M125.999 127.371C126.95 123.976 128.13 112.516 128.777 110.162C126.113 113.249 123.905 125.249 120.1 131.153C122.155 129.879 124.134 128.606 125.999 127.333V127.371Z" fill="#213820"/>
<path d="M124.971 136.053C127.978 132.735 130.261 129.995 131.251 128.76C134.105 125.288 141.298 117.03 144 111.937C143.581 112.246 134.752 120.194 130.984 123.551C129.462 124.902 127.787 126.175 125.999 127.371C124.134 128.645 122.155 129.918 120.1 131.191C119.909 131.5 119.681 131.809 119.453 132.117C119.567 132.349 119.605 132.465 119.719 132.696C123.335 130.42 126.608 128.606 127.902 128.104C125.694 129.995 124.172 132.31 123.487 132.889C126.227 131.5 128.282 128.876 128.549 129.455C128.739 129.918 126.075 134.24 125.009 136.014L124.971 136.053Z" fill="#213820"/>
<path d="M104.153 125.866C110.471 122.432 119.909 112.824 123.334 108.387C121.926 109.313 111.651 117.069 107.997 119.5C103.887 123.204 100.081 126.677 100.005 127.217C99.8908 128.181 101.299 126.869 104.077 125.905L104.153 125.866Z" fill="#80BA27"/>
<path d="M109.139 125.056C107.693 125.828 103.735 127.256 101.261 127.989C96.2755 130.535 88.5497 134.51 88.1691 135.166C87.6363 136.014 94.4106 133.005 96.6941 133.159C101.642 131.037 106.741 127.603 109.139 125.056Z" fill="#80BA27"/>
<path d="M130.223 104.22C130.451 103.873 130.68 103.525 130.908 103.14C132.05 100.207 133.8 96.2713 133.534 96.4642C133.153 96.7343 129.88 100.091 129.69 100.284C131.555 97.4288 135.285 92.9529 134.676 92.8757C134.409 92.8757 132.24 94.7664 129.995 96.7343C126.836 100.709 121.394 106.033 117.359 109.931C115.723 112.516 111.765 116.066 108.111 119.384C111.727 116.992 122.002 109.197 123.449 108.271C119.985 112.709 110.585 122.317 104.267 125.751C104.724 125.596 105.181 125.442 105.714 125.326C105.143 125.905 103.468 126.793 101.413 127.834C103.887 127.101 107.807 125.674 109.291 124.902C106.893 127.448 101.794 130.883 96.8462 133.005C96.9223 133.005 96.9984 133.005 97.0745 133.005C94.7911 134.432 79.644 140.761 74.6204 142.806C74.3159 143.269 73.9734 143.732 73.6309 144.233C78.1217 142.96 91.5561 138.407 103.05 132.349C115.533 125.789 125.161 111.937 130.375 104.027L130.223 104.22Z" fill="#E4D630"/>
<path d="M96.6941 133.159C94.4487 133.043 87.6363 136.014 88.1691 135.165C88.5497 134.548 96.2754 130.535 101.261 127.988C103.354 126.908 104.991 126.021 105.562 125.48C105.067 125.596 104.572 125.751 104.115 125.905C101.337 126.869 99.929 128.181 100.043 127.217C100.081 126.677 103.925 123.204 108.035 119.5C111.727 116.181 115.685 112.631 117.283 110.046C115.989 111.319 114.81 112.438 113.858 113.326C109.405 117.609 101.565 124.091 94.1822 128.027C88.0169 131.307 81.0903 135.32 78.0457 137.365C77.2465 138.638 76.5614 139.719 76.1047 140.452C75.6861 141.108 75.1152 141.956 74.4302 142.998C79.4538 140.953 94.6009 134.625 96.8844 133.198C96.8082 133.198 96.7321 133.198 96.656 133.198L96.6941 133.159Z" fill="#213820"/>
<path d="M109.862 139.371C108.111 140.645 106.589 141.841 105.523 142.767C100.538 146.896 92.1651 149.519 86.5706 152.105C87.2937 152.182 92.127 150.87 96.5037 149.674C99.3961 148.169 107.198 144.349 109.862 139.41V139.371Z" fill="#80BA27"/>
<path d="M76.7896 160.4C81.623 159.436 91.2897 155.963 92.2792 155.616C87.8264 156.117 74.8106 158.587 73.3644 157.699C82.4603 156.04 95.0194 151.526 100.005 148.863C100.233 148.748 100.424 148.632 100.614 148.516C99.358 148.863 97.9498 149.249 96.4656 149.674C92.0889 150.87 87.2555 152.22 86.5324 152.105C92.127 149.519 100.5 146.896 105.485 142.767C106.589 141.879 108.073 140.683 109.824 139.371C112.792 137.172 116.37 134.741 119.643 132.657C119.529 132.426 119.491 132.31 119.376 132.079C119.605 131.809 119.795 131.5 120.023 131.153C119.186 131.654 118.387 132.194 117.512 132.696C112.526 135.821 103.24 142.381 98.7491 145.043C94.2963 147.667 82.8408 151.796 78.2739 153.146C74.4681 154.265 67.2371 156.542 63.9641 157.622C63.3552 158.433 62.8224 159.166 62.2896 159.86C64.0402 160.285 67.9982 161.288 72.8696 162.175C76.409 162.831 80.5193 162.831 85.7332 161.404C82.27 161.288 76.9799 160.516 76.7516 160.362L76.7896 160.4Z" fill="#213820"/>
<path d="M96.3515 157.584C99.7767 155.423 104.153 152.452 105.6 150.445C102.174 152.529 96.1993 154.999 96.0471 154.227C95.8948 153.494 104.191 149.789 108.682 146.201C113.135 142.574 118.577 137.944 118.92 137.712C115.076 140.027 106.932 146.047 100.043 148.825C95.0195 151.487 82.4604 156.002 73.4026 157.661C74.8488 158.548 87.8646 156.079 92.3174 155.577C91.3279 155.963 81.6612 159.397 76.8278 160.362C77.0562 160.516 82.3462 161.288 85.8095 161.404C88.8922 160.555 92.3935 159.282 96.3896 157.584H96.3515Z" fill="#80BA27"/>
<path d="M96.3515 157.584C98.1021 156.812 99.9289 156.002 101.87 155.076C107.35 152.452 112.488 148.323 117.017 144.117C119.795 141.532 122.383 138.87 124.552 136.516C124.705 136.362 124.857 136.207 125.009 136.053C126.075 134.278 128.739 129.956 128.548 129.493C128.32 128.915 126.265 131.538 123.487 132.927C124.172 132.349 125.694 129.995 127.901 128.143C126.608 128.644 123.335 130.458 119.719 132.735C116.446 134.78 112.831 137.249 109.9 139.448C107.236 144.387 99.4342 148.207 96.5418 149.712C98.026 149.288 99.4342 148.902 100.69 148.555C100.5 148.67 100.271 148.786 100.081 148.902C106.97 146.124 115.114 140.104 118.958 137.789C118.615 138.021 113.173 142.651 108.72 146.278C104.268 149.905 95.9328 153.571 96.0851 154.304C96.2373 155.076 102.212 152.606 105.638 150.522C104.191 152.529 99.7767 155.5 96.3895 157.661L96.3515 157.584Z" fill="#E4D630"/>
<path d="M63.6217 178.729C67.6558 179.037 74.963 178.227 78.959 177.34C78.8829 177.34 78.3121 177.263 77.5128 177.224C76.6756 177.147 75.5719 177.108 74.4682 177.031C72.0325 176.877 69.5207 176.645 69.5207 176.645C69.5207 176.645 80.253 174.754 83.6402 172.555C82.3843 173.018 80.4433 173.25 78.2359 173.481C76.0286 173.713 73.5548 173.944 71.1191 174.407C71.8422 174.214 83.4118 170.703 94.5628 165.648C96.5037 164.761 98.4827 163.835 100.386 162.909C110.357 158.008 115.228 152.915 118.539 148.709C119.643 147.32 120.556 146.008 121.356 144.928C122.041 144.002 122.573 143.076 122.992 142.188C124.058 140.027 124.4 138.098 124.514 136.825C124.514 136.748 124.514 136.632 124.514 136.555C122.307 138.947 119.757 141.571 116.979 144.156C116.522 147.552 115.609 150.831 106.17 158.008C102.327 160.941 98.4066 163.14 94.4106 164.954C88.2071 167.77 81.3948 169.777 75.3435 171.205C66.5522 173.288 55.3631 173.365 51.4812 173.25C50.9865 173.79 50.6439 174.176 50.4156 174.446C50.3014 174.6 50.0731 174.793 49.8447 175.102C52.2424 175.989 59.3212 178.343 63.1269 178.729C63.2792 178.729 63.4695 178.729 63.6217 178.767V178.729Z" fill="#213820"/>
<path d="M113.249 158.047C115.266 156.388 117.664 154.458 117.968 154.728C118.539 155.153 116.37 157.815 114.315 159.86C114.048 159.976 115.913 159.32 117.055 158.78C120.937 153.069 122.612 145.506 122.992 142.149C122.573 143.037 122.003 143.963 121.356 144.889C120.556 145.969 119.643 147.281 118.539 148.67C118.045 150.561 115.114 154.728 112.374 158.008C111.651 158.857 110.928 159.667 110.281 160.362C110.471 160.362 111.765 159.281 113.211 158.085L113.249 158.047Z" fill="#80BA27"/>
<path d="M77.5129 177.224C81.3948 176.491 92.5458 173.481 94.1062 172.748C91.8608 174.137 89.1206 176.028 86.9894 177.301C97.7217 173.905 106.399 169.005 113.402 162.947C114.772 161.751 115.989 160.323 117.055 158.78C115.913 159.32 114.049 159.976 114.315 159.86C116.37 157.815 118.539 155.191 117.968 154.728C117.626 154.458 115.266 156.388 113.249 158.047C111.499 159.86 108.34 162.484 102.707 165.571C93.1547 170.78 86.5707 172.555 85.9618 172.709C89.4251 172.362 92.7742 171.282 93.992 171.05C91.4802 172.555 78.6927 176.838 74.5063 177.031C75.61 177.108 76.7137 177.185 77.551 177.224H77.5129Z" fill="#E4D630"/>
<path d="M96.1232 166.999C99.7387 165.378 108.188 161.211 112.412 157.97C115.152 154.728 118.045 150.523 118.577 148.632C115.266 152.838 110.395 157.931 100.424 162.831C98.4828 163.796 96.5419 164.683 94.6009 165.571C83.4499 170.626 71.8803 174.137 71.1572 174.33C73.5929 173.867 76.0667 173.635 78.2741 173.404C82.194 172.053 92.3555 168.658 96.1613 166.96L96.1232 166.999Z" fill="#E4D630"/>
<path d="M86.9893 177.301C89.1205 176.028 91.8607 174.137 94.1061 172.748C92.5838 173.443 81.3948 176.491 77.5128 177.224C78.3121 177.301 78.8829 177.34 78.9591 177.34C74.963 178.227 67.6178 179.038 63.6217 178.729C63.4695 178.729 63.2792 178.729 63.127 178.69C67.2372 179.886 74.1638 180.89 83.4499 178.343C84.6677 178.034 85.8475 177.648 86.9893 177.301Z" fill="#80BA27"/>
<path d="M74.4683 176.992C78.6546 176.8 91.4421 172.517 93.9539 171.012C92.7361 171.243 89.387 172.324 85.9237 172.671C86.5326 172.517 93.1166 170.742 102.669 165.533C108.302 162.446 111.461 159.822 113.211 158.008C111.765 159.204 110.471 160.285 110.281 160.285C110.928 159.629 111.651 158.819 112.374 157.931C108.15 161.172 99.7007 165.34 96.0852 166.96C92.2794 168.658 82.1179 172.053 78.1979 173.404C80.4053 173.172 82.3843 172.941 83.6022 172.478C80.215 174.716 69.4827 176.568 69.4827 176.568C69.4827 176.568 71.9945 176.8 74.4302 176.954L74.4683 176.992Z" fill="#80BA27"/>
<path d="M67.8079 190.227C69.7869 190.227 72.2607 190.381 73.9352 191.076C73.8591 191.037 73.8211 190.96 73.7449 190.922C73.098 190.343 72.2607 189.88 71.3092 189.494C68.9116 188.529 65.5625 188.066 61.4142 187.603C64.5349 187.102 70.0533 187.41 73.5546 187.758C74.0494 187.796 74.5061 187.835 74.8867 187.912C74.468 187.603 73.9352 187.333 73.2121 187.102C72.9457 187.102 72.6793 187.025 72.4129 186.986C72.6413 186.986 72.8316 187.025 73.0599 187.063C70.2056 186.214 65.22 186.176 59.2449 186.214C61.4142 185.79 67.6176 185.597 72.8696 185.134C74.5442 184.979 76.1045 184.825 77.3604 184.671C71.8801 184.285 66.552 183.976 63.1648 183.783C56.9614 183.397 45.3157 183.436 41.9666 183.359C41.1293 184.131 40.3681 184.864 39.6831 185.443C43.3367 186.33 51.7094 187.642 55.5533 188.182C58.3315 188.568 63.4312 189.147 67.7698 190.266L67.8079 190.227Z" fill="#213820"/>
<path d="M73.098 187.024C77.6269 187.449 84.3251 187.989 85.5049 188.761C84.3631 187.179 77.6649 185.713 72.9077 185.095C67.6557 185.558 61.4523 185.751 59.283 186.176C65.2961 186.176 70.2436 186.176 73.098 187.024Z" fill="#80BA27"/>
<path d="M73.5929 187.719C70.0916 187.372 64.5351 187.063 61.4524 187.565C65.6007 188.028 68.9498 188.491 71.3475 189.455C74.2399 189.841 80.2911 191.037 82.6507 192.735C85.6192 194.896 91.5182 199.565 91.4801 199.218C90.1861 196.825 83.0312 190.034 73.6309 187.68L73.5929 187.719Z" fill="#E4D630"/>
<path d="M73.9354 191.076C72.2609 190.382 69.7871 190.227 67.8081 190.227C70.2438 190.845 72.4512 191.616 73.7832 192.697C74.0115 192.89 74.2779 193.083 74.5824 193.276C76.7137 193.97 79.2635 194.703 81.509 195.784C82.5365 196.285 84.4394 197.481 86.4945 199.218C87.5221 199.411 88.8922 199.797 90.1862 200.491C88.5877 197.597 78.1979 192.658 73.7451 190.845C73.8212 190.883 73.8593 190.96 73.9354 190.999V191.076Z" fill="#E4D630"/>
<path d="M94.8291 202.69C94.8291 202.69 95.1336 202.729 95.2858 202.806C93.6874 199.372 86.5325 188.877 73.2503 187.063C73.9353 187.295 74.5062 187.565 74.9248 187.874C74.5443 187.835 74.0876 187.758 73.5928 187.719C82.9931 190.073 90.1861 196.825 91.442 199.256C91.442 199.604 85.5811 194.896 82.6125 192.774C80.2529 191.076 74.2017 189.88 71.3093 189.494C72.2608 189.88 73.098 190.343 73.745 190.922C78.1598 192.735 88.5496 197.674 90.1861 200.568C88.8921 199.835 87.522 199.488 86.4944 199.295C91.5942 203.501 97.8357 211.141 99.7386 216.62C100.081 213.957 97.9499 206.356 94.8291 202.729V202.69Z" fill="#80BA27"/>
<path d="M90.3763 192.581C91.4419 192.504 94.144 194.317 95.7805 195.436C93.9157 192.542 91.9747 190.189 90.5666 188.568C88.5115 186.176 83.2595 185.095 77.3986 184.671C76.1426 184.825 74.5823 184.98 72.9077 185.134C77.665 185.751 84.4012 187.218 85.5049 188.8C84.3251 188.028 77.6269 187.449 73.098 187.063C73.1361 187.063 73.2122 187.063 73.2502 187.063C86.5325 188.877 93.6873 199.372 95.2858 202.806C95.7425 202.96 96.1611 203.231 96.5797 203.578C96.0089 200.838 93.0023 194.394 90.3763 192.542V192.581Z" fill="#E4D630"/>
<path d="M95.7807 195.398C94.1442 194.279 91.404 192.465 90.3765 192.542C93.0025 194.395 96.009 200.8 96.5799 203.578C98.7873 205.584 100.272 210.523 100.919 213.147C101.185 210.871 99.282 204.465 98.7492 200.645C97.8358 198.755 96.8083 197.018 95.8187 195.436L95.7807 195.398Z" fill="#80BA27"/>
<path d="M98.711 200.645C99.2438 204.465 101.147 210.87 100.88 213.147C100.233 210.562 98.749 205.584 96.5417 203.578C96.123 203.192 95.7044 202.922 95.2477 202.806C95.0955 202.767 94.9432 202.729 94.791 202.69C97.8737 206.317 100.043 213.919 99.7005 216.581C97.7976 211.102 91.5561 203.462 86.4563 199.256C84.3631 197.52 82.4983 196.324 81.4707 195.822C79.2253 194.703 76.7135 194.009 74.5442 193.314C78.9589 196.362 88.892 201.919 91.8605 207.089C95.0194 212.607 98.3304 219.552 99.2057 224.916C100.081 230.279 101.071 234.986 101.908 238.228C103.544 231.398 103.278 226.729 102.821 215.539C102.593 210.407 100.918 205.16 98.711 200.684V200.645Z" fill="#213820"/>
<path d="M60.1583 205.816C60.9195 205.199 73.5167 209.404 78.7687 213.572C75.5718 206.433 62.7463 203.462 58.5599 202.189C51.1767 201.456 43.5651 200.568 43.6412 200.916C43.8315 201.533 57.2279 203.462 58.8263 206.819C53.1176 204.62 40.3302 201.494 38.4653 201.34C36.6385 201.147 44.7449 203.578 48.9693 205.121C50.4916 205.662 53.4221 207.051 56.7331 208.787C56.8853 207.051 62.6701 209.597 66.2095 211.295C66.3998 211.256 59.3591 206.433 60.1203 205.816H60.1583Z" fill="#80BA27"/>
<path d="M79.1112 220.092C81.7753 220.671 85.5811 225.109 86.19 226.266C85.543 222.678 80.9761 215.771 80.3291 215.153C83.9827 216.62 88.778 225.687 89.9958 232.054C90.2242 228.543 86.799 217.083 84.3252 211.372C83.1454 209.983 81.7372 208.71 80.0627 207.591C77.0561 205.584 73.3645 204.272 69.7871 203.308C67.3514 203.115 62.9747 202.69 58.56 202.266C62.7463 203.539 75.5719 206.51 78.7687 213.649C73.5167 209.481 60.9196 205.276 60.1584 205.893C59.3972 206.51 66.438 211.333 66.2477 211.372C62.6702 209.674 56.8854 207.128 56.7712 208.864C62.7463 211.989 70.0154 216.465 71.6519 218.202C74.2018 220.903 85.6953 229.932 88.4354 239.771C89.1205 236.453 84.0968 223.758 79.1112 220.17V220.092Z" fill="#E4D630"/>
<path d="M84.2871 211.333C86.7228 217.083 90.1861 228.504 89.9577 232.015C88.7779 225.687 83.9826 216.62 80.291 215.115C80.938 215.732 85.543 222.639 86.1519 226.228C85.543 225.07 81.7372 220.633 79.0731 220.054C84.0207 223.681 89.0443 236.337 88.3973 239.655C85.6191 229.816 74.1256 220.787 71.6138 218.086C69.9773 216.35 62.7082 211.874 56.7331 208.748C53.4221 207.012 50.4536 205.623 48.9693 205.083C44.7449 203.539 36.6386 201.147 38.4653 201.301C40.3302 201.494 53.1176 204.62 58.8263 206.78C57.2279 203.423 43.8315 201.456 43.6412 200.877C43.527 200.529 51.1386 201.417 58.5599 202.15C62.9746 202.575 67.3894 202.999 69.787 203.192C62.0232 201.031 54.2213 200.375 47.5992 198.947C38.5414 197.018 25.6018 197.018 21.5296 196.632C19.8931 197.481 18.2185 198.33 16.582 199.14C18.4849 199.565 24.2697 200.414 29.7501 201.185C35.8774 202.034 47.447 205.43 56.3906 209.713C56.5429 209.79 56.657 209.867 56.8093 209.906C65.7909 214.15 79.3396 227.154 82.27 230.896C85.2385 234.716 88.5115 245.405 91.48 251.077C91.48 250.266 92.8501 243.205 91.8606 234.369C91.0614 227.076 89.9577 217.893 84.3251 211.256L84.2871 211.333Z" fill="#213820"/>
<path d="M33.4418 222.871C33.1754 222.485 32.6045 221.867 31.8433 221.134C29.2554 218.665 24.4982 214.999 24.5743 214.498C24.6884 213.88 28.8368 215.424 31.9956 217.237C30.5874 214.691 21.3394 211.102 21.4535 210.562C21.5296 210.099 31.5008 213.224 36.22 214.652C30.93 211.99 24.9548 209.867 21.4155 208.671C16.6202 207.051 7.52432 205.893 3.68047 205.353C2.50067 205.893 1.32088 206.472 0.103027 207.051C3.68047 208.362 14.4509 211.912 19.8932 214.189C23.9273 215.848 29.9404 220.594 34.4693 225.456C34.3552 224.839 34.0888 223.874 33.4037 222.832L33.4418 222.871Z" fill="#213820"/>
<path d="M37.0191 216.774C36.8669 216.195 38.1228 216.774 43.527 219.089C41.51 217.546 38.9601 216.041 36.2199 214.691C31.4627 213.263 21.5296 210.138 21.4534 210.601C21.3393 211.179 30.5873 214.768 31.9955 217.276C28.8367 215.501 24.6503 213.919 24.5742 214.536C24.4981 215.038 29.2173 218.704 31.8433 221.173C31.1582 219.244 35.4968 222.987 38.3892 225.224C37.9325 224.491 33.1372 219.205 33.4797 218.819C33.8223 218.433 41.2816 224.221 45.7344 229.546C44.2121 224.916 37.2094 217.469 37.0572 216.813L37.0191 216.774Z" fill="#80BA27"/>
<path d="M55.325 249.418C55.363 248.877 49.1215 239.27 48.8932 238.035C50.3394 238.575 59.321 252.505 59.0166 250.845C58.7121 249.225 51.0625 238.266 49.8446 232.556C51.2528 233.675 56.6951 243.9 56.8092 242.897C56.8853 242.086 54.5257 235.334 53.7265 231.938C51.1766 227.192 48.0178 222.871 44.821 220.093C44.4404 219.745 43.9837 219.398 43.527 219.051C38.1228 216.736 36.8669 216.157 37.0191 216.736C37.1713 217.392 44.174 224.877 45.6963 229.469C41.2435 224.144 33.7842 218.356 33.4416 218.742C33.0991 219.128 37.8944 224.414 38.3511 225.147C35.4587 222.871 31.1201 219.167 31.8052 221.096C32.5663 221.829 33.1752 222.446 33.4036 222.832C34.0886 223.874 34.355 224.839 34.4692 225.456C36.943 228.118 39.0362 230.858 40.254 232.903C41.4338 234.871 43.3748 237.572 45.6963 240.543C44.9351 237.61 44.4023 234.176 44.4023 234.176C46.6097 238.537 55.2488 249.919 55.325 249.379V249.418Z" fill="#E4D630"/>
<path d="M58.2173 242.588C57.2278 239.347 55.6294 235.527 53.6885 231.977C54.4877 235.372 56.8853 242.125 56.7711 242.935C56.657 243.938 51.2527 233.675 49.8065 232.594C51.0244 238.343 58.636 249.263 58.9785 250.884C59.283 252.504 50.3013 238.614 48.8551 238.073C49.0454 239.308 55.3249 248.916 55.2869 249.456C55.2488 249.996 46.5716 238.614 44.3643 234.253C44.3643 234.253 44.8971 237.687 45.6582 240.62C50.111 246.408 55.7436 253.971 59.0927 256.903C64.1544 261.379 64.7633 263.849 69.9392 266.55C67.3512 263.771 60.5389 250.189 58.2173 242.588Z" fill="#213820"/>
<path d="M39.4929 242.974C37.8183 241.006 35.7252 238.266 33.5178 235.565C35.649 239.038 39.2646 244.016 39.3026 244.286C39.3407 244.672 35.1924 241.237 33.0611 240.581C36.3341 244.209 47.409 253.122 47.7515 254.549C48.094 255.977 37.7803 246.408 35.3826 244.71C36.7147 246.369 40.7488 250.961 43.3368 253.431C43.1845 253.701 42.6517 253.431 41.8525 252.89C38.8459 250.691 31.9574 243.784 29.7501 241.237C26.9718 238.073 17.0387 229.276 13.9941 226.691C13.5755 226.343 13.0426 225.996 12.4718 225.61C9.92189 224.028 6.00194 222.292 3.60429 221.096C2.42449 220.517 1.62527 220.093 1.58721 219.861C1.51109 219.089 10.4928 222.099 12.7762 223.025C11.7487 221.906 0.940224 218.047 0.711876 217.314C0.559645 216.774 9.35103 219.051 14.8694 221.559C16.9246 222.485 18.7513 223.449 19.9692 224.183C18.8655 221.983 9.35102 217.584 4.17515 215.617C-2.0283 214.189 -9.67793 213.572 -13.7121 213.533C-15.7672 214.498 -17.7462 215.385 -19.573 216.157C-16.2239 216.581 -8.2698 217.662 -4.464 219.051C-2.78946 219.668 -0.201513 220.748 2.61477 222.099C8.019 224.684 13.956 228.35 17.4193 231.9C22.7094 237.302 29.2934 243.475 32.985 247.45C34.7357 249.302 37.7042 251.578 40.9391 253.932C44.5927 256.595 48.5507 259.373 51.405 261.148C56.7331 264.505 63.5455 267.476 66.9707 267.051C57.4182 263.308 43.6793 247.913 39.4929 242.974Z" fill="#213820"/>
<path d="M14.9456 221.597C9.46529 219.089 0.635844 216.813 0.788076 217.353C1.01642 218.125 11.8249 221.983 12.8524 223.064C10.5309 222.176 1.54923 219.128 1.66341 219.9C1.66341 220.131 2.46262 220.555 3.68047 221.134C6.07812 222.292 9.99809 224.028 12.548 225.649C14.6412 226.305 18.1425 227.655 20.1976 228.62C19.9693 228.466 16.506 226.073 16.5441 225.147C16.5441 224.182 27.6189 233.52 30.7777 236.993C26.0205 229.662 18.6753 223.951 14.9837 221.597H14.9456Z" fill="#80BA27"/>
<path d="M43.3367 253.469C40.7488 250.961 36.7146 246.369 35.3826 244.749C37.8183 246.447 48.132 255.977 47.7514 254.588C47.4089 253.161 36.296 244.286 33.0611 240.62C35.1543 241.276 39.3406 244.672 39.3026 244.324C39.3026 244.054 35.649 239.077 33.5178 235.604C30.1687 231.514 26.5912 227.424 24.0413 225.224C19.8169 221.559 14.0702 218.433 6.42052 216.311C5.73548 216.118 5.01238 215.925 4.25122 215.771C9.4271 217.7 18.9416 222.099 20.0453 224.337C18.8274 223.604 17.0006 222.639 14.9455 221.713C18.6371 224.067 25.9823 229.778 30.7395 237.109C27.5427 233.636 16.5439 224.26 16.5059 225.263C16.5059 226.228 19.9691 228.581 20.1594 228.736C18.1043 227.771 14.641 226.421 12.5098 225.765C13.1187 226.151 13.6135 226.498 14.0321 226.845C17.0387 229.43 27.0099 238.228 29.7881 241.392C31.9954 243.9 38.8839 250.807 41.8905 253.045C42.6517 253.624 43.1845 253.855 43.3748 253.585L43.3367 253.469Z" fill="#E4D630"/>
<path d="M25.4116 266.55C26.2108 264.003 25.5258 258.794 25.2594 256.826C24.993 254.858 21.6058 248.53 21.3013 246.061C23.0139 248.106 28.6085 257.328 27.5809 266.588C29.1793 264.813 28.1137 258.408 27.7331 256.093C27.3906 254.048 23.0139 244.209 22.367 241.16C19.4365 237.842 14.8315 234.485 8.28554 231.707C7.63855 232.131 6.99157 232.864 7.6005 233.713C8.51389 234.987 18.4851 242.279 19.1701 245.598C15.3262 240.581 8.01913 236.298 7.63855 236.53C7.25797 236.8 9.61756 238.922 9.7698 239.54C8.62806 238.729 6.80127 237.88 5.31701 237.302C5.54536 237.533 5.73565 237.765 5.92594 238.035C2.46267 236.53 0.750067 235.488 0.864241 236.337C0.978415 237.186 6.87739 239.771 8.81835 241.546C9.69368 242.318 11.3682 243.977 12.8525 245.752C14.7173 247.99 16.5061 250.421 17.1911 251.501C18.4089 253.469 22.2147 260.8 22.405 260.337C22.5573 259.874 18.4089 249.765 17.8381 247.99C19.6649 250.884 22.1006 255.514 23.0901 257.521C24.0796 259.527 25.3735 266.511 25.3735 266.511L25.4116 266.55Z" fill="#E4D630"/>
<path d="M7.60043 233.713C6.9915 232.864 7.60043 232.131 8.28547 231.707C7.21985 231.244 6.15422 230.819 5.05054 230.395C0.940287 229.777 -4.92064 228.543 -4.80646 228.813C-4.69229 229.16 4.25133 232.478 5.65947 233.327C1.81562 232.787 -22.275 225.109 -20.905 227.154C-19.5729 229.121 -0.125334 231.668 5.39306 237.302C6.87733 237.88 8.70411 238.729 9.84585 239.54C9.69362 238.922 7.29596 236.761 7.7146 236.53C8.09518 236.26 15.3642 240.543 19.2462 245.598C18.5992 242.279 8.58994 234.986 7.67655 233.713H7.60043Z" fill="#80BA27"/>
<path d="M22.3668 241.16C23.0138 244.209 27.3904 254.048 27.733 256.093C28.1135 258.408 29.1792 264.813 27.5807 266.588C28.6083 257.328 23.0138 248.106 21.3012 246.061C21.6056 248.53 24.9928 254.858 25.2592 256.826C25.5256 258.794 26.2487 264.003 25.4114 266.55C25.4114 266.55 24.1175 259.527 23.128 257.559C22.1385 255.553 19.7028 250.923 17.876 248.029C18.4088 249.804 22.5951 259.913 22.4429 260.376C22.2907 260.839 18.4849 253.508 17.229 251.54C16.5439 250.459 14.7552 248.029 12.8904 245.791C11.4061 244.016 9.69352 242.357 8.85624 241.585C6.91529 239.81 1.05437 237.225 0.902134 236.376C0.78796 235.527 2.50058 236.569 5.96384 238.073C5.77356 237.842 5.58327 237.572 5.35492 237.34C-0.163479 231.707 -19.6111 229.122 -20.9431 227.192C-22.3132 225.147 1.81553 232.826 5.62132 233.366C4.21318 232.479 -4.76849 229.199 -4.8446 228.852C-4.92072 228.581 0.940201 229.816 5.0124 230.434C1.32078 229.006 -2.63725 227.771 -6.4811 226.614C-17.6701 223.257 -28.5928 223.102 -33.5022 222.369C-34.6059 222.871 -35.7476 223.372 -36.8513 223.874C-31.7516 225.726 -11.657 232.671 -6.82362 234.176C-1.6858 235.797 8.81818 242.279 12.2434 246.254C15.6686 250.228 20.6542 259.913 22.2907 264.003C23.9272 268.093 25.1831 272.646 26.0584 276.813C27.9613 274.344 30.0545 271.373 30.5873 266.125C31.1582 260.878 27.2763 246.832 22.3288 241.238L22.3668 241.16Z" fill="#213820"/>
<path d="M9.6936 263.81C8.74216 262.305 8.01905 260.067 7.56236 258.678C4.02297 254.665 -1.03874 250.807 -3.85502 248.723C-4.92064 247.951 -6.02432 247.218 -7.16606 246.408C-10.0585 245.212 -14.9679 243.205 -18.1648 242.395C-16.7567 243.167 -15.5388 243.9 -14.9299 244.594C-15.2343 244.44 -15.6149 244.247 -16.0716 244.054C-11.5427 246.794 1.73949 255.668 4.70801 260.8C2.23425 258.794 -14.2829 246.601 -14.2829 247.295C-14.2829 247.99 -11.4285 251.733 -11.3144 252.003C-14.8538 249.649 -18.7737 246.871 -21.3236 245.096C-22.7317 244.363 -24.6346 243.553 -26.4614 242.742C-22.4273 245.173 -16.9469 249.148 -14.8918 252.35C-12.0375 254.55 -6.97577 259.025 -4.65424 260.415C-1.83795 262.112 0.711929 264.119 3.14764 265.045C3.14764 264.659 -0.734266 262.421 -0.353687 261.032C0.141068 262.035 5.20277 264.659 7.67654 267.128C7.94294 267.013 5.43111 263.347 3.68044 261.456C3.83268 261.534 3.98492 261.611 4.13715 261.688C13.1569 266.588 12.3957 272.762 13.4613 277.855C14.4128 273.727 11.1398 265.971 9.73166 263.771L9.6936 263.81Z" fill="#E4D630"/>
<path d="M-16.0336 244.093C-20.0677 242.279 -30.1911 238.459 -32.094 238.421C-34.2252 238.421 -19.9916 244.286 -19.3446 246.254C-19.7632 245.945 -20.4483 245.559 -21.2475 245.135C-18.7357 246.948 -14.7776 249.726 -11.2383 252.041C-11.3524 251.771 -14.2068 248.028 -14.2068 247.334C-14.2068 246.639 2.31036 258.832 4.78413 260.839C1.81561 255.668 -11.4285 246.832 -15.9955 244.093H-16.0336Z" fill="#80BA27"/>
<path d="M7.60039 258.678C8.05708 260.067 8.78017 262.305 9.73162 263.81C11.1398 266.009 14.4127 273.765 13.4613 277.894C12.3957 272.801 13.1568 266.627 4.13712 261.726C3.98489 261.649 3.83265 261.572 3.68041 261.495C5.46914 263.424 7.94291 267.051 7.67651 267.167C5.20274 264.698 0.141033 262.074 -0.353718 261.071C-0.734299 262.46 3.10955 264.659 3.1476 265.083C0.711895 264.196 -1.83798 262.151 -4.65427 260.453C-6.9758 259.064 -12.0375 254.588 -14.8919 252.389C-15.5008 251.926 -15.9575 251.578 -16.2619 251.424C-16.947 251.038 -17.9365 250.344 -19.0782 249.533C-20.7528 248.337 -22.6557 246.678 -23.9496 245.829C-26.157 244.402 -34.5678 239.617 -33.5022 239.887C-32.9313 240.003 -29.7344 241.353 -26.4615 242.742C-24.5966 243.553 -22.7318 244.363 -21.3236 245.096C-20.4864 245.521 -19.8394 245.868 -19.4207 246.215C-20.0677 244.247 -34.2633 238.344 -32.1701 238.382C-30.2673 238.382 -20.1058 242.279 -16.1097 244.054C-15.653 244.247 -15.2344 244.44 -14.968 244.594C-15.5769 243.9 -16.7947 243.128 -18.2029 242.395C-22.199 240.234 -27.9457 238.035 -26.9943 237.842C-26.2712 237.688 -21.2856 239.27 -16.7567 240.852C-19.611 239.501 -22.8079 238.189 -26.4615 236.877C-35.2909 233.713 -47.0889 231.167 -51.2752 229.855C-52.4931 230.318 -53.6729 230.742 -54.7004 231.089C-49.4104 233.868 -28.783 243.553 -24.178 247.103C-23.1124 247.913 -21.7803 248.993 -20.3722 250.035C-15.2724 253.816 -9.33539 258.447 -5.71989 261.418C-1.11488 265.199 6.45864 269.251 9.27493 273.032C12.0912 276.813 11.7868 281.907 12.2434 285.109C15.2881 279.051 14.6792 273.457 13.6135 269.251C13.0807 267.128 11.0256 262.653 7.48621 258.678H7.60039Z" fill="#213820"/>
<path d="M25.4495 125.133C25.4495 125.133 25.145 122.394 25.2973 121.892C25.4495 121.352 26.439 121.39 27.4285 122.548C27.4285 120.696 25.8301 117.378 24.8025 116.181C24.5742 116.644 24.6883 117.609 25.107 119.191C22.519 116.104 17.6857 110.394 16.7342 110.046C15.8208 109.699 22.1765 117.107 21.6818 119.77C20.6923 117.956 17.9521 114.522 17.6096 114.252C17.3051 113.982 17.7999 116.259 19.0177 119.384C19.6266 120.927 21.1109 124.863 22.9757 129.3C22.7093 127.371 21.4534 121.776 21.6437 121.005C21.834 120.194 23.8891 122.432 25.4495 125.133Z" fill="#80BA27"/>
<path d="M45.4679 163.603C44.9351 159.667 44.0598 154.69 42.4233 148.863C43.6031 155.925 44.7068 167.886 42.6897 170.356C43.2225 162.87 40.3301 148.092 36.7146 143.346C36.7527 143.577 36.8288 143.847 36.9049 144.117C37.8944 147.86 40.0256 155.539 40.4443 160.979C38.6556 155.577 36.7907 150.87 34.5834 147.243C34.0506 146.394 33.5177 145.584 32.9469 144.812C34.2789 148.439 37.4758 158.355 36.8288 157.931C36.1818 157.507 30.6253 145.622 28.3419 141.146C28.2277 140.953 28.1135 140.722 27.9993 140.452C26.7815 137.944 24.8025 133.39 23.0518 129.262C21.187 124.824 19.7027 120.889 19.0938 119.345C17.8379 116.181 17.3431 113.905 17.6856 114.213C17.9901 114.484 20.7303 117.918 21.7578 119.731C22.2906 117.03 15.8969 109.66 16.8103 110.008C17.7237 110.355 22.5951 116.027 25.1831 119.152C24.7644 117.57 24.6502 116.606 24.8786 116.143C25.0689 115.757 25.4495 115.68 26.0584 115.873C22.3287 111.512 18.9796 108.503 16.8484 106.844C12.8904 103.795 5.01236 98.8949 2.23413 98.4319C2.69083 99.6666 7.41001 103.294 10.5308 106.419C13.6515 109.545 15.5925 113.673 17.3812 119.23C19.1699 124.747 23.1279 133.506 26.439 140.182C26.5531 140.413 26.6673 140.645 26.7815 140.915C30.2448 147.899 37.0952 163.603 38.9981 169.777C40.5965 174.909 40.4062 178.729 40.2921 180.388C41.586 179.114 42.88 177.764 44.1359 176.375C44.9732 173.944 46.3433 169.584 45.544 163.603H45.4679Z" fill="#213820"/>
<path d="M28.1897 129.301C30.0165 132.156 34.1267 144.851 34.5834 147.281C36.7908 150.87 38.6556 155.577 40.4443 161.018C40.0257 155.539 37.8564 147.937 36.905 144.156C34.6215 139.063 30.5493 131.539 28.1897 129.339V129.301Z" fill="#80BA27"/>
<path d="M42.4234 148.863C40.9011 143.346 38.6176 137.095 35.6491 130.69C32.8328 124.67 29.1793 119.577 25.9824 115.873C25.3735 115.68 24.9549 115.757 24.8026 116.143C25.7921 117.339 27.4286 120.657 27.4286 122.509C26.4391 121.39 25.4496 121.352 25.2974 121.853C25.1451 122.394 25.4496 125.095 25.4496 125.095C23.8892 122.394 21.8341 120.117 21.6438 120.966C21.4535 121.738 22.7094 127.333 22.9758 129.262C24.7265 133.391 26.7055 137.982 27.9234 140.452C28.0375 140.722 28.1517 140.953 28.2659 141.146C30.5113 145.622 36.1058 157.468 36.7528 157.931C37.3998 158.355 34.241 148.439 32.8709 144.812C33.4418 145.545 34.0126 146.355 34.5074 147.243C34.0507 144.812 29.9785 132.117 28.1137 129.262C30.4732 131.461 34.5454 139.024 36.8289 144.079C36.7528 143.809 36.6767 143.539 36.6386 143.307C40.2161 148.053 43.1085 162.831 42.6137 170.317C44.6308 167.848 43.5271 155.886 42.3473 148.825L42.4234 148.863Z" fill="#E4D630"/>
<path d="M19.4745 162.831C17.4194 158.471 13.7277 151.371 12.6621 150.214C14.4128 154.304 19.817 165.571 19.9312 170.857C20.9207 173.442 21.6057 176.028 21.9483 176.414C22.4811 176.992 21.7199 170.549 19.4364 162.831H19.4745Z" fill="#80BA27"/>
<path d="M14.527 167.307C14.527 167.307 18.7894 175.488 19.2842 176.375C19.7409 177.263 19.17 170.934 17.3813 165.88C17.3813 165.88 17.4194 165.918 17.4574 165.957C15.3262 161.79 10.0361 152.722 9.73165 151.796C9.99806 156.696 17.9141 169.854 17.3432 169.507C16.7724 169.198 10.3786 160.439 9.23691 158.548C8.09517 156.658 3.71851 149.828 3.71851 149.828C4.1752 151.372 4.78412 153.571 5.24081 155.192C7.71458 159.629 9.92195 163.565 10.7973 165.147C12.8524 168.774 18.2566 180.234 18.7514 180.812C19.2461 181.391 15.9732 172.324 14.527 167.23V167.307Z" fill="#80BA27"/>
<path d="M25.6779 171.282C25.2212 167.963 24.4981 164.838 23.6989 162.446C20.5401 153.185 16.3537 144.233 10.9876 138.098C8.9705 135.783 6.30645 132.079 3.87074 128.413C3.87074 129.841 9.35107 140.22 9.38913 142.42C7.48623 138.561 2.38648 131.191 0.864162 129.069C1.47309 130.612 1.96784 132.04 1.96784 132.889C1.77756 132.349 0.17912 129.571 -1.30514 127.024C-0.277575 130.419 4.36549 140.452 5.43112 143.654C4.02297 141.146 -0.0872874 134.124 -1.72378 131.191C-1.22903 132.966 -0.924566 134.471 -1.26709 135.088C-1.41932 134.239 -2.56106 131.153 -3.58862 128.259C-3.36028 131.5 1.24474 146.818 1.32085 148.015C1.32085 148.015 1.28279 148.015 1.24474 148.015C2.50065 150.368 3.87074 152.876 5.20276 155.23C4.74607 153.609 4.13714 151.41 3.68044 149.867C3.68044 149.867 8.0571 156.658 9.19884 158.587C10.3406 160.478 16.7343 169.237 17.3052 169.545C17.8761 169.854 9.96 156.735 9.6936 151.834C9.99806 152.761 15.2881 161.79 17.4194 165.995C18.2947 166.96 19.2081 168.928 19.9312 170.857C19.7789 165.532 14.4128 154.265 12.6621 150.214C13.7277 151.41 17.3813 158.471 19.4745 162.831C18.9417 161.056 18.3708 159.243 17.7238 157.468C19.4364 160.053 23.8511 172.246 24.9168 177.301C25.0309 177.07 25.6018 174.446 25.6779 171.282Z" fill="#E4D630"/>
<path d="M-3.55061 128.259C-4.73041 124.979 -5.68186 122.008 -5.87215 122.124C-6.32884 122.394 -4.92069 134.278 -2.78945 139.68C-2.06635 141.532 -0.544032 144.58 1.28275 148.053C1.28275 148.053 1.32081 148.053 1.35887 148.053C1.28275 146.818 -3.2842 131.539 -3.55061 128.297V128.259Z" fill="#80BA27"/>
<path d="M-4.46391 121.738C-4.99672 121.236 -2.90353 126.793 -1.68568 131.191C-0.467825 133.969 4.06107 141.146 5.46922 143.654C4.40359 140.49 -0.277533 130.42 -1.26704 127.024C-2.7513 124.439 -4.08333 122.085 -4.46391 121.699V121.738Z" fill="#80BA27"/>
<path d="M3.87079 128.413C2.91934 126.947 1.96789 125.519 1.13061 124.13C-0.467818 122.278 -1.91401 120.619 -2.44683 120.387C-3.32216 119.963 -0.848397 124.863 0.86421 129.069C2.38653 131.191 7.48628 138.561 9.38918 142.419C9.35112 140.182 3.87079 129.802 3.87079 128.413Z" fill="#80BA27"/>
<path d="M1.58732 193.469C1.85373 193.932 3.90885 186.485 4.28943 181.661C3.49021 175.372 0.483646 166.227 -5.37727 157.044C-6.93765 154.574 -8.45997 152.143 -9.90617 149.79C-9.18307 151.989 -8.49803 154.034 -8.49803 154.034C-11.124 151.14 -16.9849 142.15 -20.0676 136.323C-20.0676 136.362 -20.0296 136.478 -20.0296 136.478C-20.0296 136.478 -22.2369 132.387 -23.607 129.918C-22.96 133.314 -20.7527 141.146 -13.5978 152.066C-16.0716 150.175 -20.5243 142.999 -22.8078 138.716C-22.8078 138.831 -22.8078 138.908 -22.8078 138.986C-23.607 137.558 -24.5204 135.86 -25.3958 134.278C-24.7868 137.867 -21.0191 148.555 -18.6595 152.838C-20.334 150.754 -22.0466 149.134 -23.2645 148.015C-20.7527 153.571 -17.2133 160.786 -15.5768 164.105C-12.9127 169.623 -7.31823 179.886 -6.25261 183.166C-5.98621 183.938 -5.7198 185.173 -5.49146 186.523C-4.15943 185.751 -5.75786 179.886 -6.55708 178.304C-7.43241 176.607 -12.4561 168.079 -12.8747 164.298C-11.5427 166.844 -4.46388 177.88 -3.05574 180.195C-1.68565 182.51 -9.14501 164.722 -11.9613 159.745C-2.90351 169.43 0.673925 182.356 0.483637 186.33C1.09256 189.533 1.39703 193.083 1.58732 193.391V193.469Z" fill="#E4D630"/>
<path d="M-3.39833 185.018C-3.39833 185.018 -1.57155 192.311 -1.11486 194.317C-0.658161 196.285 -1.22903 184.825 -0.772334 180.697C-0.696218 180.967 -0.0492411 183.706 0.48357 186.407C0.67386 182.433 -2.90358 169.507 -11.9614 159.822C-9.14508 164.799 -1.68572 182.587 -3.0558 180.272C-4.42589 177.957 -11.5427 166.922 -12.8748 164.375C-12.4561 168.156 -7.43247 176.684 -6.55714 178.381C-5.75792 179.963 -4.1595 185.829 -5.49152 186.6C-4.73036 190.922 -4.6923 197.404 -4.12144 199.025C-3.39834 201.147 -3.01775 190.806 -3.43639 185.057L-3.39833 185.018Z" fill="#80BA27"/>
<path d="M4.4797 187.989C4.63193 186.253 4.59387 184.208 4.25135 181.661C3.87077 186.484 1.81564 193.931 1.54924 193.468C1.35895 193.121 1.05448 189.571 0.445555 186.407C-0.0491982 183.706 -0.734249 180.967 -0.810364 180.697C-1.26706 184.787 -0.696177 196.285 -1.15287 194.317C-1.60957 192.349 -3.43636 185.018 -3.43636 185.018C-3.05578 190.767 -3.43636 201.108 -4.1214 198.986C-4.69227 197.366 -4.76839 190.883 -5.49149 186.562C-5.71984 185.211 -5.98624 184.015 -6.25264 183.205C-7.31826 179.925 -12.9128 169.661 -15.5768 164.143C-17.2133 160.786 -20.7527 153.609 -23.2645 148.053C-24.901 144.426 -26.1189 141.532 -26.3853 140.683C-27.1084 138.484 -29.4299 128.452 -28.5546 129.108C-28.0218 129.532 -26.8039 131.731 -25.3958 134.317C-24.5585 135.86 -23.6451 137.558 -22.8078 139.024C-22.8078 138.947 -22.8078 138.831 -22.8078 138.754C-23.2265 135.59 -27.3748 124.362 -26.5756 125.056C-26.1569 125.403 -24.9771 127.526 -23.6071 129.956C-22.237 132.426 -20.0296 136.516 -20.0296 136.516C-20.0296 136.516 -20.0296 136.439 -20.0677 136.362C-22.4273 130.342 -22.3511 127.834 -21.8183 127.217C-21.8944 127.024 -21.9706 126.831 -22.0467 126.638C-24.4063 120.503 -28.7829 113.133 -28.4024 110.432C-30.3433 114.175 -31.1806 118.304 -30.9142 125.982C-30.6097 133.661 -28.8591 141.725 -27.2987 145.815C-25.7383 149.867 -11.2763 173.674 -8.87864 181.275C-6.63322 188.414 -5.14896 202.343 -7.31827 206.626C-5.91012 206.009 -4.54003 205.43 -3.208 204.851C-1.41928 201.456 4.023 193.7 4.51775 187.989H4.4797Z" fill="#213820"/>
<path d="M25.6779 171.282C25.6018 174.446 25.069 177.069 24.9167 177.301C23.813 172.246 19.4364 160.053 17.7238 157.468C18.3708 159.243 18.9797 161.056 19.4744 162.831C21.796 170.587 22.5191 177.031 21.9863 176.414C21.6437 175.989 20.9587 173.442 19.9692 170.857C19.208 168.889 18.3327 166.96 17.4574 165.995C17.4574 165.995 17.4193 165.957 17.3813 165.918C19.17 170.973 19.7408 177.301 19.2841 176.414C18.8275 175.526 14.5269 167.346 14.5269 167.346C15.9731 172.401 19.208 181.507 18.7513 180.928C18.2566 180.349 12.8524 168.889 10.7972 165.262C9.9219 163.68 7.71453 159.745 5.24076 155.307C3.90874 152.953 2.53866 150.445 1.28275 148.092C-0.54403 144.619 -2.1044 141.571 -2.78945 139.719C-4.88263 134.317 -6.29078 122.432 -5.87214 122.162C-5.68185 122.046 -4.7304 125.017 -3.55061 128.297C-2.52304 131.153 -1.3813 134.278 -1.22907 135.127C-0.924608 134.51 -1.22908 133.005 -1.68578 131.23C-2.90363 126.831 -4.99682 121.275 -4.464 121.776C-4.08343 122.124 -2.7514 124.477 -1.26714 127.101C0.217121 129.648 1.7775 132.426 2.00585 132.966C2.00585 132.117 1.51109 130.69 0.902163 129.146C-0.810444 124.94 -3.28421 120.04 -2.40887 120.464C-1.87606 120.696 -0.391809 122.355 1.16857 124.207C-1.5716 119.808 -3.39837 116.259 -4.42594 114.677C-6.55718 111.32 -10.5152 105.377 -12.342 103.139C-12.5323 104.683 -10.2107 110.702 -9.2593 113.712C-8.30785 116.722 -8.87872 124.169 -7.58475 130.188C-6.29078 136.207 -0.73433 147.783 4.02291 156.117C4.32737 156.658 4.6699 157.236 5.01242 157.854C9.76967 166.073 16.1634 176.954 17.5715 182.626C18.9416 188.105 19.5125 192.311 18.7133 194.626C20.5781 193.7 22.3288 192.812 24.0033 191.964C25.6398 188.761 26.8957 179.925 25.7159 171.32L25.6779 171.282Z" fill="#213820"/>
<path d="M-93.5195 228.658C-88.9145 228.736 -83.6625 229.083 -79.4761 229.469C-71.6742 230.163 -50.514 225.88 -37.4601 220.787C-36.5848 220.44 -35.7475 220.131 -34.9864 219.822C-27.5651 217.044 -14.2068 211.256 -2.71326 206.124C-1.34318 205.507 0.0269165 204.89 1.32088 204.311C7.56239 201.456 12.7763 199.102 15.859 197.481C18.2186 196.247 20.9207 194.78 23.7751 193.198C31.7672 188.722 40.2161 182.394 43.6794 179.076C45.3158 177.532 47.4471 175.295 49.8447 172.632C53.4983 168.581 57.6086 163.487 60.8815 159.166C61.6046 158.201 62.2897 157.236 62.9366 156.388C68.1125 149.249 79.6441 132.04 81.9656 128.181C82.4984 127.294 83.2215 126.098 84.0208 124.824C84.858 123.474 85.7334 121.969 86.5706 120.541C87.0654 119.654 87.5601 118.805 87.9788 117.995C88.8922 116.22 89.5392 114.754 89.5011 114.021C89.3489 114.136 88.778 114.908 87.9027 116.104C87.4079 116.799 86.799 117.609 86.1139 118.574C85.2005 119.847 84.173 121.313 83.0312 122.934C80.3291 126.831 76.98 131.731 74.0115 136.13C72.9078 137.751 71.8803 139.294 70.9288 140.722C70.3199 141.648 69.6729 142.574 69.064 143.5C66.2096 147.744 63.165 152.182 60.1584 156.388C59.1309 157.815 58.1414 159.204 57.1138 160.555C54.3356 164.298 51.5954 167.847 48.9694 170.934C47.4471 172.748 45.8106 174.6 44.1741 176.375C42.9182 177.764 41.6242 179.114 40.3302 180.388C35.573 185.057 30.5494 188.529 26.8577 190.459C25.9824 190.922 25.031 191.385 24.0795 191.886C22.405 192.735 20.6543 193.623 18.7895 194.549C14.527 196.671 9.38916 199.063 4.02299 201.61C2.00592 202.575 -0.429771 203.655 -3.13189 204.813C-4.46391 205.391 -5.83401 205.97 -7.24215 206.587C-15.2343 209.983 -24.1399 213.571 -29.1255 215.655C-29.506 215.809 -29.8486 215.964 -30.153 216.08C-32.3223 217.006 -35.1005 218.163 -37.9168 219.359C-44.2725 222.022 -50.5521 224.453 -52.6072 225.147C-52.8355 225.224 -53.14 225.301 -53.4825 225.417C-54.8146 225.842 -56.6033 226.575 -59.9524 226.806C-63.7201 227.076 -67.9065 227.231 -71.56 227.347C-74.4524 227.424 -77.0404 227.462 -78.9813 227.501C-80.085 227.501 -80.9984 227.501 -81.6454 227.539C-84.1953 227.617 -89.1428 227.347 -93.3672 227.231C-95.2701 227.192 -97.0589 227.192 -98.5431 227.231C-100.256 227.269 -101.588 227.424 -102.197 227.539C-104.442 227.925 -111.559 229.662 -117.648 232.517C-117.496 233.212 -117.42 233.52 -117.23 234.215C-111.787 231.475 -107.068 229.893 -104.594 229.43C-101.892 228.929 -97.8961 228.581 -93.3672 228.658H-93.5195Z" fill="#213820"/>
<path d="M-93.748 230.858C-92.8346 230.858 -91.807 230.935 -90.7033 230.974C-86.5931 231.205 -81.1889 231.63 -75.5182 231.938C-73.9579 232.016 -72.3594 232.093 -70.761 232.131C-65.7373 232.286 -60.8659 232.286 -57.7452 232.093C-56.4132 232.016 -55.7662 231.514 -54.5864 231.128C-53.5588 230.781 -52.4171 230.356 -51.1612 229.893C-47.127 228.35 -42.0273 226.151 -36.8514 223.835C-35.7477 223.334 -34.606 222.832 -33.5023 222.331C-29.2778 220.44 -25.2057 218.626 -21.9707 217.276C-21.1715 216.929 -20.3723 216.581 -19.497 216.234C-17.6702 215.424 -15.7292 214.536 -13.636 213.61C-9.25938 211.604 -4.46409 209.327 0.140923 207.089C1.35877 206.51 2.53858 205.932 3.71838 205.391C8.51367 203.076 12.8523 201.031 16.1252 199.449C16.2775 199.372 16.4297 199.295 16.5439 199.256C18.2184 198.446 19.8549 197.597 21.4914 196.748C28.8746 192.851 35.9154 188.452 37.9324 186.909C38.3511 186.6 38.9981 186.06 39.7212 185.443C40.4062 184.825 41.2054 184.131 42.0046 183.359C44.9351 180.581 48.3223 176.761 49.8065 175.102C50.0729 174.793 50.2632 174.6 50.3774 174.446C50.6057 174.176 50.9863 173.79 51.443 173.25C53.6504 170.78 58.1412 165.378 61.6806 160.748C61.8709 160.478 62.0992 160.208 62.2895 159.938C62.8223 159.243 63.3932 158.51 63.9641 157.7C67.0087 153.61 70.7764 148.323 73.4024 144.465C73.7449 143.963 74.0875 143.462 74.3919 143.037C75.077 142.034 75.6478 141.146 76.0665 140.49C76.5232 139.757 77.2082 138.677 78.0074 137.404C80.7096 133.043 84.7437 126.522 86.1518 124.207C85.4287 124.439 84.6676 124.709 83.8684 124.94C83.0691 126.214 82.3461 127.371 81.8132 128.297C79.4917 132.156 67.9602 149.365 62.7843 156.503C62.1754 157.352 61.4903 158.278 60.7291 159.282C57.4942 163.603 53.3459 168.697 49.6923 172.748C47.3327 175.372 45.1635 177.61 43.527 179.192C40.0637 182.51 31.6529 188.838 23.6227 193.314C20.8064 194.896 18.1043 196.362 15.7066 197.597C12.6239 199.218 7.40999 201.61 1.16849 204.427C-0.125481 205.006 -1.49556 205.623 -2.86565 206.24C-14.3591 211.372 -27.7175 217.16 -35.1388 219.938C-35.938 220.247 -36.7753 220.556 -37.6125 220.903C-50.6283 225.996 -71.7886 230.241 -79.6285 229.585C-83.8149 229.199 -89.1049 228.852 -93.6719 228.774C-98.2008 228.697 -102.235 229.044 -104.899 229.546C-107.373 230.009 -112.054 231.63 -117.534 234.331C-117.268 235.45 -117.116 236.028 -116.849 237.147C-110.379 233.713 -102.425 230.974 -98.0105 230.897C-96.9829 230.897 -95.5748 230.897 -93.8621 230.897L-93.748 230.858Z" fill="#80BA27"/>
</g>
<defs>
<clipPath id="clip0_164_2912">
<rect width="272" height="287" fill="white" transform="translate(-128)"/>
</clipPath>
</defs>
</svg>
