<svg width="91" height="122" viewBox="0 0 91 122" fill="none" xmlns="http://www.w3.org/2000/svg">
<g clip-path="url(#clip0_278_1076)">
<path d="M48.7181 68.7345C49.1604 68.6601 49.6581 68.4556 50.0635 68.1209C50.1926 68.0279 50.34 67.9163 50.469 67.8047C50.7086 67.5816 50.8376 67.2097 50.6902 66.8377C50.1004 65.35 47.9255 66.1125 47.5201 67.4328C47.2067 68.4184 48.1836 68.8275 48.7365 68.7345H48.7181Z" fill="#9E1460"/>
<path d="M42.1935 75.4106C42.5437 75.4664 42.9123 75.2247 43.2256 74.9271C43.8891 74.6482 44.5526 73.8671 44.7185 73.2535C44.9766 72.2493 44.0734 71.6542 43.4468 71.9703C42.8201 72.2865 42.1566 72.863 41.6405 73.4208C40.977 74.1275 41.4378 75.299 42.1935 75.4106Z" fill="#9E1460"/>
<path d="M36.1667 67.935C37.1804 68.5672 39.6501 67.6002 39.0051 65.6662C38.7286 64.8294 37.8623 65.2013 37.42 65.4989C37.3463 65.5546 37.2541 65.6104 37.1804 65.6662C36.6828 65.908 36.2773 66.3543 35.9824 66.9494C35.8349 67.2469 35.9087 67.7676 36.1667 67.935Z" fill="#9E1460"/>
<path d="M41.6406 84.541C42.4516 84.9316 43.2257 84.0761 43.6865 83.2951C44.0735 82.6628 44.479 81.2309 43.5575 80.9706C43.5575 80.9706 43.5575 80.9706 43.539 80.9706C43.4837 80.9706 43.4284 80.9334 43.3732 80.952C42.7096 80.9892 42.0461 81.6028 41.5669 82.1793C41.3089 82.4955 41.0693 82.9046 41.0324 83.3881C40.9956 83.9274 41.2904 84.3551 41.6591 84.541H41.6406Z" fill="#9E1460"/>
<path d="M33.0885 82.3654C33.5862 83.1465 34.6183 82.3468 35.0975 81.9005C35.4108 81.5844 35.7057 81.1939 35.8532 80.7104C36.0375 80.0781 35.7979 79.4644 35.3371 79.2227C34.4524 78.7392 33.3834 79.8363 33.0517 80.8591C33.0148 80.9521 33.0148 81.0451 33.0332 81.1381C32.8489 81.4914 32.8121 81.9191 33.107 82.384L33.0885 82.3654Z" fill="#9E1460"/>
<path d="M48.2759 77.6232C48.4602 78.7389 49.6951 78.3856 50.248 78.0695C50.9115 77.6975 51.9436 76.6934 51.1142 75.7078C50.377 74.8337 49.4186 75.745 48.6814 76.1355C48.497 76.2285 48.4049 76.4702 48.4049 76.7305C48.2759 76.9537 48.2021 77.2512 48.2759 77.6418V77.6232Z" fill="#9E1460"/>
<path d="M51.2246 85.6939C51.2246 85.6939 51.2615 85.7869 51.2799 85.8426C51.6854 86.7353 52.7544 86.4377 53.3073 85.8984C53.6391 85.5823 53.8971 85.229 54.0446 84.7269C54.2473 84.1132 53.9155 83.4995 53.4732 83.295C52.5885 82.8673 51.5932 83.9087 51.0956 84.7827C50.9297 85.0616 51.0219 85.4707 51.2062 85.6939H51.2246Z" fill="#9E1460"/>
<path d="M55.6665 72.7882C55.6297 73.4205 56.0536 73.8854 56.4959 73.9226C56.8646 73.9598 57.2332 73.811 57.5834 73.6622C57.952 73.4949 58.2653 73.2717 58.5602 72.937C58.9104 72.5651 59.0947 71.8212 58.7261 71.3563C58.339 70.8542 57.7308 70.8542 57.2332 70.9658C56.6803 71.0774 56.2195 71.5795 55.8324 72.063C55.685 72.2489 55.6481 72.4535 55.685 72.6581C55.685 72.6952 55.685 72.7324 55.685 72.7882H55.6665Z" fill="#9E1460"/>
<path d="M55.5375 64.1042C55.5006 64.7364 55.9614 65.1084 56.3669 65.1827C56.7724 65.2571 57.1963 65.1455 57.5833 64.9968C58.21 64.7736 59.408 63.8624 58.9104 62.8024C58.6339 62.2074 58.0625 62.0586 57.5649 62.1144C57.0673 62.1888 56.6433 62.4863 56.2747 62.8954C55.8877 63.1558 55.5743 63.5463 55.5375 64.1042Z" fill="#9E1460"/>
<path d="M49.8424 57.7256C49.9898 58.8972 51.0588 58.8042 51.7039 58.581C52.3858 58.3579 53.1784 57.7256 53.0678 56.6656C52.9941 56.0334 52.3858 55.773 51.9804 55.7358C51.7592 55.7358 51.5196 55.7916 51.3168 55.8846C50.598 55.9776 49.7318 56.7214 49.8424 57.707V57.7256Z" fill="#9E1460"/>
<path d="M41.6775 60.3104C42.2489 60.8869 43.0967 60.6823 43.6865 60.2732C44.221 59.9199 44.7371 58.9343 44.4237 58.1347C43.9445 56.9073 42.3595 57.8743 41.7512 58.4508C41.5485 58.6553 41.4195 58.9529 41.4932 59.269C41.4748 59.3434 41.4564 59.4178 41.4379 59.4922C41.3826 59.8455 41.4748 60.0872 41.6775 60.3104Z" fill="#9E1460"/>
<path d="M17.4959 61.3705C18.0672 61.9469 18.9151 61.7424 19.5049 61.3333C20.0394 60.9799 20.5554 59.9943 20.2421 59.1947C19.7629 57.9674 18.1778 58.9344 17.5696 59.5108C17.3669 59.7154 17.2379 60.0129 17.3116 60.3291C17.2931 60.4035 17.2747 60.4778 17.2563 60.5522C17.201 60.9056 17.2931 61.1473 17.4959 61.3705Z" fill="#9E1460"/>
<path d="M33.5125 59.8271C33.6415 61.166 34.9501 60.5151 35.4846 60.1246C36.0191 59.7341 36.9775 58.6555 36.3693 57.8001C36.0191 57.3166 35.4293 57.391 35.0054 57.6141C34.729 57.7629 34.4709 58.0046 34.2498 58.265C33.789 58.5625 33.4388 59.1018 33.5125 59.8271Z" fill="#9E1460"/>
<path d="M44.221 51.1797C44.2394 51.2727 44.2763 51.3843 44.3131 51.4958C44.7923 52.5744 46.101 51.7562 46.6539 51.1983C46.9856 50.8636 47.2621 50.3615 47.3174 49.8036C47.3911 49.0412 46.8935 48.632 46.3774 48.5763C45.8982 48.5205 45.4006 48.8366 45.0135 49.1713C44.5896 49.5433 44.1288 50.1197 44.1473 50.845C44.1473 50.9752 44.1841 51.0681 44.221 51.1611V51.1797Z" fill="#9E1460"/>
<path d="M59.1868 55.9402C59.537 56.1634 59.9057 56.0704 60.2558 55.8844C60.8272 55.6055 61.9146 55.0662 61.675 54.0248C61.5092 53.374 60.9378 53.0764 60.4586 53.188C60.0162 53.281 59.6292 53.5971 59.2421 53.8947C59.1684 53.9504 59.1131 54.0248 59.0763 54.0992C58.9841 54.2108 58.9104 54.3596 58.8551 54.5083C58.6892 55.0104 58.7814 55.6799 59.1868 55.9402Z" fill="#9E1460"/>
<path d="M63.9605 68.0837C64.6978 68.9577 66.1169 68.0651 66.7989 67.47C66.9832 67.3212 67.1491 66.9865 67.0569 66.6704C66.5962 65.0897 65.0664 65.2942 64.237 66.317C63.7578 66.6332 63.4629 67.5258 63.9421 68.0837H63.9605Z" fill="#9E1460"/>
<path d="M59.6661 79.2225C59.7767 79.892 60.3112 80.1895 60.7719 80.2639C61.4723 80.3755 62.8362 79.8176 62.5966 78.5716C62.3386 77.2141 61.288 77.4187 60.477 77.7906C60.477 77.7906 60.477 77.7906 60.4586 77.7906C60.4402 77.7906 60.4033 77.8092 60.3849 77.8278C60.2559 77.9022 60.1084 77.9766 59.9978 78.0324C59.7767 78.1625 59.7029 78.3857 59.7029 78.6088C59.6477 78.7948 59.6108 78.9994 59.6477 79.2225H59.6661Z" fill="#9E1460"/>
<path d="M60.256 88.2419C60.5509 88.4464 61.0485 88.5022 61.3803 88.372C61.9885 88.1489 63.0391 87.6096 62.5414 86.5124C62.0069 85.3223 60.8273 85.8987 60.2007 86.5682C60.127 86.6426 60.0901 86.7356 60.0532 86.8471C59.8505 87.2935 59.8689 87.9815 60.256 88.2419Z" fill="#9E1460"/>
<path d="M41.8618 92.6677C42.6544 94.0252 44.7924 92.8908 45.29 91.6449C45.7508 90.4919 45.032 89.5063 44.1473 89.4134C43.4838 89.339 42.7649 89.7853 42.2857 90.4361C41.7328 90.9754 41.401 91.8866 41.8618 92.6677Z" fill="#9E1460"/>
<path d="M43.1887 102.04C43.5573 102.412 44.0365 102.431 44.4604 102.245C45.2898 101.873 46.5984 100.645 45.769 99.3995C45.1793 98.5255 43.9628 99.3065 43.4099 99.8644C43.3362 99.9388 43.2993 100.032 43.2809 100.143C43.1887 100.292 43.115 100.441 43.0597 100.608C42.8938 101.073 42.8754 101.705 43.2071 102.059L43.1887 102.04Z" fill="#9E1460"/>
<path d="M50.0266 93.895C50.1372 95.3083 51.6301 94.9364 52.312 94.5086C52.9387 94.1181 53.8787 92.6676 53.1414 91.8122C52.6991 91.2915 51.9987 91.4589 51.4827 91.7192C50.9113 92.0168 50.3952 92.5375 50.045 93.2069C49.916 93.4673 49.9344 93.709 50.0266 93.9136V93.895Z" fill="#9E1460"/>
<path d="M56.5697 99.0462C56.9752 100.013 58.0995 99.5669 58.6708 99.1206C59.3344 98.5813 60.2006 97.1866 59.2975 96.3684C58.8367 95.9593 58.1548 96.1638 57.7124 96.4614C57.565 96.5729 57.4175 96.7031 57.2701 96.8519C57.1042 96.9635 56.9383 97.1308 56.8093 97.2796C56.4591 97.7073 56.3301 98.4697 56.5697 99.0462Z" fill="#9E1460"/>
<path d="M49.8056 105.852C50.1005 106.131 50.4875 106.131 50.8377 106.094C51.4644 106.001 52.644 105.573 52.4597 104.458C52.3491 103.825 51.8514 103.36 51.3722 103.323C51.1879 103.323 51.0036 103.323 50.8193 103.398C50.3032 103.435 49.7687 103.751 49.5476 104.327C49.3264 104.867 49.437 105.499 49.8056 105.852Z" fill="#9E1460"/>
<path d="M35.1345 103.1C35.1345 103.268 35.1898 103.435 35.2635 103.621C35.7612 104.811 36.996 103.788 37.4384 103.082C37.7149 102.654 37.936 102.189 37.9913 101.631C38.0466 101.036 37.7517 100.515 37.3094 100.385C36.2772 100.088 35.1898 101.464 35.0608 102.747C35.0608 102.859 35.0608 102.97 35.1161 103.082L35.1345 103.1Z" fill="#9E1460"/>
<path d="M28.4255 106.317C28.9969 107.135 30.0659 106.54 30.582 105.927C30.9137 105.536 31.1902 105.053 31.2271 104.439C31.2823 103.769 30.7663 103.193 30.3055 103.174C29.4945 103.119 28.573 104.011 28.2781 104.978C28.2597 105.053 28.2412 105.108 28.2412 105.183C28.1306 105.536 28.1491 105.927 28.4255 106.299V106.317Z" fill="#9E1460"/>
<path d="M67.1492 81.1197C67.352 82.5144 68.5868 82.1796 69.3056 81.8077C70.0245 81.4172 70.7986 80.4502 70.4484 79.3716C70.2456 78.7208 69.5268 78.7022 69.1029 78.7951C68.6974 78.8695 68.3472 79.1671 68.0339 79.539C67.4994 79.7993 67.0386 80.3944 67.1676 81.1383L67.1492 81.1197Z" fill="#9E1460"/>
<path d="M67.5915 88.7251C67.5546 89.2086 67.8495 89.6735 68.1997 89.7851C68.5868 89.9153 69.0291 89.7293 69.3424 89.4504C69.7295 89.0971 70.0428 88.6508 70.2087 88.0743C70.393 87.4234 70.0797 86.7911 69.6373 86.5494C68.937 86.1775 67.9048 87.2746 67.6284 88.0371C67.5546 88.2602 67.5362 88.502 67.6099 88.7251H67.5915Z" fill="#9E1460"/>
<path d="M63.7394 96.6846C63.7394 97.3912 64.1817 97.9305 64.6978 98.0235C65.1217 98.0979 65.5825 97.8747 65.9511 97.633C66.5778 97.2053 67.444 96.0337 67.0017 95.0295C66.6883 94.3415 65.9695 94.4158 65.4719 94.6762C65.3429 94.7506 65.2139 94.825 65.0848 94.9365C64.3845 95.1411 63.721 95.6618 63.7394 96.6846Z" fill="#9E1460"/>
<path d="M63.7025 104.458C63.7025 105.164 64.1449 105.703 64.6609 105.796C65.0848 105.871 65.5272 105.648 65.9142 105.406C66.5409 104.978 67.4072 103.807 66.9648 102.802C66.6515 102.114 65.9327 102.189 65.435 102.449C65.306 102.524 65.177 102.598 65.048 102.709C64.3476 102.914 63.6841 103.435 63.7025 104.458Z" fill="#9E1460"/>
<path d="M74.3004 90.6222C74.9455 91.2173 75.8302 89.9899 76.1619 89.3763C76.42 88.9114 76.6043 88.3163 76.5121 87.7212C76.3831 87.0146 75.8117 86.7356 75.3141 86.81C74.5584 86.9402 74.0977 88.2419 74.0055 89.1717C73.8581 89.6924 73.8949 90.2317 74.3004 90.6036V90.6222Z" fill="#9E1460"/>
<path d="M40.9771 109.851C41.272 111.115 42.4331 110.65 43.0413 110.111C43.539 109.665 44.1841 108.456 43.539 107.768C42.8202 106.987 41.7143 107.805 41.2351 108.623C41.1982 108.698 41.1798 108.772 41.1614 108.846C40.9771 109.107 40.8849 109.46 40.9771 109.851Z" fill="#9E1460"/>
<path d="M33.9549 115.206C34.1761 116.396 35.4478 116.117 36.0008 115.559C36.2957 115.243 36.5353 114.797 36.6643 114.332C36.8302 113.663 36.4984 113.03 36.0376 112.807C35.4663 112.528 34.6553 112.974 34.3788 113.7C34.0471 114.072 33.8443 114.63 33.9549 115.225V115.206Z" fill="#9E1460"/>
<path d="M26.2875 113.718C26.3244 113.96 26.4165 114.109 26.5455 114.183C27.0985 114.964 28.0937 114.351 28.5361 113.644C28.7941 113.254 28.9416 112.77 28.8863 112.249C28.8125 111.691 28.4255 111.357 28.02 111.338C27.5592 111.32 27.1353 111.673 26.7851 112.063C26.4165 112.472 26.1953 113.086 26.2875 113.718Z" fill="#9E1460"/>
<path d="M20.3895 107.972C21.0162 108.511 21.9009 107.916 22.3248 107.228C22.8593 106.373 22.933 105.034 22.0299 104.569C21.6244 104.346 21.1636 104.662 20.8503 104.978C20.5554 105.276 20.3343 105.741 20.1499 106.15C20.1499 106.15 20.1499 106.187 20.1499 106.206C20.1315 106.243 20.1131 106.28 20.0946 106.317C19.855 106.875 20.0025 107.619 20.408 107.972H20.3895Z" fill="#9E1460"/>
<path d="M27.4117 98.1165C28.1121 98.6558 29.1811 97.9491 29.5313 97.0751C29.7156 96.6102 29.7893 96.1267 29.6235 95.6246C29.4945 95.2155 29.1074 95.0481 28.8125 95.0295C28.1674 94.9923 27.4855 95.5688 27.1721 96.2755C27.1353 96.3685 27.0984 96.48 27.0984 96.573C26.8773 97.0937 27.0063 97.8004 27.4117 98.1165Z" fill="#9E1460"/>
<path d="M20.1869 97.0563C20.6108 98.2278 21.7351 97.4282 22.1959 96.7587C22.4908 96.3496 22.712 95.8847 22.7673 95.3268C22.8226 94.7131 22.3618 94.1367 21.9194 94.1181C21.3297 94.0995 20.8136 94.7503 20.5187 95.4384C20.1869 95.8847 19.9658 96.4426 20.1869 97.0563Z" fill="#9E1460"/>
<path d="M13.3674 102.728C13.8097 102.914 14.3442 102.598 14.6944 102.263C15.0446 101.928 15.3026 101.556 15.4132 100.999C15.5422 100.422 15.4501 99.7713 15.063 99.4179C14.6391 99.0274 14.0493 99.2506 13.6438 99.5481C13.3121 99.7899 13.0909 100.18 12.9066 100.589C12.7776 100.775 12.6854 100.999 12.6485 101.24C12.538 101.91 12.8697 102.542 13.3489 102.728H13.3674Z" fill="#9E1460"/>
<path d="M15.0446 93.7091C15.6159 94.3228 16.4269 93.7463 16.814 93.0768C17.1826 92.426 17.2379 91.1428 16.5375 90.8639C15.9477 90.6221 15.4501 91.1614 15.1736 91.8495C15.0814 91.9611 15.0077 92.0912 14.934 92.24C14.7313 92.6677 14.7128 93.393 15.0446 93.7277V93.7091Z" fill="#9E1460"/>
<path d="M7.52469 94.7504C7.80116 95.7545 8.57526 95.7545 9.22034 95.4198C9.71798 95.1595 10.0682 94.3784 10.2709 93.7648C10.5105 92.9837 10.2893 92.1283 9.68112 91.8308C9.12819 91.5518 8.50154 92.1097 8.13292 92.556C7.94861 92.7792 7.80116 93.0209 7.69057 93.2999C7.4694 93.709 7.35881 94.1925 7.52469 94.7504Z" fill="#9E1460"/>
<path d="M14.8049 83.7228C15.4685 84.5597 16.519 83.7228 16.8324 82.793C17.1641 81.8074 16.8324 80.3569 15.8555 80.5615C15.2842 80.6731 14.8971 81.2867 14.6944 81.9934C14.4548 82.5513 14.3995 83.1835 14.8234 83.7228H14.8049Z" fill="#9E1460"/>
<path d="M19.4312 87.9073C19.4128 88.0932 19.4312 88.2606 19.5049 88.3908C19.6524 88.8185 20.0026 89.0788 20.3896 89.0788C20.7767 89.0788 21.2006 88.8557 21.5323 88.5767C22.0853 88.0932 22.7488 86.6241 22.0668 85.8989C21.6061 85.4154 21.09 85.6943 20.6292 86.0291C20.279 86.2894 19.9841 86.6241 19.763 87.0333C19.5602 87.2936 19.4312 87.5911 19.4312 87.9259V87.9073Z" fill="#9E1460"/>
<path d="M28.7942 89.2831C29.1444 89.8596 29.8263 89.7108 30.2687 89.4504C31.0059 89.0041 31.7063 87.4792 31.0428 86.5494C30.6004 85.8986 29.7711 86.2705 29.3287 86.6982C29.0338 86.9772 28.7573 87.4049 28.6468 87.8698C28.4809 88.3347 28.5177 88.8368 28.7942 89.2831Z" fill="#9E1460"/>
<path d="M35.0791 94.3226C35.6689 94.8805 36.6642 94.0437 37.1066 93.5602C37.7516 92.8721 37.7148 91.5518 36.9222 91.1241C36.4983 90.8823 35.9454 91.2542 35.6136 91.6076C35.4293 91.7935 35.3003 92.0167 35.1713 92.2584C35.1344 92.3328 35.0976 92.4258 35.0607 92.5188C34.987 92.6118 34.9133 92.7047 34.858 92.8163C34.5815 93.337 34.7105 93.9693 35.0791 94.3226Z" fill="#9E1460"/>
<path d="M22.9885 78.0327C23.7994 78.7022 24.6288 77.3446 24.9237 76.4892C25.2555 75.4478 24.6841 74.0159 23.7257 74.4808C23.2097 74.7412 22.6383 75.5966 22.6014 76.4148C22.4355 76.9913 22.5093 77.6236 23.0069 78.0141L22.9885 78.0327Z" fill="#9E1460"/>
<path d="M13.1277 72.9928C13.1277 73.0858 13.1646 73.1788 13.2199 73.2532C13.2567 73.3462 13.312 73.4391 13.3489 73.5321C13.9387 74.4619 14.9708 73.8855 15.2842 72.9185C15.45 72.4164 15.5606 71.8771 15.5053 71.3378C15.4316 70.7241 15.0261 70.3522 14.5653 70.3708C13.9756 70.3708 13.6622 70.8729 13.4595 71.4866C13.312 71.6539 13.2015 71.8771 13.1277 72.1374C13.054 72.4164 13.0724 72.7139 13.1277 72.9928Z" fill="#9E1460"/>
<path d="M5.38698 84.6154C6.08736 85.3406 6.99048 84.2993 7.37753 83.574C7.5987 83.1463 7.78301 82.6628 7.8383 82.1421C7.87516 81.6214 7.65399 80.952 7.21165 80.8404C6.40068 80.6358 5.92148 81.4541 5.55286 82.2723C5.42384 82.4397 5.29482 82.607 5.18424 82.8116C4.88934 83.3881 4.96307 84.1877 5.38698 84.6154Z" fill="#9E1460"/>
<path d="M20.6661 68.1767C20.703 68.3069 20.7583 68.4371 20.8136 68.5486C21.0716 68.9763 21.5324 68.902 21.8641 68.716C22.2328 68.4928 22.5276 68.0837 22.712 67.6188C22.9331 67.0981 23.0437 66.3171 22.6382 65.8894C21.6983 64.9224 20.6477 66.5217 20.5187 67.6932C20.5002 67.8792 20.5555 68.0465 20.6477 68.1767H20.6661Z" fill="#9E1460"/>
<path d="M28.3703 66.3911C28.831 67.3767 29.771 66.856 30.2686 66.2424C30.84 65.5357 31.1165 64.3269 30.3239 63.6947C29.5867 63.0996 28.7389 64.1224 28.3887 64.9034C28.315 65.0708 28.2965 65.2196 28.315 65.3683C28.2228 65.7031 28.2044 66.0936 28.3518 66.4097L28.3703 66.3911Z" fill="#9E1460"/>
<path d="M12.6117 55.8286C13.0725 56.8142 14.0125 56.2935 14.5101 55.6799C15.0815 54.9732 15.3579 53.7644 14.5654 53.1322C13.8282 52.5371 12.9803 53.5599 12.6301 54.3409C12.5564 54.5083 12.538 54.6571 12.5564 54.8058C12.4643 55.1406 12.4458 55.5311 12.5933 55.8472L12.6117 55.8286Z" fill="#9E1460"/>
<path d="M31.1166 74.6292C31.7248 75.4289 32.6464 74.778 33.1809 74.1643C33.6785 73.5878 34.0287 72.4163 33.5679 71.691C33.273 71.2261 32.6648 71.3005 32.2962 71.5237C31.9091 71.7654 31.6142 72.1745 31.3193 72.5651C31.2272 72.658 31.1534 72.7696 31.0982 72.8998C30.8217 73.3833 30.7848 74.1643 31.135 74.6292H31.1166Z" fill="#9E1460"/>
<path d="M6.16087 75.0943C6.51106 76.396 7.65378 75.7266 8.16985 75.0385C8.64906 74.3877 8.8518 72.7884 8.00397 72.4537C7.22987 72.1375 6.41891 73.1231 6.21617 74.1273C6.10558 74.4435 6.06872 74.7968 6.16087 75.1129V75.0943Z" fill="#9E1460"/>
<path d="M24.2418 57.8556C24.9237 58.9342 26.048 58.0602 26.6194 57.3163C27.1907 56.5911 27.9095 54.8988 26.7852 54.3595C26.048 54.0062 25.2923 54.6199 24.7763 55.4195C24.0943 55.8286 23.7257 57.0188 24.2602 57.8556H24.2418Z" fill="#9E1460"/>
<path d="M69.1765 59.5666C69.3792 59.6596 69.6188 59.7154 69.8584 59.734C70.1165 59.8083 70.3745 59.8269 70.6694 59.7897C71.4251 59.6782 72.2913 58.7112 72.0517 57.6326C71.6462 55.8288 69.0475 56.0891 68.4208 57.4838C68.0153 58.3764 68.5682 59.2691 69.2133 59.5666H69.1765Z" fill="#9E1460"/>
<path d="M70.264 73.1976C70.4483 73.272 70.651 73.3092 70.8354 73.3092C71.4804 73.3092 72.1993 73.0117 72.6047 72.3236C73.0102 71.6355 72.8628 70.6499 72.2914 70.2036C71.2777 69.4226 69.7295 70.2036 69.3056 71.5798C69.0291 72.4724 69.6005 73.2162 70.2824 73.1976H70.264Z" fill="#9E1460"/>
<path d="M79.8849 67.5999C80.0876 68.3809 80.6774 68.9016 81.2672 69.1247C81.8385 69.3479 82.5942 69.1247 82.8891 68.3995C83.055 67.9718 83.0181 67.5069 82.8523 67.135C82.7417 66.5771 82.2625 66.168 81.8938 65.9634C81.3962 65.6845 80.9354 65.5915 80.4194 65.8518C79.9033 66.1122 79.719 66.9862 79.8849 67.6185V67.5999Z" fill="#9E1460"/>
<path d="M29.8631 46.9583C30.0659 47.7393 30.6741 48.26 31.2455 48.4831C31.8168 48.7063 32.5725 48.4831 32.8674 47.7579C33.0333 47.3302 32.9964 46.8653 32.8305 46.4934C32.7199 45.9355 32.2407 45.5264 31.8721 45.3218C31.3745 45.0429 30.9137 44.9499 30.3976 45.2102C29.8816 45.4706 29.6973 46.3446 29.8631 46.9769V46.9583Z" fill="#9E1460"/>
<path d="M21.0348 50.51C21.2375 51.2911 21.8273 51.8117 22.4171 52.0349C22.9885 52.2581 23.7441 52.0349 24.039 51.3096C24.2049 50.8819 24.168 50.417 24.0022 50.0451C23.8916 49.4872 23.4124 49.0781 23.0437 48.8736C22.5461 48.5946 22.0853 48.5016 21.5693 48.762C21.0532 49.0223 20.8689 49.8963 21.0348 50.5286V50.51Z" fill="#9E1460"/>
<path d="M77.452 78.3674C77.7837 79.6691 79.1108 79.0555 79.719 78.479C80.0876 78.1257 80.3272 77.6608 80.3457 77.0471C80.3641 76.3218 79.8849 75.8755 79.3872 75.8569C78.5763 75.8569 77.3414 76.7681 77.3598 77.9583C77.3598 78.1257 77.3967 78.2558 77.452 78.3674Z" fill="#9E1460"/>
<path d="M36.2773 51.9421C36.5169 52.5929 37.1804 52.4999 37.5859 52.2954C37.7886 52.1838 37.9729 51.9978 38.1204 51.7561C38.1572 51.7189 38.1941 51.6817 38.231 51.6445C38.5443 51.3284 38.7655 50.7519 38.6364 50.2498C38.4337 49.5246 37.8071 49.32 37.3094 49.6361C36.7012 50.0081 35.9455 50.9937 36.2773 51.9421Z" fill="#9E1460"/>
</g>
<g clip-path="url(#clip1_278_1076)">
<path d="M39.997 32.0026C42.5464 32.6101 47.1036 34.316 47.9778 34.4536C46.7041 33.9175 44.6874 32.8497 42.4318 31.7457C47.3119 33.3128 55.5082 36.6242 59.2674 38.8463C55.5892 37.6616 51.7261 36.1407 50.7422 36.0377C52.8563 37.3997 54.7139 38.2717 56.6986 39.1639C57.8145 39.6709 68.2062 43.836 70.6354 44.3422C67.9545 43.2145 64.4644 41.1536 63.0197 40.119C66.0254 41.1582 72.2539 43.2333 75.9311 44.1351C79.1513 45.7519 84.1216 46.78 84.2793 46.8092C81.9796 46.7728 78.5415 46.8214 76.0242 46.9046C71.8199 46.2153 67.1355 45.0043 62.1926 42.7376C54.7662 39.3506 47.4095 35.5517 39.997 32.0026Z" fill="#2FACB9"/>
<path d="M66.9152 38.2089C62.8415 36.7265 52.3603 33.4993 48.1867 31.7885C48.6312 31.9176 49.054 32.0071 49.4614 32.0922C49.1484 31.9681 48.7984 31.7999 48.4023 31.6184C48.4112 31.5878 48.4157 31.5724 48.4201 31.5571C49.9944 32.031 55.2242 33.3672 59.4413 34.6419C66.5267 36.7996 73.4009 39.6273 80.2419 42.5119C79.4756 42.2892 78.7705 42.0845 78.1727 41.9108C78.4085 42.1289 78.7561 42.3628 79.1892 42.5884C77.1724 42.0358 70.8356 39.6468 66.9108 38.2242L66.9152 38.2089Z" fill="#80BA27"/>
<path d="M39.9969 32.0022C34.7914 29.6094 29.8584 27.5948 26.6697 26.785C33.0231 26.3699 40.2313 27.0176 43.9615 27.3365C45.7609 27.4934 49.7981 27.7851 54.358 28.3949C51.8227 29.5699 41.0015 28.8867 41.0015 28.8867C41.0015 28.8867 46.3741 30.6467 48.4176 31.6225C48.7983 31.7996 49.1484 31.9677 49.4767 32.0963C49.0737 31.9959 48.651 31.9064 48.202 31.7926C46.0383 31.2306 43.3866 30.4604 40.4055 29.794C38.9074 29.4586 37.3192 29.1469 35.6736 28.9182C37.7276 29.5148 40.2067 30.6504 42.4623 31.7543C44.7179 32.8582 46.7347 33.926 48.0083 34.4622C47.1386 34.3093 42.5769 32.6186 40.0275 32.0111L39.9969 32.0022Z" fill="#125C90"/>
<path d="M73.6616 23.6801C74.4774 24.1332 75.1508 24.5615 75.6709 24.9452C75.4193 24.8389 75.0756 24.7058 74.6618 24.5856C72.9278 24.0321 70.0214 23.3375 67.7326 22.8057C62.9455 20.5177 58.3512 18.2525 55.108 18.3743C55.9318 17.9986 57.0118 17.7139 58.2865 17.5024C65.5476 18.0823 73.228 19.0499 80.0973 21.4939C79.8323 21.4336 79.4861 21.3663 79.0896 21.301C78.2199 21.1481 77.0411 20.9719 75.7965 20.7932C73.5922 20.4854 71.0789 20.1543 69.2648 19.8767C70.85 20.3704 73.6436 21.2815 75.7578 22.1283C76.5894 22.4696 77.3093 22.795 77.8057 23.0888C77.3266 22.8499 76.3259 22.5758 75.0621 22.2919C72.6309 21.7353 69.1717 21.1128 66.5714 20.6235C69.0609 21.3798 71.7195 22.5842 73.6769 23.6846L73.6616 23.6801Z" fill="#125C90"/>
<path d="M67.7371 22.7905C67.9427 22.8835 68.144 22.9918 68.3497 23.0848C74.4584 25.9727 78.7436 28.2146 85.4284 31.2366C87.4853 32.1664 89.7414 33.1542 92.2887 34.2265C99.7775 37.3989 104.919 37.8949 108.815 37.9295C105.294 37.2893 95.5441 35.3216 90.7126 32.6717C95.2016 33.9257 105.996 36.6456 108.073 36.135C104.708 35.4735 101.733 34.4432 99.3018 33.3714C96.8527 33.9066 87.9143 29.3159 84.6065 28.1723C86.2756 29.5214 88.4718 31.1732 88.8377 31.7448C88.1346 31.5905 87.1887 31.2991 85.7444 30.6636C85.2564 30.4553 84.716 30.1986 84.1187 29.9088C82.0644 28.9132 76.6059 25.7321 74.6509 24.566C72.9169 24.0125 70.0105 23.3179 67.7217 22.786L67.7371 22.7905Z" fill="#2FACB9"/>
<path d="M64.2749 53.3648C63.2094 52.8559 62.1439 52.3469 61.1743 51.9656C61.7107 52.1214 62.2779 52.2861 62.8603 52.4553C65.7573 53.2967 68.8738 54.069 69.6857 53.9059C67.3095 52.8168 64.1264 50.7288 62.0924 48.5756C62.3045 48.7037 62.5058 48.812 62.6917 48.9159C67.7323 51.8759 72.7835 54.4566 75.7803 55.0113C77.7191 55.3749 79.777 55.5571 80.9276 55.6586C81.5412 55.7205 81.8963 55.7572 81.8874 55.7878C81.3578 56.0661 79.8229 56.601 77.5518 57.0383C76.8847 57.1603 76.1321 57.2908 75.338 57.3925C74.2719 57.515 72.5151 57.6696 70.423 57.7766C68.5678 57.3541 65.3381 56.3994 62.1609 54.978C64.8269 55.4698 68.7054 56.4799 70.2338 55.91C68.4776 55.4331 66.3752 54.3737 64.3055 53.3737L64.2749 53.3648Z" fill="#125C90"/>
<path d="M81.8953 69.0368C84.3084 64.2195 90.6581 57.637 93.7435 53.9957C95.6168 51.7807 99.7421 47.9926 102.692 45.7911C104.645 44.3307 106.017 43.4992 105.563 44.0322C105.457 44.1677 105.331 44.314 105.186 44.4712C103.571 46.3124 99.8377 50.6964 97.0394 55.3519C95.9529 57.1471 94.9776 59.0744 94.0789 61.024C94.2234 60.0687 95.2177 56.302 96.9936 53.7928C94.6036 56.3563 89.3357 63.2198 88.8752 64.7482C88.8732 64.6977 88.8559 64.6428 88.854 64.5924C88.8313 64.27 88.9075 63.8932 89.0672 63.4576C89.6731 61.7721 91.5193 59.2501 93.2631 56.0501C91.7558 57.8062 87.9707 62.0255 87.1468 62.9165C86.4881 63.6393 83.4126 67.0176 81.9107 69.0412L81.8953 69.0368Z" fill="#125C90"/>
<path d="M48.2027 30.646C57.7285 31.2687 68.2942 34.7198 76.5369 39.4741C74.2501 38.4775 61.2744 34.1103 59.7481 33.7002C57.1661 33.0334 53.746 31.9901 48.2225 30.6351L48.2027 30.646Z" fill="#80BA27"/>
<path d="M73.6615 23.6801C71.7194 22.5841 69.0455 21.3754 66.556 20.619C69.1761 21.0975 72.6199 21.7155 75.0467 22.2874C77.3374 23.3849 83.3309 26.5551 83.9534 27.1016C80.5294 25.9575 76.2713 24.0226 73.6462 23.6757L73.6615 23.6801Z" fill="#2FACB9"/>
<path d="M101.763 44.6406C101.361 44.823 99.7601 45.3554 97.6309 45.9336C94.5073 46.7882 90.2671 47.7672 86.6343 47.7425C83.6483 47.7229 80.0402 47.5558 76.0287 46.8893C78.5569 46.8258 81.9993 46.7619 84.2838 46.7938C84.1151 46.7449 79.1558 45.7366 75.9356 44.1198C75.7037 44.0025 75.4871 43.8898 75.2903 43.7661C76.4315 44.0145 77.8837 44.3366 79.4674 44.6636C83.2965 45.4433 87.7288 46.149 90.0498 45.8259C88.6105 45.574 82.0902 44.0458 79.2027 42.5423C78.7696 42.3168 78.422 42.0829 78.1861 41.8648C78.7993 42.0429 79.4999 42.263 80.2554 42.4658C84.7905 43.7332 91.3528 45.1739 94.0096 44.7821C91.9101 44.5712 84.9276 42.46 81.4394 40.4495C85.7569 41.8365 90.7345 42.6673 93.4278 42.951C96.1567 43.6273 99.8325 43.8473 101.313 44.1278C101.96 44.249 102.187 44.3816 101.761 44.5902L101.763 44.6406Z" fill="#125C90"/>
<path d="M48.2028 30.646C53.7263 32.001 57.1508 33.029 59.7284 33.7111C61.2592 34.1059 74.2304 38.4884 76.5172 39.485C68.279 34.7154 57.7286 31.2687 48.183 30.6569L48.2028 30.646ZM59.4415 34.6417C55.2244 33.3669 49.9793 32.0263 48.4203 31.5569C48.4114 31.5875 48.4069 31.6028 48.4025 31.6182C46.359 30.6424 40.9863 28.8824 40.9863 28.8824C40.9863 28.8824 51.8229 29.57 54.3428 28.3906C59.2073 29.0389 64.6952 30.0013 68.7121 31.4506C76.8881 34.3738 84.2773 39.2625 92.2956 42.6718C92.6437 42.7895 93.0116 42.8964 93.4145 42.9968C90.7212 42.7131 85.7391 41.8977 81.4261 40.4953C84.9143 42.5058 91.8815 44.6125 93.9963 44.8279C91.3395 45.2197 84.7727 43.7943 80.2421 42.5116C73.3966 39.6424 66.5269 36.7994 59.4415 34.6417Z" fill="#2FACB9"/>
<path d="M105.558 44.0479C106.012 43.5149 104.641 44.3464 102.687 45.8068C101.833 46.0574 100.149 46.6486 97.953 47.972C94.9677 49.7809 86.1641 54.9692 83.5735 56.2777C83.8514 55.8931 84.0433 55.633 84.0898 55.5302C84.1739 55.3551 83.4312 55.7378 82.3363 56.417C82.1445 56.1619 82.0684 56.0234 81.8766 55.7682C81.8855 55.7376 81.5305 55.7009 80.9168 55.6391C83.8976 54.3607 93.9039 47.8929 97.62 45.914C99.7492 45.3357 101.345 44.8187 101.752 44.621C102.174 44.4277 101.946 44.2952 101.304 44.1586C104.05 42.9451 112.942 38.713 115.902 37.5618C118.373 37.1823 120.998 36.4988 122.554 36.0036C122.707 36.2805 122.783 36.4189 122.924 36.6761C121.255 37.2717 119.044 38.1916 116.56 39.6475C113.797 40.69 107.172 43.4696 105.171 44.4671C105.32 44.2946 105.446 44.1482 105.547 44.0281L105.558 44.0479Z" fill="#125C90"/>
<path d="M59.263 38.8613C55.5236 36.6283 47.3076 33.3278 42.4274 31.7607C40.1871 30.6613 37.7036 29.541 35.6388 28.9247C37.2843 29.1533 38.8725 29.465 40.3707 29.8004C47.2122 33.084 54.5808 35.6398 61.8027 37.6709C66.6552 39.0471 77.4335 43.5406 79.4478 44.6742C77.8794 44.3516 76.4118 44.0251 75.2706 43.7767C75.4674 43.9004 75.684 44.0131 75.9159 44.1303C72.2387 43.2285 66.0255 41.1579 63.0044 40.1142C64.4447 41.1641 67.9393 43.2097 70.6201 44.3374C68.1756 43.8268 57.7993 39.6661 56.6833 39.1591C54.7031 38.2516 52.8258 37.3905 50.7269 36.0329C51.7109 36.1359 55.574 37.6568 59.2521 38.8415L59.263 38.8613Z" fill="#80BA27"/>
<path d="M75.7425 22.1241C73.6481 21.2664 70.85 20.3706 69.2495 19.8725C71.0636 20.1501 73.577 20.4812 75.7812 20.789C78.2549 21.6571 83.2463 23.8714 84.2045 24.3492C82.424 23.8985 78.5307 22.7677 75.7381 22.1394L75.7425 22.1241Z" fill="#2FACB9"/>
<path d="M115.913 37.5811C114.99 37.7283 114.079 37.8296 113.261 37.8414C112.055 37.8734 110.588 37.9459 108.83 37.9338C105.31 37.2935 95.5594 35.3259 90.7279 32.6759C95.2169 33.9299 106.012 36.6498 108.088 36.1393C104.723 35.4778 101.748 34.4474 99.3171 33.3757C97.061 32.3879 95.2479 31.3627 94.0717 30.6055C94.6299 30.8009 95.2801 31.023 96.0025 31.2827C100.659 32.9343 107.887 35.5157 111.862 35.5068C110.227 34.8989 105.441 32.8938 100.574 30.6493C97.5133 29.2284 94.4241 27.7327 92.3747 26.6056C93.2483 26.8594 94.3341 27.2412 95.4921 27.6607C99.2375 29.0145 103.621 30.803 104.308 31.1853C101.771 29.3347 96.4867 25.8387 91.9467 24.1876C96.3958 25.0644 102.413 27.9256 104.726 29.7445C106.837 31.4047 112.373 35.007 116.201 34.9887C117.381 35.3315 118.409 35.5136 119.375 35.5616C121.122 35.6701 123.893 35.2284 123.901 35.4302C123.897 35.4455 123.888 35.4762 123.813 35.5043C123.611 35.6284 123.167 35.7821 122.563 35.9724C121.007 36.4677 118.382 37.1512 115.911 37.5307L115.913 37.5811Z" fill="#125C90"/>
<path d="M95.9826 31.2936C93.7968 29.7778 88.6616 26.8569 84.9054 25.4833C87.9354 25.9811 97.4484 30.024 100.554 30.6603C105.405 32.9003 110.192 34.9054 111.842 35.5178C107.863 35.542 100.634 32.9605 95.9826 31.2936Z" fill="#2FACB9"/>
<path d="M96.8142 23.6237C102.26 26.2193 108.971 32.3569 112.146 33.6117C113.727 34.2369 115.022 34.6964 116.177 35.015C112.348 35.0333 106.813 31.431 104.702 29.7708C102.388 27.9519 96.3715 25.0907 91.9224 24.214C96.4669 25.8497 101.746 29.361 104.284 31.2116C103.597 30.8293 99.2132 29.0408 95.4678 27.687C93.0505 26.453 85.5618 22.7654 79.0895 21.301C79.4861 21.3663 79.8322 21.4336 80.0972 21.494C73.2279 19.05 65.5475 18.0824 58.2864 17.5025C62.1062 16.8834 67.7273 16.9869 73.0654 17.6066C81.1077 18.5298 89.5876 20.1784 96.8098 23.639L96.8142 23.6237Z" fill="#2FACB9"/>
<path d="M75.6753 24.9299C75.1705 24.5506 74.4818 24.1178 73.666 23.6648C76.291 24.0117 80.5491 25.9466 83.9731 27.0907C83.3507 26.5442 77.3572 23.374 75.0664 22.2765C76.3303 22.5605 77.3266 22.8499 77.8101 23.0734C77.2984 22.7752 76.5785 22.4497 75.7622 22.1129C78.5548 22.7412 82.4481 23.872 84.2286 24.3227C83.2704 23.845 78.2944 21.6351 75.8054 20.7625C77.0652 20.9456 78.2529 21.0912 79.0984 21.2703C85.4314 22.528 93.0639 26.407 95.4767 27.6563C94.3187 27.2368 93.233 26.855 92.3593 26.6012C94.4087 27.7283 97.4979 29.224 100.559 30.6449C97.4484 30.024 87.9245 25.9613 84.9098 25.468C88.6661 26.8416 93.8012 29.7625 95.9871 31.2783C95.2647 31.0186 94.6145 30.7965 94.0563 30.6011C95.2325 31.3583 97.0456 32.3835 99.3017 33.3712C96.8526 33.9064 87.9142 29.3158 84.6064 28.1722C86.2755 29.5213 88.4717 31.173 88.8376 31.7447C88.1345 31.5903 87.1886 31.299 85.7443 30.6634C85.2563 30.4552 84.7159 30.1985 84.1186 29.9086C82.0643 28.913 76.6058 25.732 74.6508 24.5658C75.0647 24.686 75.4083 24.8191 75.66 24.9254L75.6753 24.9299Z" fill="#80BA27"/>
<path d="M42.77 80.1942C40.433 81.1443 38.1876 81.722 37.4252 81.6003C38.9041 81.3152 43.5521 77.3299 44.5406 76.3871C44.1139 76.1967 41.9348 76.6607 40.8884 77.2875C41.6416 76.0104 42.9363 74.7576 44.4475 73.6176C47.2435 71.4878 52.2448 68.9182 52.2448 68.9182C52.2448 68.9182 48.6441 72.5594 48.1049 74.5303C48.9571 73.1988 59.0094 66.2291 62.0263 64.712C60.6479 67.0541 49.6599 75.9293 47.706 77.5059C46.4628 78.5244 44.5754 79.472 42.7655 80.2095L42.77 80.1942Z" fill="#80BA27"/>
<path d="M60.1402 87.4003C59.3109 92.0294 58.9658 95.7353 58.9355 97.1559C59.2061 95.9381 60.2199 94.2215 60.4584 93.3433C60.1773 94.9404 59.5525 97.9501 59.2244 100.281C57.9504 102.321 56.851 104.047 56.126 104.883C56.7326 101.536 57.4247 98.695 57.8533 95.4455C58.2941 93.928 58.766 91.788 59.234 90.0624C59.5818 88.7506 59.9285 87.6713 60.1649 87.2579C60.1516 87.3039 60.1382 87.3499 60.1402 87.4003Z" fill="#125C90"/>
<path d="M40.7166 66.9494C40.5653 66.9553 38.3041 67.1296 37.2469 67.2214C37.2514 67.2061 37.2712 67.1952 37.291 67.1843C38.5228 66.2623 41.153 64.932 44.0719 63.7521C46.6981 63.3514 50.7779 62.9242 52.3157 63.2379C51.0721 63.3421 48.118 64.5284 46.0446 65.8874C44.22 65.9891 41.3475 67.0662 38.8543 68.1537C39.4883 67.5733 40.148 67.1333 40.7211 66.9341L40.7166 66.9494Z" fill="#2FACB9"/>
<path d="M58.1517 92.3573C58.6282 85.6811 60.1569 78.5294 63.4053 72.7248C63.9909 71.6816 64.7999 70.67 65.6876 69.7311C64.5981 71.7084 62.7052 75.8789 62.167 78.1326C61.0793 81.1907 59.6511 86.3938 59.2536 90.0513C58.7857 91.7769 58.2984 93.9124 57.8729 95.4343C58.0066 94.4593 58.0922 93.4204 58.167 92.3618L58.1517 92.3573Z" fill="#2FACB9"/>
<path d="M39.3393 73.0645C39.234 73.0837 38.9116 73.1064 38.4948 73.1682C40.5099 71.6094 45.0964 68.6367 50.3245 67.3463C47.3457 69.1903 43.7472 71.3364 42.3898 72.4047C40.1457 74.1796 36.2667 77.2912 34.7595 78.0169C35.4603 76.6914 38.4279 73.9133 39.3438 73.0491L39.3393 73.0645Z" fill="#80BA27"/>
<path d="M42.4005 72.4245C43.7623 71.3408 47.3608 69.1948 50.3352 67.3661C50.7303 67.2648 51.1012 67.1897 51.5071 67.1081C51.607 67.3366 51.6525 67.4661 51.7523 67.6946C48.9475 69.3398 45.9968 71.2585 43.9006 72.8103C42.9042 73.5514 42.0813 74.2099 41.5596 74.69C38.9663 77.0948 32.4293 82.8915 28.7854 84.3928C27.3253 84.3842 25.8943 84.2179 24.589 83.9052C27.5198 82.5127 29.6877 81.1146 30.6493 78.319C31.5911 75.5343 34.6927 69.2051 37.2775 67.23C38.3346 67.1382 40.5914 66.9792 40.7471 66.958C40.174 67.1572 39.5144 67.5972 38.8804 68.1776C37.6807 69.2752 36.5314 70.886 35.9908 72.175C37.1643 71.0532 38.5207 70.2172 39.3613 70.0126C39.5962 69.9479 39.7979 69.94 39.9512 69.9845C38.9191 70.8482 36.5163 72.8263 36.0593 74.0564C36.8005 73.5072 37.8122 73.2858 38.5208 73.1924C38.9376 73.1306 39.26 73.1079 39.3654 73.0887C38.4495 73.9529 35.4819 76.7309 34.7811 78.0565C36.2883 77.3308 40.1672 74.2191 42.4113 72.4443L42.4005 72.4245Z" fill="#125C90"/>
<path d="M59.9064 93.183C60.3237 89.5146 63.6622 78.6502 65.5313 74.3896C63.159 76.8918 61.0162 83.5826 60.1292 87.3805C60.1425 87.3345 60.1559 87.2885 60.1539 87.2381C59.9175 87.6514 59.5861 88.7352 59.223 90.0426C59.6205 86.3851 61.0684 81.1711 62.1363 78.1239C62.074 78.3385 62.0512 78.5313 62.0176 78.7044C62.6542 77.0277 63.7437 75.0505 65.0345 73.1816C65.798 72.5557 66.9349 71.7889 67.6737 71.3054C67.0728 72.3442 66.6167 73.342 66.4713 74.0144C65.7433 75.5482 64.9563 77.5136 64.9339 78.6207C65.8228 76.4189 68.7935 72.4285 69.8533 71.2404C69.3493 72.1744 68.9155 73.0955 68.6781 73.7413C68.6959 73.68 69.1371 73.0768 69.7458 72.2397C68.8931 74.2026 67.4251 77.9979 66.7487 81.7573C67.9829 77.7943 72.378 70.9599 74.3615 69.1093C72.5676 73.2255 68.6474 82.2589 68.0118 83.7031C66.7363 86.607 63.7061 91.1453 62.4708 92.3654C62.8498 90.9464 66.7272 80.172 66.5663 77.3496C64.3172 83.7769 60.9867 90.3221 59.8713 93.1894L59.9064 93.183Z" fill="#80BA27"/>
<path d="M69.9036 71.2381C68.8439 72.4262 65.8578 76.4122 64.9843 78.6184C65.0023 77.5266 65.7783 75.5414 66.5217 74.0121C66.5128 74.0428 66.5039 74.0734 66.4905 74.1194C66.9668 72.9946 71.2173 68.1459 72.3864 67.0394C72.1455 67.4681 70.8829 69.4117 69.9036 71.2381Z" fill="#2FACB9"/>
<path d="M43.2756 81.3717C45.0414 80.6712 46.5289 79.9564 47.5293 79.3162C51.5416 76.7752 61.615 67.5013 62.8261 66.3073C63.5505 65.5869 66.5784 63.5743 69.0781 62.0067C66.894 62.087 60.8259 62.9506 58.6269 63.9408C57.5746 64.4163 54.7486 65.9058 51.7262 67.6706C48.9367 69.3203 45.9707 71.2345 43.8745 72.7864C42.878 73.5275 42.0552 74.186 41.5335 74.6661C38.9402 77.0708 32.4032 82.8676 28.7593 84.3688C33.6767 84.4342 39.1907 82.9609 43.2648 81.3519L43.2756 81.3717ZM40.8928 77.2723C41.646 75.9952 42.9407 74.7424 44.4519 73.6023C47.2479 71.4725 50.7459 69.7295 52.2492 68.9029C51.6929 69.2732 48.6486 72.5442 48.1094 74.5151C48.9615 73.1836 59.0138 66.2138 62.0307 64.6967C60.6523 67.0388 49.6643 75.9141 47.7105 77.4907C46.4672 78.5091 44.5798 79.4568 42.7699 80.1943C40.433 81.1444 38.1876 81.7221 37.4251 81.6004C38.9041 81.3153 43.552 77.33 44.5406 76.3871C44.1139 76.1967 41.9347 76.6608 40.8884 77.2876L40.8928 77.2723Z" fill="#2FACB9"/>
<path d="M45.1406 66.539C43.2645 67.3903 40.7732 69.0434 39.3505 69.9931C38.5054 70.2131 37.149 71.049 35.98 72.1555C36.5053 70.8621 37.6546 69.2512 38.8696 68.1581C41.3628 67.0706 44.2353 65.9935 46.0599 65.8919C45.7345 66.0966 45.4398 66.3101 45.1757 66.5326L45.1406 66.539Z" fill="#80BA27"/>
<path d="M36.0287 74.0475C36.4901 72.802 38.893 70.8239 39.9206 69.9756C39.7673 69.931 39.5809 69.9434 39.3307 70.0037C40.7687 69.0584 43.2491 67.3855 45.1208 66.5496C44.4057 67.123 43.8924 67.6886 43.7455 68.1945C45.0723 66.602 50.5565 65.4026 54.3339 64.472C53.8883 65.0905 52.2282 66.1707 50.3002 67.3725C45.0721 68.6629 40.4856 71.6355 38.4704 73.1943C37.7574 73.303 36.7457 73.5244 36.0044 74.0737L36.0287 74.0475Z" fill="#2FACB9"/>
<path d="M34.2005 46.9234C31.2916 46.2946 26.7848 45.1019 23.9743 44.5349C19.8996 42.7696 15.953 41.3075 13.7922 41.0788C17.8004 40.4978 20.971 39.9395 24.0165 39.4113C27.0619 38.883 36.307 38.0114 41.2144 39.3703C42.675 39.778 44.7655 40.5347 47.1007 41.4789C39.233 39.7256 32.1265 40.3873 24.2565 41.6749C28.5059 42.0948 32.824 41.8199 34.2708 41.8744C33.1206 42.6872 27.8135 42.9906 26.5333 42.9346C28.9215 43.8111 33.7024 44.5183 34.9143 44.6376C34.1231 45.0726 29.2665 44.626 28.2212 44.5052C30.3706 45.3456 33.7996 46.3582 35.8554 47.0052C36.2693 47.1254 36.6327 47.2476 36.9042 47.343C36.4502 47.3608 35.4841 47.1965 34.2356 46.917L34.2005 46.9234Z" fill="#125C90"/>
<path d="M72.3651 59.9028C72.4467 59.7936 71.6531 59.7791 70.3264 59.826C72.1797 59.1676 75.6574 58.0668 77.5212 57.0292C79.8076 56.5963 81.3425 56.0615 81.8568 55.7787C82.0486 56.0339 82.1247 56.1723 82.3166 56.4275C81.646 56.8477 80.8479 57.3638 80.0122 57.9521C78.012 58.6011 73.8128 60.2402 70.7797 60.9549C71.6525 60.4106 72.2637 60.023 72.3497 59.8984L72.3651 59.9028Z" fill="#125C90"/>
<path d="M82.7186 72.7828C78.4738 79.8437 77.594 89.5109 77.3728 90.9591C77.3392 90.617 77.317 90.1784 77.3368 89.6523C77.4164 86.0021 78.9308 78.6136 80.0031 76.0662C81.2283 73.1644 84.0863 68.8752 85.8281 66.6553C85.6579 66.9549 84.3175 70.6544 84.4573 71.7753C85.2363 69.6082 87.6394 65.5692 89.0781 63.4773C88.9183 63.9129 88.8421 64.2897 88.8648 64.6121C87.8148 67.0828 86.2938 71.4611 85.9874 73.832C86.399 72.4723 87.9546 68.2037 90.8827 64.417C89.8651 68.4927 86.6091 76.5556 86.1813 77.628C84.878 80.8562 81.7025 89.0421 80.3502 92.9542C80.292 91.2087 82.4485 81.8957 83.9611 77.4319C80.1792 83.9292 79.4717 91.8015 78.8509 93.3664C79.0365 92.0407 79.2604 88.4658 79.5584 86.0093C79.8608 83.5375 81.5156 76.6385 82.7537 72.7764L82.7186 72.7828Z" fill="#80BA27"/>
<path d="M61.8025 37.671C54.5851 35.6245 47.212 33.0841 40.3705 29.8005C43.3515 30.4669 46.0032 31.2371 48.1669 31.7991C52.3449 33.4946 62.8217 36.7371 66.8954 38.2195C70.8203 39.642 77.157 42.0311 79.1739 42.5836C82.0614 44.0871 88.5708 45.5956 90.021 45.8672C87.6891 46.1705 83.2721 45.4693 79.4387 44.7049C77.409 43.5669 66.6461 39.0778 61.7936 37.7016L61.8025 37.671Z" fill="#2FACB9"/>
<path d="M89.5745 71.7824C91.0103 68.3268 92.4408 64.6036 94.0744 61.0393C94.2189 60.084 95.2133 56.3173 96.9892 53.8081C94.5991 56.3716 89.3313 63.2351 88.8707 64.7634C88.8688 64.713 88.8515 64.6581 88.8495 64.6076C87.7994 67.0784 86.2784 71.4566 85.9721 73.8276C86.3836 72.4678 87.9392 68.1993 90.8674 64.4126C89.8498 68.4883 86.5938 76.5511 86.1659 77.6236C84.8626 80.8518 81.6872 89.0377 80.3349 92.9497C80.2767 91.2043 82.4332 81.8913 83.9458 77.4275C80.1639 83.9248 79.4563 91.797 78.8356 93.3619C79.0212 92.0363 79.2451 88.4614 79.5431 86.0049C79.8455 83.5331 81.5003 76.6341 82.7384 72.772C78.4936 79.8329 77.6137 89.5 77.3925 90.9483C77.359 90.6061 77.3368 90.1675 77.3566 89.6414C77.4362 85.9913 78.9506 78.6027 80.0229 76.0554C81.2481 73.1535 84.1061 68.8644 85.8479 66.6445C85.6777 66.9441 84.3373 70.6435 84.4771 71.7645C85.2561 69.5973 87.6592 65.5584 89.0979 63.4665C89.7236 61.77 91.5499 59.2589 93.2938 56.0589C91.7864 57.8151 88.0013 62.0344 87.1774 62.9253C86.5187 63.6481 83.4432 67.0264 81.9413 69.0501C81.9279 69.096 81.8948 69.1529 81.8661 69.1944C78.8704 75.3882 77.0999 82.1705 76.9774 89.1157C76.968 89.2626 76.9695 89.4292 76.9601 89.5761C76.8402 95.4251 76.7699 100.474 76.0553 104.937C82.3258 94.9075 85.0983 82.6155 89.6051 71.7913L89.5745 71.7824Z" fill="#2FACB9"/>
<path d="M35.8356 47.0158C38.2624 47.5877 44.1077 49.0362 47.9942 49.2176C43.2891 47.7347 38.6744 46.627 36.0544 45.1181C41.0959 45.3857 43.138 45.6797 44.8731 45.4855C41.7156 44.5684 37.0568 44.0131 34.2469 42.8146C34.4027 42.7934 34.5584 42.7722 34.7449 42.7598C37.46 42.5678 43.4201 43.3349 47.7228 44.6013C50.4358 45.3893 57.2882 48.1774 60.0447 49.5598C57.5967 48.8321 51.3425 46.6167 47.6079 46.3131C51.0339 47.5077 59.8472 51.098 62.8648 52.4399C62.2823 52.2707 61.7152 52.106 61.1787 51.9502C62.1636 52.336 63.2138 52.8404 64.2793 53.3494C61.3789 52.8061 53.2442 50.942 50.4896 50.1253C52.7071 51.4176 57.0097 53.1992 59.2357 54.0618C58.1197 54.07 54.534 53.3111 47.6543 51.2464C44.1531 50.1962 40.0833 49.3299 34.2202 46.9123C35.4687 47.1918 36.4349 47.3561 36.8888 47.3383C36.5976 47.2537 36.2539 47.1207 35.8401 47.0005L35.8356 47.0158Z" fill="#80BA27"/>
<path d="M50.4852 50.1406C52.7027 51.4329 57.0053 53.2145 59.2313 54.0771C58.1153 54.0853 54.5295 53.3264 47.6498 51.2617C44.1487 50.2115 40.0788 49.3452 34.2158 46.9275C31.3069 46.2987 26.8001 45.106 23.9896 44.539C28.3619 46.424 32.8533 48.6427 36.0568 50.0884C42.212 52.8735 48.8163 55.2571 55.3598 56.9915C58.9688 57.9566 65.5768 57.9811 70.3968 57.7523C68.5416 57.3298 65.3119 56.3751 62.1347 54.9536C64.8008 55.4454 68.6792 56.4556 70.2077 55.8857C68.4514 55.4088 66.3491 54.3494 64.2794 53.3493C61.3789 52.8061 53.2442 50.9419 50.4897 50.1252L50.4852 50.1406Z" fill="#2FACB9"/>
<path d="M28.2014 44.5157C30.3507 45.356 33.7797 46.3686 35.8356 47.0156C38.2624 47.5875 44.1077 49.036 47.9942 49.2175C43.2891 47.7345 38.6744 46.6268 36.0544 45.1179C41.0959 45.3855 43.138 45.6795 44.8731 45.4854C41.7156 44.5683 37.0568 44.0129 34.2469 42.8145C34.4027 42.7932 34.5584 42.772 34.7449 42.7596C37.4357 42.5938 43.4201 43.3348 47.7228 44.6011C50.4358 45.3891 57.2882 48.1773 60.0447 49.5596C57.5967 48.832 51.3425 46.6165 47.6079 46.3129C51.0339 47.5075 59.8472 51.0979 62.8648 52.4397C65.7617 53.2811 68.8782 54.0534 69.6902 53.8903C67.3139 52.8012 64.1308 50.7132 62.0969 48.5601C58.4598 46.4898 52.2942 43.5687 47.1007 41.4785C39.233 39.7252 32.1265 40.3869 24.2564 41.6745C28.5058 42.0943 32.824 41.8194 34.2708 41.874C33.1205 42.6868 27.8134 42.9902 26.5333 42.9342C28.9214 43.8107 33.7023 44.5178 34.9142 44.6371C34.123 45.0722 29.2665 44.6256 28.2212 44.5048L28.2014 44.5157Z" fill="#2FACB9"/>
<path d="M67.7089 71.2986C66.9701 71.7821 65.8333 72.5489 65.0697 73.1748C67.2255 70.0446 69.9103 67.2675 71.1084 66.5185C70.6218 66.9922 68.8909 69.2319 67.7242 71.303L67.7089 71.2986Z" fill="#2FACB9"/>
<path d="M46.0445 65.8875C48.1179 64.5285 51.0764 63.3268 52.3156 63.2379C50.7823 62.9089 46.698 63.3515 44.0718 63.7522C47.329 62.4378 50.9318 61.3069 53.0244 61.0836C56.0471 60.7483 66.0195 60.0048 70.3219 59.8417C71.6485 59.7949 72.4421 59.8093 72.3605 59.9186C72.2745 60.0432 71.6633 60.4307 70.7905 60.975C70.2826 61.2929 69.6957 61.6543 69.0691 62.0374C66.8851 62.1178 60.8169 62.9813 58.6179 63.9715C57.5656 64.447 54.7441 65.9212 51.7172 67.7014C51.6174 67.4729 51.5719 67.3434 51.4721 67.1149C51.0859 67.1856 50.6952 67.2716 50.3001 67.3729C52.2282 66.1711 53.8882 65.0909 54.3338 64.4724C50.5521 65.4183 45.0569 66.5979 43.7454 68.1949C43.8879 67.7044 44.4057 67.1234 45.1207 66.55C45.3848 66.3275 45.6949 66.1184 46.0049 65.9092L46.0445 65.8875Z" fill="#125C90"/>
<path d="M59.2288 100.266C61.7723 96.2014 65.1585 90.952 66.7575 88.3084C67.3074 87.3877 67.9692 85.9677 68.6869 84.298C71.1297 78.6916 74.7126 70.5907 75.775 68.3064C76.594 66.5166 79.1311 62.4168 81.2908 59.3875C79.4383 60.844 74.638 65.5828 73.2943 67.5194C72.2795 68.9533 70.7845 70.8958 69.7964 72.2377C68.9437 74.2006 67.4757 77.9959 66.7993 81.7552C68.0335 77.7923 72.4286 70.9578 74.4121 69.1073C72.6182 73.2235 68.698 82.2569 68.0624 83.7011C66.7868 86.6049 63.7567 91.1432 62.5214 92.3634C62.9003 90.9444 66.7777 80.17 66.6169 77.3476C64.3678 83.7748 61.0373 90.3201 59.9219 93.1874C60.3392 89.519 63.6776 78.6546 65.5467 74.394C63.1745 76.8962 61.0317 83.587 60.1446 87.3849C59.3154 92.0139 58.9703 95.7199 58.9399 97.1405C59.2105 95.9227 60.2244 94.206 60.4628 93.3279C60.1818 94.9249 59.5569 97.9347 59.2288 100.266Z" fill="#2FACB9"/>
<path d="M65.0651 73.1905C63.7744 75.0594 62.6804 77.0519 62.0482 78.7133C62.0819 78.5402 62.12 78.3518 62.167 78.1328C62.7052 75.8791 64.5981 71.7085 65.6876 69.7313C68.7804 66.4079 73.1221 63.763 75.295 61.7182C76.5081 60.5746 78.3363 59.1444 80.0472 57.946C80.883 57.3577 81.6811 56.8416 82.3516 56.4214C83.4465 55.7421 84.1892 55.3595 84.1051 55.5345C84.0586 55.6374 83.8667 55.8974 83.5888 56.2821C83.0705 56.9792 82.2303 58.0981 81.306 59.392C79.4535 60.8484 74.6532 65.5873 73.3095 67.5239C72.2947 68.9578 70.7997 70.9003 69.8116 72.2422C69.2028 73.0792 68.7617 73.6824 68.7439 73.7437C68.9813 73.098 69.4106 72.1922 69.919 71.2429C70.9027 69.4011 72.1609 67.4729 72.4017 67.0442C71.2174 68.1462 66.9822 72.9993 66.5059 74.1242C66.5148 74.0935 66.5237 74.0629 66.5371 74.0169C66.6781 73.3598 67.1341 72.362 67.7394 71.3079C68.917 69.2565 70.6523 67.0015 71.1236 66.5234C69.9452 67.2615 67.2407 70.0494 65.0849 73.1796L65.0651 73.1905Z" fill="#125C90"/>
<path d="M95.0459 82.0148C95.8329 79.5342 97.0141 75.6389 96.5027 73.2798C95.8313 76.3923 95.5006 79.3047 94.2791 80.8779C94.6145 79.3797 95.0245 74.8782 94.5714 72.2036C94.3022 74.1033 94.1146 75.8937 94.0511 77.3712C93.7983 82.5333 90.7277 86.8105 89.1034 90.7433C90.7125 89.266 92.8174 85.7388 95.0612 82.0192L95.0459 82.0148Z" fill="#125C90"/>
</g>
<defs>
<clipPath id="clip0_278_1076">
<rect width="78" height="71" fill="white" transform="translate(4.99976 45.043)"/>
</clipPath>
<clipPath id="clip1_278_1076">
<rect width="116.916" height="92.2243" fill="white" transform="translate(112.276 121.175) rotate(-163.804)"/>
</clipPath>
</defs>
</svg>
