<svg width="146" height="172" viewBox="0 0 146 172" fill="none" xmlns="http://www.w3.org/2000/svg">
<g clip-path="url(#clip0_163_1469)">
<path d="M46.5706 131.908C48.8768 131.75 55.8358 130.04 60.832 128.571C59.057 128.603 56.4577 128.916 55.1591 128.98C53.2772 129.09 41.2592 130.796 41.6907 130.117C42.1222 129.438 49.9587 129.763 55.8247 126.331C53.7075 126.175 49.2401 127.729 50.3607 127.006C51.4814 126.282 54.6773 124.739 56.9079 124.238C59.1385 123.738 65.2631 120.861 67.1997 120.593C67.3854 120.569 67.6505 120.546 67.9157 120.522C70.4349 120.261 75.285 120 74.7768 120.442C74.4021 120.78 72.256 120.834 69.7782 122.122C68.6855 122.714 67.5366 123.596 66.4888 124.899C69.6544 123.699 76.3015 121.459 76.3015 121.459C76.3015 121.459 73.1556 123.265 71.3098 124.875C74.0233 123.827 76.8723 122.518 78.0986 121.821C80.0715 120.686 83.8667 117.677 85.1843 115.93C83.7435 116.86 79.2463 118.704 74.2117 118.883C72.0653 118.964 70.0775 119.073 68.0344 119.392C65.3015 119.809 62.5108 120.645 59.7175 121.719C54.8231 123.557 48.6747 126.197 43.7287 127.904C39.8466 129.228 35.6354 129.207 33.4411 128.84C34.36 129.561 35.3057 130.255 36.2776 130.976C38.973 131.533 43.3369 132.109 46.5706 131.908Z" fill="#213820"/>
<path d="M69.7779 122.148C72.2013 120.992 74.3754 120.806 74.7765 120.468C75.2848 120.027 70.4081 120.287 67.9154 120.549C67.2741 121.041 65.9645 122.079 64.6555 123.063C66.0889 122.79 68.3719 122.343 69.7779 122.148Z" fill="#80BA27"/>
<path d="M55.1591 128.98C56.4577 128.916 59.057 128.603 60.832 128.571C63.6226 127.734 65.8291 127.023 66.7608 126.612C67.7458 126.176 69.6336 125.54 71.3098 124.875C73.1553 123.291 76.3015 121.459 76.3015 121.459C76.3015 121.459 69.6541 123.725 66.4888 124.899C67.5101 123.596 68.6858 122.688 69.7781 122.122C68.3459 122.29 66.0894 122.738 64.6557 123.037C65.9386 122.026 67.2744 121.015 67.9156 120.522C67.624 120.545 67.3854 120.569 67.1997 120.593C65.2631 120.861 59.1385 123.738 56.9079 124.239C54.6773 124.739 51.4814 126.282 50.3607 127.006C49.2401 127.73 53.7075 126.175 55.8247 126.331C49.9587 129.763 42.1221 129.438 41.6907 130.117C41.2592 130.796 53.2772 129.091 55.1591 128.98Z" fill="#E4D630"/>
<path d="M81.1515 137.614C81.5815 137.066 82.0124 136.44 82.0427 136.098C82.1007 135.651 81.358 135.748 80.0886 135.576C79.0774 135.985 76.9522 136.54 75.1754 136.731C75.6256 136.736 78.7397 137.744 79.7955 138.072C80.1942 137.945 80.6462 137.792 81.1515 137.614Z" fill="#80BA27"/>
<path d="M50.0733 140.708C52.5607 140.92 59.0975 141.415 61.8232 141.63C63.0936 141.723 65.7202 141.332 68.5073 140.811C67.5807 140.774 66.5219 140.71 65.4899 140.619C62.8436 140.405 60.1985 140.086 60.0193 139.531C61.9012 139.421 63.8396 138.996 65.3542 138.566C67.2673 138.035 68.5451 137.471 68.6516 137.419C68.6251 137.419 68.5986 137.419 68.5457 137.418C64.4639 137.661 57.2531 138.211 57.3935 137.502C59.8681 136.504 63.1679 135.147 66.0127 134.206C67.6612 133.646 69.1756 133.242 70.3959 133.072C72.2001 132.803 75.3538 132.655 77.9516 132.474C80.0456 132.339 81.901 132.229 82.9068 132.293C82.9862 132.294 83.0392 132.294 83.1186 132.295C82.1048 132.941 79.6638 133.308 79.5046 133.333C82.8365 133.818 87.3376 133.974 86.9906 134.207C86.7505 134.362 82.7993 134.764 80.0697 134.891C78.8244 134.93 77.8707 134.945 77.7912 134.945C78.6616 135.27 79.4279 135.437 80.0626 135.523C81.332 135.695 82.0745 135.624 82.0167 136.045C81.9599 136.386 81.5555 137.013 81.1255 137.56C83.9968 136.619 87.986 135.191 90.111 134.663C92.7406 134.009 94.9489 135.481 96.9379 135.266C94.5784 133.109 88.1006 132.088 82.6785 131.396C80.0602 131.051 77.7055 130.813 76.461 130.773C72.5953 130.65 61.6152 134.262 58.4818 134.963C55.6402 135.615 47.2014 137.019 45.0538 137.205C45.6844 137.659 46.3152 138.087 46.9461 138.515C47.9186 139.184 48.9699 139.906 50.0736 140.682L50.0733 140.708Z" fill="#213820"/>
<path d="M80.096 134.918C82.8256 134.791 86.7768 134.389 87.0169 134.234C87.3639 134.001 82.8893 133.845 79.5309 133.36C79.7166 133.336 82.1311 132.968 83.1449 132.322C83.0919 132.321 83.0125 132.321 82.933 132.32C81.9272 132.256 80.0719 132.366 77.9778 132.5C77.3916 132.809 76.4855 133.299 75.3131 133.917C76.3728 133.903 79.4101 134.674 80.0695 134.918L80.096 134.918Z" fill="#80BA27"/>
<path d="M65.49 140.62C67.7748 140.014 72.2672 138.592 72.8267 138.309C71.3159 138.397 66.9678 138.768 65.3278 138.566C63.8132 138.996 61.9013 139.421 59.993 139.531C60.1989 140.06 62.8172 140.405 65.4636 140.619L65.49 140.62Z" fill="#80BA27"/>
<path d="M68.5456 137.445C70.2727 136.964 72.0542 136.353 72.1075 136.327C69.6139 136.667 67.2574 136.588 67.9549 135.807C68.6524 135.026 70.9928 134.184 70.9928 134.184C69.5882 134.247 67.0985 134.245 66.0123 134.259C63.1672 135.227 59.8678 136.557 57.3932 137.555C57.253 138.238 64.4635 137.714 68.5453 137.471L68.5456 137.445Z" fill="#80BA27"/>
<path d="M72.8531 138.309C72.2937 138.592 67.7748 140.014 65.5165 140.619C66.5749 140.71 67.6072 140.775 68.5339 140.811C73.2322 139.918 77.8541 138.76 79.4765 138.173C79.5827 138.148 79.6892 138.096 79.7958 138.045C78.74 137.717 75.6524 136.709 75.1756 136.704C76.9521 136.54 79.0777 135.959 80.0888 135.549C79.4541 135.463 78.6879 135.297 77.8175 134.971C77.8969 134.972 78.8506 134.957 80.096 134.918C79.4366 134.674 76.3992 133.903 75.3396 133.917C76.512 133.299 77.3916 132.809 78.0043 132.5C75.38 132.681 72.2529 132.83 70.4487 133.099C69.2283 133.269 67.7137 133.699 66.0655 134.233C67.1248 134.245 69.6414 134.221 71.0459 134.158C71.0459 134.158 68.7055 135 68.008 135.781C67.3105 136.562 69.667 136.642 72.1606 136.301C72.0809 136.327 70.299 136.964 68.5987 137.419C68.6252 137.419 68.6517 137.419 68.7046 137.42C68.5981 137.471 67.2942 138.009 65.4073 138.566C67.0472 138.769 71.3956 138.371 72.9061 138.309L72.8531 138.309Z" fill="#E4D630"/>
<path d="M80.1997 153.86C81.6802 154.114 83.4525 154.318 85.279 154.417C84.6196 154.173 83.5102 153.898 82.3214 153.621C81.0005 153.317 79.5736 153.011 78.7279 152.844C76.7988 152.454 71.4127 150.92 71.5722 150.869C74.2721 151.031 80.1941 152.019 82.6062 151.862C80.02 151.017 69.7579 149.691 68.8125 148.97C74.2938 149.111 82.7883 149.812 83.7929 149.981C84.1101 150.037 84.6933 149.991 85.3563 149.92C86.5234 149.775 87.9839 149.45 88.9138 149.197C87.4849 149.076 86.0565 148.902 84.6026 148.649C79.9491 147.912 75.712 147.838 71.5026 147.659C67.9814 147.514 61.6023 147.126 59.0605 147.045C60.1639 147.846 61.1622 148.568 62.0291 149.209C65.8475 151.172 74.5426 152.875 80.2262 153.86L80.1997 153.86Z" fill="#213820"/>
<path d="M82.6063 151.862C80.1942 152.019 74.2984 151.058 71.5723 150.869C71.4128 150.92 76.7992 152.427 78.728 152.844C79.5737 153.011 81.0006 153.317 82.3215 153.621C84.6268 153.542 88.2599 153.162 88.5518 153.113C85.7463 152.923 83.7216 151.611 83.9364 151.351C84.1516 151.064 89.2359 151.174 89.5802 151.178C87.94 151.001 86.2524 150.325 85.3567 149.894C84.6937 149.965 84.1105 150.011 83.7933 149.955C82.7887 149.786 74.2942 149.085 68.8129 148.944C69.7583 149.665 80.0204 150.991 82.6066 151.835L82.6063 151.862Z" fill="#80BA27"/>
<path d="M105.174 151.827C103.75 151.285 100.066 151.428 98.027 151.404C96.435 151.65 93.888 152.015 92.0842 152.258C92.8525 152.24 97.8538 152.665 100.685 152.881C102.679 152.273 104.644 151.848 105.174 151.827Z" fill="#80BA27"/>
<path d="M96.8622 151.339C97.1003 151.368 97.5237 151.399 98.0534 151.405C100.066 151.428 103.75 151.285 105.2 151.828C104.67 151.848 102.705 152.299 100.712 152.882C99.4095 153.288 98.0799 153.747 97.1741 154.21C97.6779 154.163 98.0758 154.115 98.3412 154.065C100.517 153.722 107.387 152.878 109.452 152.954C111.517 153.057 116.748 154.247 117.474 153.256C114.932 153.174 109.998 151.514 107.599 150.487C106.018 149.811 104.697 149.481 102.553 149.378C103.714 149.733 104.849 150.114 104.926 150.299C105.081 150.669 99.7317 150.556 96.8625 151.313L96.8622 151.339Z" fill="#213820"/>
<path d="M85.279 154.417C89.858 154.706 94.6817 154.445 97.1477 154.209C98.0538 153.72 99.3833 153.261 100.685 152.881C97.8538 152.665 92.8525 152.24 92.0842 152.258C93.8881 152.015 96.4353 151.623 98.027 151.405C97.4973 151.399 97.0736 151.394 96.8358 151.338C99.7315 150.582 105.081 150.695 104.899 150.325C104.822 150.14 103.687 149.759 102.526 149.404C101.44 149.365 100.116 149.376 98.473 149.437C95.1078 149.556 92.0095 149.495 88.8873 149.197C87.9574 149.449 86.4972 149.748 85.3299 149.919C86.252 150.351 87.9396 151.027 89.5533 151.204C89.209 151.2 84.1244 151.116 83.9096 151.376C83.6947 151.637 85.7459 152.949 88.5249 153.139C88.233 153.188 84.5999 153.568 82.2946 153.647C83.4835 153.923 84.5928 154.199 85.2522 154.443L85.279 154.417ZM92.0574 152.284C92.0574 152.284 92.0309 152.284 92.0044 152.284C92.0044 152.284 92.0309 152.284 92.0574 152.284Z" fill="#E4D630"/>
<path d="M116.09 177.284C122.357 178.197 140.813 181.088 143.088 181.298C139.771 179.551 132.371 178.099 129.756 177.438C127.247 176.779 115.915 171.705 110.211 170.115C113.345 171.729 121.063 175.551 121.163 176.079C121.288 176.685 114.065 173.631 109.13 172.049C109.472 172.237 115.425 175.172 115.843 175.676C116.288 176.208 111.426 175.179 109.066 175.337C109.066 175.337 113.053 176.46 116.063 177.31L116.09 177.284Z" fill="#213820"/>
<path d="M94.8398 170.914C94.6553 170.833 89.8287 169.016 86.7944 167.982C89.4785 169.538 92.1379 170.937 94.1144 171.827C99.9376 174.523 109.796 176.371 115.694 177.174C115.826 177.176 115.959 177.204 116.091 177.231C113.08 176.408 109.094 175.258 109.094 175.258C111.453 175.101 116.315 176.129 115.871 175.598C115.426 175.093 109.5 172.159 109.158 171.971C114.093 173.552 121.316 176.607 121.19 176C121.063 175.499 113.373 171.65 110.239 170.036C109.975 169.981 109.737 169.899 109.499 169.844C105.51 168.904 98.8701 165.857 94.788 163.785C92.5663 163.497 89.3478 162.355 86.2634 161.058C88.2545 163.001 97.601 167.999 101.739 169.782C100.892 169.72 94.9044 167.548 90.9249 165.767C91.1615 165.927 91.3981 166.088 91.582 166.221C91.0541 166.058 82.5221 161.647 76.4123 158.526C78.2245 159.888 91.9442 169.33 94.8934 170.862L94.8398 170.914Z" fill="#E4D630"/>
<path d="M101.686 169.861C97.5472 168.078 88.2272 163.079 86.2096 161.136C81.7282 159.244 77.3309 156.932 76.9854 157.033C76.3739 157.237 87.0327 163.303 90.8449 165.818C94.8508 167.6 100.812 169.798 101.659 169.834L101.686 169.861Z" fill="#80BA27"/>
<path d="M62.4115 150.528C63.2992 151.67 70.6478 157.672 73.644 159.731C75.7205 161.149 81.4518 164.949 86.7676 168.008C89.8023 169.016 94.6286 170.859 94.8131 170.94C91.8903 169.408 78.1442 159.966 76.332 158.604C82.4418 161.725 90.9738 166.135 91.5017 166.299C91.3178 166.166 91.1077 166.005 90.8446 165.845C87.0589 163.329 76.4004 157.237 76.9851 157.059C77.3041 156.958 81.7014 159.27 86.2093 161.162C89.2672 162.46 92.5122 163.601 94.7339 163.889C93.1276 163.056 91.837 162.41 91.1523 162.06C88.6488 160.927 81.1193 156.869 76.2091 155.42C71.9323 154.161 65.5554 151.248 63.6833 150.49C64.4972 151.131 65.0224 151.531 65.101 151.611C64.5975 151.632 63.5958 151.199 62.385 150.528L62.4115 150.528Z" fill="#213820"/>
<path d="M84.0295 175.895C83.8721 175.762 83.6885 175.602 83.5046 175.469C83.5046 175.469 85.7694 176.625 87.4555 177.434C85.7504 175.967 80.8898 172.466 79.2362 171.132C77.635 169.851 73.2559 165.935 71.2675 163.755C70.0858 162.848 68.8791 161.808 67.8579 160.77C67.6689 161.084 68.8658 162.992 69.4621 164.13C73.4109 168.62 80.1626 173.537 84.0295 175.895Z" fill="#80BA27"/>
<path d="M87.4825 177.408C88.299 177.812 88.9841 178.135 89.1156 178.215C89.5896 178.457 90.0988 177.937 88.2916 176.128C91.2715 177.293 101.278 182.457 103.68 183.194C102.583 181.84 88.9697 174.715 86.8677 173.218C86.3422 172.844 85.5006 172.308 84.5279 171.666C81.609 169.791 77.5328 167.194 76.1872 166.731C75.079 166.35 73.1853 165.171 71.2683 163.703C73.2832 165.883 77.6358 169.799 79.237 171.08C80.8907 172.414 85.7512 175.915 87.4563 177.381L87.4825 177.408Z" fill="#E4D630"/>
<path d="M63.5486 160.064C65.6135 162.508 68.2506 165.879 68.8811 166.333C68.0801 164.561 63.0225 157.401 63.5608 156.645C66.3744 160.806 68.8032 163.859 69.6959 164.553C69.6444 164.421 69.5664 164.289 69.4888 164.13C68.9189 162.992 67.6956 161.084 67.8845 160.771C68.9058 161.808 70.086 162.848 71.2941 163.756C73.2111 165.224 75.1049 166.403 76.213 166.784C77.5586 167.246 81.6348 169.844 84.5537 171.719C85.5268 172.335 86.368 172.897 86.8935 173.271C88.9956 174.768 102.609 181.893 103.706 183.247C101.304 182.51 91.2708 177.345 88.3174 176.181C90.1246 177.99 89.6158 178.484 89.1414 178.268C88.9834 178.188 88.3249 177.864 87.5083 177.461C85.8223 176.652 83.5575 175.496 83.5575 175.496C83.7411 175.656 83.8985 175.789 84.0824 175.922C86.6281 178.003 88.9498 178.819 88.2029 179.284C87.7762 179.542 86.48 179.396 85.3697 179.199C87.2938 180.036 89.0075 180.74 90.3255 181.307C96.2026 183.925 112.905 187.271 115.968 185.78C111.597 185.835 97.0845 178.542 92.9533 176.128C90.6376 174.786 87.6919 172.938 85.0887 171.251C83.064 169.939 81.1977 168.682 79.9098 167.799C76.9927 165.767 68.7317 160.807 66.2714 158.201C64.2559 156.074 61.7634 151.626 60.6743 149.562C59.7009 148.972 58.7014 148.356 57.7545 147.766C57.9336 148.321 58.0866 148.849 58.2398 149.35C59.5962 153.548 61.129 156.196 63.548 160.117L63.5486 160.064Z" fill="#213820"/>
<path d="M68.8811 166.333C68.2506 165.878 65.6131 162.534 63.5486 160.064C64.485 161.574 65.5516 163.296 66.7466 165.362C70.436 171.717 78.7543 176.283 85.3435 179.172C86.4272 179.369 87.75 179.515 88.1767 179.257C88.9236 178.792 86.6019 177.976 84.0562 175.896C80.1892 173.537 73.4375 168.62 69.4887 164.13C69.5664 164.289 69.6441 164.447 69.6958 164.553C68.8296 163.859 66.374 160.833 63.5607 156.645C63.0224 157.401 68.08 164.561 68.8811 166.333Z" fill="#E4D630"/>
<path d="M56.9083 161.699C59.216 166.092 65.7368 172.69 68.7556 175.092C68.131 174.111 62.8881 166.949 61.2481 164.405C58.7378 161.536 56.384 158.879 56.0138 158.822C55.3526 158.735 56.242 159.719 56.8824 161.646L56.9083 161.699Z" fill="#80BA27"/>
<path d="M57.4255 165.151C56.9071 164.146 55.9582 161.399 55.4743 159.684C53.7653 156.218 51.0978 150.848 50.6506 150.58C50.0721 150.205 52.0849 154.91 51.9611 156.487C53.3791 159.923 55.6963 163.474 57.4255 165.151Z" fill="#80BA27"/>
<path d="M71.562 179.884C71.7986 180.045 72.0352 180.206 72.2982 180.366C74.3021 181.178 76.9898 182.419 76.8594 182.233C76.677 181.968 74.3985 179.68 74.2676 179.547C76.2128 180.858 79.2558 183.47 79.3135 183.05C79.3156 182.866 78.0348 181.352 76.7017 179.785C73.9986 177.571 70.3863 173.768 67.7429 170.95C65.9813 169.799 63.5757 167.036 61.3266 164.485C62.9404 167.002 68.2099 174.164 68.8342 175.171C65.8156 172.743 59.2945 166.172 56.9868 161.779C57.0892 162.096 57.1916 162.412 57.2669 162.782C56.8741 162.382 56.278 161.218 55.579 159.79C56.0629 161.505 57.0121 164.225 57.5302 165.257C55.801 163.58 53.4838 160.029 52.0658 156.593C52.0652 156.646 52.0647 156.699 52.0641 156.751C51.102 155.162 46.877 144.644 45.5126 141.156C45.1972 140.942 44.882 140.702 44.5404 140.461C45.3793 143.575 48.3994 152.895 52.4676 160.886C56.8723 169.564 66.3048 176.326 71.6933 179.991L71.562 179.884Z" fill="#E4D630"/>
<path d="M51.9609 156.487C52.0579 154.936 50.0719 150.205 50.6504 150.58C51.0712 150.848 53.7651 156.218 55.4741 159.684C56.1993 161.139 56.7956 162.277 57.162 162.675C57.0864 162.333 56.9843 161.989 56.8819 161.673C56.2415 159.745 55.3521 158.762 56.0133 158.848C56.3838 158.879 58.7373 161.562 61.2476 164.432C63.4964 167.009 65.902 169.772 67.6639 170.897C66.8001 169.992 66.0413 169.168 65.4396 168.504C62.5346 165.393 58.1466 159.924 55.5029 154.791C53.3 150.505 50.5998 145.686 49.2199 143.566C48.3522 143.004 47.616 142.522 47.1164 142.201C46.6694 141.906 46.0912 141.505 45.3815 141.024C46.7459 144.511 50.9709 155.029 51.933 156.618C51.9336 156.566 51.9342 156.513 51.9348 156.461L51.9609 156.487Z" fill="#213820"/>
<path d="M47.5941 165.54C46.7338 164.32 45.9247 163.259 45.2974 162.515C42.5026 159.037 40.7671 153.23 39.0364 149.344C38.9778 149.843 39.8405 153.193 40.6273 156.228C41.6376 158.238 44.1985 163.66 47.5676 165.54L47.5941 165.54Z" fill="#80BA27"/>
<path d="M33.4188 142.519C34.0432 145.867 36.3512 152.575 36.5818 153.262C36.2723 150.18 34.679 141.165 35.2995 140.173C36.3672 146.472 39.3677 155.187 41.1561 158.654C41.2338 158.812 41.3117 158.945 41.3897 159.077C41.1612 158.206 40.9073 157.23 40.6276 156.201C39.8408 153.167 38.9516 149.816 39.0367 149.317C40.7674 153.204 42.5029 159.011 45.2977 162.488C45.8983 163.258 46.7077 164.293 47.5944 165.513C49.0808 167.582 50.7214 170.073 52.1259 172.352C52.2857 172.275 52.3655 172.249 52.5253 172.172C52.7089 172.332 52.9192 172.466 53.1558 172.626C52.8181 172.044 52.4535 171.487 52.1161 170.878C50.0098 167.408 45.5801 160.94 43.7878 157.815C42.0217 154.717 39.2775 146.768 38.3862 143.601C37.6479 140.962 36.1419 135.947 35.4259 133.677C34.8745 133.249 34.3754 132.875 33.9029 132.502C33.5979 133.708 32.8784 136.436 32.2312 139.796C31.7533 142.237 31.7212 145.078 32.6604 148.693C32.7669 146.3 33.3379 142.65 33.4456 142.493L33.4188 142.519Z" fill="#213820"/>
<path d="M35.1993 156.061C36.6556 158.445 38.6607 161.493 40.0265 162.508C38.6232 160.124 36.9749 155.975 37.5058 155.876C38.0101 155.777 40.4878 161.539 42.9157 164.671C45.3704 167.777 48.5059 171.574 48.6622 171.812C47.1032 169.138 43.0353 163.462 41.1823 158.68C39.3941 155.187 36.3937 146.472 35.3256 140.199C34.7052 141.192 36.2985 150.207 36.608 153.288C36.3509 152.601 34.0693 145.893 33.445 142.546C33.3373 142.702 32.7663 146.352 32.6597 148.745C33.2183 150.882 34.0649 153.312 35.199 156.087L35.1993 156.061Z" fill="#80BA27"/>
<path d="M35.1994 156.061C35.7154 157.277 36.2572 158.545 36.8777 159.894C38.6358 163.702 41.4294 167.285 44.2808 170.448C46.0335 172.388 47.8406 174.197 49.4392 175.715C49.544 175.821 49.6487 175.927 49.7535 176.034C50.9634 176.784 53.9088 178.659 54.2281 178.531C54.6271 178.378 52.8423 176.937 51.9106 175.006C52.3025 175.484 53.9061 176.554 55.1601 178.094C54.8259 177.196 53.6067 174.92 52.0724 172.403C50.6943 170.126 49.0276 167.608 47.5409 165.565C44.1718 163.686 41.6109 158.264 40.6006 156.253C40.8803 157.282 41.1342 158.259 41.3627 159.129C41.2847 158.997 41.2071 158.838 41.1291 158.706C42.9821 163.488 47.05 169.164 48.609 171.838C48.4527 171.6 45.3172 167.802 42.8625 164.697C40.4078 161.591 37.957 155.802 37.4526 155.902C36.9217 156.001 38.57 160.15 39.9734 162.533C38.6075 161.518 36.6027 158.444 35.1461 156.086L35.1994 156.061Z" fill="#E4D630"/>
<path d="M20.942 133.276C20.6986 136.062 21.1977 141.118 21.7756 143.887C21.7762 143.834 21.8336 143.44 21.8663 142.888C21.9258 142.31 21.9609 141.548 22.0225 140.786C22.1475 139.103 22.326 137.369 22.326 137.369C22.326 137.369 23.5399 144.801 25.023 147.159C24.715 146.288 24.5713 144.944 24.4296 143.417C24.288 141.89 24.1484 140.178 23.8496 138.491C23.9764 138.992 26.296 147.016 29.6783 154.762C30.2722 156.11 30.8924 157.485 31.5131 158.808C34.7987 165.737 38.2565 169.143 41.1174 171.464C42.0622 172.238 42.9555 172.879 43.6908 173.44C44.321 173.921 44.9525 174.296 45.5584 174.592C47.0331 175.346 48.3547 175.597 49.2277 175.686C49.2807 175.687 49.3602 175.688 49.4131 175.688C47.7884 174.144 46.0074 172.361 44.2547 170.421C41.9276 170.079 39.6837 169.422 34.8314 162.844C32.8487 160.164 31.3697 157.438 30.1562 154.662C28.2713 150.353 26.9474 145.629 26.0148 141.436C24.6533 135.344 24.6878 127.61 24.7976 124.928C24.4307 124.582 24.1685 124.342 23.9849 124.182C23.8799 124.102 23.7492 123.943 23.5391 123.782C22.9113 125.433 21.2404 130.307 20.9459 132.934C20.9447 133.039 20.9432 133.171 20.9155 133.276L20.942 133.276Z" fill="#213820"/>
<path d="M34.7495 167.736C35.8726 169.143 37.178 170.815 36.9903 171.023C36.6945 171.414 34.884 169.895 33.4964 168.458C33.4191 168.273 33.8547 169.567 34.2166 170.361C38.1059 173.088 43.2836 174.304 45.5848 174.593C44.9789 174.297 44.3477 173.895 43.7172 173.441C42.9819 172.88 42.0886 172.238 41.1438 171.465C39.8499 171.108 37.0126 169.05 34.7828 167.131C34.2058 166.625 33.6553 166.119 33.1837 165.666C33.1822 165.798 33.9136 166.7 34.7233 167.709L34.7495 167.736Z" fill="#80BA27"/>
<path d="M21.8663 142.889C22.3392 145.577 24.3178 153.307 24.8088 154.391C23.8729 152.829 22.5966 150.92 21.7393 149.437C23.986 156.881 27.2817 162.916 31.3849 167.803C32.1952 168.759 33.1656 169.612 34.2166 170.361C33.8548 169.567 33.4191 168.273 33.4965 168.458C34.8841 169.895 36.668 171.414 36.9903 171.023C37.1784 170.789 35.8726 169.143 34.7496 167.736C33.5185 166.512 31.7423 164.308 29.6676 160.392C26.1669 153.749 25.0001 149.185 24.8989 148.763C25.1102 151.159 25.8256 153.482 25.975 154.326C24.9617 152.578 22.1219 143.707 22.0222 140.812C21.9606 141.574 21.899 142.336 21.866 142.915L21.8663 142.889Z" fill="#E4D630"/>
<path d="M28.7391 155.83C29.8232 158.341 32.6174 164.213 34.8091 167.158C37.0123 169.077 39.8764 171.108 41.17 171.491C38.3091 169.17 34.8513 165.764 31.5658 158.835C30.9188 157.486 30.3249 156.137 29.7309 154.789C26.3486 147.043 24.029 139.02 23.9022 138.518C24.201 140.205 24.3406 141.917 24.4822 143.444C25.3786 146.164 27.6297 153.213 28.7653 155.857L28.7391 155.83Z" fill="#E4D630"/>
<path d="M21.7392 149.437C22.5965 150.92 23.8728 152.828 24.8087 154.391C24.3439 153.334 22.3391 145.577 21.8662 142.888C21.807 143.44 21.7761 143.834 21.7755 143.887C21.1976 141.118 20.6988 136.035 20.9419 133.276C20.9431 133.171 20.9446 133.039 20.9723 132.934C20.1191 135.766 19.3764 140.545 21.0518 146.983C21.2542 147.827 21.5098 148.645 21.7392 149.437Z" fill="#80BA27"/>
<path d="M22.0489 140.786C22.1486 143.681 24.9884 152.552 26.0016 154.3C25.8522 153.456 25.1369 151.133 24.9256 148.737C25.0267 149.159 26.1936 153.723 29.6942 160.366C31.7689 164.282 33.5452 166.486 34.7762 167.71C33.9665 166.701 33.2351 165.798 33.2366 165.667C33.6818 166.119 34.2323 166.625 34.8357 167.132C32.6441 164.187 29.8499 158.315 28.7658 155.804C27.6302 153.161 25.3791 146.111 24.4827 143.392C24.6244 144.919 24.7678 146.289 25.0761 147.134C23.5665 144.775 22.3792 137.344 22.3792 137.344C22.3792 137.344 22.2006 139.078 22.0757 140.76L22.0489 140.786Z" fill="#80BA27"/>
<path d="M13.017 136.08C13.0016 137.448 12.8763 139.156 12.3865 140.308C12.4136 140.256 12.4668 140.23 12.4939 140.178C12.8962 139.735 13.2206 139.16 13.4929 138.506C14.1737 136.856 14.5177 134.545 14.8679 131.681C15.1878 133.842 14.9328 137.654 14.6671 140.071C14.6367 140.413 14.6067 140.728 14.5507 140.99C14.7659 140.703 14.9554 140.337 15.12 139.839C15.1221 139.655 15.1771 139.472 15.2057 139.288C15.2039 139.446 15.1759 139.577 15.1477 139.734C15.7526 137.768 15.8181 134.323 15.8383 130.193C16.1126 131.695 16.1966 135.984 16.4734 139.618C16.5662 140.776 16.6599 141.856 16.7561 142.725C17.0637 138.941 17.3172 135.26 17.4761 132.921C17.7894 128.637 17.8539 120.588 17.9331 118.273C17.4099 117.689 16.9127 117.157 16.5208 116.679C15.8831 119.197 14.9172 124.974 14.5164 127.626C14.2299 129.543 13.7928 133.064 12.9908 136.053L13.017 136.08Z" fill="#213820"/>
<path d="M15.1738 139.761C14.8471 142.888 14.424 147.513 13.8851 148.322C14.9799 147.546 16.0386 142.928 16.4995 139.645C16.2227 136.011 16.1388 131.722 15.8644 130.22C15.8174 134.376 15.7788 137.795 15.1738 139.761Z" fill="#80BA27"/>
<path d="M14.6933 140.098C14.959 137.681 15.2143 133.843 14.8941 131.708C14.5439 134.572 14.1999 136.883 13.519 138.533C13.2316 140.529 12.3633 144.701 11.1796 146.319C9.67329 148.354 6.42264 152.395 6.66129 152.371C8.31341 151.495 13.0305 146.603 14.7195 140.124L14.6933 140.098Z" fill="#E4D630"/>
<path d="M12.3866 140.308C12.8764 139.156 13.0016 137.448 13.0171 136.08C12.5743 137.759 12.0274 139.278 11.2754 140.19C11.1412 140.347 11.0067 140.529 10.8719 140.738C10.3786 142.206 9.85544 143.963 9.09634 145.506C8.74402 146.212 7.90815 147.518 6.70032 148.925C6.55987 149.634 6.28433 150.578 5.79751 151.467C7.79629 150.384 11.2674 143.242 12.547 140.179C12.5199 140.231 12.4666 140.257 12.4395 140.309L12.3866 140.308Z" fill="#E4D630"/>
<path d="M4.25161 154.658C4.25161 154.658 4.22274 154.869 4.16858 154.973C6.53814 153.895 13.7977 149.032 15.1462 139.866C14.982 140.338 14.7921 140.73 14.577 141.017C14.6064 140.754 14.663 140.439 14.6933 140.098C13.0043 146.576 8.31344 151.495 6.63514 152.344C6.39679 152.341 9.67362 148.327 11.1534 146.292C12.3372 144.674 13.2054 140.502 13.4929 138.506C13.2206 139.16 12.8963 139.735 12.494 140.178C11.2147 143.215 7.74358 150.357 5.7445 151.466C6.25781 150.577 6.50686 149.633 6.64731 148.924C3.72072 152.416 -1.57186 156.671 -5.34745 157.943C-3.52274 158.201 1.71125 156.787 4.22512 154.658L4.25161 154.658Z" fill="#80BA27"/>
<path d="M11.2251 151.66C11.2697 152.397 10.0039 154.25 9.22303 155.373C11.2239 154.106 12.8546 152.783 13.9779 151.822C15.636 150.421 16.4186 146.799 16.7557 142.752C16.6596 141.883 16.5658 140.803 16.473 139.644C16.0121 142.927 14.953 147.572 13.8586 148.322C14.3975 147.513 14.8471 142.888 15.1473 139.761C15.147 139.787 15.1464 139.84 15.1461 139.866C13.7976 149.032 6.53803 153.895 4.16847 154.973C4.05896 155.288 3.87031 155.575 3.62869 155.862C5.5135 155.488 9.9598 153.461 11.2516 151.66L11.2251 151.66Z" fill="#E4D630"/>
<path d="M9.2495 155.373C10.0303 154.25 11.2965 152.37 11.2515 151.66C9.95979 153.46 5.53997 155.488 3.62867 155.861C2.23426 157.371 -1.16729 158.359 -2.97325 158.786C-1.41278 158.987 2.99842 157.722 5.62449 157.383C6.92934 156.767 8.12914 156.07 9.22272 155.399L9.2495 155.373Z" fill="#80BA27"/>
<path d="M5.62492 157.357C2.99885 157.696 -1.41236 158.962 -2.97283 158.76C-1.19335 158.333 2.23468 157.345 3.62909 155.835C3.89721 155.549 4.08586 155.262 4.16888 154.947C4.19655 154.842 4.22423 154.737 4.2519 154.632C1.73833 156.735 -3.49596 158.175 -5.32068 157.918C-1.54509 156.645 3.7475 152.391 6.6741 148.899C7.88223 147.465 8.7178 146.186 9.07012 145.48C9.8557 143.936 10.352 142.206 10.8457 140.712C8.71898 143.739 4.82768 150.561 1.25564 152.573C-2.55625 154.713 -7.34923 156.948 -11.0373 157.511C-14.7254 158.074 -17.9642 158.722 -20.1954 159.275C-15.5205 160.459 -12.3139 160.311 -4.62999 160.083C-1.10585 159.965 2.50906 158.848 5.59844 157.357L5.62492 157.357Z" fill="#213820"/>
<path d="M2.37724 130.672C2.79504 131.203 -0.190139 139.877 -3.09144 143.474C1.83306 141.32 3.97254 132.479 4.87922 129.596C5.4401 124.498 6.10872 119.245 5.86977 119.295C5.44454 119.421 4.01566 128.665 1.69907 129.744C3.25326 125.815 5.49838 117.002 5.61888 115.714C5.76558 114.453 4.03375 120.037 2.94138 122.944C2.55871 123.992 1.58239 126.007 0.364743 128.282C1.55533 128.401 -0.237804 132.379 -1.43075 134.812C-1.40576 134.944 1.95974 130.115 2.37754 130.646L2.37724 130.672Z" fill="#80BA27"/>
<path d="M-7.56981 143.66C-7.98789 145.497 -11.0633 148.093 -11.8625 148.505C-9.39449 148.086 -4.61818 144.983 -4.18938 144.54C-5.22432 147.054 -11.4855 150.298 -15.8649 151.09C-13.4566 151.275 -5.56413 148.997 -1.62518 147.332C-0.662539 146.527 0.222432 145.564 1.00355 144.415C2.40421 142.353 3.33351 139.811 4.02356 137.346C4.17501 135.665 4.50054 132.643 4.82636 129.595C3.91967 132.479 1.78019 141.32 -3.14431 143.474C-0.243011 139.876 2.74216 131.203 2.32437 130.672C1.90657 130.141 -1.45893 134.97 -1.48392 134.838C-0.290677 132.378 1.50246 128.4 0.311573 128.308C-1.88031 132.413 -5.00924 137.402 -6.21381 138.52C-8.08761 140.261 -14.3747 148.135 -21.1495 149.952C-18.8772 150.451 -10.1247 147.078 -7.62278 143.66L-7.56981 143.66Z" fill="#E4D630"/>
<path d="M-1.59842 147.306C-5.56356 148.944 -13.4299 151.249 -15.8381 151.064C-11.4855 150.298 -5.22434 147.054 -4.16262 144.514C-4.59142 144.957 -9.36803 148.086 -11.8358 148.479C-11.0365 148.067 -7.96112 145.471 -7.54304 143.634C-10.0712 147.026 -18.7972 150.399 -21.0697 149.926C-14.2946 148.083 -8.00758 140.209 -6.13408 138.494C-4.92952 137.377 -1.80058 132.387 0.391309 128.282C1.60896 126.007 2.58557 123.966 2.96794 122.945C4.06031 120.037 5.76566 114.453 5.64545 115.714C5.49846 117.002 3.25334 125.815 1.72563 129.744C4.04222 128.665 5.49758 119.422 5.89632 119.295C6.13557 119.219 5.46697 124.473 4.90578 129.596C4.57996 132.644 4.25414 135.692 4.10299 137.347C5.64675 131.998 6.15794 126.611 7.18959 122.045C8.58456 115.8 8.68568 106.857 8.98234 104.046C8.41248 102.908 7.84291 101.744 7.29954 100.607C6.99334 101.919 6.3655 105.91 5.793 109.692C5.16247 113.92 2.74149 121.89 -0.268112 128.038C-0.32227 128.143 -0.376138 128.221 -0.403812 128.326C-3.38723 134.5 -12.4182 143.763 -15.01 145.76C-17.6551 147.782 -25.0167 149.961 -28.9331 151.968C-28.3769 151.975 -23.5411 152.976 -17.4685 152.361C-12.4568 151.865 -6.145 151.174 -1.54575 147.332L-1.59842 147.306Z" fill="#213820"/>
<path d="M-9.11989 112.075C-8.85297 111.894 -8.42478 111.504 -7.91563 110.984C-6.20044 109.214 -3.64729 105.955 -3.3036 106.011C-2.88075 106.095 -3.97252 108.95 -5.24194 111.119C-3.483 110.166 -0.947733 103.802 -0.57785 103.885C-0.260638 103.941 -2.48375 110.808 -3.50053 114.059C-1.63181 110.423 -0.128504 106.31 0.720154 103.873C1.86995 100.572 2.73554 94.2943 3.13635 91.6419C2.7748 90.8223 2.38676 90.0024 1.99902 89.1563C1.07061 91.6186 -1.45007 99.0348 -3.05514 102.778C-4.22547 105.554 -7.52999 109.673 -10.9024 112.765C-10.4777 112.691 -9.81354 112.514 -9.09312 112.049L-9.11989 112.075Z" fill="#213820"/>
<path d="M33.246 3.19836C31.8573 4.20861 30.3084 5.32228 28.8664 6.35823C26.7831 7.88676 24.9923 9.31336 24.1377 9.93505C24.6144 9.94044 26.9619 8.46752 29.6026 6.84007C31.8698 5.44516 34.35 3.94742 35.7364 3.1476C33.6463 5.2811 30.2742 8.34713 27.1158 11.2577C24.8138 13.3888 22.6451 15.4425 20.9859 16.9495C21.8396 16.4068 22.6668 15.8637 23.4676 15.3203C28.1915 12.1643 37.5379 5.45663 42.064 1.06201C40.4208 1.14866 34.8374 3.0059 33.1931 3.19776L33.246 3.19836Z" fill="#213820"/>
<path d="M28.8418 3.83239C27.6387 4.81843 26.596 5.67475 25.8485 6.19243C26.1142 6.11651 26.3803 6.01429 26.6463 5.91208C27.9767 5.37468 29.364 4.49595 30.6462 3.53711C30.0359 3.63543 29.4521 3.73406 28.8418 3.83239Z" fill="#213820"/>
<path d="M24.6733 4.70623C23.9267 5.14499 23.1798 5.61006 22.4329 6.07514C21.4947 7.06417 19.2418 9.53781 18.3104 9.92188C19.2108 9.93206 23.8291 6.74858 27.8333 4.00537C26.7715 4.20382 25.7092 4.45487 24.6733 4.70623Z" fill="#80BA27"/>
<path d="M30.6464 3.53744C29.3377 4.49598 27.9769 5.37502 26.6199 5.91211C24.6712 7.25801 22.135 9.01817 21.0429 9.55826C22.2605 9.62464 25.8564 7.85015 28.8663 6.35841C30.2822 5.29585 31.831 4.18219 33.2195 3.19824C32.3443 3.29357 31.4954 3.41551 30.6199 3.53714L30.6464 3.53744Z" fill="#80BA27"/>
<path d="M27.1421 11.2581C30.3005 8.34748 33.6726 5.28145 35.7627 3.14795C34.3763 3.94777 31.8961 5.44551 29.6289 6.84042C27.6456 8.8962 23.0674 13.2113 20.5565 15.077C22.4434 14.5196 24.8722 12.8897 27.1686 11.2584L27.1421 11.2581Z" fill="#80BA27"/>
<path d="M-11.1468 24.2938C-7.13408 25.4704 1.24705 26.8278 4.24925 26.02C5.15267 25.7671 6.42956 25.2817 7.94717 24.5886C8.96397 23.6794 10.4393 22.0388 10.791 21.3851C10.3899 21.7225 9.61564 22.2662 8.60271 22.8335C6.04389 24.2514 1.9752 25.6786 -0.981485 24.8033C1.72731 24.1763 4.44056 23.1547 6.28134 21.9917C6.81488 21.6558 7.29576 21.2929 7.64422 20.9286C7.14132 20.8966 6.61105 20.9432 6.0537 21.0421C4.11591 21.4148 2.01207 22.417 1.69337 22.4923C1.29493 22.593 -3.03563 23.7542 -4.16433 22.847C-1.96111 22.4247 0.747982 21.7713 2.79973 20.6897C3.78559 20.1747 4.6658 19.6322 5.33266 19.2188C6.0263 18.7795 6.50718 18.4166 6.69405 18.2872C6.05903 18.2274 5.04997 18.4528 4.09298 18.7576C3.00297 19.1136 1.93856 19.5488 1.45947 19.7538C0.553959 20.1908 -1.17909 21.1971 -3.32102 20.8835C-1.29724 19.9331 2.62206 17.6624 4.40511 16.9197C5.38977 16.5099 7.76171 15.2214 10.2684 13.724C12.375 12.4851 14.6948 11.1171 15.8964 10.2626C17.2316 9.30432 19.7133 7.67507 22.4073 6.02192C22.5682 5.83959 24.5938 4.73132 24.6477 4.65301C24.5968 4.46829 12.4946 11.2764 8.68447 13.2589C2.92915 16.2717 1.21902 17.594 -1.2044 18.7503C-3.41476 19.8039 -9.49416 21.0242 -11.1326 20.69C-11.1177 21.7161 -11.1317 22.9524 -11.173 24.2672L-11.1468 24.2938Z" fill="#213820"/>
<path d="M11.2029 20.1011C9.44424 21.0282 7.29012 21.7931 6.25486 21.9918C4.41409 23.1548 1.70113 24.1501 -1.00796 24.8034C1.94872 25.6786 5.99094 24.2512 8.57623 22.8336C9.35319 22.0531 10.7196 20.6744 11.2029 20.1011Z" fill="#80BA27"/>
<path d="M6.0536 21.0423C7.3635 19.9785 12.246 16.8506 13.5 16.0493C9.6405 17.7156 6.8722 18.9207 5.33256 19.219C4.66541 19.6586 3.81197 20.1751 2.79963 20.6898C0.747883 21.7715 -1.96121 22.4248 -4.16443 22.8471C-3.03573 23.7543 1.29483 22.5932 1.69327 22.4924C2.01197 22.4171 4.08962 21.3884 6.0536 21.0423Z" fill="#80BA27"/>
<path d="M4.0925 18.7842C5.47948 17.9317 8.46411 16.3345 9.92995 15.5356C11.7157 14.5561 15.768 12.2343 16.5435 11.5854C14.2539 12.6118 11.6231 13.3713 10.3209 13.7511C7.78772 15.2483 5.44226 16.5371 4.4576 16.9468C2.64807 17.6893 -1.27152 19.9862 -3.26852 20.9107C-1.1266 21.2243 0.579968 20.2176 1.51196 19.7809C1.99135 19.5496 3.05575 19.1144 4.14546 18.7848L4.0925 18.7842Z" fill="#80BA27"/>
<path d="M29.6289 6.84035C26.9883 8.4678 24.6405 9.96703 24.1641 9.93533C24.9922 9.31334 26.8092 7.91334 28.8927 6.35851C25.8828 7.85025 22.3135 9.62504 21.0693 9.55836C22.1617 8.99197 24.6979 7.2318 26.6464 5.91221C26.3803 6.01442 26.1143 6.11664 25.8486 6.19256C26.5961 5.67488 27.6388 4.81856 28.8418 3.83251C28.5234 3.88153 28.205 3.93054 27.8863 4.00586C27.8863 4.00586 27.8599 4.00556 27.8334 4.00526C23.8293 6.74847 19.2107 9.95825 18.3105 9.92177C19.2419 9.5377 21.4951 7.03776 22.4331 6.07502C19.7391 7.72818 17.2309 9.35712 15.9222 10.3157C14.7206 11.1702 12.4008 12.5382 10.2942 13.7771C11.5961 13.4235 14.2273 12.6378 16.5168 11.6114C15.7678 12.2606 11.7157 14.5561 9.90324 15.5615C8.43741 16.3604 5.45277 17.9577 4.0658 18.8101C5.02279 18.5053 6.00537 18.2796 6.66687 18.3397C6.48 18.4691 5.99942 18.8057 5.30579 19.245C6.87191 18.9471 9.64021 17.742 13.4732 16.0754C12.2193 16.8767 7.33672 20.0046 6.02681 21.0683C6.58417 20.9694 7.11473 20.8965 7.61733 20.9548C7.24239 21.3188 6.78801 21.682 6.25446 22.0179C7.26323 21.8189 9.41735 21.0541 11.2025 20.1272C10.7189 20.7268 9.37927 22.0796 8.57583 22.8597C9.58876 22.2924 10.3895 21.749 10.7642 21.4113C10.4124 22.065 8.93709 23.7056 7.92029 24.6148C11.2486 23.0741 15.8628 20.2588 21.0119 16.9761C22.6447 15.4688 24.8399 13.4154 27.1419 11.2843C24.8458 12.8894 22.4167 14.5455 20.5298 15.1029C23.0404 13.2635 27.6453 8.92243 29.6022 6.86635L29.6289 6.84035Z" fill="#E4D630"/>
<path d="M58.0264 107.31C58.0264 107.31 59.9091 107.121 60.2522 107.23C60.6218 107.34 60.5876 108.023 59.7853 108.698C61.0566 108.712 63.3467 107.633 64.1757 106.933C63.8597 106.771 63.1967 106.843 62.1076 107.12C64.2465 105.355 68.2039 102.059 68.4497 101.404C68.6952 100.775 63.5606 105.11 61.7371 104.748C62.9896 104.078 65.368 102.211 65.5561 101.976C65.7439 101.768 64.1775 102.092 62.0227 102.91C60.9586 103.318 58.2457 104.314 55.1854 105.568C56.5117 105.399 60.3617 104.574 60.8899 104.712C61.4446 104.85 59.8924 106.253 58.0264 107.31Z" fill="#80BA27"/>
<path d="M31.4655 120.847C34.171 120.509 37.5943 119.943 41.6061 118.857C36.7504 119.617 28.5317 120.287 26.8525 118.874C31.9862 119.301 42.1522 117.416 45.4379 114.954C45.2787 114.979 45.0928 115.029 44.9068 115.08C42.3301 115.735 37.0432 117.148 33.3057 117.395C37.0274 116.201 40.273 114.948 42.7797 113.451C43.3665 113.089 43.9269 112.727 44.461 112.339C41.9611 113.231 35.1298 115.364 35.4261 114.92C35.7225 114.476 43.923 110.728 47.013 109.185C47.1463 109.107 47.3061 109.03 47.4923 108.953C49.2233 108.131 52.3639 106.799 55.2113 105.621C58.2716 104.366 60.9845 103.371 62.0486 102.962C64.2301 102.119 65.7966 101.794 65.582 102.029C65.3942 102.237 63.0158 104.104 61.763 104.8C63.6127 105.19 68.7211 100.828 68.4756 101.456C68.2301 102.085 64.2989 105.408 62.1335 107.172C63.2226 106.895 63.8856 106.824 64.2016 106.985C64.465 107.12 64.5149 107.383 64.3778 107.803C67.3996 105.259 69.4915 102.967 70.647 101.507C72.7701 98.7954 76.1952 93.3887 76.5347 91.4722C75.6836 91.7782 73.1573 95.0117 70.9877 97.1443C68.8181 99.2769 65.9691 100.586 62.1415 101.779C58.3403 102.973 52.2975 105.64 47.6899 107.877C47.5301 107.954 47.3703 108.031 47.1841 108.108C42.3634 110.447 31.5309 115.06 27.2786 116.327C23.7438 117.392 21.1233 117.231 19.9854 117.139C20.8493 118.043 21.7661 118.948 22.7097 119.827C24.3717 120.425 27.3536 121.405 31.4649 120.899L31.4655 120.847Z" fill="#213820"/>
<path d="M55.1448 109.171C53.1707 110.412 44.4254 113.154 42.7533 113.451C40.2731 114.949 37.0274 116.201 33.2792 117.395C37.0432 117.148 42.2775 115.708 44.8804 115.08C48.3941 113.541 53.5903 110.785 55.1183 109.171L55.1448 109.171Z" fill="#80BA27"/>
<path d="M41.6061 118.857C45.4052 117.848 49.7135 116.318 54.133 114.316C58.2865 112.416 61.8109 109.931 64.3783 107.75C64.5155 107.331 64.4658 107.041 64.2022 106.933C63.3734 107.607 61.083 108.712 59.8118 108.698C60.5876 108.023 60.6218 107.339 60.2787 107.23C59.9091 107.121 58.0529 107.31 58.0529 107.31C59.9189 106.253 61.4975 104.85 60.9164 104.712C60.3882 104.574 56.5382 105.399 55.2119 105.568C52.3645 106.746 49.1974 108.078 47.4929 108.901C47.3066 108.978 47.1468 109.055 47.0135 109.132C43.9239 110.649 35.7496 114.424 35.4267 114.867C35.1303 115.311 41.9614 113.205 44.4616 112.286C43.9539 112.675 43.3933 113.063 42.7803 113.398C44.4524 113.102 53.1974 110.386 55.1718 109.119C53.6438 110.733 48.4211 113.489 44.9338 115.028C45.1198 114.977 45.3058 114.927 45.465 114.902C42.1795 117.338 32.0136 119.222 26.8796 118.822C28.5588 120.235 36.7774 119.565 41.6332 118.805L41.6061 118.857Z" fill="#E4D630"/>
<path d="M32.1984 102.888C35.2071 101.501 40.109 99.0048 40.9119 98.2773C38.0909 99.4555 30.3154 103.103 26.6862 103.141C24.904 103.805 23.1242 104.258 22.8567 104.492C22.4553 104.856 26.8841 104.38 32.1987 102.861L32.1984 102.888Z" fill="#80BA27"/>
<path d="M29.1649 99.4336C29.1649 99.4336 23.517 102.316 22.904 102.651C22.2913 102.96 26.6391 102.614 30.1225 101.417C30.1225 101.417 30.0957 101.443 30.069 101.469C32.9459 100.029 39.2109 96.443 39.8489 96.2397C36.4834 96.3858 27.3905 101.755 27.6333 101.363C27.8497 100.971 33.9115 96.6198 35.2181 95.8454C36.5247 95.071 41.2466 92.0991 41.2466 92.0991C40.1837 92.4028 38.6693 92.8066 37.5534 93.1096C34.4884 94.7849 31.7698 96.2799 30.6772 96.8726C28.1716 98.2648 20.2637 101.911 19.8625 102.248C19.4614 102.586 25.7107 100.394 29.2179 99.4342L29.1649 99.4336Z" fill="#80BA27"/>
<path d="M26.3498 107.11C28.631 106.82 30.7819 106.344 32.4301 105.811C38.8109 103.699 44.9879 100.875 49.2408 97.2142C50.8456 95.8381 53.4089 94.0257 55.9439 92.3707C54.964 92.3596 47.797 96.0667 46.2871 96.0759C48.9503 94.7907 54.0486 91.3233 55.5171 90.2877C54.453 90.6965 53.4692 91.0274 52.8866 91.0208C53.2589 90.8935 55.1782 89.8103 56.9377 88.8043C54.5991 89.4881 47.677 92.6192 45.4705 93.3309C47.203 92.3771 52.0552 89.5909 54.0807 88.4826C52.8586 88.8108 51.8234 89.0095 51.4023 88.768C51.9861 88.6694 54.1137 87.9042 56.1081 87.2165C53.8816 87.3492 43.3315 90.413 42.5099 90.4563C42.5099 90.4563 42.5102 90.43 42.5105 90.4037C40.8852 91.2534 39.1531 92.1809 37.5271 93.0832C38.643 92.7801 40.1574 92.3764 41.2203 92.0727C41.2203 92.0727 36.5249 95.0449 35.1918 95.819C33.8852 96.5934 27.8234 100.944 27.607 101.336C27.3907 101.729 36.4571 96.3594 39.8226 96.2133C39.1846 96.4166 32.946 100.003 30.0426 101.443C29.3737 102.04 28.0159 102.656 26.686 103.141C30.342 103.077 38.1173 99.456 40.9117 98.2775C40.0824 99.0047 35.2073 101.475 32.1983 102.888C33.4207 102.533 34.6699 102.153 35.8932 101.72C34.1054 102.883 25.702 105.84 22.2243 106.537C22.3823 106.618 24.1787 107.033 26.3498 107.11Z" fill="#E4D630"/>
<path d="M56.1078 87.2428C58.3682 86.4529 60.4149 85.8184 60.3369 85.686C60.1551 85.3682 51.987 86.2492 48.2626 87.6803C46.9858 88.1656 44.8816 89.1941 42.4838 90.4297C42.4838 90.4297 42.4835 90.456 42.4832 90.4823C43.3313 90.4393 53.8546 87.4015 56.0814 87.2425L56.1078 87.2428Z" fill="#80BA27"/>
<path d="M60.5908 86.6621C60.9392 86.2977 57.1092 87.7013 54.0805 88.5088C52.1641 89.329 47.2027 92.4034 45.4703 93.3571C47.6503 92.6452 54.5992 89.488 56.9375 88.8305C58.7235 87.8248 60.3494 86.9224 60.6173 86.6624L60.5908 86.6621Z" fill="#80BA27"/>
<path d="M55.9439 92.3706C56.9577 91.7244 57.945 91.0779 58.905 90.51C60.1887 89.4196 61.3388 88.433 61.5019 88.0666C61.8 87.4649 58.4173 89.1366 55.5171 90.2876C54.0486 91.3232 48.9503 94.7906 46.2871 96.0758C47.8234 96.0669 54.9904 92.3598 55.9439 92.3706Z" fill="#80BA27"/>
<path d="M34.667 29.7838C33.6226 30.7979 32.7989 31.0254 30.3187 32.5231C31.2191 32.5333 33.0013 31.8695 34.7843 31.1267C34.4391 31.2018 34.1207 31.2508 33.8556 31.2741C36.8667 29.6771 47.1377 23.1903 46.8832 22.2667C46.6285 21.3694 37.2512 28.4714 33.941 28.4076C32.7968 28.8682 31.5467 29.3276 30.6159 29.6591C32.7605 29.7359 35.738 28.7699 34.6935 29.7841L34.667 29.7838Z" fill="#80BA27"/>
<path d="M31.1753 24.6936C30.8804 25.0059 28.2088 27.0276 28.2088 27.0276C30.0469 26.1014 34.5688 24.4163 34.0011 25.4358C33.4333 26.4554 29.8345 28.4929 29.5684 28.5951C31.3732 28.2735 38.3977 25.4592 40.4994 24.6412C43.5129 22.8338 46.3675 21.0246 46.5053 20.5527C46.8079 19.5564 38.1706 24.457 34.806 24.5242C37.1464 23.6825 50.1187 17.2263 49.1959 16.8476C48.7213 16.6581 34.5236 23.7318 31.4 23.565C35.682 22.0087 48.8412 15.423 49.1126 14.8473C49.3843 14.2454 34.9672 19.633 31.6636 21.3319C30.9176 21.7181 29.9314 22.2593 28.8381 22.9046C27.5256 24.2051 24.8992 26.9113 24.8992 26.9113C28.4733 24.7157 31.497 24.3553 31.2021 24.6676L31.1753 24.6936Z" fill="#80BA27"/>
<path d="M1.42928 43.5086C4.12559 43.9863 7.75894 43.5801 11.5036 42.7017C10.5775 42.6124 9.36106 42.4408 8.06573 42.2157C2.69901 41.3132 -4.43351 39.6279 -4.1895 39.1308C-3.86456 38.5031 3.58725 40.0605 8.3228 38.22C9.0944 37.913 9.78744 37.5263 10.3757 37.0331C8.43795 37.4058 -5.18222 37.9095 -3.58277 37.0068C-2.91621 36.6198 -1.37807 36.453 0.318395 36.3407C2.67725 36.2095 5.32594 36.2131 6.20229 36.0126C6.94592 35.8368 9.07445 34.9928 11.3375 33.9661C13.6538 32.9138 16.2661 31.4438 17.6817 30.4076C18.7235 29.6302 20.3527 28.4385 22.2747 27.1186C24.3833 25.6956 26.7847 24.1443 28.8111 22.9572C29.9309 22.3121 30.9173 21.7446 31.6366 21.3844C34.9402 19.6855 49.3837 14.2982 49.0855 14.8998C48.8139 15.5018 35.655 22.0612 31.3729 23.6175C34.523 23.7846 48.7207 16.7109 49.1689 16.9001C50.0917 17.2788 37.1196 23.7087 34.7789 24.5767C38.1436 24.5095 46.7809 19.6089 46.4783 20.6052C46.3402 21.1034 43.4856 22.9126 40.4724 24.6937C37.4589 26.5011 34.3662 28.2812 33.6759 28.4313C33.7553 28.4322 33.8348 28.4331 33.8877 28.4337C37.1717 28.4708 46.5753 21.3955 46.83 22.2928C47.0844 23.2164 36.8138 29.6768 33.8024 31.3001C34.0672 31.3031 34.3859 31.2278 34.7311 31.1528C36.1916 30.8273 38.3204 29.9569 40.1037 29.1879C47.0993 24.2425 52.9097 18.7049 55.192 15.9685C58.3606 12.1636 63.0913 8.40267 63.8582 6.17529C60.376 7.2671 54.632 11.6216 52.2127 12.4098C49.7935 13.1979 39.9581 16.2961 35.2732 18.3477C30.5882 20.3992 25.9184 23.4506 22.3125 26.1194C22.2056 26.1971 22.072 26.3008 21.9652 26.3785C18.3072 28.9678 12.7131 31.7719 9.14555 33.3889C6.77599 34.467 3.16764 35.0049 0.436527 35.2634C-1.10133 35.4039 -2.37345 35.4684 -3.00965 35.5138C-4.75849 35.573 -9.22416 34.6281 -11.4452 34.2873C-11.4604 35.6287 -11.4277 37.418 -11.3973 39.4176C-9.76481 40.2778 -4.62453 42.4668 1.42899 43.5349L1.42928 43.5086Z" fill="#213820"/>
<path d="M10.376 37.0067C9.7877 37.4998 9.09466 37.8866 8.32306 38.1936C3.56102 40.0338 -3.8643 38.4767 -4.18924 39.1043C-4.43325 39.6014 2.67279 41.2864 8.06599 42.1892C10.1651 41.6079 13.4633 40.3825 13.5437 40.3045C11.1872 40.2252 6.41624 40.5133 7.16493 39.8904C7.3521 39.7347 7.8047 39.5293 8.38973 39.3255C10.3846 38.5851 13.9719 37.5734 14.3992 37.2626C12.5126 37.7937 10.7161 37.3788 11.1735 36.7526C11.6309 36.1264 21.1981 30.9733 23.1013 28.9692C20.0378 30.513 13.1136 33.8282 11.2845 33.9654C9.02144 34.9921 6.89291 35.8361 6.14928 36.0118C5.27293 36.2124 2.62424 36.2088 0.265387 36.3399C-1.43077 36.426 -2.96921 36.619 -3.63577 37.0061C-5.23551 37.935 8.41143 37.4054 10.3227 37.0324L10.376 37.0067Z" fill="#80BA27"/>
<path d="M13.5436 40.3042C13.5436 40.3042 10.1646 41.6339 8.06586 42.1889C9.38768 42.4143 10.5777 42.5856 11.5037 42.675C16.9264 40.9738 25.4937 37.5719 31.6219 34.3792C34.4726 32.9119 37.3808 31.0507 40.1309 29.1088C38.3741 29.8782 36.2456 30.7222 34.7583 31.0737C33.0017 31.8167 31.1934 32.4539 30.2926 32.4701C32.7726 30.9986 33.5966 30.7449 34.641 29.7307C35.6855 28.7166 32.7342 29.7092 30.5634 29.6057C31.4942 29.2743 32.7443 28.8149 33.8885 28.3543C33.809 28.3534 33.7296 28.3525 33.6766 28.3519C34.3408 28.1753 37.4599 26.3954 40.4731 24.6143C38.3714 25.4324 31.3734 28.2469 29.5421 28.5682C29.8079 28.4923 33.407 26.4285 33.9747 25.409C34.5425 24.3894 30.0206 26.0745 28.1825 27.0008C28.1825 27.0008 30.8541 24.9791 31.149 24.6667C31.4442 24.3281 28.4203 24.7148 24.8461 26.9104C24.8461 26.9104 27.4725 24.2043 28.7586 22.9035C26.7321 24.0907 24.3042 25.6416 22.2221 27.0649C20.3004 28.3585 18.6709 29.5765 17.6292 30.3539C16.2136 31.3902 13.6012 32.8601 11.2849 33.9125C13.0876 33.775 20.0383 30.4601 23.1018 28.9163C21.1985 30.9204 11.6313 36.0735 11.174 36.6997C10.7166 37.3259 12.513 37.7408 14.3996 37.2097C13.9723 37.5205 10.3586 38.5319 8.39019 39.2726C7.77838 39.5024 7.32578 39.7077 7.16539 39.8375C6.41641 40.4866 11.1874 40.1986 13.5442 40.2516L13.5436 40.3042Z" fill="#E4D630"/>
<path d="M38.7054 45.0873C38.3596 45.2149 38.0677 45.2642 37.8025 45.2875C41.6186 42.7789 49.5224 37.1598 48.8082 37.0728C48.3321 37.0148 43.6046 40.4864 38.7821 42.9836C37.8987 43.8155 34.5099 46.0132 31.6535 47.9802C31.6535 47.9802 36.4665 46.3247 38.8063 45.5356C38.7554 45.3509 38.7298 45.2717 38.7054 45.0873Z" fill="#80BA27"/>
<path d="M41.048 46.4027C43.6193 43.88 46.0302 41.4871 45.9808 41.1709C45.9067 40.6965 41.2846 44.2219 38.7055 45.0872C38.7564 45.2719 38.782 45.3511 38.8064 45.5355C39.4709 45.3326 39.9229 45.1799 40.0294 45.1285C40.4811 45.002 35.9911 48.5553 32.9481 50.6254C34.5437 50.0647 38.9948 47.6159 41.0218 46.3761L41.048 46.4027Z" fill="#80BA27"/>
<path d="M43.2531 38.7727C41.5558 41.3052 34.16 44.1679 32.3454 45.3575C34.1487 45.1674 36.4641 44.1939 38.7822 42.9837C43.6046 40.4865 48.3321 37.0149 48.8082 37.0729C49.5224 37.1599 41.6186 42.7791 37.8026 45.2876C38.0409 45.2903 38.3596 45.215 38.7054 45.0874C41.2847 44.1958 45.9069 40.6704 45.9807 41.1711C46.0301 41.4873 43.6192 43.8802 41.0479 46.4029C39.8692 47.5734 38.6376 48.7432 37.6455 49.8106C38.6614 48.9802 39.6508 48.1496 40.6134 47.345C46.5782 42.2038 55.3816 34.3325 58.2195 31.655C61.0574 28.9775 63.7867 26.5356 66.9487 25.6506C63.9156 24.5114 59.8365 26.8592 56.6664 28.4543C53.4696 30.0755 50.2053 32.9849 41.0553 38.7215C35.0265 42.4941 29.0888 45.2417 23.8741 47.2873C28.4359 46.7601 42.6645 39.2921 43.2796 38.773L43.2531 38.7727Z" fill="#213820"/>
<path d="M6.76375 54.2755C8.75094 54.2191 12.9119 54.0031 15.604 52.5077C13.7183 52.9599 9.96055 52.6544 8.16262 52.371C3.15151 52.8142 -1.60519 51.8397 -1.97894 52.0985C-2.40625 52.4093 2.66766 53.44 6.73726 54.2752L6.76375 54.2755Z" fill="#80BA27"/>
<path d="M-4.08588 55.7308C-3.53329 56.0528 -2.69056 56.4832 -1.60978 56.9426C2.19439 57.8275 8.63922 59.4261 10.7151 58.5551C9.94823 58.4412 8.89185 58.1662 7.78309 57.838C4.50979 56.854 0.660092 55.311 1.29719 55.1867C2.01404 55.0369 7.86104 55.6292 9.87798 55.2837C10.1699 55.2344 10.3827 55.1579 10.4895 55.0801C9.56464 54.8855 8.24312 54.6338 6.78977 54.328C2.69369 53.4925 -2.35374 52.4621 -1.92643 52.1513C-1.57916 51.8921 3.20401 52.867 8.21513 52.4238C10.84 52.1904 13.3634 51.5613 15.6833 50.1933C9.30721 51.8837 -0.554934 50.3253 -3.33277 50.0309C-5.76691 49.7929 -9.64101 48.0655 -11.0378 47.4447C-10.9051 49.7611 -10.4162 51.0293 -10.135 51.9269C-9.18838 52.5427 -6.58461 54.1768 -4.00643 55.7317L-4.08588 55.7308Z" fill="#213820"/>
<path d="M7.78334 57.812C10.0681 57.2065 18.8227 55.9901 25.1785 51.4058C21.3761 52.7044 13.8231 55.4075 9.87852 55.2314C7.86128 55.6031 2.01429 55.0109 1.29773 55.1343C0.687118 55.259 4.53682 56.802 7.78363 57.7857L7.78334 57.812Z" fill="#80BA27"/>
<path d="M16.0883 61.2204C16.6709 61.227 17.2809 61.155 17.838 61.0823C18.3951 61.0097 18.9259 60.9105 19.4309 60.7584C20.3343 60.5055 21.2383 60.2001 22.1433 59.8157C24.6979 58.766 27.2841 57.2695 29.8194 55.5882C30.9136 54.864 32.0083 54.0872 33.0766 53.3101C34.6522 52.1704 36.1755 50.9775 37.6193 49.7838C38.6376 48.743 39.8431 47.5466 41.0217 46.3761C38.9685 47.5893 34.5436 50.0647 32.948 50.6254C35.9907 48.5816 40.481 45.002 40.0293 45.1285C39.9231 45.1536 39.4711 45.3063 38.8063 45.5355C36.4668 46.2983 31.6536 47.9801 31.6536 47.9801C34.51 46.0131 37.899 43.7891 38.7822 42.9836C36.4641 44.1937 34.1487 45.1672 32.3454 45.3573C34.1335 44.1674 41.5558 41.305 43.2532 38.7725C42.6381 39.2916 28.4094 46.7596 23.8477 47.2868C21.1338 48.361 18.6607 49.2274 16.4545 49.9128C16.1888 49.9887 15.923 50.0646 15.6308 50.1402C13.3374 51.5085 10.7875 52.1374 8.16267 52.3707C9.9603 52.6804 13.718 52.986 15.6041 52.5075C12.9119 54.0028 8.75129 54.1925 6.7638 54.2753C8.21715 54.5811 9.56514 54.8331 10.4635 55.0274C10.3567 55.1051 10.1439 55.1816 9.85201 55.2309C13.7966 55.4071 21.3231 52.7037 25.1519 51.4053C18.7961 55.9897 10.0416 57.2061 7.75682 57.8116C8.86558 58.1398 9.92196 58.4148 10.6888 58.5287C8.58647 59.3993 2.16812 57.801 -1.63604 56.9162C2.6871 58.7539 10.3124 61.3655 16.0618 61.2201L16.0883 61.2204Z" fill="#E4D630"/>
<path d="M5.40692 66.5189C8.29278 66.6305 12.4853 65.9676 15.7237 65.3466C15.2402 65.9461 8.97155 67.5063 7.71907 68.1761C6.83945 68.666 12.4088 68.045 17.4009 66.9439C21.1038 65.0654 28.7511 61.0481 30.6214 59.6224C27.5394 60.4556 15.8529 65.6374 17.2223 63.9956C18.0281 63.005 20.212 61.9512 22.3947 61.0025C23.8587 60.3614 25.3219 59.7992 26.2009 59.3619C28.3845 58.3344 36.1582 54.8446 38.1008 54.051C39.8838 53.3083 44.4019 51.9652 47.3996 51.5518C49.0226 50.9125 50.2991 50.4534 50.8312 50.249C52.4274 49.6357 47.868 49.9524 45.5585 50.3998C43.4083 50.8227 32.4514 54.7237 29.8194 55.5884C27.2841 57.2697 24.6979 58.7662 22.1432 59.8159C21.2118 60.1999 20.3078 60.5054 19.4309 60.7585C18.9262 60.8844 18.395 61.0099 17.838 61.0825C14.5558 63.2288 10.3335 64.1808 7.06767 64.8804C3.40367 65.6545 -2.09786 64.9609 -2.288 65.3797C-2.47815 65.7984 2.52107 66.4074 5.40692 66.5189Z" fill="#80BA27"/>
<path d="M17.1668 71.2556C22.8781 69.7944 30.1442 66.6934 32.8926 64.9094C34.0397 64.1858 36.0153 62.8139 38.4167 61.2626C41.0398 58.8458 43.692 56.1925 44.3693 54.8585C45.4253 52.8186 42.7053 54.4451 37.9986 56.0755C39.5489 54.8303 44.1541 52.8042 47.4265 51.5259C44.4288 51.9392 39.9104 53.3087 38.1277 54.0251C36.1584 54.8446 28.4114 58.3084 26.2278 59.336C25.3491 59.7469 23.8856 60.3354 22.4216 60.9766C20.2389 61.9252 18.0815 62.9794 17.2492 63.9696C15.8798 65.6114 27.5663 60.4297 30.6483 59.5964C28.7512 61.0481 21.1308 65.0395 17.4278 66.918C19.4724 66.4676 21.4911 65.9642 22.6603 65.6355C19.2632 68.5697 8.83868 69.8987 8.49052 70.2367C8.223 70.4705 13.6183 71.1891 17.1671 71.2293L17.1668 71.2556Z" fill="#E4D630"/>
<path d="M50.8313 50.2489C50.2993 50.4534 49.0227 50.9124 47.3997 51.5518C44.1273 52.8301 39.4959 54.8296 37.9718 56.1014C42.6782 54.4973 45.3983 52.8708 44.3425 54.8844C43.6652 56.2184 41.013 58.8717 38.3899 61.2885C44.9808 56.9961 54.0442 51.8899 55.5115 50.9595C57.5124 49.6931 65.712 46.024 66.7502 45.5622C64.5062 44.9055 52.0266 47.6055 45.2292 49.0807C39.6001 50.3061 35.659 52.1556 33.0767 53.3102C32.0084 54.0873 30.9137 54.8641 29.8195 55.5883C32.4518 54.6974 43.4087 50.7964 45.5586 50.3998C47.8946 49.9527 52.4275 49.6356 50.8313 50.2489Z" fill="#213820"/>
<path d="M55.7203 69.9813C56.1774 69.3815 49.2734 70.9081 47.7582 71.3908C47.1734 71.5683 45.1776 72.3876 42.6754 73.4904C41.8978 74.3235 40.7721 75.4945 39.3289 76.6357C42.287 75.0381 49.6528 72.4908 52.1203 72.1241C53.9057 71.1709 55.4248 70.3463 55.7203 69.9813Z" fill="#80BA27"/>
<path d="M58.5125 71.3544C58.9957 70.7811 51.2297 73.587 49.0812 73.8521C46.1237 75.397 41.1629 78.4188 39.8458 80.1138C47.4232 75.2539 52.7902 73.7888 55.1258 73.368C56.8315 72.4403 58.2708 71.641 58.5125 71.3544Z" fill="#80BA27"/>
<path d="M56.9659 74.5991C56.5463 74.2261 54.8254 74.154 50.6755 75.7381C46.6523 77.8234 40.4358 81.8043 38.429 83.5968C38.429 83.5968 39.8642 83.1658 41.3532 82.6565C47.9667 78.7064 53.5075 75.928 56.9397 74.5725L56.9659 74.5991Z" fill="#80BA27"/>
<path d="M11.3098 90.2876C10.9899 90.4681 16.0852 91.9462 19.3927 92.2467C23.7159 91.7431 30.0161 89.7362 36.365 85.7568C38.0722 84.6975 39.7526 83.6642 41.3794 82.683C39.8642 83.1657 38.4552 83.6233 38.4552 83.6233C40.462 81.8308 46.6785 77.8499 50.7017 75.7646C50.6752 75.7643 50.5954 75.7897 50.5954 75.7897C50.5954 75.7897 53.42 74.2958 55.1257 73.3681C52.79 73.7889 47.3965 75.2537 39.8457 80.1139C41.1627 78.4189 46.1235 75.3971 49.0811 73.8522C49.0016 73.8513 48.9487 73.8507 48.8957 73.8501C49.8818 73.3088 51.0543 72.6907 52.147 72.098C49.6792 72.491 42.3137 75.0121 39.3556 76.6096C40.7988 75.4685 41.9245 74.2974 42.702 73.4644C38.8687 75.1573 33.8886 77.5475 31.5982 78.6527C27.7902 80.4511 20.7017 84.238 18.4422 84.9491C17.9105 85.1272 17.0609 85.3017 16.1322 85.4491C16.6515 86.3757 20.6895 85.3165 21.7816 84.7764C22.9537 84.1846 28.8459 80.7787 31.4446 80.5188C29.6863 81.4196 22.0566 86.2263 20.4565 87.1816C18.8568 88.1105 31.1242 83.0932 34.5626 81.1854C27.8444 87.3703 18.9443 89.7425 16.2179 89.5802C14.015 89.9762 11.5761 90.159 11.3627 90.2882L11.3098 90.2876Z" fill="#E4D630"/>
<path d="M17.1488 86.9077C17.1488 86.9077 12.1291 88.1136 10.7483 88.4137C9.39407 88.714 17.2643 88.4084 20.0945 88.7561C19.9085 88.8066 18.0231 89.2325 16.165 89.5798C18.8914 89.7421 27.7915 87.37 34.5097 81.185C31.0713 83.0928 18.8039 88.1102 20.4036 87.1812C22.0034 86.2523 29.6334 81.4192 31.3917 80.5184C28.793 80.7784 22.9008 84.1842 21.7287 84.776C20.6366 85.3161 16.5986 86.3753 16.0793 85.4487C13.1072 85.9412 8.65756 85.9172 7.54077 86.2992C6.07851 86.7825 13.1732 87.1258 17.1226 86.881L17.1488 86.9077Z" fill="#80BA27"/>
<path d="M15.048 92.3294C16.2386 92.4481 17.6425 92.4376 19.3931 92.2207C16.0856 91.9202 10.9903 90.442 11.3102 90.2615C11.55 90.1327 13.9889 89.9498 16.1654 89.5535C18.0231 89.2325 19.9088 88.7803 20.0948 88.7298C17.2911 88.3825 9.39439 88.6878 10.7486 88.3874C12.1029 88.087 17.1491 86.8814 17.1491 86.8814C13.2 87.0998 6.10532 86.7565 7.56729 86.2995C8.68407 85.9176 13.134 85.9153 16.1058 85.449C17.0345 85.3017 17.8576 85.1269 18.4159 84.949C20.6753 84.238 27.7638 80.4511 31.5718 78.6527C33.8887 77.5477 38.8423 75.1572 42.6756 73.4643C45.1779 72.3615 47.1737 71.5422 47.7585 71.3647C49.2737 70.882 56.1777 69.3554 55.7206 69.9552C55.4251 70.3202 53.906 71.1448 52.1206 72.098C51.0547 72.6647 49.8822 73.2828 48.8693 73.85C48.9223 73.8506 49.0017 73.8515 49.0547 73.8521C51.2297 73.5874 58.9689 70.8075 58.4859 71.3544C58.2443 71.6411 56.7785 72.44 55.0993 73.368C53.3936 74.2958 50.5691 75.7896 50.5691 75.7896C50.5691 75.7896 50.622 75.7902 50.6753 75.7645C54.8252 74.1804 56.5461 74.2525 56.9657 74.6255C57.0987 74.5744 57.2317 74.5233 57.3647 74.4722C61.5941 72.889 66.6867 69.9214 68.5376 70.2054C65.9838 68.8349 63.1566 68.2242 57.8842 68.3487C52.6115 68.4995 47.0627 69.6469 44.2432 70.6936C41.4502 71.7406 24.9966 81.551 19.7606 83.1491C14.8435 84.6456 5.27121 85.5633 2.34845 84.0308C2.76119 85.0088 3.14774 85.9602 3.53459 86.8853C5.8512 88.1479 11.1319 91.9694 15.0477 92.3557L15.048 92.3294Z" fill="#213820"/>
<path d="M26.3499 107.11C24.1789 107.032 22.3821 106.644 22.2244 106.537C25.7024 105.813 34.1055 102.883 35.8933 101.719C34.67 102.153 33.4205 102.56 32.1984 102.888C26.857 104.432 22.4285 104.882 22.8564 104.518C23.1504 104.285 24.9037 103.831 26.6859 103.167C28.0425 102.657 29.3735 102.067 30.0425 101.469C30.0425 101.469 30.0693 101.443 30.096 101.417C26.6127 102.614 22.2648 102.96 22.8775 102.651C23.4902 102.342 29.1384 99.4333 29.1384 99.4333C25.6577 100.394 19.3823 102.559 19.7831 102.248C20.1842 101.91 28.0922 98.264 30.5977 96.8718C31.6904 96.2791 34.409 94.7841 37.474 93.1088C39.0999 92.2065 40.8321 91.279 42.4574 90.4293C44.8552 89.1937 46.9597 88.1389 48.2362 87.6798C51.9603 86.2751 60.1284 85.3941 60.3105 85.6855C60.3885 85.8179 58.3418 86.4525 56.0814 87.2424C54.1136 87.9304 51.9595 88.6953 51.3756 88.7939C51.797 89.0091 52.8322 88.8104 54.0541 88.5085C57.0828 87.7009 60.9128 86.2974 60.5643 86.6617C60.323 86.9221 58.6971 87.8244 56.8846 88.8299C55.125 89.8359 53.206 90.8928 52.8335 91.0464C53.4161 91.053 54.3999 90.7222 55.464 90.3133C58.3641 89.1623 61.7469 87.4906 61.4487 88.0923C61.2857 88.4587 60.1353 89.4717 58.8518 90.5357C61.8924 88.676 64.3432 87.441 65.4371 86.7431C67.7578 85.2962 71.8673 82.6068 73.4176 81.3616C72.3598 81.2181 68.2101 82.7759 66.137 83.4101C64.0638 84.0444 58.9568 83.592 54.8152 84.4396C50.6736 85.2872 42.685 89.0376 36.9273 92.2608C36.5542 92.4671 36.1542 92.6993 35.7278 92.9312C30.0496 96.1553 22.5311 100.49 18.627 101.419C14.8556 102.323 11.9644 102.685 10.3816 102.115C11.0026 103.411 11.5981 104.628 12.1676 105.792C14.353 106.948 20.408 107.884 26.3232 107.136L26.3499 107.11Z" fill="#213820"/>
<path d="M-12.1003 24.2831C-12.1893 27.4652 -12.4687 31.0923 -12.7662 33.9827C-13.3039 39.3694 -10.5295 54.0271 -7.13563 63.0886C-6.90412 63.6963 -6.69879 64.2774 -6.49286 64.8058C-4.64402 69.9565 -0.775796 79.2337 2.65676 87.2171C3.0698 88.1688 3.48282 89.1205 3.86997 90.0193C5.78101 94.3551 7.35579 97.9769 8.44403 100.12C9.27308 101.76 10.2584 103.639 11.3219 105.624C14.3316 111.183 18.6089 117.071 20.8595 119.49C21.906 120.633 23.4255 122.124 25.2341 123.802C27.9864 126.358 31.4501 129.238 34.3908 131.534C35.0472 132.041 35.704 132.522 36.2816 132.976C41.1406 136.608 52.8624 144.712 55.4926 146.346C56.0976 146.721 56.9129 147.23 57.7807 147.793C58.701 148.382 59.7271 148.998 60.7004 149.588C61.3057 149.937 61.8845 150.286 62.4374 150.581C63.6485 151.226 64.6498 151.685 65.1533 151.664C65.0751 151.558 64.5498 151.157 63.7357 150.543C63.2628 150.196 62.7114 149.769 62.0547 149.288C61.1879 148.647 60.1895 147.925 59.0861 147.123C56.4323 145.226 53.095 142.873 50.0991 140.787C48.9954 140.012 47.944 139.29 46.9716 138.621C46.3407 138.193 45.7102 137.739 45.0793 137.311C42.1884 135.305 39.1665 133.166 36.3033 131.056C35.3314 130.334 34.3857 129.64 33.4668 128.919C30.9196 126.97 28.5044 125.049 26.4063 123.21C25.1734 122.144 23.915 120.998 22.7095 119.853C21.7659 118.975 20.8491 118.07 19.9852 117.166C16.8178 113.841 14.4735 110.343 13.1782 107.776C12.8672 107.168 12.5568 106.506 12.22 105.845C11.6504 104.681 11.055 103.464 10.4339 102.168C9.0106 99.2057 7.40874 95.6363 5.70273 91.9078C5.0564 90.5062 4.33387 88.8144 3.56047 86.9379C3.17362 86.0129 2.78707 85.0614 2.37433 84.0834C0.106193 78.5334 -2.28722 72.3507 -3.67839 68.8888C-3.78135 68.6246 -3.88462 68.3867 -3.96169 68.1753C-4.58036 66.6689 -5.35316 64.7398 -6.15215 62.7841C-7.92988 58.3708 -9.5493 54.0119 -10.0099 52.5862C-10.0611 52.4277 -10.1117 52.2167 -10.1885 51.9791C-10.4694 51.0552 -10.9586 49.8133 -11.0914 47.4968C-11.2473 44.8907 -11.3205 41.9962 -11.3714 39.4702C-11.4018 37.4705 -11.4081 35.6816 -11.4194 34.3399C-11.4108 33.5771 -11.4036 32.9458 -11.4251 32.4984C-11.4581 30.7355 -11.2341 27.3182 -11.1216 24.3994C-11.0802 23.0846 -11.0663 21.8483 -11.0811 20.8222C-11.0943 19.6383 -11.1898 18.7165 -11.2645 18.2947C-11.5118 16.7398 -12.6479 11.8077 -14.5602 7.57705C-15.0381 7.67687 -15.2505 7.72708 -15.7287 7.8532C-13.8909 11.6358 -12.8419 14.9097 -12.5435 16.6229C-12.2203 18.4944 -12.0131 21.2589 -12.1015 24.3883L-12.1003 24.2831Z" fill="#213820"/>
<path d="M-13.6081 24.1084C-13.6153 24.7397 -13.6763 25.4492 -13.7114 26.2117C-13.9024 29.0507 -14.236 32.7824 -14.4921 36.6992C-14.5573 37.777 -14.6227 38.8811 -14.6617 39.9856C-14.8069 43.4564 -14.845 46.8231 -14.737 48.9815C-14.6944 49.9027 -14.3552 50.3538 -14.0995 51.1721C-13.8692 51.885 -13.5868 52.6774 -13.2788 53.549C-12.251 56.3491 -10.7812 59.8908 -9.23265 63.486C-8.89698 64.2526 -8.56161 65.0456 -8.22595 65.8123C-6.96124 68.7466 -5.74832 71.5751 -4.84666 73.8214C-4.61455 74.3764 -4.38244 74.9315 -4.15092 75.5391C-3.60903 76.808 -3.01507 78.1563 -2.39581 79.6102C-1.05285 82.6506 0.472242 85.9824 1.97232 89.1825C2.36007 90.0287 2.74811 90.8486 3.10966 91.6682C4.66123 95.0003 6.03097 98.0147 7.09124 100.289C7.14302 100.395 7.1948 100.501 7.22039 100.58C7.76347 101.744 8.33332 102.881 8.90318 104.019C11.5204 109.152 14.4845 114.052 15.5281 115.458C15.7367 115.75 16.1024 116.201 16.5205 116.706C16.9389 117.184 17.4094 117.742 17.9328 118.3C19.8168 120.347 22.4122 122.718 23.5394 123.756C23.7492 123.943 23.8801 124.076 23.9852 124.156C24.1688 124.316 24.4306 124.582 24.7978 124.902C26.4756 126.446 30.1482 129.592 33.2986 132.074C33.4826 132.208 33.6662 132.368 33.8501 132.501C34.3226 132.875 34.8213 133.275 35.373 133.676C38.1565 135.812 41.7554 138.457 44.3833 140.302C44.7249 140.542 45.0665 140.783 45.3554 140.997C46.0387 141.478 46.6433 141.879 47.0903 142.174C47.5899 142.495 48.3261 142.977 49.1938 143.539C52.1654 145.441 56.6097 148.279 58.1877 149.271C58.0345 148.769 57.855 148.241 57.7024 147.687C56.8346 147.124 56.0458 146.616 55.4143 146.24C52.7841 144.606 41.0623 136.502 36.2033 132.87C35.6254 132.442 34.9951 131.962 34.3125 131.428C31.3716 129.159 27.9081 126.252 25.1558 123.696C23.3734 122.044 21.8542 120.528 20.7812 119.384C18.5306 116.965 14.253 111.103 11.2436 105.518C10.1798 103.56 9.19449 101.681 8.36574 100.014C7.2775 97.871 5.67624 94.2489 3.79169 89.9133C3.40454 89.0145 2.99149 88.0628 2.57846 87.1111C-0.854097 79.1278 -4.7223 69.8505 -6.57116 64.6998C-6.77678 64.1451 -6.98211 63.564 -7.21393 62.9827C-10.6081 53.9475 -13.356 39.29 -12.8445 33.8767C-12.5469 30.9864 -12.2673 27.3329 -12.1786 24.1772C-12.0903 21.0477 -12.2971 18.2569 -12.6206 16.4118C-12.919 14.6985 -13.9948 11.4506 -15.8058 7.64202C-16.5759 7.81746 -16.9744 7.91818 -17.7445 8.09362C-15.438 12.5918 -13.6198 18.1104 -13.6013 21.1621C-13.6093 21.8723 -13.6203 22.8455 -13.6337 24.0292L-13.6081 24.1084Z" fill="#80BA27"/>
<path d="M-3.70444 68.8358C-2.17343 69.3003 2.9475 70.8577 8.60436 71.8686C11.0364 72.2907 13.9523 72.0869 17.1664 71.2815C13.6176 71.2414 8.22227 70.5227 8.48978 70.289C8.83794 69.9509 19.2628 68.5956 22.6595 65.6877C21.4639 66.0162 19.4452 66.5195 17.427 66.9702C12.435 68.0712 6.86592 68.6659 7.74524 68.2023C8.97123 67.5322 15.2664 65.9724 15.7499 65.3728C12.485 65.9936 8.31866 66.683 5.4331 66.5452C2.54724 66.4336 -2.45197 65.8247 -2.26183 65.4059C-2.07168 64.9872 3.40335 65.6804 7.09383 64.9067C10.3862 64.2073 14.5816 63.2814 17.8641 61.1088C17.3071 61.1814 16.7238 61.2274 16.1144 61.2468C8.7153 64.3989 -3.40274 63.2359 -6.12523 62.7316C-5.32623 64.6873 -4.55343 66.6164 -3.93477 68.1229C-3.83151 68.3608 -3.75473 68.5984 -3.65147 68.8364L-3.70444 68.8358Z" fill="#213820"/>
</g>
<defs>
<clipPath id="clip0_163_1469">
<rect width="188" height="197" fill="white" transform="translate(145.113 2.22705) rotate(90.6478)"/>
</clipPath>
</defs>
</svg>
