<svg width="133" height="113" viewBox="0 0 133 113" fill="none" xmlns="http://www.w3.org/2000/svg">
<g clip-path="url(#clip0_163_1704)">
<path d="M124.668 115.376C129.265 112.967 133.201 108.882 135.17 104.713C135.282 104.439 135.424 104.129 135.566 103.82C136.591 101.184 137.264 97.0139 136.663 94.8338C136.571 94.5086 136.485 94.2494 136.368 94.0258C135.233 91.8198 132.351 90.6432 130.191 89.7773C129.571 89.4922 128.956 89.2731 128.438 89.0134C127.436 88.5247 126.918 88.265 125.917 87.7763C123.771 86.6767 120.935 85.2309 117.972 83.8612C112.457 81.2899 106.587 79.7089 99.563 77.8167C91.2178 75.5929 84.83 75.0477 78.271 77.0068C71.4834 79.0165 65.7985 81.1086 60.9319 83.4708C57.2184 85.2805 48.2624 89.7467 48.0962 100.456C48.0865 101.187 48.1377 101.848 48.1889 102.508C48.9097 109.662 54.3638 112.304 59.2789 114.423C59.5889 114.565 59.7262 114.621 60.0362 114.764C60.8952 115.13 61.7186 115.467 62.5115 115.838C69.6429 119.117 75.5439 121.527 80.3369 123.355C85.4043 125.296 91.1407 124.297 96.6789 123.312C96.745 123.307 96.811 123.302 96.8771 123.297C98.6452 122.963 100.154 122.716 101.567 122.509C110.809 121.31 118.196 118.889 124.643 115.477L124.668 115.376Z" fill="#51291D"/>
<path d="M142.562 135.776C146.189 133.275 149.973 130.663 153.803 128.213C155.448 127.158 157.008 125.844 158.506 124.601C159.537 123.759 160.472 122.957 161.447 122.252C162.61 121.4 163.778 120.614 164.946 119.828C166.872 118.519 168.924 117.134 170.894 115.556C171.676 114.932 172.555 114.268 173.464 113.568C178.772 109.611 186.345 104.02 186.752 96.4158C186.787 96.0145 186.787 95.5826 186.853 95.1458C186.843 95.0137 186.873 94.9782 186.863 94.8461C187.004 92.8091 187.079 90.7771 186.468 89.3286C185.461 87.0465 183.163 84.8292 180.636 83.526C178.735 82.574 176.601 82.0383 174.532 81.4976C173.109 81.1405 171.788 80.8089 170.456 80.3452C166.797 78.9951 163.427 77.5233 160.412 75.925C152.966 72.0054 144.681 69.7106 136.773 67.1215C132.819 65.8269 128.646 64.2832 124.671 62.7245C111.68 57.5646 97.688 53.2113 83.6113 51.6216C69.5703 50.0624 56.3161 55.6519 44.7798 61.9747C38.3742 65.4834 32.9802 69.613 28.3535 73.784C27.9167 74.1493 27.5155 74.5451 27.0483 74.946C23.7521 77.8534 19.9939 81.2278 18.2286 86.3112C17.7924 87.5401 17.5289 88.8556 17.3671 90.1966C16.9074 94.5498 17.1435 98.4517 17.9841 102.009C20.7812 114.087 29.9022 122.032 38.0817 127.69C44.2939 131.969 51.6587 134.832 57.3614 136.824C59.1352 137.42 60.8987 137.884 62.6267 138.318C64.5935 138.833 66.6264 139.343 68.507 140.031C70.1487 140.638 71.8006 141.376 73.4526 142.114C75.2417 142.909 77.0309 143.703 78.9115 144.391C85.1682 146.673 91.7905 148.53 98.509 149.913C102.392 150.715 106.34 150.648 110.09 150.596C110.486 150.566 110.72 150.582 111.086 150.587C114.374 150.57 118.022 150.493 121.67 148.688C128.873 145.185 135.71 140.382 142.455 135.685L142.562 135.776ZM60.8369 111.381C55.3373 109.008 50.5848 106.844 50.6469 100.362C50.7341 93.346 56.164 89.6788 61.4065 87.0223C66.0749 84.6751 71.7191 82.4864 78.5016 80.4107C84.3747 78.6033 90.2084 78.8583 98.2131 80.9751C104.688 82.6431 110.517 84.1276 115.793 86.6174C118.381 87.8495 121.009 89.1782 123.469 90.4864C124.47 90.9752 124.958 91.2703 125.959 91.7591C126.549 92.0798 127.2 92.3294 127.921 92.64C129.812 93.4599 131.972 94.3259 132.649 95.7693C132.725 95.8964 132.771 96.059 132.817 96.2217C133.245 97.8833 132.668 101.581 131.785 103.907C131.704 104.146 131.587 104.354 131.506 104.592C129.882 108.071 126.647 111.339 122.878 113.286C116.68 116.48 109.634 118.575 101.143 119.618C99.5629 119.804 97.9878 120.057 96.2501 120.355C91.0675 121.213 85.6868 122.086 81.2343 120.364C76.0297 118.367 70.3928 115.938 63.3988 112.715C62.6058 112.343 61.7468 111.976 60.8522 111.579L60.8369 111.381Z" fill="#E16E33"/>
<path d="M126.207 148.51C132.853 146.378 139.206 140.05 145.525 135.85C149.035 133.558 152.209 130.361 155.693 127.738C158.237 125.851 160.909 124.319 163.5 122.595C168.813 119.136 174.395 114.427 179.616 109.779C185.426 104.588 189.715 96.9219 188.527 90.6009C187.457 84.9354 181.931 82.232 177.021 79.7477C171.974 77.2073 165.962 75.936 160.345 73.771C146.815 68.5191 133.315 62.7998 119.531 58.1318C112.197 55.6652 104.117 53.8532 96.4171 52.2448C92.5344 51.4432 88.7226 50.2707 84.911 49.53C81.0994 48.7894 77.431 49.4663 73.7319 49.7469C70.6933 49.9773 67.8221 49.7965 64.9162 50.8806C62.3963 51.8025 59.7543 52.4348 57.1989 53.3262C53.6731 54.5569 50.0607 55.5285 46.4384 56.7998C43.6239 57.7773 41.2571 59.817 38.5852 61.3484C32.8604 64.6394 27.995 69.1607 22.8353 74.1694C17.1525 79.7161 13.1828 86.3618 13.2954 95.9533C13.3928 105.779 19.2077 116.931 25.6291 122.622C30.7997 127.179 37.1135 131.484 42.9639 134.096C49.6072 137.08 56.1694 140.303 62.8022 142.723C69.1301 145.066 75.8481 145.587 81.637 147.406C92.2289 150.755 106.215 154.179 117.586 152.154C120.569 151.629 123.256 149.432 126.141 148.515L126.207 148.51ZM105.103 147.553C98.3698 146.403 91.7073 145.314 84.724 143.086C77.1612 140.67 69.5721 136.629 61.8269 134.858C49.9549 132.138 35.0869 124.629 27.3469 114.785C23.4362 109.767 19.3117 104.134 18.9616 96.6197C18.8123 93.4089 18.7282 88.8976 19.6868 85.8353C20.8025 82.2295 23.8293 79.2761 26.1553 77.1398C34.8905 68.9699 46.8266 60.0922 58.41 56.0911C61.5497 55.0225 64.7862 54.3451 67.8191 53.185C71.5582 51.7055 75.2781 52.1209 79.2671 52.1505C85.4157 52.1824 91.7581 53.4287 97.8463 54.3953C111.334 56.5279 124.885 62.9077 137.876 67.6358C150.527 72.2569 162.828 78.3661 175.62 82.2456C180.316 83.6832 186.507 86.4026 186.15 92.5086C185.954 95.9781 186.017 98.9298 183.326 102.356C180.696 105.711 177.876 107.486 174.875 109.906C168.785 114.919 162.537 119.18 156.483 123.791C152.877 126.556 148.98 128.147 145.369 130.846C142.885 132.662 140.356 134.748 138.04 136.584C129.898 142.982 116.121 149.541 105.139 147.584L105.103 147.553Z" fill="#C9D400"/>
<path d="M89.0261 89.7443C86.9277 90.1028 85.6516 89.0702 85.4877 86.9566C85.3238 84.8431 86.3085 82.9747 88.4121 82.6822C90.4851 82.4253 92.356 83.8447 92.5504 85.9227C92.7447 88.0007 91.1601 89.4164 89.0617 89.7748L89.0261 89.7443Z" fill="white"/>
<path d="M93.1931 98.065C91.4408 99.4602 89.7689 99.3213 88.5788 97.6842C87.3532 96.0166 87.357 93.9236 89.0788 92.5639C90.8362 91.2348 93.2145 91.4862 94.435 93.0878C95.6555 94.6893 94.9453 96.6698 93.1931 98.065Z" fill="white"/>
<path d="M87.2889 115.753C85.1244 116.117 83.8483 115.084 83.8114 112.894C83.7389 110.674 84.9167 108.725 87.0507 108.397C89.2203 108.099 91.0302 109.59 91.0976 111.744C91.165 113.898 89.4229 115.425 87.2584 115.789L87.2889 115.753Z" fill="white"/>
<path d="M62.1515 108.624C60.0428 108.851 58.8834 107.61 58.8972 105.217C58.911 102.824 60.1497 100.804 62.2635 100.643C64.3773 100.483 66.04 102.217 66.0567 104.574C66.0377 106.901 64.3262 108.393 62.1819 108.589L62.1515 108.624Z" fill="white"/>
<path d="M112.567 104.136C110.784 105.567 109.123 105.56 107.811 104.065C106.499 102.57 106.442 100.548 108.194 99.153C109.946 97.7578 112.411 97.8366 113.687 99.3011C114.994 100.73 114.314 102.675 112.532 104.106L112.567 104.136Z" fill="white"/>
<path d="M73.4692 85.7756C71.7423 87.0692 70.1618 86.8237 69.0529 84.948C67.944 83.0722 68.0392 80.8726 69.7661 79.579C71.493 78.2853 73.7597 78.811 74.8635 80.6207C75.9673 82.4304 75.1961 84.482 73.4692 85.7756Z" fill="white"/>
<path d="M68.8409 95.494C67.4182 95.5687 66.5131 94.6076 66.5934 93.0735C66.6687 91.4733 67.8318 90.6211 69.2241 90.5819C70.652 90.5733 71.2778 91.7881 71.0653 93.3322C70.9388 94.2719 70.2332 95.4549 68.8105 95.5296L68.8409 95.494Z" fill="white"/>
<path d="M95.0905 109.68C93.6119 109.892 92.6205 109.104 92.6399 107.641C92.6594 106.177 93.8123 105.193 95.296 105.047C96.7441 104.871 97.4917 105.944 97.3402 107.417C97.2442 108.321 96.569 109.468 95.0905 109.68Z" fill="white"/>
<path d="M111.165 95.9049C109.717 96.0811 108.7 95.3942 108.658 94.0022C108.617 92.6102 109.78 91.758 111.264 91.6122C112.747 91.4665 113.49 92.4731 113.328 93.8141C113.227 94.6522 112.613 95.7286 111.099 95.9099L111.165 95.9049Z" fill="white"/>
<path d="M81.2719 90.0006C80.8866 91.4582 79.7844 92.2394 78.397 91.9128C77.0095 91.5862 76.6022 90.1887 76.9875 88.7311C77.4033 87.2379 78.6988 86.8075 79.9999 87.3067C80.7878 87.6124 81.6217 88.5124 81.2364 89.9701L81.2719 90.0006Z" fill="white"/>
<path d="M127.285 98.1368C126.955 99.4573 125.889 100.269 124.42 100.181C122.951 100.093 122.397 98.9393 122.726 97.6188C123.056 96.2983 124.371 95.7003 125.789 95.9913C126.633 96.1599 127.614 96.8163 127.249 98.1062L127.285 98.1368Z" fill="white"/>
<path d="M82.669 106.304C81.1853 106.45 80.26 105.657 80.2743 104.128C80.2887 102.598 81.4771 101.645 82.9304 101.534C84.3836 101.424 85.1008 102.532 84.8883 104.077C84.7618 105.016 84.1223 106.194 82.6386 106.34L82.669 106.304Z" fill="white"/>
<path d="M70.4065 113.114C68.9228 113.259 67.9924 112.4 68.0676 110.8C68.1124 109.235 69.2958 108.215 70.749 108.105C72.2022 107.995 72.8941 109.205 72.6816 110.749C72.5551 111.688 71.8902 112.968 70.4065 113.114Z" fill="white"/>
<path d="M97.0556 90.8961C97.1462 89.494 98.0705 88.5603 99.5339 88.5821C100.962 88.5735 101.715 89.7122 101.624 91.1143C101.533 92.5163 100.294 93.2415 98.8862 93.0825C97.9817 92.985 96.9701 92.3642 97.0912 90.9266L97.0556 90.8961Z" fill="white"/>
<path d="M81.7865 109.062C81.6805 110.266 80.9137 111.088 79.7857 111.107C78.6271 111.162 78.0523 110.175 78.1887 108.936C78.2947 107.732 79.2751 107.093 80.4134 107.206C81.0842 107.288 81.923 107.822 81.817 109.026L81.7865 109.062Z" fill="white"/>
<path d="M102.178 99.9745C102.098 101.077 101.361 101.863 100.203 101.918C99.0442 101.973 98.4441 101.088 98.5552 99.9504C98.6358 98.8481 99.6162 98.209 100.754 98.322C101.456 98.3684 102.289 98.8367 102.178 99.9745Z" fill="white"/>
<path d="M76.6835 98.5199C76.5775 99.7238 75.8107 100.546 74.6775 100.499C73.5443 100.452 73.0355 99.4609 73.1415 98.2571C73.278 97.0176 74.233 96.4801 75.3408 96.6286C76.0472 96.7412 76.7895 97.316 76.6835 98.5199Z" fill="white"/>
<path d="M101.789 112.527C101.714 113.695 100.978 114.482 99.7885 114.572C98.5995 114.662 97.9994 113.778 98.1105 112.64C98.186 111.472 99.1663 110.833 100.335 110.91C101.036 110.956 101.9 111.389 101.789 112.527Z" fill="white"/>
<path d="M117.12 87.4473C117.034 88.4836 116.359 89.1992 115.165 89.2233C114.006 89.278 113.411 88.4594 113.462 87.3926C113.512 86.3259 114.502 85.8189 115.605 85.9013C116.306 85.9478 117.14 86.416 117.085 87.4168L117.12 87.4473Z" fill="white"/>
<path d="M102.113 84.5662C102.032 85.6686 101.321 86.3536 100.158 86.3422C98.9939 86.3308 98.4598 85.4413 98.5405 84.3389C98.6211 83.2366 99.5761 82.6991 100.72 82.8781C101.39 82.9601 102.194 83.4639 102.113 84.5662Z" fill="white"/>
<path d="M116.632 111.136C115.448 111.292 114.675 110.753 114.72 109.62C114.735 108.523 115.71 107.817 116.894 107.661C118.078 107.505 118.637 108.293 118.46 109.436C118.379 110.106 117.815 110.98 116.632 111.136Z" fill="white"/>
<path d="M53.607 96.1183C52.5043 96.0358 51.8432 95.2223 52.0405 93.9118C52.1719 92.6064 53.1522 91.9673 54.2549 92.0497C55.3577 92.1322 55.775 93.23 55.5065 94.4794C55.3342 95.2565 54.7097 96.2007 53.6426 96.1488L53.607 96.1183Z" fill="white"/>
<g clip-path="url(#clip1_163_1704)">
<path d="M132.558 98.1361C132.743 97.8122 132.835 97.4421 132.835 97.0257C132.881 94.8511 130.292 94.7123 128.812 95.2675C127.239 95.869 124.881 97.5809 125.112 99.5241C125.343 101.699 127.794 101.745 129.413 101.282C130.708 100.912 132.558 99.6166 132.511 98.1361H132.558ZM128.396 99.8942C128.396 99.8942 128.488 99.8942 128.534 99.8942C128.211 99.9868 127.841 100.033 127.517 99.9868C127.794 99.9868 128.118 99.9405 128.349 99.8942H128.396Z" fill="#C9D400"/>
</g>
</g>
<defs>
<clipPath id="clip0_163_1704">
<rect width="142.663" height="132.501" fill="white" transform="translate(86.2529) rotate(40.6141)"/>
</clipPath>
<clipPath id="clip1_163_1704">
<rect width="101.599" height="58.8981" fill="white" transform="translate(125.158 75.0952)"/>
</clipPath>
</defs>
</svg>
