<svg width="159" height="157" viewBox="0 0 159 157" fill="none" xmlns="http://www.w3.org/2000/svg">
<g clip-path="url(#clip0_395_1104)">
<path d="M0.709143 106.107C0.0374707 107.873 -2.36936 112.764 -5.61577 118.171C-5.67174 118.171 -5.72772 118.144 -5.78369 118.117C-4.52431 114.938 -2.03352 109.177 -0.578232 104.042C0.849072 98.9062 5.99856 81.1357 5.83064 78.2554C7.22996 89.9666 4.73917 102.982 -1.61373 113.063C-0.382327 110.318 0.42928 107.954 0.709143 106.107Z" fill="#80BA27"/>
<path d="M1.91262 73.8807C3.08805 86.9233 0.14948 100.7 -5.55974 112.519C-6.70718 114.204 -8.02253 116.296 -9.33789 118.47C-3.34881 104.259 -0.382258 89.0427 1.91262 73.9079V73.8807Z" fill="#80BA27"/>
<path d="M119.315 111.46C114.726 111.677 106.218 111.052 104.678 111.242C107.085 111.514 111.003 112.302 115.341 113.036C106.358 112.791 90.9372 111.269 83.5208 109.422C90.2935 109.612 97.542 110.264 99.2491 109.965C95.0232 108.742 91.4689 108.199 87.6908 107.683C85.5638 107.384 66.0293 105.509 61.6914 105.835C66.757 106.406 73.6416 108.117 76.5802 109.123C71.0109 108.851 59.5085 108.416 52.8757 108.688C46.6628 107.574 37.7911 108.253 37.5112 108.281C41.4013 107.248 47.1665 105.536 51.3645 104.205C58.7809 103.335 67.2607 103.091 76.6921 104.449C90.8532 106.46 105.098 109.177 119.315 111.46Z" fill="#2FACB9"/>
<path d="M70.9549 114.095C78.5392 114.584 97.7658 114.883 105.63 115.699C104.818 115.699 104.063 115.753 103.335 115.807C103.923 115.862 104.595 115.97 105.35 116.079C105.35 116.133 105.35 116.16 105.35 116.188C102.468 116.16 93.0082 116.459 85.2839 116.378C72.2983 116.215 59.3406 114.856 46.4109 113.389C47.8102 113.389 49.0976 113.389 50.189 113.389C49.6853 113.144 48.9856 112.927 48.146 112.764C51.8123 112.71 63.6505 113.606 70.9549 114.068V114.095Z" fill="#80BA27"/>
<path d="M119.315 111.46C129.25 112.9 138.542 113.851 144.307 113.661C133.812 117.356 121.358 119.72 114.921 120.97C111.815 121.568 104.874 123.008 96.8982 124.176C100.592 121.051 119.147 117.03 119.147 117.03C119.147 117.03 109.24 116.704 105.322 116.079C104.594 115.97 103.923 115.862 103.307 115.807C104.035 115.78 104.79 115.726 105.602 115.699C109.52 115.59 114.362 115.59 119.707 115.264C122.394 115.101 125.22 114.856 128.103 114.449C124.353 114.449 119.623 113.769 115.285 113.036C110.947 112.302 107.029 111.514 104.622 111.242C106.162 111.079 114.67 111.677 119.259 111.46H119.315Z" fill="#125C90"/>
<path d="M66.7011 141.05C65.1059 140.697 63.7625 140.316 62.699 139.936C63.1748 139.99 63.8185 140.045 64.5741 140.045C67.7646 140.126 72.998 139.882 77.112 139.664C86.2915 141.132 95.1352 142.653 100.537 140.914C99.3332 141.92 97.654 142.898 95.611 143.849C83.1011 146.349 69.6956 148.414 56.9338 147.68C57.4096 147.653 58.0253 147.598 58.725 147.517C60.2642 147.354 62.3352 147.082 64.5181 146.783C68.3803 146.24 72.7741 145.588 75.9646 145.18C73.054 145.126 67.9045 144.963 63.9304 144.582C62.3632 144.419 60.9919 144.229 60.0123 143.985C60.9359 144.148 62.755 144.12 65.0219 143.985C69.3878 143.74 75.5168 143.115 80.1345 142.68C75.5727 142.626 70.5072 141.92 66.6731 141.05H66.7011Z" fill="#125C90"/>
<path d="M77.1119 139.691C76.7201 139.637 76.3283 139.556 75.9365 139.501C64.2382 137.681 55.9263 136.05 43.1925 134.284C39.2744 133.741 34.9925 133.197 30.1788 132.654C16.0177 131.024 7.11805 132.654 0.54126 134.447C6.78222 133.822 24.1617 132.409 33.5931 134.447C25.4211 134.529 5.91464 135.208 2.66822 137.029C8.6573 136.512 14.1706 136.784 18.7884 137.382C22.6505 135.344 39.946 138.605 46.0751 138.903C42.6048 137.49 38.0989 135.833 37.2034 135.072C38.4628 134.991 40.1979 135.018 42.9406 135.371C43.8641 135.48 44.8996 135.643 46.0471 135.833C49.9931 136.485 60.7399 139.094 64.602 140.072C67.7925 140.153 73.0259 139.909 77.1399 139.691H77.1119Z" fill="#2FACB9"/>
<path d="M67.9884 88.0645C70.0314 88.3906 72.0744 88.7167 73.8935 88.8797C72.914 88.8797 71.8785 88.8797 70.815 88.8797C65.5256 88.8797 59.9004 89.0971 58.613 89.7492C63.1468 90.4013 69.5277 92.3034 74.0055 94.8575C73.5857 94.7489 73.1939 94.6673 72.8301 94.5858C62.8949 92.1403 53.1277 90.3198 47.8103 90.8361C44.3679 91.1621 40.8137 91.8414 38.8266 92.2219C37.7632 92.4121 37.1475 92.5207 37.1475 92.4664C37.9031 91.7599 40.226 90.1568 43.8362 88.3634C44.8997 87.8472 46.1031 87.2765 47.3905 86.7331C49.1256 86.0266 52.0082 84.9398 55.4785 83.7714C58.8089 83.5812 64.714 83.6083 70.7591 84.4235C66.0294 84.8854 59.0048 85.0756 56.7099 86.7331C59.9004 86.6788 63.9584 87.4124 67.9324 88.0645H67.9884Z" fill="#125C90"/>
<path d="M30.6546 70.8103C28.9475 79.8314 21.4751 93.6076 18.0608 101.026C15.9898 105.536 10.8963 113.688 7.00618 118.687C4.43143 122.002 2.52836 124.013 3.03212 122.926C3.14406 122.655 3.28399 122.356 3.45191 122.03C5.27102 118.253 9.413 109.313 11.8478 100.373C12.7993 96.9226 13.499 93.3087 14.0587 89.6949C14.2826 91.3252 14.4505 97.9552 12.6874 102.9C15.4581 97.5748 20.9714 83.8529 20.9993 81.1357C21.0273 81.2172 21.0833 81.2987 21.1113 81.3802C21.3072 81.8965 21.3632 82.5486 21.3072 83.3366C21.1113 86.3799 19.2362 91.3795 17.8649 97.4389C19.5441 93.8522 23.854 85.1571 24.8055 83.3094C25.5611 81.815 29.0874 74.8318 30.6266 70.8103H30.6546Z" fill="#125C90"/>
<path d="M106.162 117.573C89.8178 121.079 70.3393 120.454 54.1353 116.595C58.4731 117.139 82.4574 118.117 85.2281 118.063C89.9018 117.927 96.1708 118.008 106.134 117.601L106.162 117.573Z" fill="#80BA27"/>
<path d="M66.701 141.05C70.5071 141.92 75.6006 142.626 80.1624 142.68C75.5167 143.142 69.4156 143.767 65.0498 143.985C60.6559 143.278 49.0136 140.941 47.6982 140.344C54.0232 140.588 62.1392 141.729 66.729 141.05H66.701Z" fill="#2FACB9"/>
<path d="M9.13319 120.128C9.72091 119.638 12.1557 118.008 15.4581 116.052C20.2997 113.172 26.9605 109.558 33.0895 107.873C38.127 106.487 44.284 105.047 51.3646 104.232C47.1386 105.536 41.3735 107.275 37.5113 108.308C37.8192 108.308 46.6629 107.601 52.8759 108.715C53.3236 108.797 53.7434 108.878 54.1352 108.987C52.0922 109.123 49.4895 109.286 46.6629 109.503C39.8342 110.047 32.026 110.998 28.2759 112.628C30.8226 112.356 42.5489 111.759 48.1462 112.845C48.9857 113.008 49.6854 113.226 50.1892 113.47C49.0697 113.47 47.7823 113.443 46.411 113.47C38.155 113.552 26.4008 114.313 22.1189 116.215C25.7571 115.563 38.5468 115.699 45.4035 117.329C37.4554 117.111 28.6677 118.117 23.9939 118.932C19.0683 119.122 12.7714 120.508 10.1407 120.753C8.99326 120.861 8.54547 120.753 9.16117 120.209L9.13319 120.128Z" fill="#125C90"/>
<path d="M106.162 117.573C96.1985 117.981 89.9296 117.927 85.2559 118.035C82.4852 118.117 58.5009 117.111 54.163 116.568C70.3671 120.454 89.8176 121.079 106.19 117.546L106.162 117.573ZM85.2838 116.378C93.0081 116.459 102.495 116.16 105.35 116.188C105.35 116.133 105.35 116.106 105.35 116.079C109.268 116.704 119.175 117.03 119.175 117.03C119.175 117.03 100.592 121.051 96.9262 124.176C88.4183 125.426 78.707 126.459 71.2347 125.997C56.0381 125.1 41.2053 120.617 26.0367 118.851C25.3931 118.823 24.7214 118.823 23.9937 118.851C28.6675 118.035 37.4552 117.003 45.4033 117.247C38.5466 115.617 25.7849 115.481 22.1187 116.133C26.4006 114.231 38.1548 113.443 46.4108 113.389C59.3405 114.829 72.2982 116.215 85.2838 116.378Z" fill="#2FACB9"/>
<path d="M3.03198 122.899C2.52823 123.986 4.4313 121.975 7.00604 118.66C8.3214 117.845 10.8682 116.079 13.9187 112.873C18.0606 108.498 30.3467 95.8357 34.0688 92.4664C33.789 93.2272 33.5931 93.7435 33.5651 93.9337C33.5091 94.2598 34.5726 93.2816 36.0839 91.6512C36.5316 91.9773 36.7275 92.1675 37.1753 92.4936C37.1753 92.5479 37.791 92.4392 38.8545 92.249C34.4606 95.7542 20.7753 111.079 15.4859 116.079C12.1835 118.035 9.7487 119.638 9.16099 120.155C8.54529 120.671 8.99307 120.78 10.1405 120.698C6.11048 123.986 -6.79123 135.126 -11.2131 138.414C-15.1871 140.208 -19.2731 142.572 -21.652 144.12C-22.0438 143.74 -22.2397 143.55 -22.6035 143.197C-20.0847 141.43 -16.8103 138.876 -13.34 135.317C-9.19805 132.301 0.597168 124.611 3.47976 122.03C3.31184 122.383 3.17191 122.682 3.05997 122.926L3.03198 122.899Z" fill="#125C90"/>
<path d="M83.5207 109.395C90.9091 111.269 106.358 112.764 115.341 113.008C119.651 113.742 124.381 114.394 128.159 114.421C125.276 114.829 122.45 115.074 119.763 115.237C106.637 113.117 92.9801 112.438 79.8265 112.547C70.9828 112.601 50.6367 110.373 46.6907 109.476C49.4893 109.259 52.12 109.096 54.163 108.96C53.7712 108.851 53.3514 108.77 52.9036 108.688C59.5364 108.416 71.0108 108.851 76.6081 109.123C73.6695 108.09 66.7849 106.406 61.7194 105.835C66.0852 105.509 85.5917 107.384 87.7187 107.683C91.4968 108.226 95.0791 108.742 99.277 109.965C97.5699 110.264 90.3214 109.612 83.5487 109.422L83.5207 109.395Z" fill="#80BA27"/>
<path d="M63.9583 144.582C67.9044 144.99 73.0539 145.126 75.9925 145.18C72.802 145.588 68.4082 146.24 64.5461 146.783C59.9563 146.539 50.4689 145.289 48.6218 144.963C51.8403 144.854 58.9488 144.854 63.9583 144.555V144.582Z" fill="#2FACB9"/>
<path d="M-5.53177 112.519C-5.19593 112.057 -4.88808 111.623 -4.60822 111.242C-7.01504 116.215 -17.5379 133.904 -19.0212 137.327C-16.1666 133.605 -9.9816 125.48 -5.61573 118.171C-2.36931 112.764 0.0375162 107.873 0.709189 106.107C0.429325 107.982 -0.382279 110.346 -1.61368 113.063C-2.76112 115.617 -4.27238 118.524 -6.09149 121.676C-3.34883 117.736 2.24844 109.721 5.57881 103.118C1.94059 113.824 -4.46829 125.643 -12.1925 134.121C-12.5843 134.529 -12.9482 134.936 -13.34 135.317C-16.8103 138.849 -20.0847 141.43 -22.6034 143.197C-25.7659 145.398 -27.7529 146.376 -27.7529 146.376C-27.4451 145.887 -26.8294 144.827 -26.0458 143.387C-24.9543 141.376 -23.527 138.659 -22.1277 135.697C-20.2806 133.143 -17.7338 129.285 -15.6628 125.643C-13.6478 122.138 -12.0526 118.823 -11.4369 117.22C-11.6888 118.253 -12.0806 119.448 -12.4724 120.698C-13.7598 124.502 -15.6069 128.632 -15.9987 129.42C-14.5714 127.111 -11.8567 122.682 -9.28194 118.497C-7.96658 116.323 -6.67921 114.231 -5.50378 112.547L-5.53177 112.519Z" fill="#125C90"/>
<path d="M-11.241 138.387C-9.75769 137.708 -8.27441 137.11 -6.90308 136.702C-4.88806 136.078 -2.45325 135.262 0.513305 134.447C6.75426 133.822 24.1338 132.409 33.5652 134.447C25.3932 134.529 5.88668 135.208 2.64026 137.029C8.62934 136.512 14.1427 136.784 18.7604 137.382C23.0423 137.925 26.5966 138.74 28.9474 139.42C27.9119 139.365 26.7085 139.311 25.3652 139.229C16.7174 138.74 3.28395 137.952 -3.40479 139.854C-0.354273 140.072 8.68532 141.077 17.9768 142.436C23.8259 143.305 29.759 144.283 33.7611 145.153C32.1659 145.153 30.1508 145.044 27.9959 144.908C21.0273 144.474 12.7713 143.631 11.428 143.332C16.6055 145.153 27.2123 148.359 35.6642 148.903C27.744 149.582 16.2136 147.761 11.428 145.887C7.06211 144.175 -4.02049 140.914 -10.4573 142.762C-12.6123 142.762 -14.4314 142.952 -16.0826 143.332C-19.0771 143.985 -23.527 146.022 -23.6389 145.696C-23.6389 145.669 -23.6389 145.615 -23.527 145.533C-23.2471 145.234 -22.5754 144.773 -21.6519 144.175C-19.273 142.626 -15.187 140.262 -11.213 138.469L-11.241 138.387Z" fill="#125C90"/>
<path d="M25.3933 139.202C29.8151 140.642 39.8902 142.979 46.8868 143.441C41.5414 144.066 23.5462 141.974 18.0049 142.409C8.74138 141.05 -0.298211 140.045 -3.37671 139.827C3.31203 137.898 16.7455 138.686 25.3933 139.202Z" fill="#2FACB9"/>
<path d="M27.7439 152.136C17.305 150.479 3.00401 143.631 -2.95709 143.088C-5.92364 142.816 -8.33047 142.68 -10.4294 142.708C-3.99258 140.86 7.09001 144.12 11.4559 145.832C16.2416 147.707 27.7719 149.528 35.6921 148.848C27.2402 148.332 16.6334 145.099 11.4559 143.278C12.7992 143.577 21.0552 144.419 28.0238 144.854C32.6975 145.724 47.1105 148.196 58.7248 147.517C58.0252 147.598 57.4095 147.653 56.9337 147.68C69.6955 148.414 83.1009 146.349 95.6108 143.849C89.4818 146.675 79.9665 149.174 70.675 150.696C56.6818 153.006 41.5972 154.337 27.7439 152.109V152.136Z" fill="#2FACB9"/>
<path d="M62.6991 139.963C63.7346 140.344 65.1059 140.724 66.7011 141.077C62.1114 141.757 53.9953 140.615 47.6704 140.371C48.9858 140.969 60.6281 143.305 65.0219 144.012C62.755 144.148 60.9359 144.148 60.0124 144.012C61.0199 144.256 62.3912 144.447 63.9305 144.61C58.9209 144.908 51.8124 144.908 48.594 145.017C50.4411 145.343 59.9005 146.593 64.5182 146.838C62.3073 147.137 60.2363 147.463 58.725 147.571C47.4465 148.522 32.6977 145.805 28.024 144.908C30.1789 145.044 32.194 145.153 33.7892 145.153C29.7871 144.284 23.854 143.305 18.0049 142.436C23.5462 141.974 41.5694 144.093 46.8868 143.468C39.8902 143.006 29.8151 140.67 25.3933 139.23C26.7366 139.311 27.94 139.365 28.9755 139.42C26.6247 138.74 23.0704 137.925 18.7885 137.382C22.6506 135.344 39.9462 138.605 46.0752 138.903C42.6049 137.491 38.0991 135.833 37.2035 135.072C38.4629 134.991 40.1981 135.018 42.9407 135.371C43.8643 135.48 44.8998 135.643 46.0472 135.833C49.9933 136.485 60.74 139.094 64.6022 140.072C63.8465 140.072 63.2028 140.017 62.7271 139.963H62.6991Z" fill="#80BA27"/>
<path d="M91.0772 33.9922C94.5475 31.3293 98.0458 29.3186 99.3892 29.1556C97.0383 30.324 91.1612 39.0462 89.9578 41.0569C90.7694 41.1656 94.2117 39.3723 95.667 37.8506C95.0233 40.2961 93.4561 42.959 91.469 45.5403C87.8028 50.3498 80.6383 56.9254 80.6383 56.9254C80.6383 56.9254 84.9202 49.2629 84.8642 45.7849C84.0806 48.3662 70.5632 64.5336 66.2253 68.4463C67.4008 63.963 81.5619 44.2361 84.0806 40.7309C85.6759 38.4756 88.3905 36.0301 91.0772 33.965V33.9922Z" fill="#80BA27"/>
<path d="M58.305 30.4599C57.4375 22.4985 56.2061 16.2761 55.5624 13.9393C55.7023 16.0587 54.8347 19.3465 54.8627 20.8953C54.5549 18.1509 54.1351 12.9339 53.5474 8.96678C54.6948 5.02684 55.7023 1.68468 56.5139 -0.0271606C57.1296 5.73331 57.3535 10.7058 58.2211 16.2217C58.2211 18.9117 58.473 22.6343 58.5289 25.6776C58.5849 27.9872 58.5289 29.9164 58.333 30.7044C58.333 30.6229 58.333 30.5414 58.305 30.4599Z" fill="#125C90"/>
<path d="M101.012 54.6701C101.264 54.5886 104.986 53.23 106.721 52.5779C106.721 52.6051 106.693 52.6322 106.665 52.6594C105.042 54.7517 101.264 58.1753 96.9262 61.4903C92.7003 63.3924 86.0395 66.028 83.2969 66.2454C85.3399 65.4846 89.7337 62.1425 92.5603 58.9362C95.5829 57.9036 99.8928 54.7788 103.559 51.8171C102.775 53.067 101.88 54.0995 101.012 54.6973V54.6701Z" fill="#2FACB9"/>
<path d="M59.2287 21.4116C61.6915 32.5521 62.615 44.9697 59.9843 56.0016C59.5085 57.9851 58.641 60.023 57.6055 61.9794C58.473 58.2297 59.6205 50.5128 59.4246 46.5729C59.7604 41.057 59.6205 31.8728 58.501 25.7048C58.4451 22.6615 58.2212 18.9389 58.1932 16.2489C58.4451 17.9064 58.8089 19.6454 59.2007 21.4116H59.2287Z" fill="#2FACB9"/>
<path d="M100.341 44.0187C100.509 43.9372 101.04 43.747 101.712 43.4481C99.0813 46.9533 92.8124 53.9908 84.6404 58.5829C88.7544 54.1539 93.7639 48.9368 95.5271 46.5457C98.4376 42.5786 103.447 35.6497 105.63 33.7477C105.098 36.2475 101.46 42.1982 100.341 44.0459V44.0187Z" fill="#80BA27"/>
<path d="M95.4989 46.5185C93.7357 48.9368 88.7262 54.1538 84.6122 58.5557C83.9965 58.9089 83.4088 59.2078 82.7651 59.5339C82.4852 59.2078 82.3453 59.0176 82.0654 58.6916C85.9835 54.6701 90.0136 50.1324 92.7842 46.6C94.0996 44.9153 95.163 43.4481 95.8067 42.4155C98.9972 37.2528 107.169 24.6722 112.571 20.4877C115.033 19.8084 117.524 19.4008 119.875 19.2921C115.621 22.9603 112.655 26.2753 112.403 31.3022C112.179 36.3018 110.052 48.1216 106.665 52.5779C104.93 53.23 101.208 54.5614 100.956 54.6701C101.824 54.0723 102.719 53.0398 103.503 51.7899C104.986 49.4259 106.134 46.2468 106.414 43.8828C104.986 46.2739 103.111 48.2847 101.796 49.0183C101.432 49.2357 101.096 49.3444 100.816 49.3444C102.132 47.4423 105.21 43.0676 105.378 40.8395C104.399 42.0894 102.803 42.9318 101.656 43.4209C100.984 43.7198 100.452 43.91 100.285 43.9915C101.404 42.1438 105.042 36.1931 105.574 33.6933C103.391 35.5953 98.3815 42.5242 95.4709 46.4913L95.4989 46.5185Z" fill="#125C90"/>
<path d="M55.8703 20.8953C56.9618 27.0905 56.6539 46.437 55.5904 54.2897C58.3611 49.0727 58.6969 37.117 58.3331 30.487C58.3331 30.5685 58.3331 30.65 58.3611 30.7316C58.557 29.9436 58.585 28.0143 58.557 25.7047C59.6765 31.8728 59.7884 41.0841 59.4806 46.5728C59.4806 46.1924 59.4246 45.8664 59.3966 45.5675C59.1447 48.6107 58.2771 52.3605 57.0178 56.0287C56.0382 57.4145 54.499 59.2078 53.4915 60.3491C53.9952 58.3655 54.2751 56.5178 54.1911 55.3494C54.6669 52.4963 55.0307 48.9096 54.527 47.0891C54.1072 51.1106 51.0567 59.0448 49.8532 61.4903C50.2451 59.7241 50.5249 58.0123 50.6089 56.8439C50.6089 56.9526 50.1611 58.1481 49.5454 59.8056C50.0212 56.1917 50.6369 49.29 49.9372 42.8231C49.7973 49.8878 45.7393 63.1478 43.3044 67.1149C44.312 59.5339 46.4949 42.9046 46.8587 40.2418C47.5864 34.8889 50.4689 26.0308 51.9522 23.4494C52.0082 25.9493 50.7488 45.4044 52.4 49.9422C53.0437 38.3669 55.4505 26.0851 55.9263 20.8681L55.8703 20.8953Z" fill="#80BA27"/>
<path d="M49.7693 61.5175C50.9727 59.072 54.0512 51.1378 54.443 47.1163C54.9468 48.9097 54.6109 52.5236 54.1072 55.3766C54.1072 55.3223 54.1072 55.2679 54.1072 55.1864C53.8553 57.2515 49.0696 67.1965 47.6423 69.5604C47.8382 68.7453 49.0137 64.9684 49.7693 61.5175Z" fill="#2FACB9"/>
<path d="M89.6497 32.3076C87.019 34.2911 84.8641 36.166 83.4927 37.6876C77.9794 43.747 65.5535 63.6913 64.0982 66.2183C63.2306 67.7399 59.1166 72.4678 55.6743 76.2176C59.3125 75.0492 69.1078 70.756 72.3262 68.0931C73.8654 66.816 77.8955 63.0391 82.1214 58.7188C86.0115 54.6973 90.0695 50.1596 92.8402 46.6272C94.1555 44.9426 95.219 43.4753 95.8627 42.4427C99.0531 37.28 107.225 24.6994 112.627 20.5149C104.315 22.743 95.7508 27.7698 89.6777 32.3347L89.6497 32.3076ZM95.6668 37.8778C95.0231 40.3233 93.4559 42.9862 91.4688 45.5675C87.8026 50.377 82.7651 54.8875 80.6381 56.9526C81.3938 56.0831 84.92 49.2901 84.8641 45.8121C84.0804 48.3934 70.563 64.5608 66.2252 68.4735C67.4006 63.9902 81.5617 44.2632 84.0805 40.7581C85.6757 38.5028 88.3904 36.0573 91.077 33.9922C94.5473 31.3294 98.0456 29.3186 99.389 29.1556C97.0381 30.324 91.161 39.0462 89.9576 41.0569C90.7692 41.1656 94.2115 39.3723 95.6668 37.8507V37.8778Z" fill="#2FACB9"/>
<path d="M93.7639 57.4417C96.5065 55.1593 99.8929 51.2737 101.824 49.0455C103.139 48.2847 105.014 46.274 106.442 43.91C106.19 46.274 105.042 49.4531 103.531 51.8171C99.8649 54.7788 95.555 57.9036 92.5325 58.9362C92.9803 58.4471 93.3721 57.958 93.7079 57.4689L93.7639 57.4417Z" fill="#80BA27"/>
<path d="M105.434 40.8396C105.266 43.0948 102.188 47.4695 100.872 49.3444C101.152 49.3444 101.46 49.2357 101.852 49.0183C99.8929 51.2465 96.5345 55.1592 93.7919 57.4145C94.7154 56.1374 95.3031 54.969 95.3031 54.0723C93.8478 57.3058 85.2 61.8707 79.2949 65.1857C79.7427 63.963 82.0096 61.4088 84.6683 58.5286C92.8403 53.9365 99.1093 46.8989 101.74 43.3937C102.887 42.8775 104.483 42.0351 105.462 40.7852L105.434 40.8396Z" fill="#2FACB9"/>
<path d="M121.778 84.3148C126.984 83.9616 135.156 83.7714 140.165 83.3638C147.889 84.3148 155.25 84.8311 159 84.1789C152.535 87.032 147.47 89.4503 142.6 91.7599C137.73 94.0696 122.59 99.8844 113.662 99.993C111.003 100.02 107.113 99.7757 102.719 99.3409C116.825 98.4714 128.467 94.0152 141.089 88.1732C133.728 89.5046 126.592 92.0045 124.129 92.6023C125.668 90.7274 134.456 87.7113 136.639 87.195C132.189 86.8961 123.793 88.0102 121.694 88.3906C122.814 87.3037 131.21 85.7277 133.029 85.4288C128.999 85.0756 122.73 85.0484 118.952 84.9669C118.196 84.9669 117.524 84.9397 117.021 84.9126C117.776 84.668 119.483 84.4778 121.722 84.342L121.778 84.3148Z" fill="#125C90"/>
<path d="M51.1685 81.2172C51.0845 81.4346 52.4279 81.0814 54.6388 80.3749C51.8401 82.3313 46.5227 85.7821 43.892 88.3635C40.2538 90.1568 37.9309 91.76 37.2033 92.4664C36.7555 92.1404 36.5596 91.9502 36.1118 91.6241C37.0354 90.6188 38.1268 89.396 39.2463 88.0374C42.2968 86.0267 48.5657 81.3531 53.3234 78.7446C52.12 80.0488 51.2804 80.9727 51.1965 81.2172H51.1685Z" fill="#125C90"/>
<path d="M27.4363 65.077C31.1305 51.5182 27.884 35.2965 27.5482 32.8238C27.7721 33.3672 28.024 34.0737 28.2479 34.9432C29.8991 40.9482 30.9625 53.7463 30.4028 58.4199C29.7591 63.7456 27.0444 72.1146 25.1974 76.5708C25.3373 76.0002 25.7851 69.3158 25.0014 67.5497C24.7496 71.4624 22.6786 79.2065 21.2793 83.3094C21.3352 82.5215 21.2793 81.8693 21.0834 81.353C21.6431 76.8153 22.0629 68.9354 21.4192 64.914C21.3912 67.3323 20.8595 75.0491 17.781 82.6301C17.5011 75.4839 19.0404 60.7566 19.2363 58.8003C19.852 52.9039 21.1953 38.0137 21.5591 30.9761C22.5107 33.802 23.4342 50.0509 23.0704 58.0666C26.2608 45.649 23.6021 32.4434 23.882 29.5903C24.2178 31.8456 25.5892 37.7963 26.2888 41.9536C26.9885 46.1381 27.5762 58.2025 27.3803 65.1042L27.4363 65.077Z" fill="#80BA27"/>
<path d="M79.8266 112.547C92.9802 112.465 106.637 113.117 119.763 115.237C114.418 115.563 109.576 115.563 105.658 115.671C97.7938 114.883 78.5672 114.557 70.9829 114.068C63.6785 113.606 51.8402 112.71 48.174 112.764C42.5768 111.677 30.8785 112.302 28.3037 112.547C32.0819 110.943 39.8621 109.992 46.6907 109.422C50.6648 110.318 70.9829 112.547 79.8266 112.492V112.547Z" fill="#2FACB9"/>
<path d="M16.3815 69.968C15.6538 76.2991 15.0661 83.0649 14.0586 89.6677C14.2825 91.298 14.4504 97.928 12.6873 102.873C15.4579 97.5476 20.9712 83.8257 20.9992 81.1085C21.0272 81.19 21.0832 81.2715 21.1111 81.3531C21.6709 76.8153 22.0907 68.9354 21.447 64.914C21.419 67.3323 20.8873 75.0491 17.8088 82.6301C17.5289 75.4839 19.0681 60.7567 19.264 58.8003C19.8797 52.9039 21.2231 38.0137 21.5869 30.9761C22.5385 33.802 23.462 50.0509 23.0982 58.0666C26.2886 45.649 23.6299 32.4434 23.9098 29.5903C24.2456 31.8456 25.617 37.7963 26.3166 41.9536C27.0163 46.1381 27.604 58.2025 27.4081 65.1042C31.1023 51.5453 27.8559 35.3236 27.52 32.851C27.7439 33.3944 27.9958 34.1009 28.2197 34.9704C29.8709 40.9754 30.9344 53.7734 30.3746 58.447C29.7309 63.7728 27.0163 72.1417 25.1692 76.598C25.3091 76.0273 25.7569 69.343 24.9733 67.5768C24.7214 71.4896 22.6504 79.2336 21.2511 83.3366C21.0272 86.4071 19.1801 91.3795 17.8088 97.4389C19.4879 93.8522 23.7978 85.1571 24.7494 83.3094C25.505 81.815 29.0313 74.8318 30.5705 70.8103C30.5705 70.7288 30.5985 70.6201 30.6265 70.5386C32.6415 58.9905 32.3057 47.062 29.1152 35.6497C29.0593 35.4051 28.9753 35.1334 28.9193 34.8889C26.2606 25.27 23.9098 16.9825 22.9303 9.34717C17.277 28.7208 18.6204 50.1324 16.3255 69.968H16.3815Z" fill="#2FACB9"/>
<path d="M118.979 84.9398C114.614 85.1572 104.063 85.5647 97.4299 87.1136C106.078 87.3038 114.39 86.9233 119.539 88.1461C110.919 90.1025 107.337 90.5916 104.51 91.7328C110.276 91.7328 118.392 90.4285 123.709 91.0535C123.457 91.1622 123.205 91.2709 122.897 91.3796C118.42 92.9827 108.009 94.5587 100.145 94.5315C95.191 94.5315 82.2893 93.2273 76.9719 92.2762C81.4497 92.3034 93.0641 92.9555 99.5009 91.6785C93.148 91.3524 76.5521 89.6677 70.8149 88.9069C71.8784 88.9069 72.9139 88.9069 73.8934 88.9069C72.0463 88.7439 70.0313 88.4178 67.9883 88.0917C73.1378 87.6026 87.7466 86.7875 92.7842 86.8147C88.4183 85.7549 80.3023 84.8854 76.1323 84.5322C78.0074 83.9888 84.4163 83.5268 97.0101 83.6355C103.419 83.6899 110.695 83.1736 121.75 84.342C119.511 84.4779 117.804 84.6681 117.048 84.9126C117.58 84.9126 118.224 84.967 118.979 84.967V84.9398Z" fill="#80BA27"/>
<path d="M92.7843 86.7875C88.4184 85.7278 80.3023 84.8583 76.1324 84.505C78.0075 83.9616 84.4163 83.4997 97.0102 83.6083C103.419 83.6627 110.696 83.1464 121.75 84.3148C126.956 83.9616 135.128 83.7714 140.137 83.3638C131.853 82.3584 123.205 80.864 117.104 80.0216C105.378 78.3913 93.0921 77.6305 81.2259 77.9022C74.6771 78.0381 63.5385 81.1357 55.5344 83.7985C58.8648 83.6083 64.7699 83.6355 70.815 84.4507C66.0853 84.9126 59.0607 85.1028 56.7658 86.7603C59.9563 86.706 64.0143 87.4396 67.9884 88.0917C73.1378 87.6026 87.7467 86.7875 92.7843 86.8146V86.7875Z" fill="#2FACB9"/>
<path d="M133.057 85.4017C129.027 85.0484 122.758 85.0213 118.98 84.9398C114.614 85.1571 104.063 85.5647 97.4301 87.1135C106.078 87.3037 114.39 86.9233 119.539 88.1461C110.92 90.1024 107.337 90.5915 104.511 91.7328C110.276 91.7328 118.392 90.4285 123.709 91.0535C123.457 91.1621 123.206 91.2708 122.898 91.3795C118.448 92.9283 108.009 94.5587 100.145 94.5315C95.1912 94.5315 82.2895 93.2272 76.9721 92.2762C81.4499 92.3034 93.0642 92.9555 99.5011 91.6784C93.1482 91.3524 76.5523 89.6677 70.8151 88.9069C65.5257 88.9069 59.9004 89.1243 58.613 89.7764C63.1468 90.4285 69.5277 92.3305 74.0055 94.8847C81.142 96.5422 92.9523 98.3899 102.72 99.3409C116.825 98.4714 128.467 94.0152 141.089 88.1732C133.728 89.5047 126.592 92.0045 124.129 92.6023C125.668 90.7274 134.456 87.7113 136.639 87.195C132.189 86.8961 123.793 88.0102 121.694 88.3906C122.814 87.3037 131.21 85.7277 133.029 85.4289L133.057 85.4017Z" fill="#2FACB9"/>
<path d="M53.4354 60.3763C54.4429 59.235 55.9822 57.4417 56.9617 56.0559C54.8627 62.1968 51.7003 68.0116 50.0491 69.805C50.6368 68.7996 52.4559 64.3162 53.4074 60.3763H53.4354Z" fill="#2FACB9"/>
<path d="M92.5603 58.9361C89.7337 62.1424 85.3398 65.5118 83.2968 66.2454C86.0395 66.0552 92.7003 63.3923 96.9262 61.4903C92.0846 65.1857 86.5712 68.7452 83.1569 70.1038C78.2313 72.0874 61.8033 78.0381 54.6388 80.3477C52.4279 81.0542 51.0846 81.4074 51.1685 81.19C51.2525 80.9455 52.0921 80.0216 53.2955 78.7174C53.9951 77.9565 54.8067 77.087 55.6743 76.1632C59.3125 74.9948 69.1078 70.7016 72.3262 68.0388C73.8654 66.7617 77.8955 63.0119 82.1214 58.6644C82.4013 58.9905 82.5412 59.1807 82.8211 59.5067C83.4368 59.2078 84.0525 58.8818 84.6682 58.5285C82.0095 61.4088 79.7426 63.9629 79.2948 65.1857C85.1999 61.8435 93.8757 57.3058 95.303 54.0723C95.303 54.9418 94.7153 56.1374 93.7917 57.4145C93.4559 57.9036 93.0361 58.3927 92.6163 58.8818L92.5603 58.9361Z" fill="#125C90"/>
<path d="M53.5475 8.99396C51.2526 16.8467 48.1181 27.0362 46.7188 32.1174C46.243 33.8835 45.8232 36.5192 45.4314 39.5897C44.0601 49.915 41.9891 64.8597 41.3174 69.0985C40.8137 72.4135 38.5468 80.3205 36.3918 86.2984C38.7987 83.0378 44.5639 73.0113 45.8792 69.2072C46.8867 66.3813 48.454 62.4957 49.4615 59.8328C49.9372 56.219 50.5529 49.3173 49.8533 42.8503C49.7133 49.915 45.6553 63.175 43.2205 67.1421C44.228 59.5611 46.411 42.9318 46.7748 40.269C47.5024 34.9161 50.385 26.058 51.8683 23.4767C51.9243 25.9765 50.6649 45.4317 52.3161 49.9694C52.9598 38.3941 55.3666 26.1123 55.8424 20.8953C56.9338 27.0905 56.626 46.437 55.5625 54.2897C58.3331 49.0727 58.669 37.117 58.3052 30.487C57.4376 22.5256 56.2062 16.3032 55.5625 13.9664C55.7024 16.0859 54.8348 19.3737 54.8628 20.9225C54.555 18.1781 54.1352 12.9611 53.5475 8.99396Z" fill="#2FACB9"/>
<path d="M56.9618 56.0287C58.2212 52.3605 59.0888 48.5836 59.3407 45.5675C59.3687 45.8664 59.3966 46.1925 59.4246 46.5729C59.6205 50.5128 58.4731 58.2297 57.6055 61.9794C54.0233 68.8811 48.0062 75.2665 45.3475 79.6412C43.8642 82.0867 41.4854 85.293 39.1905 88.0646C38.0711 89.4232 36.9796 90.6459 36.056 91.6513C34.5448 93.2816 33.4813 94.2598 33.5373 93.9337C33.5653 93.7435 33.7612 93.2272 34.041 92.4664C34.5728 91.0807 35.4403 88.8526 36.3639 86.2984C38.7707 83.0377 44.5359 73.0113 45.8513 69.2072C46.8588 66.3813 48.426 62.4957 49.4335 59.8328C50.0492 58.1753 50.497 56.9798 50.497 56.8711C50.413 58.0395 50.1332 59.7241 49.7414 61.5175C48.9857 64.9955 47.8103 68.7452 47.6144 69.5604C49.0697 67.1964 53.8274 57.2515 54.0792 55.1864C54.0792 55.2407 54.0792 55.2951 54.0792 55.3766C54.1632 56.5178 53.8833 58.3655 53.3796 60.3763C52.4001 64.289 50.581 68.7996 50.0212 69.805C51.6444 68.0388 54.8349 62.1968 56.9338 56.0559L56.9618 56.0287Z" fill="#125C90"/>
<path d="M4.03955 57.3602C2.75218 60.5121 3.59177 65.4303 4.01157 70.8375C1.96856 67.2236 2.05252 60.2948 2.19245 55.8657C-0.242363 64.7238 -3.15294 74.2068 -4.55226 78.9891C-8.27444 91.8687 -10.6253 105.862 -15.299 118.823C-16.1946 121.323 -18.9932 129.094 -22.1277 135.67C-20.2806 133.116 -17.7338 129.257 -15.6628 125.616C-11.4649 110.916 -8.02256 95.9173 -3.04099 81.4346C-3.93656 86.1354 -6.00755 95.075 -5.64373 96.9227C-3.09697 89.0971 -1.89356 80.4292 -0.382295 77.6577C-1.66967 92.4121 -5.6997 107.411 -12.5004 120.671C-13.7878 124.475 -15.6349 128.578 -16.0267 129.393C-14.5994 127.084 -11.8847 122.655 -9.30994 118.47C-3.32086 104.259 -0.354309 89.0428 1.94057 73.908C3.116 86.9505 0.177434 100.727 -5.53178 112.547C-5.19594 112.085 -4.88809 111.65 -4.60823 111.269C-7.01506 116.242 -17.5379 133.931 -19.0212 137.355C-16.1666 133.632 -9.98161 125.508 -5.61574 118.198C-5.67171 118.198 -5.72769 118.171 -5.78366 118.144C-4.52427 114.965 -2.03349 109.204 -0.578198 104.069C0.849105 98.9334 5.9986 81.1629 5.83068 78.2826C7.23 89.9938 4.73921 103.009 -1.61369 113.09C-2.76113 115.644 -4.27239 118.552 -6.09151 121.704C-3.34884 117.764 2.24842 109.748 5.5788 103.145C7.20201 98.6073 8.18153 94.8576 8.48938 93.0642C9.21702 88.8526 8.93716 79.7228 7.78972 71.6798C5.74672 67.5225 4.20747 59.9687 4.03955 57.3602Z" fill="#2FACB9"/>
<path d="M2.16447 55.8385C2.05252 60.2676 1.96857 67.1964 3.98358 70.8103C3.59178 65.4031 2.7242 60.4849 4.01157 57.333C4.17949 59.9415 5.69075 67.4953 7.76174 71.6526C7.28597 68.4192 6.72625 65.4031 6.11055 62.9576C4.01157 54.3984 7.09007 45.9479 7.90167 38.7473C5.91464 41.9264 4.09553 48.6923 2.13649 55.8385H2.16447Z" fill="#125C90"/>
<path d="M125.297 30.4611C125.907 30.3591 126.593 30.0786 127.153 29.6197C127.331 29.4923 127.534 29.3393 127.712 29.1863C128.042 28.8804 128.22 28.3705 128.017 27.8606C127.203 25.8211 124.203 26.8663 123.644 28.6764C123.212 30.0276 124.559 30.5885 125.322 30.4611H125.297Z" fill="#9E1460"/>
<path d="M116.296 39.6135C116.78 39.69 117.288 39.3586 117.72 38.9507C118.635 38.5682 119.551 37.4975 119.78 36.6562C120.135 35.2795 118.89 34.4636 118.025 34.897C117.161 35.3305 116.246 36.1208 115.534 36.8856C114.618 37.8544 115.254 39.4606 116.296 39.6135Z" fill="#9E1460"/>
<path d="M107.983 29.3648C109.381 30.2316 112.788 28.9059 111.898 26.2544C111.517 25.1072 110.322 25.6171 109.712 26.025C109.61 26.1015 109.483 26.178 109.381 26.2544C108.695 26.5859 108.135 27.1977 107.729 28.0136C107.525 28.4215 107.627 29.1353 107.983 29.3648Z" fill="#9E1460"/>
<path d="M115.534 52.1313C116.653 52.6667 117.72 51.4939 118.356 50.4232C118.89 49.5564 119.449 47.5933 118.178 47.2364C118.178 47.2364 118.178 47.2364 118.153 47.2364C118.076 47.2364 118 47.1854 117.924 47.2109C117.009 47.2619 116.093 48.1032 115.432 48.8935C115.076 49.3269 114.746 49.8878 114.695 50.5507C114.644 51.29 115.051 51.8764 115.559 52.1313H115.534Z" fill="#9E1460"/>
<path d="M103.737 49.1485C104.424 50.2193 105.847 49.123 106.508 48.5111C106.941 48.0777 107.347 47.5424 107.551 46.8795C107.805 46.0127 107.475 45.1714 106.839 44.8399C105.619 44.1771 104.144 45.6813 103.686 47.0835C103.636 47.2109 103.636 47.3384 103.661 47.4659C103.407 47.9503 103.356 48.5366 103.763 49.174L103.737 49.1485Z" fill="#9E1460"/>
<path d="M124.686 42.6474C124.941 44.177 126.644 43.6926 127.407 43.2592C128.322 42.7493 129.746 41.3726 128.602 40.0214C127.585 38.8232 126.263 40.0724 125.246 40.6078C124.991 40.7353 124.864 41.0667 124.864 41.4236C124.686 41.7296 124.585 42.1375 124.686 42.6729V42.6474Z" fill="#9E1460"/>
<path d="M128.754 53.712C128.754 53.712 128.805 53.8395 128.83 53.9159C129.39 55.1397 130.864 54.7318 131.627 53.9924C132.085 53.559 132.441 53.0746 132.644 52.3863C132.924 51.545 132.466 50.7036 131.856 50.4232C130.636 49.8368 129.263 51.2645 128.576 52.4628C128.347 52.8452 128.475 53.4061 128.729 53.712H128.754Z" fill="#9E1460"/>
<path d="M134.881 36.0188C134.83 36.8856 135.415 37.523 136.025 37.574C136.534 37.625 137.042 37.421 137.525 37.2171C138.034 36.9876 138.466 36.6817 138.873 36.2228C139.356 35.7129 139.61 34.6931 139.102 34.0557C138.568 33.3674 137.729 33.3674 137.042 33.5204C136.28 33.6733 135.644 34.3617 135.11 35.0245C134.907 35.2795 134.856 35.5599 134.907 35.8404C134.907 35.8913 134.907 35.9423 134.907 36.0188H134.881Z" fill="#9E1460"/>
<path d="M134.703 24.1129C134.652 24.9797 135.288 25.4896 135.847 25.5916C136.407 25.6936 136.991 25.5406 137.525 25.3366C138.39 25.0307 140.042 23.7815 139.356 22.3283C138.974 21.5125 138.186 21.3085 137.5 21.385C136.813 21.487 136.229 21.8949 135.72 22.4558C135.186 22.8127 134.754 23.3481 134.703 24.1129Z" fill="#9E1460"/>
<path d="M126.847 15.3683C127.051 16.9745 128.525 16.847 129.415 16.5411C130.356 16.2352 131.449 15.3683 131.297 13.9152C131.195 13.0484 130.356 12.6914 129.797 12.6404C129.492 12.6404 129.161 12.7169 128.881 12.8444C127.89 12.9719 126.695 13.9916 126.847 15.3429V15.3683Z" fill="#9E1460"/>
<path d="M115.585 18.9121C116.373 19.7024 117.542 19.422 118.356 18.8611C119.093 18.3767 119.805 17.0255 119.373 15.9292C118.712 14.2466 116.525 15.5723 115.686 16.3626C115.407 16.6431 115.229 17.051 115.33 17.4844C115.305 17.5864 115.28 17.6883 115.254 17.7903C115.178 18.2747 115.305 18.6061 115.585 18.9121Z" fill="#9E1460"/>
<path d="M82.2288 20.3653C83.0169 21.1556 84.1864 20.8751 85 20.3143C85.7372 19.8299 86.4491 18.4787 86.0169 17.3824C85.3559 15.6998 83.1695 17.0255 82.3305 17.8158C82.0508 18.0962 81.8728 18.5042 81.9745 18.9376C81.9491 19.0395 81.9237 19.1415 81.8983 19.2435C81.822 19.7279 81.9491 20.0593 82.2288 20.3653Z" fill="#9E1460"/>
<path d="M104.322 18.2492C104.5 20.0848 106.305 19.1925 107.042 18.6571C107.78 18.1217 109.102 16.643 108.263 15.4703C107.78 14.8074 106.966 14.9094 106.381 15.2154C106 15.4193 105.644 15.7507 105.339 16.1077C104.703 16.5156 104.22 17.2549 104.322 18.2492Z" fill="#9E1460"/>
<path d="M119.093 6.39427C119.119 6.52174 119.169 6.67471 119.22 6.82767C119.881 8.30635 121.686 7.1846 122.449 6.41976C122.907 5.96086 123.288 5.27251 123.364 4.50768C123.466 3.4624 122.78 2.90153 122.068 2.82504C121.407 2.74856 120.72 3.18197 120.186 3.64087C119.602 4.15076 118.966 4.94108 118.991 5.93537C118.991 6.11383 119.042 6.2413 119.093 6.36877V6.39427Z" fill="#9E1460"/>
<path d="M139.737 12.9209C140.22 13.2268 140.729 13.0993 141.212 12.8444C142 12.462 143.5 11.7226 143.169 10.2949C142.941 9.40264 142.152 8.99473 141.491 9.1477C140.881 9.27517 140.347 9.70857 139.813 10.1165C139.712 10.193 139.635 10.2949 139.585 10.3969C139.458 10.5499 139.356 10.7538 139.28 10.9578C139.051 11.6462 139.178 12.564 139.737 12.9209Z" fill="#9E1460"/>
<path d="M146.322 29.5687C147.339 30.7669 149.297 29.5432 150.237 28.7274C150.492 28.5234 150.72 28.0645 150.593 27.6311C149.958 25.4641 147.848 25.7445 146.703 27.1467C146.042 27.5801 145.636 28.8039 146.297 29.5687H146.322Z" fill="#9E1460"/>
<path d="M140.398 44.8399C140.551 45.7577 141.288 46.1656 141.924 46.2676C142.89 46.4206 144.771 45.6558 144.441 43.9476C144.085 42.0865 142.635 42.367 141.517 42.8769C141.517 42.8769 141.517 42.8769 141.491 42.8769C141.466 42.8769 141.415 42.9024 141.39 42.9278C141.212 43.0298 141.008 43.1318 140.856 43.2083C140.551 43.3867 140.449 43.6927 140.449 43.9986C140.373 44.2536 140.322 44.534 140.373 44.8399H140.398Z" fill="#9E1460"/>
<path d="M141.212 57.2047C141.619 57.4852 142.305 57.5617 142.763 57.3832C143.602 57.0773 145.051 56.3379 144.364 54.8337C143.627 53.2021 142 53.9924 141.136 54.9102C141.034 55.0122 140.983 55.1397 140.932 55.2926C140.653 55.9045 140.678 56.8478 141.212 57.2047Z" fill="#9E1460"/>
<path d="M115.839 63.2724C116.932 65.1335 119.881 63.5784 120.568 61.8702C121.203 60.2896 120.212 58.9384 118.992 58.8109C118.076 58.7089 117.085 59.3208 116.424 60.2131C115.661 60.9524 115.203 62.2017 115.839 63.2724Z" fill="#9E1460"/>
<path d="M117.669 76.1216C118.178 76.6315 118.839 76.657 119.424 76.402C120.568 75.8921 122.373 74.2095 121.229 72.5014C120.415 71.3031 118.737 72.3739 117.974 73.1387C117.873 73.2407 117.822 73.3682 117.797 73.5212C117.669 73.7251 117.568 73.9291 117.491 74.1585C117.263 74.7959 117.237 75.6627 117.695 76.1471L117.669 76.1216Z" fill="#9E1460"/>
<path d="M127.102 64.955C127.254 66.8926 129.314 66.3827 130.254 65.7964C131.119 65.261 132.415 63.2724 131.398 62.0997C130.788 61.3858 129.822 61.6153 129.11 61.9722C128.322 62.3801 127.61 63.0939 127.127 64.0117C126.949 64.3687 126.975 64.7001 127.102 64.9805V64.955Z" fill="#9E1460"/>
<path d="M136.127 72.017C136.686 73.3427 138.237 72.7308 139.025 72.119C139.941 71.3796 141.136 69.4676 139.89 68.3458C139.254 67.7849 138.314 68.0654 137.703 68.4733C137.5 68.6262 137.297 68.8047 137.093 69.0087C136.864 69.1616 136.636 69.3911 136.458 69.595C135.975 70.1814 135.797 71.2267 136.127 72.017Z" fill="#9E1460"/>
<path d="M126.797 81.348C127.203 81.7304 127.737 81.7304 128.22 81.6794C129.085 81.5519 130.712 80.9656 130.458 79.4359C130.305 78.5691 129.619 77.9317 128.958 77.8807C128.703 77.8807 128.449 77.8807 128.195 77.9827C127.483 78.0337 126.746 78.4671 126.441 79.2574C126.136 79.9968 126.288 80.8636 126.797 81.348Z" fill="#9E1460"/>
<path d="M106.559 77.5748C106.559 77.8042 106.635 78.0337 106.737 78.2886C107.424 79.9203 109.127 78.5181 109.737 77.5493C110.119 76.9629 110.424 76.3256 110.5 75.5607C110.576 74.7449 110.169 74.0311 109.559 73.8526C108.135 73.4447 106.635 75.3313 106.458 77.0904C106.458 77.2434 106.458 77.3963 106.534 77.5493L106.559 77.5748Z" fill="#9E1460"/>
<path d="M97.3051 81.9853C98.0933 83.1071 99.5678 82.2912 100.28 81.4499C100.737 80.9145 101.119 80.2517 101.17 79.4104C101.246 78.4926 100.534 77.7022 99.8983 77.6767C98.7797 77.6003 97.5085 78.824 97.1017 80.1497C97.0763 80.2517 97.0509 80.3282 97.0509 80.4301C96.8983 80.9145 96.9238 81.4499 97.3051 81.9598V81.9853Z" fill="#9E1460"/>
<path d="M150.72 47.4404C151 49.3524 152.703 48.8935 153.695 48.3837C154.686 47.8483 155.754 46.5226 155.271 45.0439C154.992 44.1516 154 44.1261 153.415 44.2536C152.856 44.3555 152.373 44.7634 151.941 45.2733C151.203 45.6303 150.568 46.4461 150.746 47.4659L150.72 47.4404Z" fill="#9E1460"/>
<path d="M151.331 57.8676C151.28 58.5305 151.687 59.1678 152.17 59.3208C152.703 59.4992 153.314 59.2443 153.746 58.8619C154.28 58.3775 154.712 57.7656 154.941 56.9753C155.195 56.083 154.763 55.2162 154.153 54.8848C153.187 54.3749 151.763 55.879 151.381 56.9243C151.28 57.2302 151.254 57.5617 151.356 57.8676H151.331Z" fill="#9E1460"/>
<path d="M146.017 68.7792C146.017 69.748 146.627 70.4873 147.339 70.6148C147.924 70.7168 148.559 70.4108 149.068 70.0794C149.932 69.493 151.127 67.8869 150.517 66.5102C150.085 65.5669 149.093 65.6689 148.407 66.0258C148.229 66.1278 148.051 66.2298 147.873 66.3827C146.907 66.6632 145.991 67.377 146.017 68.7792Z" fill="#9E1460"/>
<path d="M145.966 79.4359C145.966 80.4047 146.576 81.144 147.288 81.2715C147.873 81.3734 148.483 81.0675 149.017 80.7361C149.881 80.1497 151.076 78.5436 150.466 77.1669C150.034 76.2236 149.042 76.3256 148.356 76.6825C148.178 76.7845 148 76.8864 147.822 77.0394C146.856 77.3198 145.941 78.0337 145.966 79.4359Z" fill="#9E1460"/>
<path d="M114.619 86.8292C115.025 88.5629 116.627 87.9255 117.466 87.1862C118.153 86.5743 119.042 84.9172 118.153 83.9739C117.161 82.9031 115.636 84.0249 114.975 85.1466C114.924 85.2486 114.898 85.3506 114.873 85.4526C114.619 85.8095 114.492 86.2939 114.619 86.8292Z" fill="#9E1460"/>
<path d="M104.932 94.1717C105.237 95.8034 106.992 95.4209 107.754 94.6561C108.161 94.2227 108.492 93.6108 108.67 92.9735C108.898 92.0557 108.441 91.1889 107.805 90.8829C107.017 90.5005 105.898 91.1124 105.517 92.1067C105.059 92.6165 104.78 93.3814 104.932 94.1972V94.1717Z" fill="#9E1460"/>
<path d="M94.356 92.1321C94.4068 92.4635 94.5339 92.6675 94.7119 92.7695C95.4746 93.8402 96.8475 92.9989 97.4577 92.0301C97.8136 91.4947 98.017 90.8319 97.9407 90.118C97.839 89.3532 97.3051 88.8943 96.7458 88.8688C96.1102 88.8433 95.5255 89.3277 95.0424 89.8631C94.5339 90.424 94.2288 91.2653 94.356 92.1321Z" fill="#9E1460"/>
<path d="M86.2203 84.2544C87.0847 84.9937 88.305 84.1779 88.8898 83.2346C89.627 82.0618 89.7287 80.2262 88.483 79.5889C87.9237 79.2829 87.2881 79.7163 86.8559 80.1498C86.4491 80.5577 86.144 81.195 85.8898 81.7559C85.8898 81.7559 85.8898 81.8069 85.8898 81.8324C85.8643 81.8834 85.8389 81.9344 85.8135 81.9854C85.483 82.7502 85.6864 83.77 86.2457 84.2544H86.2203Z" fill="#9E1460"/>
<path d="M95.9068 70.7423C96.8729 71.4816 98.3474 70.5128 98.8305 69.3146C99.0847 68.6772 99.1864 68.0144 98.9576 67.326C98.7796 66.7652 98.2457 66.5357 97.839 66.5102C96.9491 66.4592 96.0084 67.2495 95.5762 68.2183C95.5254 68.3458 95.4745 68.4988 95.4745 68.6262C95.1695 69.3401 95.3474 70.3089 95.9068 70.7423Z" fill="#9E1460"/>
<path d="M85.9407 69.2891C86.5254 70.8952 88.0763 69.799 88.7119 68.8812C89.1186 68.3203 89.4237 67.6829 89.5 66.9181C89.5763 66.0768 88.9407 65.2865 88.3305 65.261C87.5169 65.2355 86.8051 66.1278 86.3983 67.0711C85.9407 67.6829 85.6356 68.4478 85.9407 69.2891Z" fill="#9E1460"/>
<path d="M76.5339 77.0649C77.1441 77.3198 77.8814 76.8864 78.3644 76.4275C78.8475 75.9686 79.2034 75.4587 79.3559 74.6939C79.5339 73.9036 79.4068 73.0113 78.8729 72.5269C78.2882 71.9915 77.4746 72.2974 76.9153 72.7053C76.4576 73.0368 76.1526 73.5722 75.8983 74.133C75.7204 74.388 75.5932 74.6939 75.5424 75.0253C75.3898 75.9431 75.8475 76.8099 76.5085 77.0649H76.5339Z" fill="#9E1460"/>
<path d="M78.8475 64.7001C79.6356 65.5414 80.7543 64.7511 81.2882 63.8333C81.7967 62.941 81.8729 61.1818 80.9068 60.7994C80.0933 60.468 79.4068 61.2073 79.0255 62.1506C78.8984 62.3036 78.7967 62.4821 78.695 62.686C78.4153 63.2724 78.3899 64.2667 78.8475 64.7256V64.7001Z" fill="#9E1460"/>
<path d="M68.4744 66.1278C68.8558 67.5045 69.9236 67.5045 70.8134 67.0456C71.4999 66.6887 71.9829 65.6179 72.2626 64.7766C72.5931 63.7058 72.288 62.5331 71.449 62.1251C70.6863 61.7427 69.8219 62.5076 69.3134 63.1194C69.0592 63.4254 68.8558 63.7568 68.7032 64.1392C68.3982 64.7001 68.2456 65.3629 68.4744 66.1278Z" fill="#9E1460"/>
<path d="M78.517 51.0096C79.4322 52.1568 80.8814 51.0096 81.3136 49.7349C81.7712 48.3837 81.3136 46.3951 79.9661 46.6755C79.178 46.8285 78.6441 47.6698 78.3644 48.6386C78.0339 49.4034 77.9577 50.2702 78.5424 51.0096H78.517Z" fill="#9E1460"/>
<path d="M84.8983 56.7458C84.8729 57.0008 84.8983 57.2302 85 57.4087C85.2034 57.9951 85.6865 58.352 86.2204 58.352C86.7543 58.352 87.339 58.0461 87.7966 57.6636C88.5593 57.0008 89.4746 54.9867 88.5339 53.9924C87.8983 53.3296 87.1865 53.712 86.5509 54.1709C86.0678 54.5278 85.661 54.9867 85.356 55.5476C85.0763 55.9045 84.8983 56.3124 84.8983 56.7713V56.7458Z" fill="#9E1460"/>
<path d="M97.8134 58.6324C98.2964 59.4227 99.2371 59.2188 99.8473 58.8619C100.864 58.25 101.83 56.1595 100.915 54.8847C100.305 53.9924 99.1609 54.5023 98.5507 55.0887C98.1439 55.4711 97.7626 56.0575 97.61 56.6948C97.3812 57.3322 97.432 58.0206 97.8134 58.6324Z" fill="#9E1460"/>
<path d="M106.483 65.5414C107.296 66.3062 108.669 65.159 109.28 64.4961C110.169 63.5528 110.119 61.7427 109.025 61.1564C108.441 60.8249 107.678 61.3348 107.22 61.8192C106.966 62.0742 106.788 62.3801 106.61 62.7115C106.559 62.8135 106.508 62.941 106.457 63.0684C106.356 63.1959 106.254 63.3234 106.178 63.4764C105.796 64.1902 105.974 65.057 106.483 65.5414Z" fill="#9E1460"/>
<path d="M89.805 43.2083C90.9236 44.1261 92.0677 42.265 92.4745 41.0922C92.9321 39.6645 92.144 37.7015 90.8219 38.3388C90.1101 38.6958 89.3219 39.8685 89.2711 40.9903C89.0423 41.7806 89.144 42.6474 89.8304 43.1828L89.805 43.2083Z" fill="#9E1460"/>
<path d="M76.2033 36.2992C76.2033 36.4267 76.2542 36.5542 76.3304 36.6562C76.3813 36.7836 76.4575 36.9111 76.5084 37.0386C77.3219 38.3133 78.7457 37.523 79.1779 36.1973C79.4067 35.5089 79.5592 34.7696 79.483 34.0302C79.3813 33.1889 78.8219 32.679 78.1864 32.7045C77.3728 32.7045 76.9406 33.3929 76.6609 34.2342C76.4575 34.4636 76.305 34.7696 76.2033 35.1265C76.1016 35.5089 76.127 35.9168 76.2033 36.2992Z" fill="#9E1460"/>
<path d="M65.5254 52.2333C66.4915 53.2276 67.7372 51.7999 68.2711 50.8056C68.5762 50.2192 68.8305 49.5564 68.9067 48.8425C68.9576 48.1287 68.6525 47.2109 68.0423 47.0579C66.9237 46.7775 66.2627 47.8992 65.7542 49.021C65.5762 49.2505 65.3983 49.4799 65.2457 49.7603C64.8389 50.5507 64.9406 51.6469 65.5254 52.2333Z" fill="#9E1460"/>
<path d="M86.6016 29.6962C86.6524 29.8747 86.7287 30.0531 86.805 30.2061C87.1609 30.7925 87.7965 30.6905 88.2541 30.4355C88.7626 30.1296 89.1694 29.5687 89.4236 28.9314C89.7287 28.2175 89.8812 27.1468 89.3219 26.5604C88.0253 25.2347 86.5761 27.4272 86.3982 29.0334C86.3728 29.2883 86.449 29.5177 86.5761 29.6962H86.6016Z" fill="#9E1460"/>
<path d="M97.2287 27.2488C97.8643 28.6 99.1609 27.8861 99.8473 27.0448C100.635 26.076 101.017 24.4189 99.9236 23.5521C98.9066 22.7362 97.7372 24.1384 97.2541 25.2092C97.1524 25.4387 97.127 25.6426 97.1524 25.8466C97.0253 26.3055 96.9999 26.8408 97.2033 27.2743L97.2287 27.2488Z" fill="#9E1460"/>
<path d="M75.4914 12.7679C76.127 14.1191 77.4236 13.4052 78.11 12.5639C78.8982 11.5951 79.2795 9.93798 78.1863 9.07117C77.1693 8.25534 75.9999 9.65754 75.5168 10.7283C75.4151 10.9578 75.3897 11.1617 75.4151 11.3657C75.288 11.8246 75.2626 12.36 75.466 12.7934L75.4914 12.7679Z" fill="#9E1460"/>
<path d="M101.017 38.5428C101.856 39.639 103.127 38.7467 103.864 37.9054C104.551 37.1151 105.034 35.5089 104.398 34.5147C103.992 33.8773 103.153 33.9793 102.644 34.2852C102.11 34.6166 101.703 35.1775 101.297 35.7129C101.17 35.8404 101.068 35.9933 100.992 36.1718C100.61 36.8346 100.559 37.9054 101.042 38.5428H101.017Z" fill="#9E1460"/>
<path d="M66.5933 39.1802C67.0763 40.9648 68.6526 40.047 69.3645 39.1037C70.0255 38.2114 70.3052 36.0189 69.1357 35.56C68.0679 35.1265 66.9492 36.4778 66.6696 37.8545C66.517 38.2879 66.4662 38.7723 66.5933 39.2057V39.1802Z" fill="#9E1460"/>
<path d="M91.5338 15.5468C92.4745 17.0255 94.0253 15.8272 94.8134 14.8074C95.6016 13.8132 96.5931 11.4932 95.0423 10.7538C94.0253 10.2694 92.9829 11.1108 92.2711 12.207C91.3304 12.7679 90.8219 14.3995 91.5592 15.5468H91.5338Z" fill="#9E1460"/>
<path d="M153.517 17.8923C153.797 18.0197 154.127 18.0962 154.458 18.1217C154.813 18.2237 155.169 18.2492 155.576 18.1982C156.619 18.0452 157.813 16.7195 157.483 15.2408C156.924 12.7679 153.339 13.1248 152.475 15.0369C151.915 16.2606 152.678 17.4843 153.568 17.8923H153.517Z" fill="#9E1460"/>
<path d="M155.017 36.5797C155.271 36.6817 155.551 36.7327 155.805 36.7327C156.695 36.7327 157.686 36.3248 158.246 35.3815C158.805 34.4382 158.602 33.087 157.814 32.4751C156.415 31.4043 154.28 32.4751 153.695 34.3617C153.314 35.5854 154.102 36.6052 155.042 36.5797H155.017Z" fill="#9E1460"/>
<path d="M99.2882 0.607033C99.5678 1.6778 100.407 2.39164 101.195 2.69758C101.983 3.00351 103.025 2.69758 103.432 1.70329C103.661 1.11692 103.61 0.47956 103.381 -0.0303287C103.229 -0.795162 102.568 -1.35604 102.059 -1.63648C101.373 -2.0189 100.737 -2.14637 100.025 -1.78945C99.3136 -1.43252 99.0594 -0.234285 99.2882 0.632527V0.607033Z" fill="#9E1460"/>
<path d="M87.1102 5.47648C87.3899 6.54725 88.2034 7.26109 89.017 7.56702C89.8051 7.87296 90.8475 7.56702 91.2543 6.57274C91.4831 5.98637 91.4322 5.34901 91.2034 4.83912C91.0509 4.07428 90.3899 3.51341 89.8814 3.23297C89.1949 2.85055 88.5593 2.72308 87.8475 3.08C87.1356 3.43692 86.8814 4.63516 87.1102 5.50197V5.47648Z" fill="#9E1460"/>
<path d="M108.136 7.43954C108.466 8.33184 109.381 8.20437 109.941 7.92393C110.22 7.77097 110.475 7.51602 110.678 7.18459C110.729 7.1336 110.78 7.08262 110.831 7.03163C111.263 6.59822 111.568 5.80789 111.39 5.11954C111.11 4.12526 110.246 3.84482 109.559 4.27823C108.72 4.78812 107.678 6.13932 108.136 7.43954Z" fill="#9E1460"/>
</g>
<defs>
<clipPath id="clip0_395_1104">
<rect width="205" height="157" fill="white" transform="translate(-46)"/>
</clipPath>
</defs>
</svg>
