<svg width="25" height="25" viewBox="0 0 25 25" fill="none" xmlns="http://www.w3.org/2000/svg">
<path d="M21.6797 12.5C21.6797 12.6554 21.6179 12.8044 21.508 12.9143C21.3982 13.0242 21.2491 13.0859 21.0937 13.0859H5.32126L11.3515 19.1172C11.4091 19.1708 11.4553 19.2355 11.4873 19.3074C11.5193 19.3793 11.5365 19.4569 11.5379 19.5355C11.5393 19.6142 11.5249 19.6924 11.4954 19.7653C11.4659 19.8383 11.422 19.9045 11.3664 19.9602C11.3108 20.0158 11.2445 20.0597 11.1715 20.0892C11.0986 20.1186 11.0204 20.1331 10.9418 20.1317C10.8631 20.1303 10.7855 20.1131 10.7136 20.0811C10.6417 20.0491 10.5771 20.0029 10.5234 19.9453L3.49216 12.9141C3.38243 12.8042 3.3208 12.6553 3.3208 12.5C3.3208 12.3447 3.38243 12.1958 3.49216 12.0859L10.5234 5.05469C10.6345 4.95119 10.7814 4.89484 10.9332 4.89752C11.085 4.9002 11.2298 4.96169 11.3372 5.06905C11.4445 5.1764 11.506 5.32123 11.5087 5.47303C11.5114 5.62483 11.455 5.77174 11.3515 5.88281L5.32126 11.9141H21.0937C21.2491 11.9141 21.3982 11.9758 21.508 12.0857C21.6179 12.1956 21.6797 12.3446 21.6797 12.5Z" fill="#464646"/>
</svg>
