<svg width="256" height="256" viewBox="0 0 256 256" fill="none" xmlns="http://www.w3.org/2000/svg">
<path d="M212.24 100.24L132.24 180.24C131.115 181.364 129.59 181.995 128 181.995C126.41 181.995 124.885 181.364 123.76 180.24L43.7602 100.24C42.7004 99.1026 42.1234 97.5982 42.1508 96.0438C42.1783 94.4894 42.808 93.0063 43.9073 91.907C45.0066 90.8077 46.4896 90.178 48.0441 90.1506C49.5985 90.1232 51.1028 90.7002 52.2402 91.76L128 167.51L203.76 91.76C204.898 90.7002 206.402 90.1232 207.956 90.1506C209.511 90.178 210.994 90.8077 212.093 91.907C213.193 93.0063 213.822 94.4894 213.85 96.0438C213.877 97.5982 213.3 99.1026 212.24 100.24Z" fill="black"/>
</svg>
