<svg width="30" height="30" viewBox="0 0 30 30" fill="none" xmlns="http://www.w3.org/2000/svg">
<path d="M25.3125 5.85938H20.3906V4.6875C20.3906 4.00374 20.119 3.34798 19.6355 2.86449C19.152 2.381 18.4963 2.10938 17.8125 2.10938H12.1875C11.5037 2.10938 10.848 2.381 10.3645 2.86449C9.881 3.34798 9.60938 4.00374 9.60938 4.6875V5.85938H4.6875C4.50102 5.85938 4.32218 5.93345 4.19032 6.06532C4.05845 6.19718 3.98438 6.37602 3.98438 6.5625C3.98438 6.74898 4.05845 6.92782 4.19032 7.05968C4.32218 7.19155 4.50102 7.26562 4.6875 7.26562H5.85938V24.375C5.85938 24.8101 6.03223 25.2274 6.3399 25.5351C6.64758 25.8428 7.06488 26.0156 7.5 26.0156H22.5C22.9351 26.0156 23.3524 25.8428 23.6601 25.5351C23.9678 25.2274 24.1406 24.8101 24.1406 24.375V7.26562H25.3125C25.499 7.26562 25.6778 7.19155 25.8097 7.05968C25.9415 6.92782 26.0156 6.74898 26.0156 6.5625C26.0156 6.37602 25.9415 6.19718 25.8097 6.06532C25.6778 5.93345 25.499 5.85938 25.3125 5.85938ZM11.0156 4.6875C11.0156 4.3767 11.1391 4.07863 11.3589 3.85886C11.5786 3.63909 11.8767 3.51562 12.1875 3.51562H17.8125C18.1233 3.51562 18.4214 3.63909 18.6411 3.85886C18.8609 4.07863 18.9844 4.3767 18.9844 4.6875V5.85938H11.0156V4.6875ZM22.7344 24.375C22.7344 24.4372 22.7097 24.4968 22.6657 24.5407C22.6218 24.5847 22.5622 24.6094 22.5 24.6094H7.5C7.43784 24.6094 7.37823 24.5847 7.33427 24.5407C7.29032 24.4968 7.26562 24.4372 7.26562 24.375V7.26562H22.7344V24.375ZM12.8906 12.1875V19.6875C12.8906 19.874 12.8165 20.0528 12.6847 20.1847C12.5528 20.3165 12.374 20.3906 12.1875 20.3906C12.001 20.3906 11.8222 20.3165 11.6903 20.1847C11.5585 20.0528 11.4844 19.874 11.4844 19.6875V12.1875C11.4844 12.001 11.5585 11.8222 11.6903 11.6903C11.8222 11.5585 12.001 11.4844 12.1875 11.4844C12.374 11.4844 12.5528 11.5585 12.6847 11.6903C12.8165 11.8222 12.8906 12.001 12.8906 12.1875ZM18.5156 12.1875V19.6875C18.5156 19.874 18.4415 20.0528 18.3097 20.1847C18.1778 20.3165 17.999 20.3906 17.8125 20.3906C17.626 20.3906 17.4472 20.3165 17.3153 20.1847C17.1835 20.0528 17.1094 19.874 17.1094 19.6875V12.1875C17.1094 12.001 17.1835 11.8222 17.3153 11.6903C17.4472 11.5585 17.626 11.4844 17.8125 11.4844C17.999 11.4844 18.1778 11.5585 18.3097 11.6903C18.4415 11.8222 18.5156 12.001 18.5156 12.1875Z" fill="#464646"/>
</svg>
