<svg width="24" height="17" viewBox="0 0 24 17" fill="none" xmlns="http://www.w3.org/2000/svg">
<path d="M23.6631 6.33692L19.2148 1.15234C19.0863 0.999233 18.9258 0.876161 18.7446 0.791798C18.5634 0.707434 18.3659 0.663832 18.166 0.664063H2.125C1.7624 0.664063 1.41465 0.808106 1.15825 1.0645C0.901855 1.3209 0.757813 1.66865 0.757812 2.03125V12.9688C0.757812 13.3314 0.901855 13.6791 1.15825 13.9355C1.41465 14.1919 1.7624 14.3359 2.125 14.3359H3.94141C4.07589 14.9982 4.43519 15.5936 4.95844 16.0213C5.48169 16.449 6.13671 16.6826 6.8125 16.6826C7.48829 16.6826 8.14331 16.449 8.66656 16.0213C9.18981 15.5936 9.54911 14.9982 9.68359 14.3359H14.8789C15.0134 14.9982 15.3727 15.5936 15.8959 16.0213C16.4192 16.449 17.0742 16.6826 17.75 16.6826C18.4258 16.6826 19.0808 16.449 19.6041 16.0213C20.1273 15.5936 20.4866 14.9982 20.6211 14.3359H22.4375C22.8001 14.3359 23.1479 14.1919 23.4042 13.9355C23.6606 13.6791 23.8047 13.3314 23.8047 12.9688V6.71875C23.8047 6.57864 23.7544 6.44317 23.6631 6.33692ZM18.3213 1.91113L21.9434 6.13281H15.9922V1.83594H18.166C18.1959 1.83575 18.2255 1.84243 18.2524 1.85546C18.2793 1.8685 18.3029 1.88755 18.3213 1.91113ZM8.96094 6.13281V1.83594H14.8203V6.13281H8.96094ZM2.125 1.83594H7.78906V6.13281H1.92969V2.03125C1.92969 1.97945 1.95027 1.92977 1.98689 1.89314C2.02352 1.85652 2.0732 1.83594 2.125 1.83594ZM6.8125 15.5078C6.46484 15.5078 6.12498 15.4047 5.83591 15.2116C5.54684 15.0184 5.32154 14.7439 5.18849 14.4227C5.05545 14.1015 5.02064 13.7481 5.08846 13.4071C5.15629 13.0661 5.3237 12.7529 5.56954 12.507C5.81537 12.2612 6.12859 12.0938 6.46957 12.026C6.81055 11.9581 7.16399 11.9929 7.48519 12.126C7.80638 12.259 8.08092 12.4843 8.27407 12.7734C8.46722 13.0625 8.57031 13.4023 8.57031 13.75C8.57031 14.2162 8.38511 14.6633 8.05546 14.993C7.72581 15.3226 7.2787 15.5078 6.8125 15.5078ZM17.75 15.5078C17.4023 15.5078 17.0625 15.4047 16.7734 15.2116C16.4843 15.0184 16.259 14.7439 16.126 14.4227C15.9929 14.1015 15.9581 13.7481 16.026 13.4071C16.0938 13.0661 16.2612 12.7529 16.507 12.507C16.7529 12.2612 17.0661 12.0938 17.4071 12.026C17.7481 11.9581 18.1015 11.9929 18.4227 12.126C18.7439 12.259 19.0184 12.4843 19.2116 12.7734C19.4047 13.0625 19.5078 13.4023 19.5078 13.75C19.5078 14.2162 19.3226 14.6633 18.993 14.993C18.6633 15.3226 18.2162 15.5078 17.75 15.5078ZM22.4375 13.1641H20.6211C20.4866 12.5018 20.1273 11.9064 19.6041 11.4787C19.0808 11.051 18.4258 10.8174 17.75 10.8174C17.0742 10.8174 16.4192 11.051 15.8959 11.4787C15.3727 11.9064 15.0134 12.5018 14.8789 13.1641H9.68359C9.54911 12.5018 9.18981 11.9064 8.66656 11.4787C8.14331 11.051 7.48829 10.8174 6.8125 10.8174C6.13671 10.8174 5.48169 11.051 4.95844 11.4787C4.43519 11.9064 4.07589 12.5018 3.94141 13.1641H2.125C2.0732 13.1641 2.02352 13.1435 1.98689 13.1069C1.95027 13.0702 1.92969 13.0206 1.92969 12.9688V7.30469H22.6328V12.9688C22.6328 13.0206 22.6122 13.0702 22.5756 13.1069C22.539 13.1435 22.4893 13.1641 22.4375 13.1641Z" fill="#464646"/>
</svg>
