<svg width="256" height="256" viewBox="0 0 256 256" fill="none" xmlns="http://www.w3.org/2000/svg">
<path d="M208 34H182V24C182 22.4087 181.368 20.8826 180.243 19.7574C179.117 18.6321 177.591 18 176 18C174.409 18 172.883 18.6321 171.757 19.7574C170.632 20.8826 170 22.4087 170 24V34H86V24C86 22.4087 85.3679 20.8826 84.2426 19.7574C83.1174 18.6321 81.5913 18 80 18C78.4087 18 76.8826 18.6321 75.7574 19.7574C74.6321 20.8826 74 22.4087 74 24V34H48C44.287 34 40.726 35.475 38.1005 38.1005C35.475 40.726 34 44.287 34 48V208C34 211.713 35.475 215.274 38.1005 217.899C40.726 220.525 44.287 222 48 222H208C211.713 222 215.274 220.525 217.899 217.899C220.525 215.274 222 211.713 222 208V48C222 44.287 220.525 40.726 217.899 38.1005C215.274 35.475 211.713 34 208 34ZM48 46H74V56C74 57.5913 74.6321 59.1174 75.7574 60.2426C76.8826 61.3679 78.4087 62 80 62C81.5913 62 83.1174 61.3679 84.2426 60.2426C85.3679 59.1174 86 57.5913 86 56V46H170V56C170 57.5913 170.632 59.1174 171.757 60.2426C172.883 61.3679 174.409 62 176 62C177.591 62 179.117 61.3679 180.243 60.2426C181.368 59.1174 182 57.5913 182 56V46H208C208.53 46 209.039 46.2107 209.414 46.5858C209.789 46.9609 210 47.4696 210 48V82H46V48C46 47.4696 46.2107 46.9609 46.5858 46.5858C46.9609 46.2107 47.4696 46 48 46ZM208 210H48C47.4696 210 46.9609 209.789 46.5858 209.414C46.2107 209.039 46 208.53 46 208V94H210V208C210 208.53 209.789 209.039 209.414 209.414C209.039 209.789 208.53 210 208 210ZM138 132C138 133.978 137.414 135.911 136.315 137.556C135.216 139.2 133.654 140.482 131.827 141.239C130 141.996 127.989 142.194 126.049 141.808C124.109 141.422 122.327 140.47 120.929 139.071C119.53 137.673 118.578 135.891 118.192 133.951C117.806 132.011 118.004 130 118.761 128.173C119.518 126.346 120.8 124.784 122.444 123.685C124.089 122.586 126.022 122 128 122C130.652 122 133.196 123.054 135.071 124.929C136.946 126.804 138 129.348 138 132ZM182 132C182 133.978 181.414 135.911 180.315 137.556C179.216 139.2 177.654 140.482 175.827 141.239C174 141.996 171.989 142.194 170.049 141.808C168.109 141.422 166.327 140.47 164.929 139.071C163.53 137.673 162.578 135.891 162.192 133.951C161.806 132.011 162.004 130 162.761 128.173C163.518 126.346 164.8 124.784 166.444 123.685C168.089 122.586 170.022 122 172 122C174.652 122 177.196 123.054 179.071 124.929C180.946 126.804 182 129.348 182 132ZM94 172C94 173.978 93.4135 175.911 92.3147 177.556C91.2159 179.2 89.6541 180.482 87.8268 181.239C85.9996 181.996 83.9889 182.194 82.0491 181.808C80.1093 181.422 78.3275 180.47 76.9289 179.071C75.5304 177.673 74.578 175.891 74.1921 173.951C73.8063 172.011 74.0043 170 74.7612 168.173C75.5181 166.346 76.7998 164.784 78.4443 163.685C80.0888 162.586 82.0222 162 84 162C86.6522 162 89.1957 163.054 91.0711 164.929C92.9464 166.804 94 169.348 94 172ZM138 172C138 173.978 137.414 175.911 136.315 177.556C135.216 179.2 133.654 180.482 131.827 181.239C130 181.996 127.989 182.194 126.049 181.808C124.109 181.422 122.327 180.47 120.929 179.071C119.53 177.673 118.578 175.891 118.192 173.951C117.806 172.011 118.004 170 118.761 168.173C119.518 166.346 120.8 164.784 122.444 163.685C124.089 162.586 126.022 162 128 162C130.652 162 133.196 163.054 135.071 164.929C136.946 166.804 138 169.348 138 172ZM182 172C182 173.978 181.414 175.911 180.315 177.556C179.216 179.2 177.654 180.482 175.827 181.239C174 181.996 171.989 182.194 170.049 181.808C168.109 181.422 166.327 180.47 164.929 179.071C163.53 177.673 162.578 175.891 162.192 173.951C161.806 172.011 162.004 170 162.761 168.173C163.518 166.346 164.8 164.784 166.444 163.685C168.089 162.586 170.022 162 172 162C174.652 162 177.196 163.054 179.071 164.929C180.946 166.804 182 169.348 182 172Z" fill="black"/>
</svg>
