<svg width="30" height="30" viewBox="0 0 30 30" fill="none" xmlns="http://www.w3.org/2000/svg">
<path d="M26.25 5.85938H3.75C3.31488 5.85938 2.89758 6.03223 2.5899 6.3399C2.28223 6.64758 2.10938 7.06488 2.10938 7.5V22.5C2.10938 22.9351 2.28223 23.3524 2.5899 23.6601C2.89758 23.9678 3.31488 24.1406 3.75 24.1406H26.25C26.6851 24.1406 27.1024 23.9678 27.4101 23.6601C27.7178 23.3524 27.8906 22.9351 27.8906 22.5V7.5C27.8906 7.06488 27.7178 6.64758 27.4101 6.3399C27.1024 6.03223 26.6851 5.85938 26.25 5.85938ZM3.75 7.26562H26.25C26.3122 7.26562 26.3718 7.29032 26.4157 7.33427C26.4597 7.37823 26.4844 7.43784 26.4844 7.5V10.5469H3.51562V7.5C3.51562 7.43784 3.54032 7.37823 3.58427 7.33427C3.62823 7.29032 3.68784 7.26562 3.75 7.26562ZM26.25 22.7344H3.75C3.68784 22.7344 3.62823 22.7097 3.58427 22.6657C3.54032 22.6218 3.51562 22.5622 3.51562 22.5V11.9531H26.4844V22.5C26.4844 22.5622 26.4597 22.6218 26.4157 22.6657C26.3718 22.7097 26.3122 22.7344 26.25 22.7344ZM24.1406 19.6875C24.1406 19.874 24.0665 20.0528 23.9347 20.1847C23.8028 20.3165 23.624 20.3906 23.4375 20.3906H19.6875C19.501 20.3906 19.3222 20.3165 19.1903 20.1847C19.0585 20.0528 18.9844 19.874 18.9844 19.6875C18.9844 19.501 19.0585 19.3222 19.1903 19.1903C19.3222 19.0585 19.501 18.9844 19.6875 18.9844H23.4375C23.624 18.9844 23.8028 19.0585 23.9347 19.1903C24.0665 19.3222 24.1406 19.501 24.1406 19.6875ZM16.6406 19.6875C16.6406 19.874 16.5665 20.0528 16.4347 20.1847C16.3028 20.3165 16.124 20.3906 15.9375 20.3906H14.0625C13.876 20.3906 13.6972 20.3165 13.5653 20.1847C13.4335 20.0528 13.3594 19.874 13.3594 19.6875C13.3594 19.501 13.4335 19.3222 13.5653 19.1903C13.6972 19.0585 13.876 18.9844 14.0625 18.9844H15.9375C16.124 18.9844 16.3028 19.0585 16.4347 19.1903C16.5665 19.3222 16.6406 19.501 16.6406 19.6875Z" fill="#464646"/>
</svg>
