<svg width="30" height="30" viewBox="0 0 30 30" fill="none" xmlns="http://www.w3.org/2000/svg">
<path d="M11.0156 25.3125C11.0156 25.637 10.9194 25.9542 10.7391 26.224C10.5589 26.4938 10.3026 26.7041 10.0028 26.8282C9.70305 26.9524 9.37318 26.9849 9.05493 26.9216C8.73668 26.8583 8.44435 26.702 8.2149 26.4726C7.98546 26.2432 7.8292 25.9508 7.7659 25.6326C7.7026 25.3143 7.73509 24.9844 7.85926 24.6847C7.98344 24.3849 8.19372 24.1286 8.46352 23.9484C8.73332 23.7681 9.05052 23.6719 9.375 23.6719C9.81012 23.6719 10.2274 23.8447 10.5351 24.1524C10.8428 24.4601 11.0156 24.8774 11.0156 25.3125ZM21.5625 23.6719C21.238 23.6719 20.9208 23.7681 20.651 23.9484C20.3812 24.1286 20.1709 24.3849 20.0468 24.6847C19.9226 24.9844 19.8901 25.3143 19.9534 25.6326C20.0167 25.9508 20.173 26.2432 20.4024 26.4726C20.6318 26.702 20.9242 26.8583 21.2424 26.9216C21.5607 26.9849 21.8906 26.9524 22.1903 26.8282C22.4901 26.7041 22.7464 26.4938 22.9266 26.224C23.1069 25.9542 23.2031 25.637 23.2031 25.3125C23.2031 24.8774 23.0303 24.4601 22.7226 24.1524C22.4149 23.8447 21.9976 23.6719 21.5625 23.6719ZM26.9215 8.64375L23.5793 19.5082C23.4191 20.0357 23.0933 20.4976 22.65 20.8254C22.2067 21.1532 21.6697 21.3295 21.1184 21.3281H9.85195C9.29139 21.3261 8.74662 21.1422 8.29949 20.8041C7.85235 20.466 7.52699 19.9919 7.37227 19.4531L3.13477 4.62305C3.12072 4.57395 3.09103 4.53079 3.05021 4.50012C3.00938 4.46944 2.95966 4.45294 2.90859 4.45312H0.9375C0.75102 4.45312 0.572177 4.37905 0.440316 4.24718C0.308454 4.11532 0.234375 3.93648 0.234375 3.75C0.234375 3.56352 0.308454 3.38468 0.440316 3.25282C0.572177 3.12095 0.75102 3.04688 0.9375 3.04688H2.90859C3.26479 3.04784 3.61108 3.16428 3.89548 3.37875C4.17988 3.59321 4.38706 3.89412 4.48594 4.23633L5.48555 7.73438H26.25C26.3599 7.73449 26.4683 7.76037 26.5664 7.80994C26.6645 7.85952 26.7496 7.93141 26.8149 8.01984C26.8802 8.10826 26.9239 8.21077 26.9424 8.31912C26.9609 8.42748 26.9537 8.53866 26.9215 8.64375ZM25.2984 9.14062H5.8875L8.72461 19.0723C8.79466 19.3172 8.94258 19.5326 9.146 19.6859C9.34941 19.8392 9.59724 19.922 9.85195 19.9219H21.1148C21.3655 19.9219 21.6096 19.8416 21.8112 19.6927C22.0129 19.5438 22.1615 19.3341 22.2352 19.0945L25.2984 9.14062Z" fill="#464646"/>
</svg>
