<svg width="25" height="18" viewBox="0 0 25 18" fill="none" xmlns="http://www.w3.org/2000/svg">
<path d="M24.7943 1.26269L8.44278 17.2804C8.29907 17.421 8.10426 17.5 7.90114 17.5C7.69802 17.5 7.50321 17.421 7.3595 17.2804L0.205714 10.2727C0.0703233 10.1303 -0.00338412 9.94207 0.000119414 9.74756C0.00362294 9.55304 0.0840639 9.36745 0.224496 9.22989C0.364928 9.09232 0.554386 9.01352 0.752955 9.01009C0.951525 9.00666 1.1437 9.07886 1.289 9.21149L7.90114 15.6874L23.711 0.201516C23.8563 0.0688888 24.0485 -0.00331504 24.247 0.000116975C24.4456 0.00354899 24.6351 0.0823489 24.7755 0.219914C24.9159 0.357479 24.9964 0.54307 24.9999 0.737586C25.0034 0.932103 24.9297 1.12036 24.7943 1.26269Z" fill="#0F5729"/>
</svg>
