<svg width="21" height="21" viewBox="0 0 21 21" fill="none" xmlns="http://www.w3.org/2000/svg">
<path d="M10.5 0.539062C8.52992 0.539062 6.60407 1.12326 4.966 2.21778C3.32794 3.3123 2.05122 4.86799 1.2973 6.68811C0.543378 8.50824 0.346119 10.5111 0.730464 12.4433C1.11481 14.3755 2.0635 16.1504 3.45656 17.5434C4.84962 18.9365 6.62449 19.8852 8.55672 20.2695C10.489 20.6539 12.4918 20.4566 14.3119 19.7027C16.132 18.9488 17.6877 17.6721 18.7822 16.034C19.8767 14.3959 20.4609 12.4701 20.4609 10.5C20.4578 7.85915 19.4074 5.32735 17.54 3.45998C15.6727 1.59261 13.1409 0.542164 10.5 0.539062ZM10.5 19.2891C8.76169 19.2891 7.06242 18.7736 5.61706 17.8078C4.17171 16.8421 3.04519 15.4694 2.37997 13.8634C1.71475 12.2574 1.54069 10.4903 1.87982 8.78534C2.21895 7.08043 3.05603 5.51437 4.2852 4.28519C5.51437 3.05602 7.08043 2.21894 8.78534 1.87982C10.4903 1.54069 12.2574 1.71474 13.8634 2.37996C15.4694 3.04519 16.8421 4.1717 17.8078 5.61706C18.7736 7.06241 19.2891 8.76169 19.2891 10.5C19.2865 12.8302 18.3597 15.0642 16.712 16.712C15.0642 18.3597 12.8302 19.2865 10.5 19.2891ZM16.5547 10.5C16.5547 10.6554 16.493 10.8044 16.3831 10.9143C16.2732 11.0242 16.1242 11.0859 15.9688 11.0859H10.5C10.3446 11.0859 10.1956 11.0242 10.0857 10.9143C9.9758 10.8044 9.91407 10.6554 9.91407 10.5V5.03125C9.91407 4.87585 9.9758 4.72681 10.0857 4.61693C10.1956 4.50705 10.3446 4.44531 10.5 4.44531C10.6554 4.44531 10.8044 4.50705 10.9143 4.61693C11.0242 4.72681 11.0859 4.87585 11.0859 5.03125V9.91406H15.9688C16.1242 9.91406 16.2732 9.9758 16.3831 10.0857C16.493 10.1956 16.5547 10.3446 16.5547 10.5Z" fill="#464646"/>
</svg>
