<svg width="28" height="28" viewBox="0 0 28 28" fill="none" xmlns="http://www.w3.org/2000/svg">
<path d="M14 10.7188C13.351 10.7188 12.7166 10.9112 12.177 11.2717C11.6374 11.6323 11.2169 12.1448 10.9685 12.7443C10.7202 13.3439 10.6552 14.0036 10.7818 14.6401C10.9084 15.2766 11.2209 15.8613 11.6798 16.3202C12.1387 16.7791 12.7234 17.0916 13.3599 17.2182C13.9964 17.3448 14.6561 17.2798 15.2557 17.0315C15.8553 16.7831 16.3677 16.3626 16.7283 15.823C17.0888 15.2834 17.2813 14.649 17.2813 14C17.2813 13.1298 16.9356 12.2952 16.3202 11.6798C15.7048 11.0645 14.8702 10.7188 14 10.7188ZM14 15.9688C13.6106 15.9688 13.23 15.8533 12.9062 15.637C12.5825 15.4206 12.3301 15.1132 12.1811 14.7534C12.0321 14.3937 11.9931 13.9978 12.0691 13.6159C12.145 13.234 12.3326 12.8832 12.6079 12.6079C12.8832 12.3326 13.234 12.145 13.6159 12.0691C13.9978 11.9931 14.3937 12.0321 14.7534 12.1811C15.1132 12.3301 15.4206 12.5825 15.637 12.9062C15.8533 13.23 15.9688 13.6106 15.9688 14C15.9688 14.5221 15.7613 15.0229 15.3921 15.3921C15.0229 15.7613 14.5221 15.9688 14 15.9688ZM14 8.53125C14.649 8.53125 15.2834 8.33881 15.823 7.97826C16.3626 7.61771 16.7831 7.10525 17.0315 6.50568C17.2798 5.90611 17.3448 5.24636 17.2182 4.60986C17.0916 3.97336 16.7791 3.3887 16.3202 2.92981C15.8613 2.47092 15.2766 2.15841 14.6401 2.0318C14.0036 1.90519 13.3439 1.97017 12.7443 2.21852C12.1448 2.46687 11.6323 2.88744 11.2717 3.42704C10.9112 3.96664 10.7188 4.60103 10.7188 5.25C10.7188 6.12024 11.0645 6.95484 11.6798 7.5702C12.2952 8.18555 13.1298 8.53125 14 8.53125ZM14 3.28125C14.3894 3.28125 14.77 3.39672 15.0938 3.61305C15.4175 3.82937 15.6699 4.13685 15.8189 4.49659C15.9679 4.85634 16.0069 5.25219 15.9309 5.63409C15.855 6.01599 15.6675 6.36678 15.3921 6.64212C15.1168 6.91745 14.766 7.10496 14.3841 7.18092C14.0022 7.25689 13.6063 7.2179 13.2466 7.06889C12.8869 6.91988 12.5794 6.66754 12.363 6.34378C12.1467 6.02002 12.0313 5.63938 12.0313 5.25C12.0313 4.72786 12.2387 4.2271 12.6079 3.85789C12.9771 3.48867 13.4779 3.28125 14 3.28125ZM14 19.4688C13.351 19.4688 12.7166 19.6612 12.177 20.0217C11.6374 20.3823 11.2169 20.8948 10.9685 21.4943C10.7202 22.0939 10.6552 22.7536 10.7818 23.3901C10.9084 24.0266 11.2209 24.6113 11.6798 25.0702C12.1387 25.5291 12.7234 25.8416 13.3599 25.9682C13.9964 26.0948 14.6561 26.0298 15.2557 25.7815C15.8553 25.5331 16.3677 25.1126 16.7283 24.573C17.0888 24.0334 17.2813 23.399 17.2813 22.75C17.2813 21.8798 16.9356 21.0452 16.3202 20.4298C15.7048 19.8145 14.8702 19.4688 14 19.4688ZM14 24.7188C13.6106 24.7188 13.23 24.6033 12.9062 24.387C12.5825 24.1706 12.3301 23.8632 12.1811 23.5034C12.0321 23.1437 11.9931 22.7478 12.0691 22.3659C12.145 21.984 12.3326 21.6332 12.6079 21.3579C12.8832 21.0826 13.234 20.895 13.6159 20.8191C13.9978 20.7431 14.3937 20.7821 14.7534 20.9311C15.1132 21.0801 15.4206 21.3325 15.637 21.6562C15.8533 21.98 15.9688 22.3606 15.9688 22.75C15.9688 23.2721 15.7613 23.7729 15.3921 24.1421C15.0229 24.5113 14.5221 24.7188 14 24.7188Z" fill="#464646"/>
</svg>
