<svg width="25" height="25" viewBox="0 0 25 25" fill="none" xmlns="http://www.w3.org/2000/svg">
<path d="M7.22656 8.59375V3.90625C7.22656 3.75085 7.2883 3.60181 7.39818 3.49193C7.50806 3.38204 7.6571 3.32031 7.8125 3.32031C7.9679 3.32031 8.11694 3.38204 8.22682 3.49193C8.3367 3.60181 8.39844 3.75085 8.39844 3.90625V8.59375C8.39844 8.74915 8.3367 8.89818 8.22682 9.00807C8.11694 9.11795 7.9679 9.17969 7.8125 9.17969C7.6571 9.17969 7.50806 9.11795 7.39818 9.00807C7.2883 8.89818 7.22656 8.74915 7.22656 8.59375ZM20.8984 3.90625V21.875C20.8984 22.0304 20.8367 22.1794 20.7268 22.2893C20.6169 22.3992 20.4679 22.4609 20.3125 22.4609C20.1571 22.4609 20.0081 22.3992 19.8982 22.2893C19.7883 22.1794 19.7266 22.0304 19.7266 21.875V16.9922H14.8438C14.6883 16.9922 14.5393 16.9305 14.4294 16.8206C14.3195 16.7107 14.2578 16.5616 14.2578 16.4062C14.2578 15.9756 14.3242 5.83496 20.082 3.36816C20.1711 3.33006 20.2682 3.31463 20.3647 3.32326C20.4612 3.3319 20.5541 3.36432 20.6349 3.41764C20.7158 3.47095 20.7822 3.54349 20.8282 3.62876C20.8742 3.71403 20.8983 3.80937 20.8984 3.90625ZM19.7266 4.88281C16.1338 7.25488 15.5449 13.8164 15.4482 15.8203H19.7266V4.88281ZM11.5156 3.80859C11.5028 3.73267 11.4751 3.66002 11.4342 3.59479C11.3933 3.52955 11.34 3.47301 11.2772 3.4284C11.2145 3.38378 11.1436 3.35196 11.0685 3.33476C10.9935 3.31755 10.9158 3.3153 10.8398 3.32812C10.7639 3.34095 10.6913 3.3686 10.626 3.4095C10.5608 3.4504 10.5043 3.50375 10.4597 3.56651C10.415 3.62926 10.3832 3.70018 10.366 3.77523C10.3488 3.85028 10.3466 3.92798 10.3594 4.0039L11.1328 8.64062C11.1328 9.52122 10.783 10.3658 10.1603 10.9884C9.53764 11.6111 8.6931 11.9609 7.8125 11.9609C6.9319 11.9609 6.08736 11.6111 5.46468 10.9884C4.84201 10.3658 4.49219 9.52122 4.49219 8.64062L5.26562 4.0039C5.29152 3.85058 5.25545 3.69324 5.16535 3.56651C5.07524 3.43977 4.93848 3.35402 4.78516 3.32812C4.63183 3.30222 4.47449 3.33829 4.34776 3.4284C4.22102 3.5185 4.13528 3.65526 4.10938 3.80859L3.32813 8.49609C3.32305 8.5284 3.32044 8.56105 3.32031 8.59375C3.32172 9.6832 3.71848 10.7351 4.43691 11.5541C5.15533 12.3731 6.14658 12.9035 7.22656 13.0469V21.875C7.22656 22.0304 7.2883 22.1794 7.39818 22.2893C7.50806 22.3992 7.6571 22.4609 7.8125 22.4609C7.9679 22.4609 8.11694 22.3992 8.22682 22.2893C8.3367 22.1794 8.39844 22.0304 8.39844 21.875V13.0469C9.47842 12.9035 10.4697 12.3731 11.1881 11.5541C11.9065 10.7351 12.3033 9.6832 12.3047 8.59375C12.3046 8.56105 12.3019 8.5284 12.2969 8.49609L11.5156 3.80859Z" fill="#464646"/>
</svg>
