<svg width="19" height="20" viewBox="0 0 19 20" fill="none" xmlns="http://www.w3.org/2000/svg">
<path d="M18.2373 8.27733L10.4248 0.904283L10.416 0.89647C10.165 0.666578 9.83698 0.539062 9.4966 0.539062C9.15621 0.539063 8.82818 0.666578 8.57716 0.89647L8.56837 0.904283L0.755873 8.27733C0.617689 8.40598 0.50765 8.56186 0.432689 8.73515C0.357728 8.90843 0.31947 9.09536 0.320327 9.28417V18.3125C0.320327 18.6751 0.464369 19.0228 0.720767 19.2792C0.977164 19.5356 1.32491 19.6797 1.68751 19.6797H6.37501C6.73762 19.6797 7.08536 19.5356 7.34176 19.2792C7.59816 19.0228 7.7422 18.6751 7.7422 18.3125V13.625C7.7422 13.5732 7.76278 13.5235 7.79941 13.4869C7.83604 13.4503 7.88571 13.4297 7.93751 13.4297H11.0625C11.1143 13.4297 11.164 13.4503 11.2006 13.4869C11.2372 13.5235 11.2578 13.5732 11.2578 13.625V18.3125C11.2578 18.6751 11.4019 19.0228 11.6583 19.2792C11.9147 19.5356 12.2624 19.6797 12.625 19.6797H17.3125C17.6751 19.6797 18.0229 19.5356 18.2793 19.2792C18.5357 19.0228 18.6797 18.6751 18.6797 18.3125V9.28417C18.6797 9.09486 18.6404 8.90762 18.5642 8.73431C18.4881 8.56099 18.3767 8.40538 18.2373 8.27733ZM17.5078 18.3125C17.5078 18.3643 17.4872 18.414 17.4506 18.4506C17.414 18.4872 17.3643 18.5078 17.3125 18.5078H12.625C12.5732 18.5078 12.5235 18.4872 12.4869 18.4506C12.4503 18.414 12.4297 18.3643 12.4297 18.3125V13.625C12.4297 13.2624 12.2857 12.9146 12.0293 12.6582C11.7729 12.4018 11.4251 12.2578 11.0625 12.2578H7.93751C7.57491 12.2578 7.22716 12.4018 6.97077 12.6582C6.71437 12.9146 6.57033 13.2624 6.57033 13.625V18.3125C6.57033 18.3643 6.54975 18.414 6.51312 18.4506C6.47649 18.4872 6.42681 18.5078 6.37501 18.5078H1.68751C1.63571 18.5078 1.58604 18.4872 1.54941 18.4506C1.51278 18.414 1.4922 18.3643 1.4922 18.3125V9.28417C1.49214 9.25698 1.49776 9.23009 1.50869 9.2052C1.51962 9.18031 1.53562 9.15798 1.55568 9.13963L1.56447 9.13182L9.37111 1.76073C9.40669 1.72968 9.45231 1.71257 9.49953 1.71257C9.54675 1.71257 9.59237 1.72968 9.62794 1.76073L17.4356 9.1328L17.4434 9.14061C17.4636 9.15887 17.4798 9.18116 17.4909 9.20606C17.502 9.23095 17.5078 9.25789 17.5078 9.28514V18.3125Z" fill="#464646"/>
</svg>
