<svg width="21" height="21" viewBox="0 0 21 21" fill="none" xmlns="http://www.w3.org/2000/svg">
<path d="M11.8672 15.1875C11.8672 15.3429 11.8055 15.4919 11.6956 15.6018C11.5857 15.7117 11.4367 15.7734 11.2813 15.7734C10.9187 15.7734 10.5709 15.6294 10.3145 15.373C10.0581 15.1166 9.91407 14.7689 9.91407 14.4062V10.5C9.91407 10.4482 9.89349 10.3985 9.85686 10.3619C9.82023 10.3253 9.77055 10.3047 9.71875 10.3047C9.56335 10.3047 9.41432 10.243 9.30443 10.1331C9.19455 10.0232 9.13282 9.87415 9.13282 9.71875C9.13282 9.56335 9.19455 9.41431 9.30443 9.30443C9.41432 9.19455 9.56335 9.13281 9.71875 9.13281C10.0814 9.13281 10.4291 9.27685 10.6855 9.53325C10.9419 9.78965 11.0859 10.1374 11.0859 10.5V14.4062C11.0859 14.458 11.1065 14.5077 11.1431 14.5444C11.1798 14.581 11.2295 14.6016 11.2813 14.6016C11.4367 14.6016 11.5857 14.6633 11.6956 14.7732C11.8055 14.8831 11.8672 15.0321 11.8672 15.1875ZM10.1094 7.17969C10.3025 7.17969 10.4913 7.12241 10.6519 7.01511C10.8125 6.9078 10.9377 6.75528 11.0116 6.57684C11.0855 6.3984 11.1049 6.20204 11.0672 6.01261C11.0295 5.82317 10.9365 5.64917 10.7999 5.51259C10.6633 5.37602 10.4893 5.28301 10.2999 5.24533C10.1105 5.20765 9.91411 5.22699 9.73567 5.3009C9.55722 5.37481 9.4047 5.49998 9.2974 5.66058C9.19009 5.82117 9.13282 6.00998 9.13282 6.20312C9.13282 6.46213 9.2357 6.71052 9.41885 6.89366C9.60199 7.0768 9.85038 7.17969 10.1094 7.17969ZM20.4609 10.5C20.4609 12.4701 19.8767 14.3959 18.7822 16.034C17.6877 17.6721 16.132 18.9488 14.3119 19.7027C12.4918 20.4566 10.489 20.6539 8.55672 20.2695C6.62449 19.8852 4.84962 18.9365 3.45656 17.5434C2.0635 16.1504 1.11481 14.3755 0.730464 12.4433C0.346119 10.5111 0.543378 8.50824 1.2973 6.68811C2.05122 4.86799 3.32794 3.3123 4.966 2.21778C6.60407 1.12326 8.52992 0.539063 10.5 0.539062C13.1409 0.542164 15.6727 1.59261 17.54 3.45998C19.4074 5.32735 20.4578 7.85915 20.4609 10.5ZM19.2891 10.5C19.2891 8.76169 18.7736 7.06241 17.8078 5.61706C16.8421 4.1717 15.4694 3.04519 13.8634 2.37996C12.2574 1.71474 10.4903 1.54069 8.78534 1.87982C7.08043 2.21894 5.51437 3.05602 4.2852 4.28519C3.05603 5.51437 2.21895 7.08043 1.87982 8.78534C1.54069 10.4903 1.71475 12.2574 2.37997 13.8634C3.04519 15.4694 4.17171 16.8421 5.61706 17.8078C7.06242 18.7736 8.76169 19.2891 10.5 19.2891C12.8302 19.2865 15.0642 18.3597 16.712 16.712C18.3597 15.0642 19.2865 12.8302 19.2891 10.5Z" fill="#464646"/>
</svg>
