<svg width="26" height="21" viewBox="0 0 26 21" fill="none" xmlns="http://www.w3.org/2000/svg">
<g clip-path="url(#clip0_177_1161)">
<path fill-rule="evenodd" clip-rule="evenodd" d="M0.886216 -0.0986328C2.92156 -0.0986328 4.95693 -0.0986328 6.99228 -0.0986328C7.20926 0.214923 7.07796 0.379066 6.59834 0.393791C6.66399 0.459447 6.72966 0.525105 6.79531 0.590761C6.22685 1.06943 5.70159 1.59468 5.21955 2.16652C5.2852 2.23217 5.35087 2.29784 5.41652 2.36349C5.08823 2.56046 4.75996 2.75743 4.43167 2.9544C4.49732 3.02005 4.56299 3.08572 4.62864 3.15137C4.32283 3.3674 4.06019 3.63002 3.84076 3.93925C3.90641 4.0049 3.97208 4.07057 4.03773 4.13622C3.72514 4.30608 3.39687 4.4374 3.05288 4.53016C3.84076 4.66147 3.84076 4.79277 3.05288 4.92409C2.79026 5.12106 2.79026 5.31803 3.05288 5.515C2.90458 5.8079 2.74045 5.84073 2.56046 5.61349C2.41559 6.16894 2.0873 6.56288 1.57561 6.79531C1.69715 7.10943 1.6315 7.37205 1.37864 7.58319C1.31298 7.51754 1.24733 7.45187 1.18167 7.38622C0.962433 7.63448 0.929604 7.86426 1.08319 8.07561C0.570682 8.25978 0.275228 8.62088 0.196822 9.15894C0.141981 8.97856 0.0434964 8.84724 -0.0986328 8.765C-0.0986328 6.13875 -0.0986328 3.51247 -0.0986328 0.886216C0.163993 0.492276 0.492276 0.163993 0.886216 -0.0986328Z" fill="#E2BE7E"/>
<path fill-rule="evenodd" clip-rule="evenodd" d="M6.99228 -0.0986328C8.30541 -0.0986328 9.61853 -0.0986328 10.9317 -0.0986328C10.674 0.0456091 10.4114 0.209751 10.1438 0.393791C10.3103 0.7007 10.179 0.89767 9.74985 0.984701C9.8155 1.05036 9.88117 1.11601 9.94682 1.18167C9.76009 1.27676 9.56312 1.30959 9.35591 1.28016C9.18811 1.81657 8.95831 2.34182 8.66652 2.85591C8.60087 2.72459 8.5352 2.59329 8.46955 2.46197C7.74484 4.01969 6.75999 5.33283 5.515 6.40137C5.26379 6.83811 5.06682 7.2977 4.92409 7.78016C4.85844 7.64884 4.79277 7.51754 4.72712 7.38622C4.54737 8.12072 4.1206 8.67879 3.44682 9.06046C3.53721 9.44311 3.34024 9.70573 2.85591 9.84834C2.48474 10.5684 1.95949 11.2906 1.28016 12.015C1.34581 12.0807 1.41147 12.1463 1.47712 12.212C1.28016 12.2776 1.08319 12.3433 0.886216 12.4089C0.951872 12.4746 1.01753 12.5403 1.08319 12.6059C0.511504 13.0064 0.117564 13.4332 -0.0986328 13.8862C-0.0986328 12.1791 -0.0986328 10.4721 -0.0986328 8.765C0.0434964 8.84724 0.141981 8.97856 0.196822 9.15894C0.275227 8.62088 0.570682 8.25978 1.08319 8.07561C0.929604 7.86426 0.962433 7.63448 1.18167 7.38622C1.24733 7.45187 1.31298 7.51754 1.37864 7.58319C1.6315 7.37205 1.69715 7.10943 1.57561 6.79531C2.0873 6.56288 2.41559 6.16894 2.56046 5.61349C2.74045 5.84073 2.90458 5.8079 3.05288 5.515C2.79026 5.31803 2.79026 5.12106 3.05288 4.9241C3.84076 4.79278 3.84076 4.66148 3.05288 4.53016C3.39687 4.4374 3.72514 4.30608 4.03773 4.13622C3.97208 4.07057 3.90641 4.0049 3.84076 3.93925C4.06019 3.63002 4.32282 3.3674 4.62864 3.15137C4.56299 3.08572 4.49732 3.02005 4.43167 2.9544C4.75996 2.75743 5.08823 2.56046 5.41652 2.36349C5.35087 2.29784 5.2852 2.23217 5.21955 2.16652C5.70159 1.59468 6.22685 1.06943 6.79531 0.590761C6.72966 0.525105 6.66399 0.459447 6.59834 0.393791C7.07796 0.379066 7.20926 0.214923 6.99228 -0.0986328Z" fill="#DEB978"/>
<path fill-rule="evenodd" clip-rule="evenodd" d="M10.9317 -0.0986328C12.3105 -0.0986328 13.6892 -0.0986328 15.068 -0.0986328C14.8392 0.133386 14.6422 0.363184 14.4771 0.590761C14.5428 0.656417 14.6084 0.722075 14.6741 0.787731C14.2802 1.05036 13.8862 1.31298 13.4923 1.57561C13.5579 1.64127 13.6236 1.70692 13.6892 1.77258C13.1038 1.9974 12.7755 2.42418 12.7044 3.05288C12.4418 3.3155 12.1791 3.57814 11.9165 3.84076C12.6014 3.97218 13.258 4.1035 13.8862 4.2347C9.57551 4.14677 7.27753 6.24779 6.99228 10.5377C6.41945 10.6676 6.35378 10.8317 6.79531 11.0302C6.1757 11.0517 5.97873 11.3143 6.2044 11.818C6.0561 12.1109 5.89196 12.1438 5.71197 11.9165C5.5671 12.472 5.23881 12.8659 4.72712 13.0983C4.32976 13.7986 3.93582 14.3896 3.54531 14.8711C3.47461 15.4707 3.34331 15.5364 3.15137 15.068C2.7865 15.4087 2.81934 15.6385 3.24985 15.7574C2.79026 16.0857 2.33065 16.414 1.87106 16.7423C1.93672 16.8079 2.00238 16.8736 2.06803 16.9392C1.67266 17.2766 1.27872 17.6049 0.886216 17.9241C1.35453 18.116 1.28887 18.2473 0.689246 18.318C0.951834 18.6805 0.919005 18.779 0.590761 18.6135C0.451248 18.7869 0.287107 18.9182 0.0983369 19.0074C0.0326804 19.0074 -0.0329763 19.0074 -0.0986328 19.0074C-0.0986328 17.3004 -0.0986328 15.5933 -0.0986328 13.8862C0.117564 13.4332 0.511504 13.0064 1.08319 12.6059C1.01753 12.5403 0.951872 12.4746 0.886216 12.4089C1.08319 12.3433 1.28016 12.2776 1.47712 12.212C1.41147 12.1463 1.34581 12.0807 1.28016 12.015C1.95949 11.2906 2.48474 10.5684 2.85591 9.84834C3.34024 9.70573 3.53721 9.44311 3.44682 9.06046C4.1206 8.67879 4.54737 8.12072 4.72712 7.38622C4.79277 7.51754 4.85844 7.64884 4.92409 7.78016C5.06682 7.2977 5.26379 6.83811 5.515 6.40137C6.75999 5.33283 7.74484 4.01969 8.46955 2.46197C8.5352 2.59329 8.60087 2.72459 8.66652 2.85591C8.95831 2.34182 9.18811 1.81657 9.35591 1.28016C9.56312 1.30959 9.76009 1.27676 9.94682 1.18167C9.88117 1.11601 9.8155 1.05036 9.74985 0.984701C10.179 0.89767 10.3103 0.7007 10.1438 0.393791C10.4114 0.209751 10.674 0.0456091 10.9317 -0.0986328Z" fill="#DAB574"/>
<path fill-rule="evenodd" clip-rule="evenodd" d="M15.068 -0.0986328C16.4468 -0.0986328 17.8256 -0.0986328 19.2044 -0.0986328C18.5373 0.688324 17.8151 1.57469 17.0377 2.56046C17.1034 2.62611 17.169 2.69178 17.2347 2.75743C17.0377 2.82308 16.8407 2.88875 16.6438 2.9544C16.7094 3.02005 16.7751 3.08572 16.8407 3.15137C16.5125 3.41399 16.1842 3.67663 15.8559 3.93925C15.946 4.02079 16.0116 4.11928 16.0529 4.2347C15.9066 4.36899 15.7753 4.50031 15.6589 4.62864C15.0935 4.40535 14.5026 4.27404 13.8862 4.2347C13.258 4.1035 12.6014 3.97218 11.9165 3.84076C12.1791 3.57814 12.4418 3.3155 12.7044 3.05288C12.7755 2.42417 13.1038 1.9974 13.6892 1.77258C13.6236 1.70692 13.5579 1.64127 13.4923 1.57561C13.8862 1.31298 14.2801 1.05036 14.6741 0.787731C14.6084 0.722075 14.5428 0.656417 14.4771 0.590761C14.6422 0.363184 14.8392 0.133386 15.068 -0.0986328Z" fill="#D6B06E"/>
<path fill-rule="evenodd" clip-rule="evenodd" d="M19.2046 -0.0986328C21.1087 -0.0986328 23.0126 -0.0986328 24.9168 -0.0986328C24.9168 -0.0329763 24.9168 0.0326804 24.9168 0.0983369C24.6463 0.0674763 24.3836 0.100305 24.1289 0.196822C24.1945 0.262478 24.2603 0.328136 24.3258 0.393791C24.0777 0.613029 23.8478 0.645858 23.6365 0.492276C23.8533 0.943804 23.6892 1.23926 23.144 1.37864C23.2754 1.4443 23.4066 1.50995 23.538 1.57561C22.8433 1.74501 22.4166 2.17178 22.2577 2.85591C22.0991 2.38297 21.935 2.4158 21.7652 2.9544C22.2336 3.14634 22.1678 3.27764 21.5683 3.34834C21.6339 3.41399 21.6996 3.47966 21.7652 3.54531C21.4763 3.76148 21.312 4.05694 21.2728 4.43167C21.1895 4.14486 21.0254 4.04638 20.7804 4.13622C20.846 4.33319 20.9118 4.53016 20.9774 4.72713C20.7408 4.90489 20.5765 5.1347 20.4849 5.41652C20.366 4.986 20.1363 4.95317 19.7955 5.31803C20.2639 5.50998 20.1981 5.64128 19.5986 5.71197C19.8121 6.14328 19.6807 6.47155 19.2046 6.69682C19.2703 6.76247 19.336 6.82814 19.4016 6.89379C19.0827 6.94018 18.8857 7.10433 18.8107 7.38622C18.072 6.12301 17.0215 5.20381 15.6592 4.62864C15.7755 4.50031 15.9068 4.36899 16.0531 4.2347C16.0119 4.11928 15.9462 4.02079 15.8561 3.93925C16.1844 3.67663 16.5127 3.41399 16.841 3.15137C16.7753 3.08572 16.7097 3.02005 16.644 2.9544C16.841 2.88875 17.038 2.82308 17.2349 2.75743C17.1693 2.69178 17.1036 2.62611 17.038 2.56046C17.8154 1.57469 18.5376 0.688324 19.2046 -0.0986328Z" fill="#D1AA67"/>
<path opacity="0.998" fill-rule="evenodd" clip-rule="evenodd" d="M24.9166 0.0986175C25.3647 0.219011 25.6929 0.481637 25.9015 0.886496C25.9015 1.74003 25.9015 2.59357 25.9015 3.4471C25.5313 3.42607 25.4658 3.52455 25.7045 3.74256C25.136 4.22123 24.6107 4.74647 24.1287 5.31831C24.1943 5.38396 24.2601 5.44963 24.3257 5.51528C23.9973 5.71225 23.6692 5.90922 23.3408 6.10619C23.4064 6.17184 23.4722 6.23751 23.5378 6.30316C23.2319 6.5192 22.9694 6.78182 22.7499 7.09104C22.8155 7.15669 22.8813 7.22236 22.9469 7.28801C22.5177 7.37505 22.3865 7.57202 22.553 7.87892C22.2488 7.93596 21.9863 8.06728 21.7651 8.27286C21.8965 8.33851 22.0277 8.40418 22.159 8.46983C21.9518 8.69028 21.722 8.78876 21.4696 8.76528C21.2504 9.01355 21.2175 9.24333 21.3712 9.45468C20.8157 9.59955 20.4218 9.92784 20.1893 10.4395C20.2549 10.5052 20.3207 10.5708 20.3863 10.6365C19.9571 10.7235 19.8259 10.9205 19.9924 11.2274C19.7802 11.3199 19.5833 11.2871 19.4015 11.1289C19.4986 9.82983 19.3016 8.58236 18.8105 7.3865C18.8855 7.10461 19.0825 6.94046 19.4015 6.89407C19.3358 6.82842 19.2701 6.76275 19.2045 6.6971C19.6806 6.47183 19.8119 6.14356 19.5984 5.71225C20.198 5.64156 20.2638 5.51026 19.7954 5.31831C20.1362 4.95345 20.3658 4.98628 20.4848 5.4168C20.5764 5.13497 20.7407 4.90517 20.9772 4.72741C20.9116 4.53044 20.8458 4.33347 20.7802 4.1365C21.0253 4.04666 21.1893 4.14514 21.2727 4.43195C21.3119 4.05722 21.4761 3.76176 21.7651 3.54559C21.6995 3.47994 21.6337 3.41427 21.5681 3.34862C22.1677 3.27793 22.2335 3.14663 21.7651 2.95468C21.9349 2.41608 22.099 2.38325 22.2575 2.85619C22.4165 2.17206 22.8431 1.74529 23.5378 1.57589C23.4064 1.51023 23.2753 1.44458 23.1439 1.37892C23.6891 1.23954 23.8532 0.944084 23.6363 0.492557C23.8477 0.646138 24.0775 0.613309 24.3257 0.394072C24.2601 0.328416 24.1943 0.262758 24.1287 0.197102C24.3834 0.100585 24.6462 0.0677569 24.9166 0.0986175Z" fill="#CCA460"/>
<path fill-rule="evenodd" clip-rule="evenodd" d="M25.9014 3.44711C25.9014 5.7451 25.9014 8.04307 25.9014 10.3411C25.4503 10.0391 25.3191 10.1048 25.5074 10.538C25.2305 10.8386 25.0008 11.1669 24.818 11.5229C24.7524 11.3916 24.6867 11.2603 24.6211 11.1289C24.0134 12.1624 23.4883 13.1473 23.0453 14.0835C22.9565 13.6051 22.7922 13.5722 22.5529 13.985C22.6185 14.0506 22.6843 14.1163 22.7499 14.182C22.0934 14.9042 21.4367 15.6264 20.7802 16.3486C20.8457 16.4143 20.9115 16.4799 20.9771 16.5456C20.2497 17.2071 19.5932 17.9293 19.0074 18.7123C19.2347 18.8923 19.2018 19.0564 18.9089 19.2047C18.5807 19.0392 18.5479 19.1377 18.8105 19.5001C18.393 19.5675 18.3274 19.7316 18.6135 19.9926C16.7094 19.9926 14.8054 19.9926 12.9014 19.9926C13.5675 19.1513 14.3882 18.2321 15.3635 17.235C15.7284 16.8943 15.6955 16.6645 15.265 16.5456C15.6939 16.1496 16.0879 15.7228 16.4468 15.2653C16.6438 15.134 16.8408 15.0027 17.0377 14.8714C17.1933 14.653 17.2918 14.3904 17.3332 14.0835C17.5013 14.4977 17.7311 14.4977 18.0226 14.0835C18.6694 13.1972 19.129 12.2123 19.4014 11.1289C19.5832 11.2871 19.7801 11.3199 19.9923 11.2274C19.8258 10.9205 19.957 10.7235 20.3862 10.6365C20.3206 10.5709 20.2548 10.5052 20.1892 10.4395C20.4217 9.92785 20.8156 9.59956 21.3711 9.45469C21.2174 9.24334 21.2503 9.01356 21.4695 8.7653C21.7219 8.78877 21.9517 8.69029 22.1589 8.46984C22.0276 8.40419 21.8964 8.33852 21.765 8.27287C21.9862 8.06729 22.2488 7.93597 22.5529 7.87893C22.3864 7.57203 22.5176 7.37506 22.9468 7.28802C22.8812 7.22237 22.8154 7.1567 22.7499 7.09105C22.9693 6.78183 23.2318 6.51921 23.5377 6.30317C23.4721 6.23752 23.4064 6.17185 23.3408 6.1062C23.6691 5.90923 23.9973 5.71226 24.3256 5.51529C24.26 5.44964 24.1942 5.38398 24.1286 5.31833C24.6106 4.74648 25.1359 4.22124 25.7044 3.74257C25.4657 3.52456 25.5313 3.42608 25.9014 3.44711Z" fill="#C8A05B"/>
<path fill-rule="evenodd" clip-rule="evenodd" d="M13.8861 4.23507C14.5026 4.27441 15.0935 4.40573 15.6589 4.62901C17.0212 5.20418 18.0717 6.12338 18.8104 7.38659C19.3014 8.58245 19.4984 9.82992 19.4013 11.129C19.1289 12.2124 18.6693 13.1973 18.0225 14.0836C17.1888 13.2331 16.7292 12.1826 16.6437 10.932C16.9895 9.95812 17.5476 9.10458 18.3179 8.37143C18.413 8.18471 18.4459 7.98774 18.4164 7.78053C17.7075 7.99014 17.1166 8.41691 16.6437 9.06083C16.457 9.15593 16.26 9.18876 16.0528 9.15931C16.1474 8.66598 16.3443 8.20639 16.6437 7.78053C16.5675 7.54024 16.4034 7.40894 16.1513 7.38659C15.31 7.69293 15.0145 8.25101 15.2649 9.06083C14.771 9.87654 14.0488 10.1392 13.0982 9.84871C12.7308 9.01618 12.2384 8.26111 11.621 7.58356C11.6523 6.96517 11.7836 6.37426 12.0149 5.81083C11.6469 5.58 11.2858 5.61281 10.9316 5.90931C10.7036 6.84921 10.3425 7.73558 9.84825 8.5684C9.75697 9.42278 9.65849 10.2763 9.55279 11.129C9.74736 12.3729 9.7802 13.6204 9.65128 14.8714C9.56973 14.9615 9.47125 15.0272 9.35582 15.0684C7.89508 13.92 7.1072 12.4099 6.99219 10.5381C7.27744 6.24816 9.57543 4.14714 13.8861 4.23507Z" fill="#FDFCFA"/>
<path fill-rule="evenodd" clip-rule="evenodd" d="M16.6441 10.932C16.502 10.8497 16.4035 10.7184 16.3486 10.538C16.1494 10.7028 15.9197 10.7685 15.6592 10.735C15.5008 11.3145 15.2382 11.8398 14.8714 12.3108C14.6861 11.0409 13.9639 10.4828 12.7047 10.6365C12.5814 10.7843 12.4829 10.9485 12.4092 11.1289C12.3109 12.1116 12.2781 13.0964 12.3108 14.0835C11.9341 14.5084 11.6059 14.968 11.3259 15.4623C11.4015 14.5507 11.2373 13.6972 10.8335 12.9017C10.6175 13.2875 10.5191 13.7142 10.538 14.182C10.5743 14.7463 10.64 15.3044 10.735 15.8562C10.932 15.8562 11.1289 15.8562 11.3259 15.8562C10.8389 16.2205 10.3793 16.6145 9.94712 17.038C9.98834 17.1534 10.054 17.2519 10.1441 17.3335C9.30687 18.2547 8.58466 19.1411 7.97742 19.9926C5.61378 19.9926 3.25015 19.9926 0.886512 19.9926C0.481652 19.784 0.219027 19.4557 0.0986328 19.0077C0.287403 18.9185 0.451543 18.7872 0.591057 18.6138C0.919301 18.7793 0.95213 18.6808 0.689542 18.3183C1.28917 18.2476 1.35482 18.1163 0.886512 17.9244C1.27901 17.6052 1.67295 17.2769 2.06833 16.9395C2.00268 16.8739 1.93702 16.8082 1.87136 16.7426C2.33095 16.4143 2.79056 16.086 3.25015 15.7577C2.81963 15.6388 2.7868 15.409 3.15166 15.0683C3.34361 15.5366 3.47491 15.471 3.5456 14.8714C3.93611 14.3898 4.33005 13.7989 4.72742 13.0986C5.23911 12.8662 5.5674 12.4723 5.71227 11.9168C5.89226 12.1441 6.05639 12.1112 6.20469 11.8183C5.97902 11.3146 6.17599 11.052 6.7956 11.0304C6.35407 10.832 6.41974 10.6679 6.99257 10.538C7.10758 12.4098 7.89546 13.9199 9.35621 15.0683C9.47163 15.0271 9.57012 14.9615 9.65166 14.8714C9.78058 13.6203 9.74774 12.3728 9.55318 11.1289C9.65887 10.2762 9.75736 9.4227 9.84863 8.56833C10.3429 7.7355 10.704 6.84913 10.932 5.90923C11.2862 5.61274 11.6473 5.57992 12.0153 5.81075C11.784 6.37418 11.6527 6.96509 11.6214 7.58348C12.2388 8.26103 12.7312 9.0161 13.0986 9.84863C14.0492 10.1391 14.7714 9.87646 15.2653 9.06075C15.0149 8.25093 15.3104 7.69285 16.1517 7.38651C16.4037 7.40886 16.5679 7.54016 16.6441 7.78045C16.3447 8.20632 16.1478 8.6659 16.0532 9.15924C16.2604 9.18868 16.4574 9.15585 16.6441 9.06075C17.117 8.41684 17.7079 7.99006 18.4168 7.78045C18.4463 7.98766 18.4134 8.18463 18.3183 8.37136C17.548 9.1045 16.9899 9.95805 16.6441 10.932Z" fill="#D4AD6B"/>
<path fill-rule="evenodd" clip-rule="evenodd" d="M25.9014 10.3408C25.9014 13.2297 25.9014 16.1186 25.9014 19.0075C25.6388 19.4014 25.3105 19.7297 24.9165 19.9923C22.8155 19.9923 20.7146 19.9923 18.6135 19.9923C18.3274 19.7313 18.393 19.5672 18.8105 19.4999C18.5479 19.1374 18.5807 19.0389 18.909 19.2044C19.2018 19.0561 19.2347 18.892 19.0074 18.712C19.5932 17.9291 20.2497 17.2068 20.9771 16.5453C20.9115 16.4797 20.8458 16.414 20.7802 16.3484C21.4367 15.6261 22.0934 14.9039 22.7499 14.1817C22.6843 14.1161 22.6185 14.0504 22.5529 13.9847C22.7922 13.572 22.9565 13.6048 23.0453 14.0832C23.4883 13.147 24.0134 12.1622 24.6211 11.1287C24.6867 11.26 24.7525 11.3913 24.818 11.5226C25.0008 11.1666 25.2305 10.8383 25.5074 10.5378C25.3191 10.1045 25.4503 10.0389 25.9014 10.3408Z" fill="#C29953"/>
<path fill-rule="evenodd" clip-rule="evenodd" d="M16.6437 10.932C16.7292 12.1825 17.1888 13.233 18.0225 14.0835C17.731 14.4978 17.5012 14.4978 17.3331 14.0835C17.2917 14.3904 17.1933 14.6531 17.0377 14.8714C17.0223 14.0528 16.694 13.3962 16.0528 12.9017C15.8253 13.482 15.7925 14.0729 15.9543 14.6744C16.0007 14.9934 16.1649 15.1904 16.4467 15.2654C16.0878 15.7229 15.6939 16.1496 15.2649 16.5457C15.6954 16.6646 15.7283 16.8944 15.3634 17.2351C14.3881 18.2322 13.5674 19.1514 12.9013 19.9926C11.2599 19.9926 9.61846 19.9926 7.97705 19.9926C8.58429 19.1411 9.3065 18.2548 10.1437 17.3335C10.0536 17.252 9.98797 17.1535 9.94675 17.0381C10.3789 16.6145 10.8385 16.2206 11.3255 15.8563C11.3255 15.7249 11.3255 15.5936 11.3255 15.4623C11.6055 14.9681 11.9338 14.5084 12.3104 14.0835C12.0813 16.138 12.9348 16.7618 14.871 15.9548C15.1022 14.7503 15.1022 13.5357 14.871 12.3108C15.2378 11.8398 15.5004 11.3146 15.6589 10.7351C15.9193 10.7685 16.1491 10.7029 16.3483 10.5381C16.4031 10.7185 16.5016 10.8498 16.6437 10.932Z" fill="#CDA662"/>
<path fill-rule="evenodd" clip-rule="evenodd" d="M14.8714 12.3105C15.1026 13.5353 15.1026 14.75 14.8714 15.9544C12.9352 16.7614 12.0817 16.1377 12.3108 14.0832C12.2781 13.0962 12.3109 12.1113 12.4093 11.1286C12.483 10.9482 12.5814 10.784 12.7047 10.6362C13.9639 10.4825 14.6861 11.0406 14.8714 12.3105Z" fill="#FCFBF9"/>
<path fill-rule="evenodd" clip-rule="evenodd" d="M11.3258 15.462C11.3258 15.5933 11.3258 15.7246 11.3258 15.8559C11.1289 15.8559 10.9319 15.8559 10.7349 15.8559C10.6399 15.3041 10.5742 14.746 10.5379 14.1817C10.519 13.7139 10.6175 13.2872 10.8334 12.9014C11.2373 13.6969 11.4014 14.5505 11.3258 15.462Z" fill="#F8F3EB"/>
<path fill-rule="evenodd" clip-rule="evenodd" d="M17.0377 14.8711C16.8408 15.0024 16.6438 15.1337 16.4468 15.265C16.1649 15.19 16.0008 14.993 15.9544 14.6741C15.7926 14.0725 15.8254 13.4816 16.0529 12.9014C16.6941 13.3959 17.0224 14.0525 17.0377 14.8711Z" fill="#FAF7F3"/>
</g>
<defs>
<clipPath id="clip0_177_1161">
<rect width="26" height="20.0909" fill="white"/>
</clipPath>
</defs>
</svg>
