<svg width="25" height="25" viewBox="0 0 25 25" fill="none" xmlns="http://www.w3.org/2000/svg">
<path d="M16.1778 8.82226C16.2504 8.89482 16.308 8.98098 16.3473 9.07583C16.3867 9.17067 16.4069 9.27233 16.4069 9.375C16.4069 9.47767 16.3867 9.57933 16.3473 9.67417C16.308 9.76901 16.2504 9.85518 16.1778 9.92773L9.92777 16.1777C9.85518 16.2503 9.76901 16.3079 9.67417 16.3472C9.57933 16.3865 9.47769 16.4067 9.37503 16.4067C9.27238 16.4067 9.17073 16.3865 9.0759 16.3472C8.98106 16.3079 8.89489 16.2503 8.8223 16.1777C8.74971 16.1051 8.69214 16.019 8.65285 15.9241C8.61357 15.8293 8.59335 15.7276 8.59335 15.625C8.59335 15.5223 8.61357 15.4207 8.65285 15.3259C8.69214 15.231 8.74971 15.1448 8.8223 15.0723L15.0723 8.82226C15.1449 8.74963 15.231 8.692 15.3259 8.65268C15.4207 8.61337 15.5224 8.59313 15.625 8.59313C15.7277 8.59313 15.8294 8.61337 15.9242 8.65268C16.019 8.692 16.1052 8.74963 16.1778 8.82226ZM21.0547 3.94531C20.5469 3.43743 19.944 3.03456 19.2805 2.75969C18.6169 2.48483 17.9057 2.34335 17.1875 2.34335C16.4693 2.34335 15.7581 2.48483 15.0946 2.75969C14.4311 3.03456 13.8282 3.43743 13.3203 3.94531L10.3848 6.87988C10.2382 7.02647 10.1559 7.2253 10.1559 7.43261C10.1559 7.63993 10.2382 7.83875 10.3848 7.98535C10.5314 8.13194 10.7302 8.2143 10.9375 8.2143C11.1448 8.2143 11.3437 8.13194 11.4903 7.98535L14.4258 5.05566C15.1611 4.33657 16.1502 3.93644 17.1786 3.9421C18.207 3.94777 19.1917 4.35877 19.919 5.08591C20.6463 5.81306 21.0575 6.79768 21.0633 7.82609C21.0691 8.8545 20.6692 9.84373 19.9502 10.5791L17.0137 13.5146C16.8671 13.6611 16.7847 13.8598 16.7846 14.067C16.7845 14.2743 16.8668 14.473 17.0132 14.6196C17.1597 14.7662 17.3584 14.8486 17.5656 14.8487C17.7728 14.8488 17.9716 14.7666 18.1182 14.6201L21.0547 11.6797C21.5626 11.1719 21.9655 10.569 22.2403 9.90543C22.5152 9.24189 22.6567 8.53071 22.6567 7.8125C22.6567 7.09428 22.5152 6.3831 22.2403 5.71957C21.9655 5.05603 21.5626 4.45314 21.0547 3.94531ZM13.5098 17.0137L10.5743 19.9492C10.213 20.3186 9.78207 20.6126 9.3064 20.8143C8.83073 21.016 8.31978 21.1213 7.80313 21.1241C7.28649 21.127 6.77441 21.0273 6.29655 20.8309C5.81869 20.6344 5.38454 20.3452 5.01924 19.9798C4.65394 19.6144 4.36475 19.1802 4.16842 18.7024C3.97208 18.2245 3.8725 17.7124 3.87543 17.1957C3.87837 16.6791 3.98377 16.1681 4.18553 15.6925C4.38728 15.2169 4.68139 14.786 5.05082 14.4248L7.98539 11.4902C8.13198 11.3436 8.21434 11.1448 8.21434 10.9375C8.21434 10.7302 8.13198 10.5314 7.98539 10.3848C7.83879 10.2382 7.63997 10.1558 7.43265 10.1558C7.22534 10.1558 7.02651 10.2382 6.87992 10.3848L3.94535 13.3203C2.91971 14.346 2.34351 15.737 2.34351 17.1875C2.34351 18.638 2.91971 20.029 3.94535 21.0547C4.97099 22.0803 6.36206 22.6565 7.81253 22.6565C9.26301 22.6565 10.6541 22.0803 11.6797 21.0547L14.6153 18.1182C14.7617 17.9716 14.844 17.7728 14.8439 17.5656C14.8438 17.3583 14.7614 17.1596 14.6148 17.0132C14.4682 16.8667 14.2694 16.7845 14.0622 16.7846C13.855 16.7847 13.6563 16.8671 13.5098 17.0137Z" fill="#E16E33"/>
</svg>
