<svg width="32" height="32" viewBox="0 0 32 32" fill="none" xmlns="http://www.w3.org/2000/svg">
<path d="M5 6C3.355 6 2 7.355 2 9V23C2 24.645 3.355 26 5 26H27C28.645 26 30 24.645 30 23V9C30 7.355 28.645 6 27 6H5ZM5 8H27C27.565 8 28 8.435 28 9V23C28 23.565 27.565 24 27 24H5C4.435 24 4 23.565 4 23V9C4 8.435 4.435 8 5 8ZM12 9C8.146 9 5 12.146 5 16C5 19.854 8.146 23 12 23C13.4303 23.0053 14.8273 22.5688 16 21.75C17.1728 22.5686 18.5698 23.0052 20 23C23.854 23 27 19.854 27 16C27 12.146 23.854 9 20 9C18.512 9 17.13 9.458 16 10.25C14.8273 9.43122 13.4303 8.99465 12 9ZM12 11C13.282 11 14.43 11.496 15.313 12.28C14.8971 12.796 14.5693 13.3771 14.343 14H16.563C16.703 14.318 16.835 14.65 16.906 15H14.094C14.0342 15.33 14.0028 15.6646 14 16C14 16.342 14.04 16.674 14.094 17H16.906C16.836 17.35 16.702 17.682 16.563 18H14.343C14.568 18.63 14.903 19.205 15.313 19.72C14.43 20.503 13.283 21 12 21C9.227 21 7 18.773 7 16C7 13.227 9.227 11 12 11ZM20 11C22.774 11 25 13.226 25 16C25 18.774 22.774 21 20 21C19.1204 20.9964 18.2576 20.759 17.5 20.312C18.473 19.0855 19.0017 17.5656 19 16C19 14.37 18.44 12.88 17.5 11.687C18.2577 11.2404 19.1205 11.0033 20 11Z" fill="black"/>
</svg>
