<svg width="256" height="256" viewBox="0 0 256 256" fill="none" xmlns="http://www.w3.org/2000/svg">
<path d="M213.92 210.62C214.641 211.395 215.201 212.305 215.568 213.298C215.935 214.291 216.101 215.347 216.057 216.405C216.013 217.463 215.759 218.501 215.311 219.46C214.862 220.419 214.228 221.279 213.445 221.991C212.661 222.703 211.744 223.253 210.747 223.608C209.75 223.963 208.692 224.116 207.635 224.059C206.577 224.003 205.542 223.736 204.589 223.277C203.635 222.817 202.782 222.172 202.08 221.38L150.08 164.23C140.676 160.499 130.482 159.206 120.444 160.472C110.407 161.738 100.853 165.521 92.6698 171.47C91.8222 172.111 90.8555 172.576 89.8262 172.839C88.7969 173.102 87.7255 173.157 86.6746 173.001C85.6236 172.846 84.6142 172.482 83.7053 171.932C82.7963 171.382 82.006 170.657 81.3804 169.798C80.7548 168.94 80.3065 167.965 80.0617 166.931C79.8169 165.897 79.7804 164.825 79.9544 163.777C80.1285 162.729 80.5095 161.726 81.0753 160.827C81.641 159.928 82.3803 159.15 83.2498 158.54C96.2345 149.046 111.914 143.951 128 144C129.28 144 130.55 144 131.82 144.1L104.9 114.49C88.875 118.006 73.8618 125.126 60.9998 135.31C60.1749 135.967 59.2284 136.454 58.2146 136.744C57.2008 137.034 56.1397 137.12 55.0924 136.999C54.045 136.877 53.032 136.549 52.1117 136.035C51.1914 135.52 50.3819 134.829 49.7298 134C48.4112 132.342 47.8044 130.228 48.0425 128.122C48.2806 126.017 49.3441 124.092 50.9998 122.77C63.3988 112.963 77.5553 105.611 92.7098 101.11L69.3698 75.4C54.8032 81.3162 41.2186 89.4083 29.0798 99.4C28.2656 100.067 27.3279 100.567 26.3204 100.872C25.3129 101.177 24.2552 101.28 23.2078 101.176C22.1604 101.072 21.1437 100.763 20.2157 100.266C19.2878 99.769 18.4669 99.0942 17.7998 98.28C17.1326 97.4658 16.6324 96.5282 16.3277 95.5207C16.0229 94.5132 15.9196 93.4555 16.0236 92.408C16.2336 90.2926 17.2754 88.3473 18.9198 87C30.8076 77.241 43.9516 69.1218 57.9998 62.86L42.0798 45.38C41.3584 44.6051 40.7981 43.6948 40.4311 42.7018C40.0642 41.7088 39.898 40.6528 39.9422 39.5951C39.9864 38.5373 40.2401 37.4989 40.6886 36.5399C41.1371 35.581 41.7714 34.7206 42.5549 34.0086C43.3383 33.2966 44.2553 32.7472 45.2527 32.3922C46.25 32.0372 47.3079 31.8837 48.365 31.9406C49.4221 31.9974 50.4574 32.2636 51.411 32.7235C52.3645 33.1834 53.2172 33.8281 53.9198 34.62L213.92 210.62ZM128 192C125.626 192 123.306 192.704 121.333 194.022C119.36 195.341 117.821 197.215 116.913 199.408C116.005 201.601 115.767 204.013 116.23 206.341C116.693 208.669 117.836 210.807 119.514 212.485C121.193 214.164 123.331 215.306 125.659 215.769C127.986 216.232 130.399 215.995 132.592 215.087C134.785 214.178 136.659 212.64 137.977 210.667C139.296 208.693 140 206.373 140 204C140 200.817 138.735 197.765 136.485 195.515C134.235 193.264 131.182 192 128 192ZM237.08 87C218.939 72.1433 197.957 61.1456 175.418 54.6804C152.879 48.2151 129.257 46.4183 106 49.4C104.939 49.5083 103.91 49.8276 102.974 50.3392C102.039 50.8509 101.215 51.5444 100.551 52.3791C99.8869 53.2138 99.3967 54.1728 99.1089 55.1998C98.8211 56.2267 98.7415 57.3008 98.8749 58.3589C99.0082 59.4171 99.3518 60.4378 99.8854 61.3612C100.419 62.2847 101.132 63.0921 101.982 63.736C102.832 64.3799 103.803 64.8473 104.836 65.1107C105.869 65.3742 106.945 65.4283 108 65.27C114.633 64.4248 121.313 64.0006 128 64C164.067 64.0197 199.017 76.5165 226.92 99.37C228.56 100.717 230.669 101.358 232.781 101.151C234.894 100.943 236.837 99.9054 238.185 98.265C239.532 96.6246 240.173 94.5162 239.965 92.4036C239.758 90.2911 238.72 88.3473 237.08 87ZM195 135.31C195.823 135.963 196.767 136.447 197.777 136.735C198.788 137.023 199.845 137.109 200.889 136.988C201.933 136.868 202.943 136.542 203.861 136.031C204.779 135.52 205.587 134.833 206.24 134.01C206.893 133.187 207.377 132.243 207.665 131.232C207.953 130.222 208.039 129.164 207.918 128.121C207.797 127.077 207.472 126.067 206.961 125.149C206.45 124.231 205.763 123.423 204.94 122.77C189.809 110.796 172.098 102.511 153.21 98.57C152.17 98.3309 151.093 98.3022 150.042 98.4855C148.992 98.6688 147.988 99.0603 147.091 99.6372C146.193 100.214 145.421 100.965 144.818 101.844C144.215 102.724 143.794 103.716 143.58 104.761C143.366 105.806 143.363 106.883 143.571 107.929C143.78 108.976 144.195 109.97 144.793 110.853C145.391 111.736 146.16 112.491 147.054 113.072C147.948 113.654 148.95 114.051 150 114.24C166.432 117.675 181.839 124.888 195 135.31Z" fill="black"/>
</svg>
