<svg width="256" height="256" viewBox="0 0 256 256" fill="none" xmlns="http://www.w3.org/2000/svg">
<path d="M138 204C138 205.978 137.414 207.911 136.315 209.556C135.216 211.2 133.654 212.482 131.827 213.239C130 213.996 127.989 214.194 126.049 213.808C124.109 213.422 122.328 212.47 120.929 211.071C119.53 209.673 118.578 207.891 118.192 205.951C117.806 204.011 118.004 202 118.761 200.173C119.518 198.346 120.8 196.784 122.444 195.685C124.089 194.586 126.022 194 128 194C130.652 194 133.196 195.054 135.071 196.929C136.946 198.804 138 201.348 138 204ZM52.44 36C51.3416 34.9805 49.9014 34.4089 48.4028 34.3978C46.9042 34.3866 45.4557 34.9367 44.3422 35.9398C43.2288 36.9429 42.5311 38.3264 42.3863 39.8181C42.2416 41.3097 42.6603 42.8015 43.5601 44L61.3301 63.58C46.4966 69.9125 32.6434 78.3308 20.1901 88.58C19.5775 89.0791 19.0696 89.6942 18.6954 90.3901C18.3212 91.086 18.0882 91.849 18.0097 92.6352C17.9312 93.4214 18.0087 94.2154 18.2378 94.9715C18.467 95.7277 18.8432 96.4312 19.3449 97.0415C19.8467 97.6519 20.464 98.1572 21.1615 98.5283C21.859 98.8995 22.623 99.1292 23.4095 99.2043C24.1961 99.2794 24.9897 99.1985 25.7449 98.9661C26.5 98.7336 27.2019 98.3544 27.8101 97.85C40.4652 87.427 54.6695 79.0428 69.9101 73L96.3901 102.13C80.3265 106.447 65.3134 113.998 52.2701 124.32C51.0222 125.309 50.2185 126.754 50.0356 128.336C49.8528 129.917 50.3058 131.507 51.2951 132.755C52.2843 134.003 53.7287 134.807 55.3106 134.989C56.8925 135.172 58.4822 134.719 59.73 133.73C73.142 123.103 88.8482 115.751 105.6 112.26L136.73 146.51C133.833 146.169 130.918 145.999 128 146C112.353 145.959 97.1022 150.917 84.4701 160.15C83.4465 160.895 82.685 161.946 82.2946 163.15C81.9043 164.355 81.905 165.652 82.2968 166.856C82.6885 168.06 83.4512 169.11 84.4757 169.854C85.5001 170.598 86.7338 171 88.0001 171C89.2695 171.004 90.5068 170.601 91.5301 169.85C100.05 163.655 110.007 159.733 120.463 158.454C130.919 157.175 141.528 158.582 151.29 162.54L203.56 220C204.632 221.178 206.127 221.881 207.717 221.956C209.308 222.031 210.862 221.471 212.04 220.4C213.218 219.329 213.921 217.833 213.996 216.243C214.071 214.653 213.512 213.098 212.44 211.92L52.44 36ZM235.81 88.55C205.399 63.6442 167.309 50.0242 128 50C120.725 50.0032 113.457 50.4641 106.24 51.38C105.445 51.4627 104.674 51.7035 103.972 52.0885C103.271 52.4734 102.654 52.9946 102.158 53.6214C101.661 54.2483 101.294 54.9681 101.08 55.7386C100.865 56.5091 100.807 57.3147 100.908 58.1081C101.01 58.9014 101.269 59.6665 101.67 60.3584C102.071 61.0502 102.607 61.6548 103.245 62.1367C103.884 62.6186 104.612 62.9679 105.387 63.1643C106.163 63.3606 106.969 63.4 107.76 63.28C114.473 62.4273 121.233 61.9998 128 62C164.53 62.0192 199.928 74.6748 228.19 97.82C228.798 98.3244 229.5 98.7036 230.255 98.9361C231.01 99.1685 231.804 99.2494 232.591 99.1743C233.377 99.0992 234.141 98.8695 234.839 98.4983C235.536 98.1272 236.153 97.6219 236.655 97.0115C237.157 96.4012 237.533 95.6977 237.762 94.9415C237.991 94.1854 238.069 93.3914 237.99 92.6052C237.912 91.819 237.679 91.056 237.305 90.3601C236.931 89.6642 236.423 89.0491 235.81 88.55ZM196.27 133.75C197.338 134.574 198.652 135.014 200 135C201.245 135 202.46 134.613 203.475 133.891C204.49 133.17 205.256 132.151 205.666 130.975C206.076 129.799 206.11 128.525 205.763 127.329C205.416 126.133 204.706 125.074 203.73 124.3C188.842 112.519 171.415 104.367 152.83 100.49C152.054 100.317 151.25 100.301 150.467 100.441C149.684 100.581 148.937 100.876 148.269 101.308C147.601 101.74 147.025 102.301 146.576 102.957C146.127 103.613 145.812 104.353 145.651 105.132C145.49 105.911 145.485 106.714 145.638 107.495C145.79 108.276 146.096 109.018 146.538 109.68C146.98 110.341 147.549 110.908 148.212 111.348C148.875 111.787 149.619 112.091 150.4 112.24C167.155 115.743 182.862 123.109 196.27 133.75Z" fill="black"/>
</svg>
