<svg width="15" height="15" viewBox="0 0 15 15" fill="none" xmlns="http://www.w3.org/2000/svg">
<path d="M14.6861 3.73399L11.266 0.313851C11.1665 0.214349 11.0484 0.135419 10.9184 0.0815676C10.7884 0.0277167 10.6491 0 10.5084 0C10.3677 0 10.2283 0.0277167 10.0983 0.0815676C9.96833 0.135419 9.85021 0.214349 9.75072 0.313851L0.313776 9.75156C0.214083 9.8509 0.135034 9.969 0.0811826 10.099C0.0273308 10.2291 -0.000259339 10.3685 1.83705e-06 10.5092V13.9293C1.83705e-06 14.2135 0.112884 14.486 0.313814 14.6869C0.514745 14.8879 0.787266 15.0008 1.07142 15.0008H4.49156C4.6323 15.001 4.7717 14.9734 4.90174 14.9196C5.03177 14.8657 5.14986 14.7867 5.24921 14.687L14.6861 5.24928C14.7857 5.14979 14.8646 5.03167 14.9184 4.90168C14.9723 4.77168 15 4.63235 15 4.49163C15 4.35092 14.9723 4.21159 14.9184 4.08159C14.8646 3.9516 14.7857 3.83348 14.6861 3.73399ZM4.59947 14.0372C4.57089 14.066 4.53209 14.0822 4.49156 14.0824H1.07142C1.03083 14.0824 0.991899 14.0663 0.963195 14.0376C0.93449 14.0089 0.918364 13.9699 0.918364 13.9293V10.5092C0.918535 10.4687 0.934773 10.4299 0.963517 10.4013L7.80608 3.55797L11.442 7.19468L4.59947 14.0372ZM14.0364 4.60031L12.0918 6.54494L8.45582 2.90899L10.4005 0.963593C10.4147 0.949362 10.4316 0.938072 10.4501 0.930369C10.4687 0.922667 10.4886 0.918702 10.5087 0.918702C10.5289 0.918702 10.5488 0.922667 10.5674 0.930369C10.5859 0.938072 10.6028 0.949362 10.617 0.963593L14.0364 4.38373C14.0506 4.39794 14.0619 4.41482 14.0696 4.4334C14.0773 4.45199 14.0813 4.4719 14.0813 4.49202C14.0813 4.51213 14.0773 4.53205 14.0696 4.55063C14.0619 4.56921 14.0506 4.58609 14.0364 4.60031Z" fill="#464646"/>
</svg>
