<svg width="15" height="15" viewBox="0 0 15 15" fill="none" xmlns="http://www.w3.org/2000/svg">
<g clip-path="url(#clip0_180_259)">
<path d="M14.0625 7.03125C14.0625 7.18665 14.0008 7.33569 13.8909 7.44557C13.781 7.55546 13.632 7.61719 13.4766 7.61719H7.61719V13.4766C7.61719 13.632 7.55546 13.781 7.44557 13.8909C7.33569 14.0008 7.18665 14.0625 7.03125 14.0625C6.87585 14.0625 6.72681 14.0008 6.61693 13.8909C6.50705 13.781 6.44531 13.632 6.44531 13.4766V7.61719H0.585938C0.430537 7.61719 0.281502 7.55546 0.171617 7.44557C0.0617326 7.33569 0 7.18665 0 7.03125C0 6.87585 0.0617326 6.72681 0.171617 6.61693C0.281502 6.50705 0.430537 6.44531 0.585938 6.44531H6.44531V0.585938C6.44531 0.430537 6.50705 0.281502 6.61693 0.171617C6.72681 0.0617326 6.87585 0 7.03125 0C7.18665 0 7.33569 0.0617326 7.44557 0.171617C7.55546 0.281502 7.61719 0.430537 7.61719 0.585938V6.44531H13.4766C13.632 6.44531 13.781 6.50705 13.8909 6.61693C14.0008 6.72681 14.0625 6.87585 14.0625 7.03125Z" fill="#E16E33"/>
</g>
<defs>
<clipPath id="clip0_180_259">
<rect width="15" height="15" fill="white"/>
</clipPath>
</defs>
</svg>
