<svg width="18" height="17" viewBox="0 0 18 17" fill="none" xmlns="http://www.w3.org/2000/svg">
<path d="M6.5625 0.101562H1.6875C1.3104 0.101563 0.948736 0.245605 0.682083 0.502003C0.415429 0.7584 0.265625 1.10615 0.265625 1.46875V6.15625C0.265625 6.33579 0.302403 6.51358 0.373859 6.67945C0.445315 6.84532 0.550049 6.99604 0.682083 7.123C0.814116 7.24995 0.970862 7.35066 1.14337 7.41937C1.31588 7.48807 1.50078 7.52344 1.6875 7.52344H6.5625C6.74922 7.52344 6.93412 7.48807 7.10663 7.41937C7.27914 7.35066 7.43588 7.24995 7.56792 7.123C7.69995 6.99604 7.80469 6.84532 7.87614 6.67945C7.9476 6.51358 7.98438 6.33579 7.98438 6.15625V1.46875C7.98438 1.28921 7.9476 1.11142 7.87614 0.94555C7.80469 0.779675 7.69995 0.628958 7.56792 0.502003C7.43588 0.375047 7.27914 0.274341 7.10663 0.205633C6.93412 0.136926 6.74922 0.101562 6.5625 0.101562ZM6.76562 6.15625C6.76562 6.20805 6.74422 6.25773 6.70613 6.29436C6.66804 6.33099 6.61637 6.35156 6.5625 6.35156H1.6875C1.63363 6.35156 1.58196 6.33099 1.54387 6.29436C1.50578 6.25773 1.48438 6.20805 1.48438 6.15625V1.46875C1.48438 1.41695 1.50578 1.36727 1.54387 1.33064C1.58196 1.29401 1.63363 1.27344 1.6875 1.27344H6.5625C6.61637 1.27344 6.66804 1.29401 6.70613 1.33064C6.74422 1.36727 6.76562 1.41695 6.76562 1.46875V6.15625ZM6.5625 9.47656H1.6875C1.3104 9.47656 0.948736 9.62061 0.682083 9.877C0.415429 10.1334 0.265625 10.4811 0.265625 10.8438V15.5312C0.265625 15.8939 0.415429 16.2416 0.682083 16.498C0.948736 16.7544 1.3104 16.8984 1.6875 16.8984H6.5625C6.74922 16.8984 6.93412 16.8631 7.10663 16.7944C7.27914 16.7257 7.43588 16.625 7.56792 16.498C7.69995 16.371 7.80469 16.2203 7.87614 16.0545C7.9476 15.8886 7.98438 15.7108 7.98438 15.5312V10.8438C7.98438 10.6642 7.9476 10.4864 7.87614 10.3205C7.80469 10.1547 7.69995 10.004 7.56792 9.877C7.43588 9.75005 7.27914 9.64934 7.10663 9.58063C6.93412 9.51193 6.74922 9.47656 6.5625 9.47656ZM6.76562 15.5312C6.76562 15.583 6.74422 15.6327 6.70613 15.6694C6.66804 15.706 6.61637 15.7266 6.5625 15.7266H1.6875C1.63363 15.7266 1.58196 15.706 1.54387 15.6694C1.50578 15.6327 1.48438 15.583 1.48438 15.5312V10.8438C1.48438 10.792 1.50578 10.7423 1.54387 10.7056C1.58196 10.669 1.63363 10.6484 1.6875 10.6484H6.5625C6.61637 10.6484 6.66804 10.669 6.70613 10.7056C6.74422 10.7423 6.76562 10.792 6.76562 10.8438V15.5312ZM16.3125 0.101562H11.4375C11.0604 0.101563 10.6987 0.245605 10.4321 0.502003C10.1654 0.7584 10.0156 1.10615 10.0156 1.46875V6.15625C10.0156 6.33579 10.0524 6.51358 10.1239 6.67945C10.1953 6.84532 10.3 6.99604 10.4321 7.123C10.5641 7.24995 10.7209 7.35066 10.8934 7.41937C11.0659 7.48807 11.2508 7.52344 11.4375 7.52344H16.3125C16.4992 7.52344 16.6841 7.48807 16.8566 7.41937C17.0291 7.35066 17.1859 7.24995 17.3179 7.123C17.45 6.99604 17.5547 6.84532 17.6261 6.67945C17.6976 6.51358 17.7344 6.33579 17.7344 6.15625V1.46875C17.7344 1.10615 17.5846 0.7584 17.3179 0.502003C17.0513 0.245605 16.6896 0.101563 16.3125 0.101562ZM16.5156 6.15625C16.5156 6.20805 16.4942 6.25773 16.4561 6.29436C16.418 6.33099 16.3664 6.35156 16.3125 6.35156H11.4375C11.3836 6.35156 11.332 6.33099 11.2939 6.29436C11.2558 6.25773 11.2344 6.20805 11.2344 6.15625V1.46875C11.2344 1.41695 11.2558 1.36727 11.2939 1.33064C11.332 1.29401 11.3836 1.27344 11.4375 1.27344H16.3125C16.3664 1.27344 16.418 1.29401 16.4561 1.33064C16.4942 1.36727 16.5156 1.41695 16.5156 1.46875V6.15625ZM10.0156 13.1875V10.0625C10.0156 9.9071 10.0798 9.75806 10.1941 9.64818C10.3084 9.53829 10.4634 9.47656 10.625 9.47656C10.7866 9.47656 10.9416 9.53829 11.0559 9.64818C11.1702 9.75806 11.2344 9.9071 11.2344 10.0625V13.1875C11.2344 13.3429 11.1702 13.4919 11.0559 13.6018C10.9416 13.7117 10.7866 13.7734 10.625 13.7734C10.4634 13.7734 10.3084 13.7117 10.1941 13.6018C10.0798 13.4919 10.0156 13.3429 10.0156 13.1875ZM17.7344 11.625C17.7344 11.7804 17.6702 11.9294 17.5559 12.0393C17.4416 12.1492 17.2866 12.2109 17.125 12.2109H14.4844V16.3125C14.4844 16.4679 14.4202 16.6169 14.3059 16.7268C14.1916 16.8367 14.0366 16.8984 13.875 16.8984H10.625C10.4634 16.8984 10.3084 16.8367 10.1941 16.7268C10.0798 16.6169 10.0156 16.4679 10.0156 16.3125C10.0156 16.1571 10.0798 16.0081 10.1941 15.8982C10.3084 15.7883 10.4634 15.7266 10.625 15.7266H13.2656V10.0625C13.2656 9.9071 13.3298 9.75806 13.4441 9.64818C13.5584 9.53829 13.7134 9.47656 13.875 9.47656C14.0366 9.47656 14.1916 9.53829 14.3059 9.64818C14.4202 9.75806 14.4844 9.9071 14.4844 10.0625V11.0391H17.125C17.2866 11.0391 17.4416 11.1008 17.5559 11.2107C17.6702 11.3206 17.7344 11.4696 17.7344 11.625ZM17.7344 14.75V16.3125C17.7344 16.4679 17.6702 16.6169 17.5559 16.7268C17.4416 16.8367 17.2866 16.8984 17.125 16.8984C16.9634 16.8984 16.8084 16.8367 16.6941 16.7268C16.5798 16.6169 16.5156 16.4679 16.5156 16.3125V14.75C16.5156 14.5946 16.5798 14.4456 16.6941 14.3357C16.8084 14.2258 16.9634 14.1641 17.125 14.1641C17.2866 14.1641 17.4416 14.2258 17.5559 14.3357C17.6702 14.4456 17.7344 14.5946 17.7344 14.75Z" fill="white"/>
</svg>
