<svg width="30" height="30" viewBox="0 0 30 30" fill="none" xmlns="http://www.w3.org/2000/svg">
<path d="M26.2992 12.2109C25.8422 11.734 25.3699 11.2418 25.1801 10.7836C25.0043 10.3582 24.9949 9.72891 24.9844 9.06328C24.968 7.96406 24.9492 6.71953 24.1148 5.88516C23.2805 5.05078 22.0313 5.03203 20.9367 5.01562C20.2711 5.00508 19.6477 4.9957 19.2164 4.81992C18.7582 4.63008 18.266 4.15781 17.7891 3.70078C17.0109 2.95547 16.1297 2.10938 15 2.10938C13.8703 2.10938 12.9891 2.95547 12.2109 3.70078C11.734 4.15781 11.2418 4.63008 10.7836 4.81992C10.3582 4.9957 9.72891 5.00508 9.06328 5.01562C7.96406 5.03203 6.71953 5.05078 5.88516 5.88516C5.05078 6.71953 5.03203 7.96875 5.01562 9.06328C5.00508 9.72891 4.9957 10.3523 4.81992 10.7836C4.63008 11.2418 4.15781 11.734 3.70078 12.2109C2.95547 12.9891 2.10938 13.8703 2.10938 15C2.10938 16.1297 2.95547 17.0109 3.70078 17.7891C4.15781 18.266 4.63008 18.7582 4.81992 19.2164C4.9957 19.6418 5.00508 20.2711 5.01562 20.9367C5.03203 22.0359 5.05078 23.2805 5.88516 24.1148C6.71953 24.9492 7.96875 24.968 9.06328 24.9844C9.72891 24.9949 10.3523 25.0043 10.7836 25.1801C11.2418 25.3699 11.734 25.8422 12.2109 26.2992C12.9891 27.0445 13.8703 27.8906 15 27.8906C16.1297 27.8906 17.0109 27.0445 17.7891 26.2992C18.266 25.8422 18.7582 25.3699 19.2164 25.1801C19.6418 25.0043 20.2711 24.9949 20.9367 24.9844C22.0359 24.968 23.2805 24.9492 24.1148 24.1148C24.9492 23.2805 24.968 22.0359 24.9844 20.9367C24.9949 20.2711 25.0043 19.6477 25.1801 19.2164C25.3699 18.7582 25.8422 18.266 26.2992 17.7891C27.0445 17.0109 27.8906 16.1297 27.8906 15C27.8906 13.8703 27.0445 12.9891 26.2992 12.2109ZM25.2844 16.8164C24.7371 17.3859 24.1711 17.9766 23.8781 18.6797C23.5992 19.3523 23.5875 20.1469 23.5758 20.9156C23.5629 21.7875 23.5488 22.6898 23.1187 23.1211C22.6887 23.5523 21.7852 23.5652 20.9133 23.5781C20.1445 23.5898 19.35 23.6016 18.6773 23.8805C17.9742 24.1711 17.3883 24.7371 16.8129 25.2867C16.1977 25.8727 15.5613 26.4867 14.9977 26.4867C14.434 26.4867 13.7977 25.8762 13.1813 25.2867C12.6117 24.7395 12.0211 24.1734 11.318 23.8805C10.6453 23.6016 9.85078 23.5898 9.08203 23.5781C8.21016 23.5652 7.30781 23.5512 6.87656 23.1211C6.44531 22.691 6.43242 21.7875 6.41953 20.9156C6.40781 20.1469 6.39609 19.3523 6.11719 18.6797C5.82656 17.9766 5.26055 17.3906 4.71094 16.8152C4.12617 16.2 3.51562 15.5637 3.51562 15C3.51562 14.4363 4.12617 13.8 4.71563 13.1836C5.26289 12.6141 5.82891 12.0234 6.12188 11.3203C6.40078 10.6477 6.4125 9.85312 6.42422 9.08437C6.43711 8.2125 6.45117 7.31016 6.88125 6.87891C7.31133 6.44766 8.21484 6.43477 9.08672 6.42187C9.85547 6.41016 10.65 6.39844 11.3227 6.11953C12.0258 5.82891 12.6117 5.26289 13.1871 4.71328C13.8 4.12617 14.4363 3.51562 15 3.51562C15.5637 3.51562 16.2 4.12617 16.8164 4.71563C17.3859 5.26289 17.9766 5.82891 18.6797 6.12188C19.3523 6.40078 20.1469 6.4125 20.9156 6.42422C21.7875 6.43711 22.6898 6.45117 23.1211 6.88125C23.5523 7.31133 23.5652 8.21484 23.5781 9.08672C23.5898 9.85547 23.6016 10.65 23.8805 11.3227C24.1711 12.0258 24.7371 12.6117 25.2867 13.1871C25.8727 13.8023 26.4867 14.4387 26.4867 15.0023C26.4867 15.566 25.8738 16.2 25.2844 16.8164ZM16.1719 21.0938C16.1719 21.3255 16.1031 21.5521 15.9744 21.7448C15.8456 21.9375 15.6626 22.0877 15.4485 22.1764C15.2343 22.2651 14.9987 22.2883 14.7714 22.2431C14.5441 22.1979 14.3352 22.0863 14.1714 21.9224C14.0075 21.7585 13.8959 21.5497 13.8506 21.3224C13.8054 21.095 13.8286 20.8594 13.9173 20.6453C14.006 20.4312 14.1562 20.2481 14.3489 20.1194C14.5417 19.9906 14.7682 19.9219 15 19.9219C15.3108 19.9219 15.6089 20.0453 15.8286 20.2651C16.0484 20.4849 16.1719 20.7829 16.1719 21.0938ZM19.4531 12.6562C19.4531 14.6391 17.8254 16.2891 15.7031 16.5914V16.875C15.7031 17.0615 15.629 17.2403 15.4972 17.3722C15.3653 17.504 15.1865 17.5781 15 17.5781C14.8135 17.5781 14.6347 17.504 14.5028 17.3722C14.371 17.2403 14.2969 17.0615 14.2969 16.875V15.9375C14.2969 15.751 14.371 15.5722 14.5028 15.4403C14.6347 15.3085 14.8135 15.2344 15 15.2344C16.6805 15.2344 18.0469 14.0777 18.0469 12.6562C18.0469 11.2348 16.6805 10.0781 15 10.0781C13.3195 10.0781 11.9531 11.2348 11.9531 12.6562V13.125C11.9531 13.3115 11.879 13.4903 11.7472 13.6222C11.6153 13.754 11.4365 13.8281 11.25 13.8281C11.0635 13.8281 10.8847 13.754 10.7528 13.6222C10.621 13.4903 10.5469 13.3115 10.5469 13.125V12.6562C10.5469 10.459 12.5391 8.67188 15 8.67188C17.4609 8.67188 19.4531 10.459 19.4531 12.6562Z" fill="#464646"/>
</svg>
