<svg width="81" height="81" viewBox="0 0 81 81" fill="none" xmlns="http://www.w3.org/2000/svg">
<path d="M71.4635 32.5329C70.2707 31.2862 69.0367 30.0016 68.5716 28.8721C68.1413 27.8374 68.1159 26.1225 68.0906 24.4614C68.0432 21.3732 67.9925 17.8738 65.5594 15.4406C63.1262 13.0075 59.6268 12.9568 56.5386 12.9094C54.8775 12.8841 53.1626 12.8587 52.1279 12.4284C51.0015 11.9633 49.7137 10.7293 48.4671 9.53648C46.2839 7.43871 43.8033 5.0625 40.5 5.0625C37.1967 5.0625 34.7193 7.43871 32.5329 9.53648C31.2862 10.7293 30.0016 11.9633 28.8721 12.4284C27.8438 12.8587 26.1225 12.8841 24.4614 12.9094C21.3732 12.9568 17.8738 13.0075 15.4406 15.4406C13.0075 17.8738 12.9727 21.3732 12.9094 24.4614C12.8841 26.1225 12.8587 27.8374 12.4284 28.8721C11.9633 29.9985 10.7293 31.2862 9.53648 32.5329C7.43871 34.7161 5.0625 37.1967 5.0625 40.5C5.0625 43.8033 7.43871 46.2807 9.53648 48.4671C10.7293 49.7137 11.9633 50.9984 12.4284 52.1279C12.8587 53.1626 12.8841 54.8775 12.9094 56.5386C12.9568 59.6268 13.0075 63.1262 15.4406 65.5594C17.8738 67.9925 21.3732 68.0432 24.4614 68.0906C26.1225 68.1159 27.8374 68.1413 28.8721 68.5716C29.9985 69.0367 31.2862 70.2707 32.5329 71.4635C34.7161 73.5613 37.1967 75.9375 40.5 75.9375C43.8033 75.9375 46.2807 73.5613 48.4671 71.4635C49.7137 70.2707 50.9984 69.0367 52.1279 68.5716C53.1626 68.1413 54.8775 68.1159 56.5386 68.0906C59.6268 68.0432 63.1262 67.9925 65.5594 65.5594C67.9925 63.1262 68.0432 59.6268 68.0906 56.5386C68.1159 54.8775 68.1413 53.1626 68.5716 52.1279C69.0367 51.0015 70.2707 49.7137 71.4635 48.4671C73.5613 46.2839 75.9375 43.8033 75.9375 40.5C75.9375 37.1967 73.5613 34.7193 71.4635 32.5329ZM67.809 44.9645C66.2934 46.5465 64.7241 48.1823 63.8919 50.1915C63.0946 52.1216 63.0598 54.327 63.0281 56.4627C62.9965 58.6775 62.9617 60.9968 61.9777 61.9777C60.9936 62.9585 58.6902 62.9965 56.4627 63.0281C54.327 63.0598 52.1216 63.0946 50.1915 63.8919C48.1823 64.7241 46.5465 66.2934 44.9645 67.809C43.3825 69.3246 41.7656 70.875 40.5 70.875C39.2344 70.875 37.6049 69.3183 36.0355 67.809C34.4661 66.2998 32.8177 64.7241 30.8085 63.8919C28.8784 63.0946 26.673 63.0598 24.5373 63.0281C22.3225 62.9965 20.0032 62.9617 19.0223 61.9777C18.0415 60.9936 18.0035 58.6902 17.9719 56.4627C17.9402 54.327 17.9054 52.1216 17.1081 50.1915C16.2759 48.1823 14.7066 46.5465 13.191 44.9645C11.6754 43.3825 10.125 41.7656 10.125 40.5C10.125 39.2344 11.6817 37.6049 13.191 36.0355C14.7002 34.4661 16.2759 32.8177 17.1081 30.8085C17.9054 28.8784 17.9402 26.673 17.9719 24.5373C18.0035 22.3225 18.0383 20.0032 19.0223 19.0223C20.0064 18.0415 22.3098 18.0035 24.5373 17.9719C26.673 17.9402 28.8784 17.9054 30.8085 17.1081C32.8177 16.2759 34.4535 14.7066 36.0355 13.191C37.6175 11.6754 39.2344 10.125 40.5 10.125C41.7656 10.125 43.3951 11.6817 44.9645 13.191C46.5339 14.7002 48.1823 16.2759 50.1915 17.1081C52.1216 17.9054 54.327 17.9402 56.4627 17.9719C58.6775 18.0035 60.9968 18.0383 61.9777 19.0223C62.9585 20.0064 62.9965 22.3098 63.0281 24.5373C63.0598 26.673 63.0946 28.8784 63.8919 30.8085C64.7241 32.8177 66.2934 34.4535 67.809 36.0355C69.3246 37.6175 70.875 39.2344 70.875 40.5C70.875 41.7656 69.3183 43.3951 67.809 44.9645ZM44.2969 56.9531C44.2969 57.7041 44.0742 58.4382 43.657 59.0626C43.2398 59.6869 42.6468 60.1736 41.953 60.461C41.2592 60.7484 40.4958 60.8235 39.7593 60.677C39.0227 60.5305 38.3462 60.1689 37.8152 59.6379C37.2842 59.1069 36.9226 58.4304 36.7761 57.6939C36.6296 56.9573 36.7048 56.1939 36.9921 55.5001C37.2795 54.8063 37.7662 54.2133 38.3906 53.7961C39.015 53.3789 39.749 53.1562 40.5 53.1562C41.507 53.1562 42.4727 53.5563 43.1848 54.2683C43.8968 54.9804 44.2969 55.9461 44.2969 56.9531ZM53.1562 34.1719C53.1562 39.671 48.8025 44.2747 43.0312 45.3347V45.5625C43.0312 46.2338 42.7646 46.8777 42.2899 47.3524C41.8152 47.8271 41.1713 48.0938 40.5 48.0938C39.8287 48.0938 39.1848 47.8271 38.7101 47.3524C38.2354 46.8777 37.9688 46.2338 37.9688 45.5625V43.0312C37.9688 42.3599 38.2354 41.7161 38.7101 41.2414C39.1848 40.7667 39.8287 40.5 40.5 40.5C44.6861 40.5 48.0938 37.6523 48.0938 34.1719C48.0938 30.6914 44.6861 27.8438 40.5 27.8438C36.3139 27.8438 32.9062 30.6914 32.9062 34.1719V35.4375C32.9062 36.1088 32.6396 36.7527 32.1649 37.2274C31.6902 37.7021 31.0463 37.9688 30.375 37.9688C29.7037 37.9688 29.0598 37.7021 28.5851 37.2274C28.1104 36.7527 27.8438 36.1088 27.8438 35.4375V34.1719C27.8438 27.8912 33.5201 22.7812 40.5 22.7812C47.4799 22.7812 53.1562 27.8912 53.1562 34.1719Z" fill="black"/>
</svg>
