<svg width="20" height="20" viewBox="0 0 20 20" fill="none" xmlns="http://www.w3.org/2000/svg">
<path d="M17.8312 17.1687L13.8172 13.1547C14.9618 11.8383 15.5507 10.1289 15.4596 8.38685C15.3685 6.64477 14.6046 5.00612 13.3288 3.81631C12.0531 2.6265 10.3653 1.97849 8.62108 2.00886C6.87689 2.03924 5.21264 2.74564 3.97912 3.97915C2.74561 5.21267 2.03921 6.87692 2.00883 8.62111C1.97846 10.3653 2.62647 12.0531 3.81628 13.3289C5.00609 14.6046 6.64474 15.3685 8.38681 15.4596C10.1289 15.5507 11.8383 14.9618 13.1547 13.8172L17.1687 17.8312C17.2576 17.914 17.3751 17.9591 17.4965 17.957C17.618 17.9548 17.7338 17.9056 17.8197 17.8198C17.9056 17.7339 17.9548 17.618 17.9569 17.4966C17.9591 17.3751 17.914 17.2576 17.8312 17.1687ZM2.96871 8.74999C2.96871 7.60657 3.30778 6.48882 3.94303 5.5381C4.57828 4.58738 5.48119 3.84638 6.53757 3.40882C7.59396 2.97125 8.75638 2.85676 9.87783 3.07983C10.9993 3.3029 12.0294 3.85351 12.8379 4.66203C13.6464 5.47055 14.1971 6.50068 14.4201 7.62213C14.6432 8.74358 14.5287 9.906 14.0911 10.9624C13.6536 12.0188 12.9126 12.9217 11.9619 13.5569C11.0111 14.1922 9.89339 14.5312 8.74996 14.5312C7.21725 14.5294 5.74785 13.9197 4.66406 12.8359C3.58027 11.7521 2.97057 10.2827 2.96871 8.74999Z" fill="#464646"/>
</svg>
