<svg width="30" height="33" viewBox="0 0 30 33" fill="none" xmlns="http://www.w3.org/2000/svg">
<path d="M27.8286 9.47388C27.749 9.21381 27.5983 8.98444 27.3954 8.81472C27.1924 8.645 26.9464 8.54255 26.6883 8.52031L22.1848 8.11835L20.427 3.78956C20.3249 3.54068 20.1561 3.32875 19.9413 3.17987C19.7265 3.03099 19.4752 2.95166 19.2182 2.95166C18.9612 2.95166 18.7099 3.03099 18.4951 3.17987C18.2803 3.32875 18.1115 3.54068 18.0094 3.78956L16.2516 8.11835L11.7504 8.52031C11.4934 8.54146 11.2481 8.64258 11.0456 8.81088C10.8431 8.97918 10.6924 9.2071 10.6126 9.4658C10.5328 9.72451 10.5275 10.0024 10.5974 10.2643C10.6672 10.5261 10.8091 10.7603 11.0051 10.937L14.4141 14.0092L13.3922 18.5755C13.3337 18.8381 13.3498 19.1131 13.4386 19.3661C13.5274 19.6191 13.6849 19.8388 13.8914 19.9978C14.1002 20.1601 14.3496 20.2537 14.6086 20.2669C14.8675 20.2801 15.1244 20.2123 15.3469 20.072L19.2141 17.6429L23.0871 20.072C23.3097 20.2125 23.5665 20.2804 23.8255 20.2672C24.0845 20.254 24.334 20.1602 24.5426 19.9978C24.7492 19.8389 24.9066 19.6191 24.9952 19.3661C25.0839 19.113 25.0997 18.838 25.0407 18.5755L24.0235 14.0092L27.4313 10.9383C27.6273 10.763 27.7697 10.5304 27.8405 10.2697C27.9112 10.009 27.907 9.73207 27.8286 9.47388ZM23.0637 12.9245C22.8809 13.0878 22.7445 13.3015 22.6699 13.5416C22.5952 13.7818 22.5851 14.0391 22.6407 14.285L23.6239 18.6818L19.8938 16.3418C19.6897 16.2132 19.4565 16.1452 19.2188 16.1452C18.9811 16.1452 18.7478 16.2132 18.5438 16.3418L14.8149 18.6818L15.7969 14.2838C15.8533 14.038 15.8437 13.7806 15.7692 13.5403C15.6947 13.2999 15.5582 13.0863 15.375 12.9233L12.1067 9.9785L16.425 9.59262C16.6625 9.57196 16.8902 9.48345 17.0836 9.3366C17.2771 9.18974 17.429 8.99007 17.5231 8.75901L19.2188 4.58359L20.9157 8.75901C21.0096 8.98998 21.1613 9.1896 21.3545 9.33646C21.5477 9.48332 21.7752 9.57187 22.0125 9.59262L26.3321 9.9785L23.0637 12.9245ZM9.87191 16.0945L3.30941 23.0205C3.17613 23.1516 2.99983 23.223 2.81767 23.2196C2.63552 23.2162 2.46172 23.1383 2.33289 23.0023C2.20407 22.8664 2.13028 22.683 2.12706 22.4907C2.12385 22.2985 2.19146 22.1124 2.31566 21.9717L8.87816 15.0457C9.01145 14.9146 9.18775 14.8432 9.3699 14.8466C9.55206 14.85 9.72586 14.9279 9.85468 15.0638C9.98351 15.1998 10.0573 15.3832 10.0605 15.5755C10.0637 15.7677 9.99611 15.9538 9.87191 16.0945ZM11.7469 21.9717C11.8786 22.1109 11.9525 22.2995 11.9525 22.4961C11.9525 22.6928 11.8786 22.8814 11.7469 23.0205L5.18441 29.9466C5.05113 30.0777 4.87483 30.149 4.69267 30.1456C4.51052 30.1423 4.33672 30.0644 4.20789 29.9284C4.07907 29.7925 4.00528 29.609 4.00206 29.4168C3.99885 29.2245 4.06646 29.0385 4.19066 28.8978L10.7532 21.9717C10.885 21.8328 11.0637 21.7547 11.25 21.7547C11.4364 21.7547 11.6151 21.8328 11.7469 21.9717ZM20.1844 21.9717C20.3161 22.1109 20.39 22.2995 20.39 22.4961C20.39 22.6928 20.3161 22.8814 20.1844 23.0205L13.6219 29.9466C13.4886 30.0777 13.3123 30.149 13.1302 30.1456C12.948 30.1423 12.7742 30.0644 12.6454 29.9284C12.5166 29.7925 12.4428 29.609 12.4396 29.4168C12.4363 29.2245 12.504 29.0385 12.6282 28.8978L19.1907 21.9717C19.256 21.9027 19.3335 21.848 19.4189 21.8107C19.5042 21.7733 19.5957 21.7541 19.6881 21.7541C19.7805 21.7541 19.872 21.7733 19.9574 21.8107C20.0427 21.848 20.1203 21.9027 20.1856 21.9717H20.1844Z" fill="#0F5729"/>
</svg>
