<svg width="30" height="30" viewBox="0 0 30 30" fill="none" xmlns="http://www.w3.org/2000/svg">
<path d="M25.3125 4.92188H4.6875C4.25238 4.92188 3.83508 5.09473 3.5274 5.4024C3.21973 5.71008 3.04688 6.12738 3.04688 6.5625V23.4375C3.04688 23.8726 3.21973 24.2899 3.5274 24.5976C3.83508 24.9053 4.25238 25.0781 4.6875 25.0781H25.3125C25.7476 25.0781 26.1649 24.9053 26.4726 24.5976C26.7803 24.2899 26.9531 23.8726 26.9531 23.4375V6.5625C26.9531 6.12738 26.7803 5.71008 26.4726 5.4024C26.1649 5.09473 25.7476 4.92188 25.3125 4.92188ZM4.6875 6.32812H25.3125C25.3747 6.32812 25.4343 6.35282 25.4782 6.39677C25.5222 6.44073 25.5469 6.50034 25.5469 6.5625V8.67188H4.45312V6.5625C4.45312 6.50034 4.47782 6.44073 4.52177 6.39677C4.56573 6.35282 4.62534 6.32812 4.6875 6.32812ZM25.3125 23.6719H4.6875C4.62534 23.6719 4.56573 23.6472 4.52177 23.6032C4.47782 23.5593 4.45312 23.4997 4.45312 23.4375V10.0781H25.5469V23.4375C25.5469 23.4997 25.5222 23.5593 25.4782 23.6032C25.4343 23.6472 25.3747 23.6719 25.3125 23.6719ZM20.3906 13.125C20.3906 14.5547 19.8227 15.9258 18.8117 16.9367C17.8008 17.9477 16.4297 18.5156 15 18.5156C13.5703 18.5156 12.1992 17.9477 11.1883 16.9367C10.1773 15.9258 9.60938 14.5547 9.60938 13.125C9.60937 12.9385 9.68345 12.7597 9.81532 12.6278C9.94718 12.496 10.126 12.4219 10.3125 12.4219C10.499 12.4219 10.6778 12.496 10.8097 12.6278C10.9415 12.7597 11.0156 12.9385 11.0156 13.125C11.0156 14.1817 11.4354 15.1952 12.1826 15.9424C12.9298 16.6896 13.9433 17.1094 15 17.1094C16.0567 17.1094 17.0702 16.6896 17.8174 15.9424C18.5646 15.1952 18.9844 14.1817 18.9844 13.125C18.9844 12.9385 19.0585 12.7597 19.1903 12.6278C19.3222 12.496 19.501 12.4219 19.6875 12.4219C19.874 12.4219 20.0528 12.496 20.1847 12.6278C20.3165 12.7597 20.3906 12.9385 20.3906 13.125Z" fill="#464646"/>
</svg>
