<svg width="256" height="256" viewBox="0 0 256 256" fill="none" xmlns="http://www.w3.org/2000/svg">
<path d="M112.6 158.43C123.742 152.115 132.48 142.289 137.452 130.486C142.423 118.683 143.348 105.567 140.083 93.1829C136.817 80.7989 129.545 69.8441 119.399 62.0274C109.254 54.2107 96.8072 49.9717 84 49.9717C71.1928 49.9717 58.7457 54.2107 48.6005 62.0274C38.4553 69.8441 31.1827 80.7989 27.9171 93.1829C24.6515 105.567 25.5767 118.683 30.5482 130.486C35.5197 142.289 44.2581 152.115 55.4 158.43C34.7497 165.013 17.0155 178.543 5.21 196.72C4.34009 198.053 4.03522 199.676 4.36248 201.234C4.68973 202.791 5.62228 204.155 6.955 205.025C8.28771 205.895 9.91141 206.2 11.4689 205.873C13.0264 205.545 14.3901 204.613 15.26 203.28C22.7061 191.831 32.8937 182.424 44.898 175.911C56.9022 169.399 70.343 165.988 84 165.988C97.657 165.988 111.098 169.399 123.102 175.911C135.106 182.424 145.294 191.831 152.74 203.28C153.667 204.467 155.006 205.263 156.492 205.509C157.978 205.754 159.502 205.432 160.761 204.606C162.021 203.78 162.923 202.51 163.29 201.049C163.657 199.588 163.46 198.043 162.74 196.72C150.947 178.552 133.232 165.024 112.6 158.43ZM38 108C38 98.902 40.6979 90.0084 45.7524 82.4438C50.8069 74.8791 57.9912 68.9832 66.3966 65.5015C74.802 62.0199 84.051 61.1089 92.9742 62.8839C101.897 64.6588 110.094 69.0399 116.527 75.4731C122.96 81.9063 127.341 90.1027 129.116 99.0258C130.891 107.949 129.98 117.198 126.498 125.603C123.017 134.009 117.121 141.193 109.556 146.248C101.992 151.302 93.0979 154 84 154C71.8049 153.984 60.1139 149.133 51.4906 140.509C42.8674 131.886 38.0159 120.195 38 108ZM249 205C247.668 205.869 246.046 206.174 244.49 205.848C242.934 205.521 241.571 204.591 240.7 203.26C233.267 191.81 223.087 182.403 211.088 175.895C199.088 169.387 185.651 165.985 172 166C170.409 166 168.883 165.368 167.757 164.243C166.632 163.117 166 161.591 166 160C166 158.409 166.632 156.883 167.757 155.757C168.883 154.632 170.409 154 172 154C178.774 153.993 185.463 152.49 191.588 149.599C197.714 146.708 203.126 142.499 207.437 137.274C211.747 132.049 214.851 125.936 216.526 119.373C218.2 112.809 218.405 105.957 217.124 99.3049C215.844 92.6532 213.11 86.3663 209.119 80.8935C205.127 75.4207 199.976 70.897 194.033 67.6455C188.091 64.3941 181.504 62.4953 174.742 62.0846C167.981 61.674 161.212 62.7616 154.92 65.27C154.187 65.57 153.402 65.7221 152.61 65.7173C151.818 65.7125 151.035 65.5511 150.306 65.2422C149.577 64.9333 148.916 64.4832 148.362 63.9177C147.808 63.3522 147.371 62.6826 147.076 61.9475C146.782 61.2123 146.636 60.4262 146.647 59.6344C146.658 58.8426 146.826 58.0608 147.14 57.3341C147.455 56.6073 147.91 55.9501 148.48 55.4002C149.05 54.8502 149.723 54.4185 150.46 54.13C164.108 48.6887 179.313 48.6301 193.003 53.966C206.692 59.3019 217.847 69.6346 224.213 82.8768C230.579 96.119 231.682 111.284 227.299 125.308C222.916 139.332 213.374 151.169 200.6 158.43C221.25 165.013 238.985 178.543 250.79 196.72C251.648 198.056 251.941 199.678 251.606 201.23C251.27 202.782 250.333 204.138 249 205Z" fill="black"/>
</svg>
