<svg width="21" height="20" viewBox="0 0 21 20" fill="none" xmlns="http://www.w3.org/2000/svg">
<path d="M20.3819 18.8008C18.8379 16.1329 16.4141 14.2608 13.5977 13.4669C14.967 12.7708 16.0619 11.6339 16.706 10.2394C17.3501 8.84492 17.5057 7.27416 17.1478 5.78039C16.79 4.28662 15.9394 2.95691 14.7334 2.00568C13.5273 1.05444 12.0361 0.537109 10.5 0.537109C8.96399 0.537109 7.47271 1.05444 6.26666 2.00568C5.06061 2.95691 4.21008 4.28662 3.85221 5.78039C3.49434 7.27416 3.64999 8.84492 4.29406 10.2394C4.93813 11.6339 6.03309 12.7708 7.40237 13.4669C4.58596 14.2598 2.16213 16.1319 0.618189 18.8008C0.575794 18.8675 0.547328 18.9421 0.534502 19.0201C0.521676 19.0981 0.524757 19.1778 0.543558 19.2546C0.562358 19.3313 0.596491 19.4035 0.643903 19.4667C0.691314 19.5299 0.751025 19.5829 0.819442 19.6225C0.887859 19.662 0.963569 19.6873 1.04202 19.6968C1.12046 19.7064 1.20003 19.6999 1.27593 19.6779C1.35182 19.6559 1.42248 19.6188 1.48365 19.5687C1.54482 19.5187 1.59523 19.4568 1.63186 19.3868C3.50784 16.1456 6.82229 14.211 10.5 14.211C14.1778 14.211 17.4922 16.1456 19.3682 19.3868C19.4048 19.4568 19.4552 19.5187 19.5164 19.5687C19.5776 19.6188 19.6482 19.6559 19.7241 19.6779C19.8 19.6999 19.8796 19.7064 19.958 19.6968C20.0365 19.6873 20.1122 19.662 20.1806 19.6225C20.249 19.5829 20.3087 19.5299 20.3561 19.4667C20.4036 19.4035 20.4377 19.3313 20.4565 19.2546C20.4753 19.1778 20.4784 19.0981 20.4655 19.0201C20.4527 18.9421 20.4243 18.8675 20.3819 18.8008ZM4.83596 7.37506C4.83596 6.25482 5.16815 5.15973 5.79053 4.22828C6.4129 3.29683 7.29751 2.57085 8.33248 2.14215C9.36745 1.71345 10.5063 1.60129 11.605 1.81983C12.7037 2.03838 13.713 2.57783 14.5051 3.36997C15.2973 4.1621 15.8367 5.17134 16.0553 6.27006C16.2738 7.36878 16.1616 8.50763 15.7329 9.54261C15.3042 10.5776 14.5783 11.4622 13.6468 12.0846C12.7154 12.7069 11.6203 13.0391 10.5 13.0391C8.99838 13.0373 7.55875 12.44 6.49693 11.3782C5.4351 10.3163 4.83777 8.87671 4.83596 7.37506Z" fill="#464646"/>
</svg>
