<svg width="30" height="30" viewBox="0 0 30 30" fill="none" xmlns="http://www.w3.org/2000/svg">
<path d="M4.6875 5.625C3.14531 5.625 1.875 6.89531 1.875 8.4375V21.5625C1.875 23.1047 3.14531 24.375 4.6875 24.375H25.3125C26.8547 24.375 28.125 23.1047 28.125 21.5625V8.4375C28.125 6.89531 26.8547 5.625 25.3125 5.625H4.6875ZM4.6875 7.5H25.3125C25.8422 7.5 26.25 7.90781 26.25 8.4375V21.5625C26.25 22.0922 25.8422 22.5 25.3125 22.5H4.6875C4.15781 22.5 3.75 22.0922 3.75 21.5625V8.4375C3.75 7.90781 4.15781 7.5 4.6875 7.5ZM18.1931 11.6016C16.3875 11.6016 15.4397 12.4922 15.4397 13.6228C15.4397 15.6694 17.8397 15.3853 17.8397 16.4353C17.8397 16.6163 17.6897 17.0231 16.6959 17.0231C15.7022 17.0231 15.0553 16.6716 15.0553 16.6716L14.7647 18.0216C14.7647 18.0216 15.3787 18.4012 16.6116 18.4012C17.8397 18.4012 19.5684 17.4563 19.5684 16.0856C19.5684 14.4394 17.1656 14.3306 17.1656 13.5966C17.1656 13.2216 17.4844 12.9216 18.3375 12.9216C18.8944 12.9216 19.5094 13.3622 19.5094 13.3622L19.8038 11.9278C19.8038 11.9278 18.9881 11.6044 18.1912 11.6044L18.1931 11.6016ZM10.4887 11.7188L8.90625 16.3481C8.90625 16.3481 8.8275 15.9469 8.78906 15.7031C7.89375 13.6969 6.44531 12.9488 6.44531 12.9488L7.82344 18.1931H9.69844L12.3328 11.7188H10.4906H10.4887ZM13.0078 11.7188L11.9822 18.1931H13.7128L14.7375 11.7188H13.0078ZM22.3247 11.7188L19.5122 18.1931H21.2109L21.5625 17.2856H23.7309L23.9062 18.1931H25.4587L24.1406 11.7188H22.3247ZM4.54031 11.7469C4.54031 11.7469 7.9125 12.7828 8.70094 15.3225L8.11688 12.3928C8.11688 12.3928 7.85906 11.7459 7.17938 11.7459H4.54125L4.54031 11.7469ZM22.9688 13.5938L23.4656 16.0256H22.0594L22.9688 13.5938Z" fill="#464646"/>
</svg>
