<svg width="20" height="20" viewBox="0 0 20 20" fill="none" xmlns="http://www.w3.org/2000/svg">
<path d="M14.5843 11.4555L12.0843 10.2055C12.0105 10.1687 11.9283 10.1522 11.846 10.1574C11.7637 10.1626 11.6842 10.1894 11.6156 10.2352L10.3906 11.0516C9.77043 10.7341 9.26588 10.2295 8.9484 9.60937L9.76559 8.38516C9.81133 8.31654 9.83817 8.23707 9.84338 8.15477C9.84859 8.07247 9.832 7.99025 9.79528 7.91641L8.54528 5.41641C8.50641 5.33819 8.44647 5.27239 8.3722 5.22642C8.29794 5.18045 8.2123 5.15615 8.12496 5.15625C7.3376 5.15625 6.58249 5.46903 6.02574 6.02578C5.46899 6.58253 5.15621 7.33764 5.15621 8.125C5.15828 9.90629 5.86681 11.614 7.12637 12.8736C8.38594 14.1332 10.0937 14.8417 11.875 14.8437C12.6623 14.8437 13.4174 14.531 13.9742 13.9742C14.5309 13.4175 14.8437 12.6624 14.8437 11.875C14.8437 11.7879 14.8195 11.7025 14.7737 11.6284C14.7279 11.5543 14.6623 11.4944 14.5843 11.4555ZM11.875 13.9062C10.3423 13.9044 8.87285 13.2947 7.78906 12.2109C6.70527 11.1271 6.09557 9.65771 6.09371 8.125C6.09376 7.63476 6.2711 7.16108 6.59302 6.79135C6.91494 6.42162 7.35971 6.18078 7.84528 6.11328L8.83434 8.09141L8.02262 9.30859C7.97997 9.37279 7.95381 9.44651 7.94645 9.52323C7.93909 9.59995 7.95076 9.6773 7.98043 9.74844C8.41147 10.7732 9.22672 11.5885 10.2515 12.0195C10.3227 12.0492 10.4 12.0609 10.4767 12.0535C10.5535 12.0462 10.6272 12.02 10.6914 11.9773L11.9086 11.1656L13.8867 12.1547C13.8192 12.6403 13.5783 13.085 13.2086 13.4069C12.8389 13.7289 12.3652 13.9062 11.875 13.9062ZM9.99996 2.03125C8.61855 2.03096 7.26078 2.38979 6.05988 3.07253C4.85897 3.75527 3.85618 4.73847 3.14987 5.92567C2.44357 7.11287 2.05803 8.46329 2.03106 9.84445C2.00409 11.2256 2.33663 12.59 2.99606 13.8039L2.08825 16.5281C2.02398 16.7208 2.01465 16.9276 2.06131 17.1254C2.10797 17.3231 2.20877 17.5039 2.35242 17.6475C2.49607 17.7912 2.67688 17.892 2.8746 17.9387C3.07232 17.9853 3.27912 17.976 3.47184 17.9117L6.19606 17.0039C7.26245 17.5826 8.44691 17.9102 9.65912 17.9616C10.8713 18.013 12.0793 17.787 13.1908 17.3007C14.3024 16.8144 15.2883 16.0806 16.0732 15.1555C16.8582 14.2303 17.4215 13.1381 17.7203 11.9622C18.019 10.7862 18.0453 9.55761 17.7971 8.36996C17.549 7.18232 17.0329 6.06703 16.2882 5.10914C15.5435 4.15124 14.5899 3.37604 13.5002 2.84264C12.4104 2.30924 11.2133 2.03172 9.99996 2.03125ZM9.99996 17.0312C8.76397 17.0315 7.54974 16.706 6.47965 16.0875C6.40831 16.0465 6.32756 16.0247 6.24528 16.0242C6.19484 16.0245 6.14476 16.0327 6.09684 16.0484L3.17575 17.0219C3.14821 17.0311 3.11867 17.0324 3.09043 17.0257C3.06218 17.0191 3.03635 17.0047 3.01583 16.9841C2.99531 16.9636 2.98091 16.9378 2.97424 16.9095C2.96758 16.8813 2.96891 16.8517 2.97809 16.8242L3.95153 13.9062C3.97259 13.8432 3.98 13.7764 3.97326 13.7103C3.96653 13.6441 3.9458 13.5802 3.91246 13.5227C3.13688 12.1829 2.82513 10.6246 3.02558 9.08957C3.22603 7.55454 3.92747 6.12856 5.02108 5.03288C6.11469 3.93719 7.53933 3.23304 9.07398 3.02968C10.6086 2.82632 12.1675 3.13511 13.5087 3.90815C14.85 4.68119 15.8986 5.87525 16.4919 7.3051C17.0853 8.73495 17.1902 10.3206 16.7903 11.8162C16.3904 13.3117 15.5082 14.6335 14.2804 15.5764C13.0527 16.5193 11.548 17.0307 9.99996 17.0312Z" fill="#464646"/>
</svg>
