<svg width="20" height="20" viewBox="0 0 20 20" fill="none" xmlns="http://www.w3.org/2000/svg">
<path d="M12.7602 9.60937L9.01016 7.10938C8.93952 7.06225 8.8574 7.03519 8.77259 7.0311C8.68777 7.02701 8.60343 7.04603 8.52858 7.08614C8.45374 7.12625 8.39119 7.18594 8.34763 7.25884C8.30407 7.33173 8.28112 7.41508 8.28125 7.5V12.5C8.28112 12.5849 8.30407 12.6683 8.34763 12.7412C8.39119 12.8141 8.45374 12.8737 8.52858 12.9139C8.60343 12.954 8.68777 12.973 8.77259 12.9689C8.8574 12.9648 8.93952 12.9378 9.01016 12.8906L12.7602 10.3906C12.8246 10.3479 12.8775 10.2898 12.9141 10.2217C12.9507 10.1535 12.9698 10.0774 12.9698 10C12.9698 9.92265 12.9507 9.8465 12.9141 9.77834C12.8775 9.71018 12.8246 9.65213 12.7602 9.60937ZM9.21875 11.6242V8.37578L11.6547 10L9.21875 11.6242ZM18.1562 5.46875C18.0884 5.20524 17.959 4.96159 17.7786 4.75786C17.5983 4.55413 17.3721 4.39614 17.1187 4.29688C14.4531 3.26484 10.1773 3.28125 10 3.28125C9.82266 3.28125 5.54688 3.26484 2.87812 4.29688C2.62536 4.39654 2.39982 4.55472 2.22001 4.75842C2.04021 4.96213 1.91126 5.20556 1.84375 5.46875C1.64453 6.24141 1.40625 7.65625 1.40625 10C1.40625 12.3437 1.64453 13.7586 1.84375 14.5312C1.91158 14.7948 2.041 15.0384 2.22137 15.2421C2.40174 15.4459 2.6279 15.6039 2.88125 15.7031C5.54688 16.7352 9.82187 16.7187 10 16.7187H10.0555C10.5953 16.7187 14.5867 16.6844 17.1219 15.7031C17.3752 15.6039 17.6014 15.4459 17.7818 15.2421C17.9621 15.0384 18.0915 14.7948 18.1594 14.5312C18.3586 13.7602 18.5969 12.3492 18.5969 10C18.5969 7.65078 18.3594 6.24141 18.1562 5.46875ZM17.2484 14.2969C17.2184 14.417 17.1602 14.5282 17.0787 14.6213C16.9972 14.7145 16.8947 14.787 16.7797 14.8328C14.2797 15.7961 10.0453 15.7812 10 15.7812C9.95469 15.7812 5.72578 15.7969 3.22266 14.8305C3.10765 14.7847 3.00518 14.7122 2.92368 14.619C2.84218 14.5258 2.78399 14.4146 2.75391 14.2945C2.56562 13.5766 2.34375 12.2484 2.34375 10C2.34375 7.75156 2.56563 6.42344 2.75156 5.70313C2.78165 5.58304 2.83984 5.47183 2.92133 5.37865C3.00283 5.28547 3.10531 5.21299 3.22031 5.16719C5.62969 4.23906 9.65078 4.21875 9.98125 4.21875H10C10.0422 4.21875 14.2742 4.20312 16.7773 5.16953C16.8923 5.21534 16.9948 5.28782 17.0763 5.381C17.1578 5.47418 17.216 5.58539 17.2461 5.70547C17.432 6.42344 17.6539 7.75156 17.6539 10.0023C17.6539 12.2531 17.4344 13.5766 17.2484 14.2969Z" fill="#464646"/>
</svg>
